<?xml version="1.0" encoding="UTF-8" standalone="no"?>
<svg
   width="1376"
   height="768"
   viewBox="0 0 1376 768"
   version="1.1"
   id="svg115"
   sodipodi:docname="Background Weevilton.svg"
   inkscape:version="1.4.3 (0d15f75, 2025-12-25)"
   xmlns:inkscape="http://www.inkscape.org/namespaces/inkscape"
   xmlns:sodipodi="http://sodipodi.sourceforge.net/DTD/sodipodi-0.dtd"
   xmlns="http://www.w3.org/2000/svg"
   xmlns:svg="http://www.w3.org/2000/svg">
  <sodipodi:namedview
     id="namedview115"
     pagecolor="#ffffff"
     bordercolor="#000000"
     borderopacity="0.25"
     inkscape:showpageshadow="2"
     inkscape:pageopacity="0.0"
     inkscape:pagecheckerboard="0"
     inkscape:deskcolor="#d1d1d1"
     inkscape:zoom="0.95930233"
     inkscape:cx="688"
     inkscape:cy="384.13333"
     inkscape:window-width="1920"
     inkscape:window-height="1017"
     inkscape:window-x="-8"
     inkscape:window-y="-8"
     inkscape:window-maximized="1"
     inkscape:current-layer="svg115" />
  <path
     fill="#1D2B38"
     d="M0 0L121.689 0L566.847 0L1376 0L1376 202.617L1376 236.316L1376 408.714L1376 481.153L1376 502.04L1376 580.936L1376 670.554L1376 687.24L1376 768L1281.38 768L1236.63 768L1216.91 768L1170.4 768L1037.17 768L327.505 768L101.495 768L0 768L0 686.755L0 600.152L0 524.269L0 467.033L0 340.737L0 316.017L0 0Z"
     id="path1"
     style="fill:#1d2b38;fill-opacity:1" />
  <defs
     id="defs2">
    <linearGradient
       id="gradient_0"
       gradientUnits="userSpaceOnUse"
       x1="677.36713"
       y1="567.25867"
       x2="674.14807"
       y2="744.52344">
      <stop
         offset="0"
         stop-color="#1D687C"
         id="stop1" />
      <stop
         offset="1"
         stop-color="#217A83"
         id="stop2" />
    </linearGradient>
  </defs>
  <path
     fill="url(#gradient_0)"
     d="M706.211 567.103C720.615 567.946 735.3 567.853 749.81 568.365C776.754 569.303 803.681 570.654 830.584 572.417C846.006 573.371 861.41 574.591 876.79 576.075C882.013 576.579 897.873 578.542 902.009 578.503C934.04 582.074 965.472 586.392 997.352 591.202C1001.85 591.88 1023.4 596.83 1025.42 596.038L1026.17 594.526L1026.83 596.194C1023.11 600.993 1022.36 604.982 1020.75 610.75C1024.97 611.537 1028.5 613.234 1032.57 614.64C1039.82 617.147 1045.39 617.921 1052.95 618.515C1063.46 619.502 1071.55 619.647 1082.1 619.564C1079.66 622.194 1078.06 623.894 1075.97 626.874C1075.52 628.507 1074.94 629.951 1075.13 631.603L1074.35 633.537C1077.03 639.52 1086.77 638.324 1092.58 639.484C1089.01 642.062 1083.56 645.787 1080.43 648.573C1067.25 660.397 1055.57 673.962 1048.29 690.266C1047.48 692.087 1046.43 694.761 1045.45 696.426C1042.55 704.909 1039.1 714.443 1039.36 723.513C1038.75 729.736 1037.5 736.688 1040.23 742.305C1038.46 743.513 1032.74 747.232 1031.56 748.54C1032.18 751.238 1032.71 753.824 1033.93 756.322C1035.3 759.107 1040.1 763.592 1040.45 766.223C1039.06 767.27 1038.81 767.34 1037.17 768L327.505 768C323.718 766.427 302.936 762.011 297.302 760.463C271.61 753.401 249.331 746.944 225.126 735.748C220.627 726.191 216.593 716.319 204.22 715.388C184.828 713.928 174.059 694.305 183.024 677.064C201.413 681.338 221.336 681.374 240.063 679.626C252.037 678.508 276.396 676.828 282.792 665.119C285.436 658.337 282.439 652.477 279.481 646.41C298.125 646.848 329.398 647.234 347.653 642.976C359.272 640.132 373.42 638.405 380.424 628.624C379.987 620.356 378.762 617.143 374.085 610.77C372.482 604.659 366.615 597.662 362.68 592.435C366.438 591.511 370.524 590.714 374.331 589.897C376.912 590.114 394.879 587.028 397.727 586.219C398.813 584.501 407.058 576.314 408.859 574.468C413.393 577.494 415.18 578.249 416.834 583.382C422.134 583.068 426.813 582.282 432.054 581.463C440.308 579.597 452.909 578.583 461.436 577.77C475.331 576.381 489.241 575.155 503.165 574.092C570.715 568.841 638.46 566.509 706.211 567.103Z"
     id="path2" />
  <path
     fill="#04556D"
     d="M347.653 642.976C359.272 640.132 373.42 638.405 380.424 628.624C380.685 632.968 380.099 635.753 377.14 639.064C362.57 655.366 311.904 653.645 301.744 663.195C296.038 668.558 294.089 676.917 291.795 684.138C283.685 682.003 274.41 682.243 266.516 685.157L265.966 685.826L266.234 686.269C283.287 684.299 306.919 685.408 314.202 704.519C344.33 716.803 384.933 723.642 417.237 727.16C427.866 728.317 442.07 727.287 452.36 728.664C478.792 732.2 504.025 736.557 530.68 738.989C624.905 747.619 719.711 747.853 813.978 739.69C849.067 736.691 891.179 732.188 925.458 724.032C925.18 742.635 952.217 741.578 961.263 746.093C969.974 750.442 1031.34 748.41 1031.56 748.54C1032.18 751.238 1032.71 753.824 1033.93 756.322C1035.3 759.107 1040.1 763.592 1040.45 766.223C1039.06 767.27 1038.81 767.34 1037.17 768L327.505 768C323.718 766.427 302.936 762.011 297.302 760.463C271.61 753.401 249.331 746.944 225.126 735.748C220.627 726.191 216.593 716.319 204.22 715.388C184.828 713.928 174.059 694.305 183.024 677.064C201.413 681.338 221.336 681.374 240.063 679.626C252.037 678.508 276.396 676.828 282.792 665.119C285.436 658.337 282.439 652.477 279.481 646.41C298.125 646.848 329.398 647.234 347.653 642.976Z"
     id="path3" />
  <path
     fill="#053C57"
     d="M266.234 686.269C283.287 684.299 306.919 685.408 314.202 704.519L313.731 707.501C313.563 707.183 312.739 705.875 312.325 706.023C289.669 714.098 269.236 713.032 247.179 703.212C251.569 693.703 255.482 689.022 266.234 686.269Z"
     id="path4" />
  <path
     fill="#0B3C56"
     d="M247.179 703.212C269.236 713.032 289.669 714.098 312.325 706.023C312.739 705.875 313.563 707.183 313.731 707.501C305.406 720.925 271.846 719.452 258.492 715.69C252.008 713.863 244.368 711.142 247.179 703.212Z"
     id="path5" />
  <path
     fill="#0B3C56"
     d="M925.458 724.032C926.231 719.884 927.806 715.992 930.492 712.698C955.255 682.342 1007.31 675.109 1038.95 698.109L1045.45 696.426C1042.55 704.909 1039.1 714.443 1039.36 723.513C1038.75 729.736 1037.5 736.688 1040.23 742.305C1038.46 743.513 1032.74 747.232 1031.56 748.54C1031.34 748.41 969.974 750.442 961.263 746.093C952.217 741.578 925.18 742.635 925.458 724.032Z"
     id="path6" />
  <path
     fill="#053C57"
     d="M1020.75 610.75C1024.97 611.537 1028.5 613.234 1032.57 614.64C1039.82 617.147 1045.39 617.921 1052.95 618.515C1063.46 619.502 1071.55 619.647 1082.1 619.564C1079.66 622.194 1078.06 623.894 1075.97 626.874C1071.87 627.015 1065.73 626.567 1061.41 626.452C1050.91 625.312 1024.98 621.809 1020.75 610.75Z"
     id="path7" />
  <path
     fill="#04556D"
     d="M1061.41 626.452C1065.73 626.567 1071.87 627.015 1075.97 626.874C1075.52 628.507 1074.94 629.951 1075.13 631.603L1074.35 633.537C1077.03 639.52 1086.77 638.324 1092.58 639.484C1089.01 642.062 1083.56 645.787 1080.43 648.573C1078.61 647.087 1071.38 643.22 1068.98 641.902C1069.55 639.907 1070.75 636.911 1071.49 634.875C1067.3 632.28 1064.51 630.294 1061.41 626.452Z"
     id="path8" />
  <path
     fill="#0B3C56"
     d="M408.859 574.468C413.393 577.494 415.18 578.249 416.834 583.382C410.832 584.24 403.59 585.088 397.727 586.219C398.813 584.501 407.058 576.314 408.859 574.468Z"
     id="path9" />
  <path
     fill="#388E93"
     d="M437.736 616.429C446.742 615.821 473.707 617.609 477.439 627.264C476.679 636.769 452.414 637.02 445.285 637.13C436.777 637.182 408.778 637.835 405.011 628.302C405.846 618.793 430.324 616.964 437.736 616.429Z"
     id="path10" />
  <path
     fill="#388E93"
     d="M996.967 651.167C989.033 651.111 968.047 652.117 962.954 643.982C959.185 637.962 972.044 634.257 975.661 632.825C986.057 628.71 1022.26 629.361 1025.6 641.691C1025.27 644.164 1025.72 643.31 1024.01 644.96C1018.76 648.01 1002.79 652.374 996.967 651.167Z"
     id="path11" />
  <path
     fill="#2B7585"
     d="M996.967 651.167C1005.37 645.835 1014.42 645.205 1024.01 644.96C1018.76 648.01 1002.79 652.374 996.967 651.167Z"
     id="path12" />
  <path
     fill="#388E93"
     d="M901.714 642.58C909 641.954 928.453 641.6 930.506 650.399C928.962 655.112 920.132 655.568 915.943 656.15C907.814 656.889 892.356 657.514 886.951 650.517C886.079 644.41 897.181 643.32 901.714 642.58Z"
     id="path13" />
  <path
     fill="#04556D"
     d="M372.05 689.625C378.768 689.012 395.554 688.838 396.451 697.949C394.567 701.606 388.234 701.814 384.474 702.068C376.804 703.047 363.241 703.577 357.941 696.842C357.086 691.229 367.847 690.158 372.05 689.625Z"
     id="path14" />
  <path
     fill="#388E93"
     d="M390.483 659.282C394.98 659.07 416.937 658.868 414.091 667.197C412.095 669.007 407.283 670.008 404.628 670.453C399.844 671.098 378.199 671.506 379.895 663.819C382.384 661.055 386.971 660.087 390.483 659.282Z"
     id="path15" />
  <path
     fill="#04556D"
     d="M414.516 698.232C420.821 697.657 434.302 697.665 437.784 703.648L437.25 705.272C435.547 707.087 432.674 707.692 430.213 708.47C424.343 709.051 407.799 709.141 406.022 702.405C407.789 699.251 411.193 699.016 414.516 698.232Z"
     id="path16" />
  <path
     fill="#04556D"
     d="M881.586 698.294C886.379 698.039 901.323 698.036 902.095 704.572C900.265 707.046 895.726 707.695 892.779 708.336C888.666 708.915 869.87 709.222 871.45 702.181C874.202 699.496 877.915 698.963 881.586 698.294Z"
     id="path17" />
  <path
     fill="#388E93"
     d="M951.487 653.921C954.812 653.637 969.127 653.35 968.375 658.798C966.736 660.557 964.965 660.914 962.675 661.671C958.813 661.842 946.211 662.291 945.819 657.207C947.063 655.318 949.339 654.747 951.487 653.921Z"
     id="path18" />
  <path
     fill="#388E93"
     d="M421.064 671.446C425.418 671.24 438.115 670.613 439.308 675.966C438.116 677.621 437.186 677.734 435.248 678.444C431.084 679.195 417.568 679.886 416.629 674.556C417.702 672.718 419.082 672.371 421.064 671.446Z"
     id="path19" />
  <defs
     id="defs20">
    <linearGradient
       id="gradient_1"
       gradientUnits="userSpaceOnUse"
       x1="71.307495"
       y1="130.4812"
       x2="573.35114"
       y2="-24.052887">
      <stop
         offset="0"
         stop-color="#013C5B"
         id="stop19" />
      <stop
         offset="1"
         stop-color="#005C7F"
         id="stop20" />
    </linearGradient>
  </defs>
  <path
     fill="url(#gradient_1)"
     d="M0 0L121.689 0L566.847 0C578.646 13.6914 600.031 40.2404 598.649 59.6482C600.622 84.411 590.189 98.7978 566.928 106.374C529.756 118.481 490.232 122.764 451.578 127.856C432.058 130.427 410.656 134.201 391.237 135.784C380.151 137.755 368.989 139.406 357.886 141.257C311.925 148.916 267.951 161.445 223.848 176.172C191.623 186.932 159.959 201.872 127.586 211.312C125.892 214.058 120.926 223.327 119.362 225.003C96.7119 268.378 82.938 305.173 76.444 354.158C75.2026 363.522 73.0255 378.949 73.2503 388.253C71.3556 388.085 70.9104 387.474 69.3959 386.229C65.9478 383.385 53.7348 374.506 51.7841 372.12L52.5785 371.548C50.0799 369.523 47.7882 367.888 45.1569 366.034C41.6589 363.566 38.7649 361.81 35.1098 359.644C32.6636 356.25 5.41689 343.299 0 340.737L0 316.017L0 0Z"
     id="path20" />
  <path
     fill="#1D2B38"
     d="M0 0L121.689 0C89.8285 38.5392 69.4898 83.6645 74.2679 134.647C75.7315 151.418 80.9929 167.636 89.6535 182.073C91.8759 185.829 97.7882 194.801 99.3719 198.144C96.3113 208.482 86.2312 231.315 84.7697 238.61C80.2926 252.589 75.5614 266.476 71.4674 280.573C70.8964 282.539 70.2991 284.472 69.5151 286.367C66.6764 294.674 63.9504 307.535 61.8992 316.364C59.3613 327.322 57.2977 338.384 55.7141 349.52C54.9401 354.907 53.6905 366.922 52.5785 371.548C50.0799 369.523 47.7882 367.888 45.1569 366.034C41.6589 363.566 38.7649 361.81 35.1098 359.644C32.6636 356.25 5.41689 343.299 0 340.737L0 316.017L0 0Z"
     id="path21" />
  <path
     fill="#053C57"
     d="M69.5151 286.367C50.2628 275.897 25.0842 245.386 29.914 222.495C32.6208 209.666 41.6405 205.579 53.7593 208.121C68.7101 211.257 77.063 226.971 84.7697 238.61C80.2926 252.589 75.5614 266.476 71.4674 280.573C70.8964 282.539 70.2991 284.472 69.5151 286.367Z"
     id="path22" />
  <path
     fill="#0A2538"
     d="M0 316.017C27.3001 305.959 34.673 309.071 61.8992 316.364C59.3613 327.322 57.2977 338.384 55.7141 349.52C54.9401 354.907 53.6905 366.922 52.5785 371.548C50.0799 369.523 47.7882 367.888 45.1569 366.034C41.6589 363.566 38.7649 361.81 35.1098 359.644C32.6636 356.25 5.41689 343.299 0 340.737L0 316.017Z"
     id="path23" />
  <defs
     id="defs24">
    <linearGradient
       id="gradient_2"
       gradientUnits="userSpaceOnUse"
       x1="28.791651"
       y1="248.79221"
       x2="373.45685"
       y2="180.9771">
      <stop
         offset="0"
         stop-color="#034D6B"
         id="stop23" />
      <stop
         offset="1"
         stop-color="#36848A"
         id="stop24" />
    </linearGradient>
  </defs>
  <path
     fill="#0B6B7F"
     d="M69.3959 386.229C70.7346 376.032 71.0546 365.112 72.6525 354.825C78.4396 317.567 87.1077 280.37 103.787 246.343C105.644 242.554 115.142 224.737 118.475 223.625L119.362 225.003C96.7119 268.378 82.938 305.173 76.444 354.158C75.2026 363.522 73.0255 378.949 73.2503 388.253C71.3556 388.085 70.9104 387.474 69.3959 386.229Z"
     id="path25" />
  <path
     id="path24"
     style="fill:url(#gradient_2)"
     d="m 384.38867,40.101562 c -8.732,0.277301 -19.85347,0.901435 -28.35547,2.490235 -8.256,0.1958 -24.77393,4.145865 -33.21093,6.447265 -51.268,14.0972 -58.06866,12.815454 -133.13337,48.35868 -37.50515,21.134368 -60.66856,39.014428 -76.00629,70.575108 -14.327334,31.5539 -13.21524,31.1901 -28.913079,70.63653 -4.4771,13.97899 -9.208734,27.86589 -13.302734,41.96289 -0.571,1.966 -1.167172,3.89992 -1.951172,5.79492 -2.8387,8.307 -5.565987,21.16709 -7.617187,29.99609 -2.537901,10.958 -4.599994,22.02025 -6.183594,33.15625 -0.774,5.387 -2.024719,17.4033 -3.136719,22.0293 l -0.794922,0.57031 c 1.9507,2.386 14.165181,11.26538 17.613281,14.10938 1.5145,1.245 1.958816,1.85739 3.853516,2.02539 -0.2248,-9.304 1.951959,-24.73171 3.193359,-34.09571 6.494,-48.985 20.267869,-85.77929 42.917971,-129.15429 1.564,-1.676 5.48819,-5.73329 7.18219,-8.47929 32.373,-9.44 65.07914,-29.59275 97.30414,-40.35274 44.103,-14.727 88.07806,-27.25507 134.03906,-34.91407 11.103,-1.851 22.26361,-3.50361 33.34961,-5.47461 19.419,-1.583 40.8218,-5.35673 60.34179,-7.92773 38.65401,-5.092 78.17761,-9.37542 115.34961,-21.48242 23.261,-7.576203 33.69371,-21.961813 31.72071,-46.724612 -0.471,2.100999 -0.87097,4.205706 -1.29297,6.316406 -9.405,47.057696 -63.36536,11.404262 -87.81836,0.101562 -39.101,-18.3557 -81.97244,-27.250943 -125.14844,-25.964844 z"
     sodipodi:nodetypes="ccccccscccccccsccccccscccc" />
  <path
     fill="#0B3C56"
     d="M0 340.737C5.41689 343.299 32.6636 356.25 35.1098 359.644C38.7649 361.81 41.6589 363.566 45.1569 366.034C47.7882 367.888 50.0799 369.523 52.5785 371.548L51.7841 372.12C53.7348 374.506 65.9478 383.385 69.3959 386.229C70.9104 387.474 71.3556 388.085 73.2503 388.253C75.0013 388.968 75.1507 388.956 76.1818 390.453C78.8455 393.832 90.5814 406.034 94.0594 408.262C98.2244 411.837 105.276 420.791 108.859 425.369C132.027 454.955 150.446 487.969 163.454 523.224C163.089 524.637 165.845 532.205 166.553 534.864L176.686 573.112C177.326 575.51 180.25 587.013 181.08 588.69C184.527 602.738 186.716 616.24 189.864 629.574C196.762 626.279 204.993 622.181 212.789 622.047C223.4 623.549 246.046 628.74 245.944 642.276L245.944 642.918L251.214 645.891C259.15 652.198 262.681 659.222 265.89 668.561L266.254 668.962C269.954 670.443 277.176 665.253 281.76 664.095L282.792 665.119C276.396 676.828 252.037 678.508 240.063 679.626C221.336 681.374 201.413 681.338 183.024 677.064C174.059 694.305 184.828 713.928 204.22 715.388C216.593 716.319 220.627 726.191 225.126 735.748C249.331 746.944 271.61 753.401 297.302 760.463C302.936 762.011 323.718 766.427 327.505 768L101.495 768L0 768L0 686.755L0 600.152L0 524.269L0 467.033L0 340.737Z"
     id="path27" />
  <path
     fill="#053C57"
     d="M0 524.269C61.8058 537.692 127.157 589.108 160.279 641.93C161.846 644.431 164.343 648.713 166.025 650.88C156.067 656.718 130.71 670.472 136.253 684.977C134.905 687.832 133.982 690.649 133.506 693.788C133.563 697.953 123.953 707.679 120.824 712.48C119.808 710.03 117.755 698.131 116.809 694.151C114.421 692.231 115.343 692.423 112.595 692.252C105.899 695.226 104.019 708.066 100.508 714.369C96.9903 711.323 93.1332 708.456 92.5152 703.61C92.0684 705.606 92.436 705.559 91.1994 706.561C88.8418 706.31 86.2387 703.539 84.2933 701.84C85.1164 693.472 86.6928 686.902 88.4903 678.699C85.0402 671.955 86.2998 660.536 79.3682 655.43C73.9262 654.476 71.2513 660.05 69.2219 664.362C69.4431 670.216 70.6597 681.902 65.9913 686.269C66.6018 687.76 66.5761 687.821 66.3433 689.454L65.1931 689.962C61.6863 689.492 59.1452 688.143 56.9559 685.383C54.7852 686.285 49.0825 684.792 46.6069 684.208C36.8003 681.892 28.7504 681.315 18.7806 682.479C11.7842 683.757 6.86535 684.679 0 686.755L0 600.152L0 524.269Z"
     id="path28" />
  <path
     fill="#0A2538"
     d="M0 600.152C12.2832 602.274 25.7996 606.579 37.9955 609.825C38.5601 615.824 39.3051 620.8 43.4366 625.651C44.9337 627.083 45.9959 628.242 47.7958 629.298C51.3838 629.486 52.7832 629.508 56.3261 629.081C56.6879 640.027 57.9684 651.666 59.2869 662.558C61.0088 670.598 63.2483 678.518 65.9913 686.269C66.6018 687.76 66.5761 687.821 66.3433 689.454L65.1931 689.962C61.6863 689.492 59.1452 688.143 56.9559 685.383C54.7852 686.285 49.0825 684.792 46.6069 684.208C36.8003 681.892 28.7504 681.315 18.7806 682.479C11.7842 683.757 6.86535 684.679 0 686.755L0 600.152Z"
     id="path29" />
  <path
     fill="#2B7585"
     d="M47.7958 629.298C51.3838 629.486 52.7832 629.508 56.3261 629.081C56.6879 640.027 57.9684 651.666 59.2869 662.558C56.0921 660.312 53.1624 657.912 50.1233 655.47C47.7918 647.373 47.7082 637.635 47.7958 629.298Z"
     id="path30" />
  <path
     fill="#0B6B7F"
     d="M50.1233 655.47C53.1624 657.912 56.0921 660.312 59.2869 662.558C61.0088 670.598 63.2483 678.518 65.9913 686.269C66.6018 687.76 66.5761 687.821 66.3433 689.454L65.1931 689.962C61.6863 689.492 59.1452 688.143 56.9559 685.383C53.6065 677.385 51.2248 664.096 50.1233 655.47Z"
     id="path31" />
  <path
     fill="#0A2538"
     d="M108.178 659.024C112.115 656.992 113.386 656.227 116.84 653.473C119.086 658.733 129.863 669.524 134.367 673.35C130.13 677.34 126.891 678.466 123.214 682.318C121.193 684.435 118.294 692.548 116.809 694.151C114.421 692.231 115.343 692.423 112.595 692.252C105.899 695.226 104.019 708.066 100.508 714.369C96.9903 711.323 93.1332 708.456 92.5152 703.61C92.0684 705.606 92.436 705.559 91.1994 706.561C88.8418 706.31 86.2387 703.539 84.2933 701.84C85.1164 693.472 86.6928 686.902 88.4903 678.699C90.4345 672.04 94.7867 661.577 97.8837 655.121C99.384 658.133 102.396 659.106 105.549 659.415L108.178 659.024Z"
     id="path32" />
  <path
     fill="#0B6B7F"
     d="M97.8837 655.121C99.384 658.133 102.396 659.106 105.549 659.415C97.8356 674.63 93.2613 686.654 92.5152 703.61C92.0684 705.606 92.436 705.559 91.1994 706.561C88.8418 706.31 86.2387 703.539 84.2933 701.84C85.1164 693.472 86.6928 686.902 88.4903 678.699C90.4345 672.04 94.7867 661.577 97.8837 655.121Z"
     id="path33" />
  <path
     fill="#0A2538"
     d="M64.5566 619.188C74.0288 624.855 82.7821 630.158 91.0217 637.579C92.6107 639.01 94.7144 641.149 96.7067 641.662C96.0995 645.879 96.1046 648.244 97.1119 652.453L97.8837 655.121C94.7867 661.577 90.4345 672.04 88.4903 678.699C85.0402 671.955 86.2998 660.536 79.3682 655.43C73.9262 654.476 71.2513 660.05 69.2219 664.362C69.4431 670.216 70.6597 681.902 65.9913 686.269C63.2483 678.518 61.0088 670.598 59.2869 662.558C57.9684 651.666 56.6879 640.027 56.3261 629.081L58.696 627.541C61.7016 624.281 62.4283 622.943 64.5566 619.188Z"
     id="path34" />
  <path
     fill="#BF9148"
     d="M37.9955 609.825C38.732 600.467 44.7025 589.962 55.6078 593.568L54.9136 594.399C56.8604 597.277 59.967 599.871 61.4546 602.376C62.9735 604.934 63.7989 611.56 65.7081 614.125C65.3945 615.556 64.9682 617.865 64.5566 619.188C62.4283 622.943 61.7016 624.281 58.696 627.541L56.3261 629.081C52.7832 629.508 51.3838 629.486 47.7958 629.298C45.9959 628.242 44.9337 627.083 43.4366 625.651C39.3051 620.8 38.5601 615.824 37.9955 609.825Z"
     id="path35" />
  <defs
     id="defs36">
    <linearGradient
       id="gradient_3"
       gradientUnits="userSpaceOnUse"
       x1="52.289013"
       y1="615.55365"
       x2="50.54295"
       y2="627.87677">
      <stop
         offset="0"
         stop-color="#7B9181"
         id="stop35" />
      <stop
         offset="1"
         stop-color="#608E8A"
         id="stop36" />
    </linearGradient>
  </defs>
  <path
     fill="url(#gradient_3)"
     d="M43.4366 625.651C45.1129 620.583 46.8548 613.531 54.005 614.896C58.3583 617.89 58.7282 622.74 58.696 627.541L56.3261 629.081C52.7832 629.508 51.3838 629.486 47.7958 629.298C45.9959 628.242 44.9337 627.083 43.4366 625.651Z"
     id="path36" />
  <path
     fill="#BF9148"
     d="M96.7067 641.662C99.8241 632.884 106.037 625.875 115.78 630.403C115.982 633.598 119.633 641.205 120.713 647.832C119.462 649.738 118.245 651.681 116.84 653.473C113.386 656.227 112.115 656.992 108.178 659.024L105.549 659.415C102.396 659.106 99.384 658.133 97.8837 655.121L97.1119 652.453C96.1046 648.244 96.0995 645.879 96.7067 641.662Z"
     id="path37" />
  <path
     fill="#388E93"
     d="M97.1119 652.453C98.491 650.059 98.773 649.191 101.268 647.997C108.013 647.633 108.489 653.939 108.178 659.024L105.549 659.415C102.396 659.106 99.384 658.133 97.8837 655.121L97.1119 652.453Z"
     id="path38" />
  <path
     fill="#DBA74C"
     d="M55.6078 593.568C65.2991 597.471 67.4096 604.227 65.7081 614.125C63.7989 611.56 62.9735 604.934 61.4546 602.376C59.967 599.871 56.8604 597.277 54.9136 594.399L55.6078 593.568Z"
     id="path39" />
  <path
     fill="#DBA74C"
     d="M115.78 630.403C122.89 634.922 124.026 640.126 120.713 647.832C119.633 641.205 115.982 633.598 115.78 630.403Z"
     id="path40" />
  <path
     fill="#04556D"
     d="M0 467.033C30.5272 480.115 55.5549 493.054 81.2809 514.894C119.282 547.155 144.301 588.776 162.246 634.816C163.499 638.033 167.722 647.982 166.025 650.88C164.343 648.713 161.846 644.431 160.279 641.93C127.157 589.108 61.8058 537.692 0 524.269L0 467.033Z"
     id="path41" />
  <path
     fill="#053C57"
     d="M0 686.755C6.86535 684.679 11.7842 683.757 18.7806 682.479C7.39428 706.519 29.254 705.145 45.0311 711.975C54.9351 716.262 66.6872 723.582 75.4502 729.938C83.1534 738.341 96.6598 757.987 101.495 768L0 768L0 686.755Z"
     id="path42" />
  <path
     fill="#053C57"
     d="M265.89 668.561C262.944 673.538 210.557 675.416 205.486 669.307C204.665 667.339 204.337 665.152 205.216 663.148C211.806 648.134 229.992 637.857 245.944 642.918L251.214 645.891C259.15 652.198 262.681 659.222 265.89 668.561Z"
     id="path43" />
  <path
     fill="#BF9148"
     d="M136.253 684.977C143.306 678.034 154.265 674.538 155.544 689.386C156.1 695.843 148.237 699.885 142.302 701.367L139.388 701.653C139.067 701.475 138.748 701.292 138.431 701.105C135.516 699.375 134.479 698.283 133.639 694.937L133.506 693.788C133.982 690.649 134.905 687.832 136.253 684.977Z"
     id="path44" />
  <path
     fill="#388E93"
     d="M133.639 694.937C135.746 693.543 137.261 692.24 139.769 692.142C143.655 694.295 141.526 698.16 142.302 701.367L139.388 701.653C139.067 701.475 138.748 701.292 138.431 701.105C135.516 699.375 134.479 698.283 133.639 694.937Z"
     id="path45" />
  <path
     fill="#0B6B7F"
     d="M120.824 712.48C123.953 707.679 133.563 697.953 133.506 693.788L133.639 694.937C134.479 698.283 135.516 699.375 138.431 701.105C138.748 701.292 139.067 701.475 139.388 701.653C128.303 711.721 121.604 723.679 116.717 737.777C115.318 735.297 113.784 732.687 112.485 730.173C114.465 725.429 118.055 716.382 120.824 712.48Z"
     id="path46" />
  <path
     fill="#053C57"
     d="M35.1098 359.644C38.7649 361.81 41.6589 363.566 45.1569 366.034C44.2685 366.429 43.9367 366.448 43.0021 366.657C39.6248 365.198 35.7109 363.437 35.1098 359.644Z"
     id="path47" />
  <path
     fill="#0B3C56"
     d="M1331.86 468.528C1353.88 466.993 1357.51 469.559 1376 481.153L1376 502.04L1376 580.936L1376 670.554L1376 687.24L1376 768L1281.38 768L1236.63 768L1216.91 768L1170.4 768L1037.17 768C1038.81 767.34 1039.06 767.27 1040.45 766.223C1040.1 763.592 1035.3 759.107 1033.93 756.322C1032.71 753.824 1032.18 751.238 1031.56 748.54C1032.74 747.232 1038.46 743.513 1040.23 742.305C1037.5 736.688 1038.75 729.736 1039.36 723.513C1039.1 714.443 1042.55 704.909 1045.45 696.426C1046.43 694.761 1047.48 692.087 1048.29 690.266C1055.57 673.962 1067.25 660.397 1080.43 648.573C1083.56 645.787 1089.01 642.062 1092.58 639.484L1095.79 637.833C1113.95 627.784 1126.36 625.18 1146.28 622.185L1150.26 622.168L1163.79 622.138C1167.96 622.928 1180.98 625.617 1184.43 624.946C1185.55 617.732 1191.06 602.503 1193.85 595.446C1210.62 552.919 1232.9 517.909 1269.33 489.668C1270.64 488.868 1271.97 487.854 1273.22 486.953C1278.66 483.215 1285.6 479.785 1291.4 476.146C1296.38 473.761 1299.93 472.327 1305.19 470.811C1312.44 470.642 1325.75 468.175 1331.86 468.528Z"
     id="path48" />
  <path
     fill="#1D2B38"
     d="M1150.26 622.168L1163.79 622.138C1167.96 622.928 1180.98 625.617 1184.43 624.946L1185.28 625.816C1191.86 627.62 1193.91 628.359 1200.12 630.714C1211.91 636.131 1223.14 642.666 1232.24 652.087C1246.11 666.647 1251.09 676.579 1258.77 694.852C1262.32 706.542 1263.34 711.603 1264.89 723.688C1259.12 729.828 1255.52 734.844 1250.59 741.739C1245.7 750.366 1241.04 759.123 1236.63 768L1216.91 768L1170.4 768L1037.17 768C1038.81 767.34 1039.06 767.27 1040.45 766.223C1040.1 763.592 1035.3 759.107 1033.93 756.322C1032.71 753.824 1032.18 751.238 1031.56 748.54C1032.74 747.232 1038.46 743.513 1040.23 742.305C1037.5 736.688 1038.75 729.736 1039.36 723.513C1039.1 714.443 1042.55 704.909 1045.45 696.426C1046.43 694.761 1047.48 692.087 1048.29 690.266C1055.57 673.962 1067.25 660.397 1080.43 648.573C1083.56 645.787 1089.01 642.062 1092.58 639.484L1095.79 637.833C1113.95 627.784 1126.36 625.18 1146.28 622.185L1150.26 622.168Z"
     id="path49" />
  <path
     fill="#0B3C56"
     d="M1190.21 679.624C1200.19 673.352 1211.36 684.332 1215.95 692.512C1222.54 704.245 1225.37 719.82 1224.52 733.187C1222.91 744.183 1220.82 757.825 1216.91 768L1170.4 768C1165.59 765.139 1160.74 762.335 1155.86 759.59C1149.99 754.392 1143.76 747.6 1142.71 739.567C1141.72 731.972 1150.12 728.692 1156.26 728.696C1169.99 728.704 1182.67 738.413 1192.13 747.436C1187.07 736.768 1182.86 728.602 1180.67 716.991C1182.65 713.219 1181.53 701.349 1183 695.849C1184.46 690.37 1189.44 683.552 1190.21 679.624Z"
     id="path50" />
  <path
     fill="#053C57"
     d="M1040.23 742.305C1066.5 761.092 1104.72 761.019 1135.83 761.485C1141.17 761.566 1151.44 762.332 1155.86 759.59C1160.74 762.335 1165.59 765.139 1170.4 768L1037.17 768C1038.81 767.34 1039.06 767.27 1040.45 766.223C1040.1 763.592 1035.3 759.107 1033.93 756.322C1032.71 753.824 1032.18 751.238 1031.56 748.54C1032.74 747.232 1038.46 743.513 1040.23 742.305Z"
     id="path51" />
  <path
     fill="#053C57"
     d="M1224.52 733.187L1225.04 734.915L1226.07 734.776C1232.1 726.809 1234.54 715.864 1245.84 714.444C1264.98 712.039 1247.98 737.41 1250.59 741.739C1245.7 750.366 1241.04 759.123 1236.63 768L1216.91 768C1220.82 757.825 1222.91 744.183 1224.52 733.187Z"
     id="path52" />
  <defs
     id="defs53">
    <linearGradient
       id="gradient_4"
       gradientUnits="userSpaceOnUse"
       x1="1127.1725"
       y1="685.13245"
       x2="1088.6372"
       y2="642.18982">
      <stop
         offset="0"
         stop-color="#2B4156"
         id="stop52" />
      <stop
         offset="1"
         stop-color="#456F76"
         id="stop53" />
    </linearGradient>
  </defs>
  <path
     fill="url(#gradient_4)"
     d="M1150.26 622.168L1163.79 622.138C1167.96 622.928 1180.98 625.617 1184.43 624.946L1185.28 625.816C1191.86 627.62 1193.91 628.359 1200.12 630.714C1190.62 631.227 1178.49 627.211 1168.35 626.867C1132.14 625.638 1095.61 640.074 1070.55 666.357C1053.47 684.315 1046.79 700.658 1039.36 723.513C1039.1 714.443 1042.55 704.909 1045.45 696.426C1046.43 694.761 1047.48 692.087 1048.29 690.266C1055.57 673.962 1067.25 660.397 1080.43 648.573C1083.56 645.787 1089.01 642.062 1092.58 639.484L1095.79 637.833C1113.95 627.784 1126.36 625.18 1146.28 622.185L1150.26 622.168Z"
     id="path53" />
  <path
     fill="#04556D"
     d="M1190.21 679.624C1189.44 683.552 1184.46 690.37 1183 695.849C1181.53 701.349 1182.65 713.219 1180.67 716.991C1176.7 705.258 1178.35 686.399 1190.21 679.624Z"
     id="path54" />
  <path
     fill="#0B6B7F"
     d="M1331.86 468.528C1353.88 466.993 1357.51 469.559 1376 481.153L1376 502.04C1370.83 504.407 1362.19 509.071 1357.39 510.485C1303.02 541.38 1255.08 593.528 1232.24 652.087C1223.14 642.666 1211.91 636.131 1200.12 630.714C1193.91 628.359 1191.86 627.62 1185.28 625.816L1184.43 624.946C1185.55 617.732 1191.06 602.503 1193.85 595.446C1210.62 552.919 1232.9 517.909 1269.33 489.668C1270.64 488.868 1271.97 487.854 1273.22 486.953C1278.66 483.215 1285.6 479.785 1291.4 476.146C1296.38 473.761 1299.93 472.327 1305.19 470.811C1312.44 470.642 1325.75 468.175 1331.86 468.528Z"
     id="path55" />
  <path
     fill="#388E93"
     d="M1305.19 470.811C1312.44 470.642 1325.75 468.175 1331.86 468.528C1328.17 469.637 1319.24 472.06 1316.23 473.42C1261.48 493.591 1225.04 540.415 1199.66 591.532C1194.47 601.979 1190.29 615.779 1185.28 625.816L1184.43 624.946C1185.55 617.732 1191.06 602.503 1193.85 595.446C1210.62 552.919 1232.9 517.909 1269.33 489.668C1270.64 488.868 1271.97 487.854 1273.22 486.953C1278.66 483.215 1285.6 479.785 1291.4 476.146C1296.38 473.761 1299.93 472.327 1305.19 470.811Z"
     id="path56" />
  <path
     fill="#04556D"
     d="M1331.86 468.528C1353.88 466.993 1357.51 469.559 1376 481.153L1376 502.04C1370.83 504.407 1362.19 509.071 1357.39 510.485C1376.64 494.241 1324.45 477.308 1316.68 473.637L1316.23 473.42C1319.24 472.06 1328.17 469.637 1331.86 468.528Z"
     id="path57" />
  <path
     fill="#0B3C56"
     d="M1376 670.554L1376 687.24L1376 768L1281.38 768L1236.63 768C1241.04 759.123 1245.7 750.366 1250.59 741.739C1255.52 734.844 1259.12 729.828 1264.89 723.688L1268.01 720.228C1299.91 685.185 1329.33 672.76 1376 670.554Z"
     id="path58" />
  <path
     fill="#0A2538"
     d="M1376 687.24L1376 768L1281.38 768C1281.5 767.69 1281.63 767.381 1281.76 767.075C1284.75 760.107 1290.66 751.133 1295.28 745.108C1317.21 716.548 1343.22 700.408 1376 687.24Z"
     id="path59" />
  <path
     fill="#053C57"
     d="M1258.77 694.852C1285.41 641.415 1319.96 603.969 1376 580.936L1376 670.554C1329.33 672.76 1299.91 685.185 1268.01 720.228L1264.89 723.688C1263.34 711.603 1262.32 706.542 1258.77 694.852Z"
     id="path60" />
  <path
     fill="#0B6B7F"
     d="M856.736 65.3937C855.847 65.9167 855.362 65.7772 854.308 65.7573C851.354 57.1436 877.032 42.7378 883.339 39.7827C953.371 6.96587 1028.87 15.3295 1097.16 46.2002C1103.5 50.002 1110.54 53.5901 1116.66 57.5078C1129.71 65.8653 1141.26 75.1248 1152.79 85.4154L1158.67 91.3512C1168.56 101.929 1176.02 111.134 1184.66 122.754C1195.34 139.037 1208.74 161.168 1213.69 179.756C1219.02 199.794 1222.36 212.299 1233.18 230.447C1238.71 239.739 1243.36 253.387 1248.03 263.398C1252.89 275.129 1256.49 293.005 1262.32 303.654C1259.08 311.01 1254.01 318.353 1249.48 324.971C1242.17 306.24 1237.71 284.584 1228.29 266.169C1225.09 259.916 1222.79 248.825 1214.88 249.4C1209.85 243.025 1198.73 224.609 1193.16 216.612C1188.58 216.249 1185.84 216.05 1181.3 215.033C1125.7 205.781 1081.26 175.451 1044.71 133.41C1003.67 86.206 952.282 49.8532 886.543 58.7367C876.012 60.1597 867.38 63.4807 857.423 65.2733L856.736 65.3937Z"
     id="path61" />
  <path
     fill="#388E93"
     d="M856.736 65.3937L856.647 64.5589C861.308 62.0201 870.457 59.0234 875.679 57.469C902.206 49.572 927.99 49.1766 954.65 56.6868C1022.63 75.8372 1054.1 138.723 1107.19 177.359C1120.56 187.106 1134.83 195.541 1149.82 202.544C1156.06 205.431 1178.93 213.045 1181.3 215.033C1125.7 205.781 1081.26 175.451 1044.71 133.41C1003.67 86.206 952.282 49.8532 886.543 58.7367C876.012 60.1597 867.38 63.4807 857.423 65.2733L856.736 65.3937Z"
     id="path62" />
  <path
     fill="#0A2538"
     d="M1376 236.316L1376 408.714L1376 481.153C1357.51 469.559 1353.88 466.993 1331.86 468.528C1325.75 468.175 1312.44 470.642 1305.19 470.811C1299.93 472.327 1296.38 473.761 1291.4 476.146C1285.6 479.785 1278.66 483.215 1273.22 486.953C1269.53 481.415 1276.24 406.316 1263.59 399.783C1263.06 398.621 1260.41 384.581 1259.98 382.411C1244.44 384.026 1240.93 385.989 1228.26 394.907C1230.04 387.605 1236.25 374.291 1240.53 368.152L1241.89 368.436C1247.6 365.502 1250.14 363.039 1254.59 358.605L1252.9 350.001C1254.18 352.414 1254.59 353.192 1255.38 355.806L1255.92 355.577L1256.4 352.978L1257.65 353.411C1260.99 350.625 1266.77 341.361 1272.06 336.511C1270.18 333.019 1267.53 324.062 1265.94 319.653C1269.8 312.488 1286.16 283.945 1291.24 279.532C1318.44 255.889 1349.8 268.016 1376 236.316Z"
     id="path63" />
  <path
     fill="#053C57"
     d="M1272.06 336.511C1286.2 322.602 1302.48 309.829 1323.44 309.72C1330.99 309.68 1338.83 311.98 1344.21 317.524C1348.33 321.818 1350.52 327.608 1350.27 333.553C1349.37 360.846 1305.74 380.22 1282.14 381.793C1284.15 395.883 1286.49 411.231 1288.23 425.293C1289.19 433.095 1289.56 471.403 1291.4 476.146C1285.6 479.785 1278.66 483.215 1273.22 486.953C1269.53 481.415 1276.24 406.316 1263.59 399.783C1263.06 398.621 1260.41 384.581 1259.98 382.411C1244.44 384.026 1240.93 385.989 1228.26 394.907C1230.04 387.605 1236.25 374.291 1240.53 368.152L1241.89 368.436C1247.6 365.502 1250.14 363.039 1254.59 358.605L1252.9 350.001C1254.18 352.414 1254.59 353.192 1255.38 355.806L1255.92 355.577L1256.4 352.978L1257.65 353.411C1260.99 350.625 1266.77 341.361 1272.06 336.511Z"
     id="path64" />
  <path
     fill="#0B6B7F"
     d="M1376 408.714L1376 481.153C1357.51 469.559 1353.88 466.993 1331.86 468.528C1325.75 468.175 1312.44 470.642 1305.19 470.811C1309.48 465.805 1312.3 459.098 1316.42 453.719C1332.12 433.233 1352.4 418.948 1376 408.714Z"
     id="path65" />
  <path
     fill="#053C57"
     d="M189.193 285.228C183.833 261.88 187.411 242.499 198.783 221.87C211.363 199.049 247.635 188.156 256.083 218.191C263.33 243.956 219.017 279.358 200.355 290.727C189.14 313.57 182.809 337.245 178.009 362.136C199.26 344.841 212.584 319.577 244.228 322.667C263.351 324.535 269.648 343.436 253.914 355.575C232.029 372.46 200.577 355.861 181.522 376.335C171.623 386.971 172.539 401.579 171.719 415.508C169.1 460.005 173.296 504.981 181.464 548.734C182.493 554.211 185.023 570.494 187.476 574.726C187.181 577.87 185.756 588.834 183.755 590.726C182.22 590.223 182.158 589.99 181.08 588.69C180.25 587.013 177.326 575.51 176.686 573.112L166.553 534.864C165.845 532.205 163.089 524.637 163.454 523.224L164.885 522.589L164.295 520.067C160.345 491.661 157.668 452.61 159.073 423.945C159.446 415.451 160.127 406.974 161.115 398.53C164.328 372.962 172.652 348.399 147.177 330.272C133.298 320.42 116.283 308.149 113.014 290.239C109.225 269.473 129.98 261.345 145.646 273.081C169.452 290.916 165.102 314.973 171.026 339.432C177.227 318.718 181.312 305.398 189.193 285.228Z"
     id="path66" />
  <path
     fill="#04556D"
     d="M164.295 520.067C165.435 517.812 170.157 503.346 170.001 503.498C170.872 505.797 166.874 518.866 165.735 522.094L164.885 522.589L164.295 520.067Z"
     id="path67" />
  <path
     fill="#0A2538"
     d="M1228.26 394.907C1240.93 385.989 1244.44 384.026 1259.98 382.411C1260.41 384.581 1263.06 398.621 1263.59 399.783C1276.24 406.316 1269.53 481.415 1273.22 486.953C1271.97 487.854 1270.64 488.868 1269.33 489.668C1232.9 517.909 1210.62 552.919 1193.85 595.446C1191.06 602.503 1185.55 617.732 1184.43 624.946C1180.98 625.617 1167.96 622.928 1163.79 622.138C1164.88 559.641 1199.91 450.041 1228.26 394.907Z"
     id="path68" />
  <path
     fill="#04556D"
     d="M1263.59 399.783C1276.24 406.316 1269.53 481.415 1273.22 486.953C1271.97 487.854 1270.64 488.868 1269.33 489.668C1269.28 462.38 1268.37 426.748 1263.59 399.783Z"
     id="path69" />
  <path
     fill="#04556D"
     d="M1257.57 147.534C1265.07 145.576 1269.99 146.536 1276.61 150.621C1294.92 161.933 1298.04 193.995 1293.29 213.131C1288.98 230.472 1288.26 234.485 1291.97 252.503C1296.38 245.003 1304.59 230.437 1310.88 224.747C1319.81 211.276 1337.73 202.085 1353.27 198.632C1355.85 198.763 1359.8 198.773 1362.09 199.588L1366.17 198.813C1369.51 199.95 1372.88 200.984 1376 202.617L1376 236.316C1349.8 268.016 1318.44 255.889 1291.24 279.532C1286.16 283.945 1269.8 312.488 1265.94 319.653C1267.53 324.062 1270.18 333.019 1272.06 336.511C1266.77 341.361 1260.99 350.625 1257.65 353.411L1256.4 352.978L1255.92 355.577L1255.38 355.806C1254.59 353.192 1254.18 352.414 1252.9 350.001L1254.59 358.605C1250.14 363.039 1247.6 365.502 1241.89 368.436L1240.53 368.152C1236.25 374.291 1230.04 387.605 1228.26 394.907C1199.91 450.041 1164.88 559.641 1163.79 622.138L1150.26 622.168C1150.07 611.6 1154.66 586.435 1156.48 575.639C1157.37 576.169 1157.99 576.391 1158.93 576.77C1161.08 574.201 1167.96 537.992 1169.64 531.535C1175.24 510.396 1181.71 489.5 1189.05 468.903C1206.92 419.557 1226.08 378.838 1249.96 332.467C1254.84 322.821 1260.02 313.33 1265.49 304.011C1268.58 298.69 1281.75 278.169 1279.68 272.96C1281.16 262.518 1281.79 240.143 1274.75 232.277C1267.86 224.586 1262.67 219.777 1256.25 210.821C1255.82 206.481 1250.28 195.295 1248.66 189.823C1245.51 179.893 1244.77 167.696 1250.03 158.356C1252.1 154.698 1255.54 151.695 1257.57 147.534Z"
     id="path70" />
  <path
     fill="#0B3C56"
     d="M1254.14 341.725C1256.36 335.92 1262.57 324.809 1265.94 319.653C1267.53 324.062 1270.18 333.019 1272.06 336.511C1266.77 341.361 1260.99 350.625 1257.65 353.411L1256.4 352.978C1255.72 349.212 1254.97 345.46 1254.14 341.725Z"
     id="path71" />
  <path
     fill="#0B6B7F"
     d="M1353.27 198.632C1355.85 198.763 1359.8 198.773 1362.09 199.588L1365.25 201.044C1364.85 201.401 1347.94 203.379 1344.59 204.402C1330.9 208.591 1320.1 222.409 1310.88 224.747C1319.81 211.276 1337.73 202.085 1353.27 198.632Z"
     id="path72" />
  <path
     fill="#0A2538"
     d="M1240.53 368.152C1242.3 364.448 1249.36 348.832 1252 347.332L1252.9 350.001L1254.59 358.605C1250.14 363.039 1247.6 365.502 1241.89 368.436L1240.53 368.152Z"
     id="path73" />
  <path
     fill="#0B3C56"
     d="M270.332 563.455C279.428 561.715 293.83 560.246 302.971 562.097C317.199 563.822 331.012 568.134 343.192 575.836C344.698 577.122 351.148 581.868 352.829 582.694C356.584 586.13 359.299 588.63 362.68 592.435C366.615 597.662 372.482 604.659 374.085 610.77C378.762 617.143 379.987 620.356 380.424 628.624C373.42 638.405 359.272 640.132 347.653 642.976C329.398 647.234 298.125 646.848 279.481 646.41C282.439 652.477 285.436 658.337 282.792 665.119L281.76 664.095C277.176 665.253 269.954 670.443 266.254 668.962L265.89 668.561C262.681 659.222 259.15 652.198 251.214 645.891L245.944 642.918L245.944 642.276C246.046 628.74 223.4 623.549 212.789 622.047L213.565 620.71C214.987 609.617 216.664 606.371 220.762 596.125C222.334 595.057 222.662 594.461 223.856 593.04C227.238 588.948 230.847 585.05 234.666 581.363C237.728 578.445 240.76 576.258 243.45 572.979L244.761 573.496C254.91 569.684 258.033 566.907 270.332 563.455Z"
     id="path74" />
  <defs
     id="defs75">
    <linearGradient
       id="gradient_5"
       gradientUnits="userSpaceOnUse"
       x1="297.22458"
       y1="619.2796"
       x2="335.00107"
       y2="574.43579">
      <stop
         offset="0"
         stop-color="#323F52"
         id="stop74" />
      <stop
         offset="1"
         stop-color="#3F535D"
         id="stop75" />
    </linearGradient>
  </defs>
  <path
     fill="url(#gradient_5)"
     d="M270.332 563.455C279.428 561.715 293.83 560.246 302.971 562.097C317.199 563.822 331.012 568.134 343.192 575.836C344.698 577.122 351.148 581.868 352.829 582.694C356.584 586.13 359.299 588.63 362.68 592.435C366.615 597.662 372.482 604.659 374.085 610.77C378.762 617.143 379.987 620.356 380.424 628.624C373.42 638.405 359.272 640.132 347.653 642.976C346.371 638.659 345.156 634.08 343.517 630.022C331.529 600.355 299.544 582.496 268.706 579.795C264.451 579.423 248.54 579.998 246.34 578.121C245.267 576.247 244.813 575.685 244.761 573.496C254.91 569.684 258.033 566.907 270.332 563.455Z"
     id="path75" />
  <path
     fill="#0B6B7F"
     d="M302.971 562.097C317.199 563.822 331.012 568.134 343.192 575.836C344.698 577.122 351.148 581.868 352.829 582.694C356.584 586.13 359.299 588.63 362.68 592.435C366.615 597.662 372.482 604.659 374.085 610.77C371.948 609.061 368.169 603.989 366.445 601.749C353.363 584.754 334.628 576.286 315.396 568.25C311.603 566.665 306.365 565.409 302.858 563.357L302.971 562.097Z"
     id="path76" />
  <path
     fill="#053C57"
     d="M251.214 645.891C267.612 635.038 270.139 645.595 276.481 643.584C277.329 644.412 278.578 645.722 279.481 646.41C282.439 652.477 285.436 658.337 282.792 665.119L281.76 664.095C277.176 665.253 269.954 670.443 266.254 668.962L265.89 668.561C262.681 659.222 259.15 652.198 251.214 645.891Z"
     id="path77" />
  <path
     fill="#04556D"
     d="M213.565 620.71C236.79 619.579 261.988 623.229 276.481 643.584C270.139 645.595 267.612 635.038 251.214 645.891L245.944 642.918L245.944 642.276C246.046 628.74 223.4 623.549 212.789 622.047L213.565 620.71Z"
     id="path78" />
  <defs
     id="defs79">
    <linearGradient
       id="gradient_6"
       gradientUnits="userSpaceOnUse"
       x1="160.93843"
       y1="580.66815"
       x2="328.12326"
       y2="476.56122">
      <stop
         offset="0"
         stop-color="#03546A"
         id="stop78" />
      <stop
         offset="1"
         stop-color="#1C7E8C"
         id="stop79" />
    </linearGradient>
  </defs>
  <path
     fill="url(#gradient_6)"
     d="M234.895 471.208C248.19 455.57 274.191 431.832 296.234 427.657C297.637 427.391 298.965 427.637 300.057 428.588C298.702 431.695 282.898 448.391 278.842 454.028C257.822 483.628 241.881 516.524 231.675 551.365C226.19 568.168 223.995 578.736 220.762 596.125C216.664 606.371 214.987 609.617 213.565 620.71L212.789 622.047C204.993 622.181 196.762 626.279 189.864 629.574C186.716 616.24 184.527 602.738 181.08 588.69C182.158 589.99 182.22 590.223 183.755 590.726C185.756 588.834 187.181 577.87 187.476 574.726C189.603 565.702 191.643 556.492 194.308 547.624C198.904 534.956 203.986 522.47 209.542 510.193C212.037 505.647 214.548 501.167 216.8 496.494C222.918 487.487 228.359 479.932 234.895 471.208Z"
     id="path79" />
  <path
     fill="#0B3C56"
     d="M793.585 557.919C803.822 548.837 816.478 538.969 830.426 541.702C846.151 544.784 844.804 542.624 859.673 539.628C884.615 534.602 899.889 545.534 917.428 561.835C913.052 565.199 901.041 572.687 902.009 578.503C897.873 578.542 882.013 576.579 876.79 576.075C861.41 574.591 846.006 573.371 830.584 572.417C803.681 570.654 776.754 569.303 749.81 568.365C735.3 567.853 720.615 567.946 706.211 567.103C724.127 553.337 746.784 547.267 769.182 550.235C777.697 551.378 785.952 553.977 793.585 557.919Z"
     id="path80" />
  <path
     fill="#04556D"
     d="M1144.75 381.682C1144.86 379.692 1142.97 372.474 1142.39 370.287C1137.51 351.852 1142.2 313.011 1169.1 317.613C1175.63 318.73 1180.64 325.791 1185.75 326.956C1206.55 351.565 1177.09 409.083 1196.81 438.064C1194.02 446.153 1191.57 453.562 1187.42 461.122C1183.54 409.118 1162.06 419.163 1144.75 381.682Z"
     id="path81" />
  <path
     fill="#0B3C56"
     d="M1312.26 91.3137C1297.53 85.7376 1281.61 77.0392 1275.84 61.6864C1261.06 22.3729 1311.55 24.6427 1321.12 55.6952C1325.21 68.9913 1324.71 75.3175 1320.55 88.6422C1340.48 121.865 1352.27 157.471 1362.13 194.537C1362.88 197.345 1363.74 197.743 1366.17 198.813L1362.09 199.588C1359.8 198.773 1355.85 198.763 1353.27 198.632C1355.85 185.035 1323 102.853 1312.26 91.3137Z"
     id="path82" />
  <path
     fill="#053C57"
     d="M277.376 521.721C290.225 510.958 305.204 501.623 322.863 502.25C324.249 502.299 325.073 502.441 326.099 503.322L326.026 503.89C321.61 506.571 317.164 509.216 312.735 511.871C294.239 522.955 279.243 544.317 270.332 563.455C258.033 566.907 254.91 569.684 244.761 573.496L243.45 572.979C240.76 576.258 237.728 578.445 234.666 581.363C230.847 585.05 227.238 588.948 223.856 593.04C222.662 594.461 222.334 595.057 220.762 596.125C223.995 578.736 226.19 568.168 231.675 551.365L232.25 552.304C233.398 552.585 234.013 552.797 235.048 551.797C245.7 541.508 263.155 525.137 277.376 521.721Z"
     id="path83" />
  <path
     fill="#0A2538"
     d="M231.675 551.365L232.25 552.304C233.398 552.585 234.013 552.797 235.048 551.797C245.7 541.508 263.155 525.137 277.376 521.721C262.907 536.955 250.94 553.257 243.45 572.979C240.76 576.258 237.728 578.445 234.666 581.363C230.847 585.05 227.238 588.948 223.856 593.04C222.662 594.461 222.334 595.057 220.762 596.125C223.995 578.736 226.19 568.168 231.675 551.365Z"
     id="path84" />
  <path
     fill="#04556D"
     d="M1087.52 479.026C1104.65 478.469 1123.76 514.517 1126.28 529.098C1131.32 558.232 1142.05 585.621 1144.94 615.068C1145.15 617.181 1145.48 619.105 1146.09 621.146C1142.49 621.422 1140.09 621.949 1137.12 620.198C1131.79 595.314 1127.15 560.721 1109.4 540.682C1102.93 533.374 1099.4 530.24 1094.44 521.424C1094.2 516.457 1087.64 505.602 1086.7 499.514C1085.59 492.375 1087.21 486.274 1087.52 479.026Z"
     id="path85" />
  <path
     fill="#0B3C56"
     d="M1097.16 46.2002C1098.75 42.2639 1097.31 33.9392 1099.09 28.296C1102.44 17.6741 1111.5 11.359 1122.55 15.1853C1153.15 27.2768 1153.38 58.9587 1152.79 85.4154C1141.26 75.1248 1129.71 65.8653 1116.66 57.5078C1110.54 53.5901 1103.5 50.002 1097.16 46.2002Z"
     id="path86" />
  <path
     fill="#0B3C56"
     d="M1158.67 91.3512C1167.08 79.844 1177.47 64.8004 1192.03 63.3627C1217.54 60.843 1215.23 88.9529 1203.72 103.402C1197.24 111.536 1190.05 116.178 1184.66 122.754C1176.02 111.134 1168.56 101.929 1158.67 91.3512Z"
     id="path87" />
  <path
     fill="#04556D"
     d="M387.15 582.487C391.618 570.94 394.308 554.886 406.364 549.03C414.155 545.246 417.316 554.408 417.012 560.541C415.587 565.793 410.545 570.752 408.859 574.468C407.058 576.314 398.813 584.501 397.727 586.219C394.879 587.028 376.912 590.114 374.331 589.897C370.524 590.714 366.438 591.511 362.68 592.435C359.299 588.63 356.584 586.13 352.829 582.694C351.148 581.868 344.698 577.122 343.192 575.836C342.736 570.628 341.145 569.122 342.702 563.329C346.145 550.521 360.724 564.754 367.015 561.409L367.095 560.205C370.601 560.5 373.111 560.937 376.292 562.597L379.022 564.577C382.881 563.83 384.591 560.582 386.961 557.482C383.862 567.185 385.523 572.414 387.15 582.487Z"
     id="path88" />
  <path
     fill="#053C57"
     d="M352.829 582.694C357.515 582.299 370.329 587.467 374.331 589.897C370.524 590.714 366.438 591.511 362.68 592.435C359.299 588.63 356.584 586.13 352.829 582.694Z"
     id="path89" />
  <path
     fill="#053C57"
     d="M367.015 561.409L367.095 560.205C370.601 560.5 373.111 560.937 376.292 562.597L379.022 564.577L379.105 565.114C377.891 569.148 376.8 569.138 373.051 570.879C370.624 568.118 368.562 564.737 367.015 561.409Z"
     id="path90" />
  <path
     fill="#0B3C56"
     d="M379.105 565.114C380.877 571.727 382.011 580.552 383.563 587.58C380.424 582.313 376.94 575.161 373.051 570.879C376.8 569.138 377.891 569.148 379.105 565.114Z"
     id="path91" />
  <path
     fill="#2B7585"
     d="M1214.88 249.4C1222.79 248.825 1225.09 259.916 1228.29 266.169C1237.71 284.584 1242.17 306.24 1249.48 324.971C1254.01 318.353 1259.08 311.01 1262.32 303.654C1265.46 296.256 1275.21 280.517 1279.68 272.96C1281.75 278.169 1268.58 298.69 1265.49 304.011C1260.02 313.33 1254.84 322.821 1249.96 332.467C1226.08 378.838 1206.92 419.557 1189.05 468.903C1181.71 489.5 1175.24 510.396 1169.64 531.535C1167.96 537.992 1161.08 574.201 1158.93 576.77C1157.99 576.391 1157.37 576.169 1156.48 575.639C1157.5 571.331 1158.51 566.681 1159.34 562.323C1165.9 527.592 1176.33 494.613 1187.42 461.122C1191.57 453.562 1194.02 446.153 1196.81 438.064C1199.67 428.283 1207.72 411.064 1211.92 401.71C1222.69 377.684 1234.94 353.96 1246.86 330.456C1242.08 305.303 1226.39 272.071 1214.88 249.4Z"
     id="path92" />
  <defs
     id="defs93">
    <linearGradient
       id="gradient_7"
       gradientUnits="userSpaceOnUse"
       x1="1053.9396"
       y1="615.82367"
       x2="1039.5261"
       y2="580.26184">
      <stop
         offset="0"
         stop-color="#2A3445"
         id="stop92" />
      <stop
         offset="1"
         stop-color="#374A57"
         id="stop93" />
    </linearGradient>
  </defs>
  <path
     fill="url(#gradient_7)"
     d="M1049.73 575.198C1055.11 572.237 1058.2 570.777 1063.9 568.493C1066.15 572.426 1070.48 579.239 1070.63 583.633C1071.3 585.532 1071.56 585.743 1073.01 587.169C1061.89 596.458 1054.98 603.309 1052.95 618.515C1045.39 617.921 1039.82 617.147 1032.57 614.64C1028.5 613.234 1024.97 611.537 1020.75 610.75C1022.36 604.982 1023.11 600.993 1026.83 596.194C1031.41 590.667 1036.31 585.415 1041.51 580.464C1044.55 578.2 1046.25 576.835 1049.73 575.198Z"
     id="path93" />
  <path
     fill="#0B6B7F"
     d="M1049.73 575.198C1055.11 572.237 1058.2 570.777 1063.9 568.493C1066.15 572.426 1070.48 579.239 1070.63 583.633C1065.75 580.899 1057.41 579.659 1049.73 575.198Z"
     id="path94" />
  <path
     fill="#053C57"
     d="M1099.75 611.982C1111.79 609.506 1126.75 613.78 1137.12 620.198C1140.09 621.949 1142.49 621.422 1146.09 621.146L1146.28 622.185C1126.36 625.18 1113.95 627.784 1095.79 637.833L1092.58 639.484C1086.77 638.324 1077.03 639.52 1074.35 633.537L1075.13 631.603C1074.94 629.951 1075.52 628.507 1075.97 626.874C1078.06 623.894 1079.66 622.194 1082.1 619.564C1088.62 614.914 1092.1 613.447 1099.75 611.982Z"
     id="path95" />
  <path
     fill="#0B6B7F"
     d="M1099.75 611.982C1101.98 612.014 1106.25 611.954 1108.25 612.351C1106.02 614.043 1102.76 614.609 1099.96 615.175C1088.97 617.405 1081.37 622.211 1075.13 631.603C1074.94 629.951 1075.52 628.507 1075.97 626.874C1078.06 623.894 1079.66 622.194 1082.1 619.564C1088.62 614.914 1092.1 613.447 1099.75 611.982Z"
     id="path96" />
  <path
     fill="#0B3C56"
     d="M1074.35 633.537C1074.66 633.494 1095.65 637.739 1095.79 637.833L1092.58 639.484C1086.77 638.324 1077.03 639.52 1074.35 633.537Z"
     id="path97" />
  <path
     fill="#0B6B7F"
     d="M367.821 557.603C362.188 549.097 351.427 530.996 361.98 521.44C366.941 516.947 376.985 520.774 380.71 525.13C388.926 533.38 391.109 546.69 386.961 557.482C384.591 560.582 382.881 563.83 379.022 564.577L376.292 562.597C373.111 560.937 370.601 560.5 367.095 560.205L367.821 557.603Z"
     id="path98" />
  <path
     fill="#04556D"
     d="M367.821 557.603C370.965 557.72 375.242 557.187 377.414 558.363C377.546 560.138 377 560.969 376.292 562.597C373.111 560.937 370.601 560.5 367.095 560.205L367.821 557.603Z"
     id="path99" />
  <path
     fill="#0B3C56"
     d="M1069.49 563.945C1085.97 562.818 1098.97 565.089 1112.24 575.802C1098.87 577.996 1084.58 579.612 1073.01 587.169C1071.56 585.743 1071.3 585.532 1070.63 583.633C1070.48 579.239 1066.15 572.426 1063.9 568.493C1066.57 567.691 1070.02 566.825 1072.32 565.401L1072.07 564.538L1069.49 563.945Z"
     id="path100" />
  <path
     fill="#2B7585"
     d="M1144.75 381.682C1138.75 369.718 1134.79 352.667 1137.2 339.386C1142.23 311.693 1168.49 301.109 1185.75 326.956C1180.64 325.791 1175.63 318.73 1169.1 317.613C1142.2 313.011 1137.51 351.852 1142.39 370.287C1142.97 372.474 1144.86 379.692 1144.75 381.682Z"
     id="path101" />
  <path
     fill="#053C57"
     d="M408.859 574.468C410.545 570.752 415.587 565.793 417.012 560.541L417.539 561.975C425.591 563.583 427.754 562.709 432.051 570.693L432.054 581.463C426.813 582.282 422.134 583.068 416.834 583.382C415.18 578.249 413.393 577.494 408.859 574.468Z"
     id="path102" />
  <path
     fill="#2B7585"
     d="M1257.57 147.534C1255.54 151.695 1252.1 154.698 1250.03 158.356C1244.77 167.696 1245.51 179.893 1248.66 189.823C1250.28 195.295 1255.82 206.481 1256.25 210.821C1242.92 194.442 1230.85 157.821 1257.57 147.534Z"
     id="path103" />
  <path
     fill="#2B7585"
     d="M1069.49 563.945L1072.07 564.538L1072.32 565.401C1070.02 566.825 1066.57 567.691 1063.9 568.493C1058.2 570.777 1055.11 572.237 1049.73 575.198C1046.25 576.835 1044.55 578.2 1041.51 580.464L1039.76 577.474C1050.26 568.904 1056.55 566.754 1069.49 563.945Z"
     id="path104" />
  <path
     fill="#0A2538"
     d="M215.804 480.728C220.701 477.625 224.836 476.738 230.119 474.516C230.46 474.372 233.996 471.797 234.895 471.208C228.359 479.932 222.918 487.487 216.8 496.494C217.095 494.338 218.632 490.262 219.399 488.025C218.373 485.703 216.957 483.035 215.804 480.728Z"
     id="path105" />
  <path
     fill="#2B7585"
     d="M1087.52 479.026C1087.21 486.274 1085.59 492.375 1086.7 499.514C1087.64 505.602 1094.2 516.457 1094.44 521.424C1087.72 510.388 1076.76 490.391 1087.52 479.026Z"
     id="path106" />
  <path
     fill="#0A2538"
     d="M194.308 547.624C193.726 545.023 192.237 540.113 193.294 537.869L195.483 537.408C199.345 534.405 203.828 512.653 209.542 510.193C203.986 522.47 198.904 534.956 194.308 547.624Z"
     id="path107" />
  <path
     fill="#0B6B7F"
     d="M1039.76 577.474L1041.51 580.464C1036.31 585.415 1031.41 590.667 1026.83 596.194L1026.17 594.526C1029.17 587.208 1034.02 582.566 1039.76 577.474Z"
     id="path108" />
  <path
     fill="#053C57"
     d="M76.1818 390.453C80.2338 393.293 91.3337 404.192 94.0594 408.262C90.5814 406.034 78.8455 393.832 76.1818 390.453Z"
     id="path109" />
  <path
     fill="#DBA74C"
     d="M1008.12 431.025C1013.02 429.195 1018.47 431.665 1020.33 436.554C1022.18 441.442 1019.74 446.912 1014.86 448.793C1009.95 450.689 1004.43 448.225 1002.56 443.3C1000.69 438.375 1003.18 432.869 1008.12 431.025Z"
     id="path110" />
  <path
     fill="#2B7585"
     d="M339.807 302.047C343.061 301.235 346.5 302.238 348.808 304.672C351.115 307.105 351.934 310.593 350.95 313.8C349.966 317.006 347.332 319.434 344.057 320.155C339.09 321.248 334.166 318.148 333.004 313.197C331.842 308.245 334.873 303.278 339.807 302.047Z"
     id="path111" />
  <path
     fill="#DBA74C"
     d="M330.026 390.707C332.975 389.554 336.316 390.075 338.775 392.071C341.235 394.066 342.433 397.228 341.913 400.352C341.394 403.476 339.237 406.08 336.265 407.172C331.733 408.837 326.706 406.542 324.996 402.028C323.285 397.513 325.529 392.463 330.026 390.707Z"
     id="path112" />
  <path
     fill="#2B7585"
     d="M996.253 338.303C1000.84 337.297 1005.4 340.085 1006.6 344.626C1007.8 349.166 1005.21 353.844 1000.72 355.233C997.647 356.186 994.298 355.375 991.999 353.123C989.699 350.87 988.819 347.538 989.708 344.444C990.596 341.35 993.109 338.992 996.253 338.303Z"
     id="path113" />
  <path
     fill="#2B7585"
     d="M1045.58 256.409C1048.89 255.333 1052.45 257.145 1053.53 260.457C1054.61 263.768 1052.8 267.328 1049.49 268.408C1046.17 269.489 1042.61 267.678 1041.53 264.363C1040.45 261.048 1042.27 257.486 1045.58 256.409Z"
     id="path114" />
  <path
     fill="#0B6B7F"
     d="M889.769 416.948C891.877 415.993 894.36 416.929 895.315 419.037C896.269 421.146 895.334 423.629 893.225 424.583C891.117 425.538 888.634 424.602 887.68 422.494C886.725 420.385 887.661 417.902 889.769 416.948Z"
     id="path115" />
  <path
     style="fill:#1d2b38;fill-opacity:1;stroke-width:1.04242"
     d="m 1174.8121,623.77761 c -11.8088,-1.87844 -10.8141,-0.63808 -9.9993,-12.46877 2.7624,-40.10833 18.9799,-104.8693 40.5893,-162.08443 7.0349,-18.62606 19.127,-46.70104 22.4774,-52.18693 3.7491,-6.13882 20.1636,-13.94657 29.3203,-13.94657 2.6572,0 2.7815,0.30647 4.9652,12.24848 4.0888,22.35916 6.4514,51.35677 6.4605,79.29155 v 14.92184 l -3.3756,2.79937 c -12.7371,10.5626 -27.3538,25.78106 -36.7577,38.27095 -16.5804,22.02129 -32.8053,54.84307 -41.8542,84.66781 -2.0776,6.84786 -3.3851,9.60711 -4.5114,9.52056 -0.8723,-0.067 -4.1659,-0.53227 -7.3193,-1.03386 z"
     id="path116" />
  <path
     style="fill:#1d2b38;fill-opacity:1;stroke-width:1.04242"
     d="m 1291.0871,470.22884 c -0.3219,-2.91919 -1.072,-15.15854 -1.6669,-27.19854 -0.6057,-12.25736 -2.3232,-30.46479 -3.9029,-41.37391 l -2.8212,-19.483 5.2156,-0.70881 c 7.2368,-0.98348 21.8741,-5.88828 30.3947,-10.18494 14.2342,-7.1778 24.2205,-16.20386 29.605,-26.75843 2.9798,-5.84079 3.3776,-16.59318 0.7915,-21.39136 -4.8795,-9.05327 -13.1459,-13.43923 -25.3453,-13.44768 -15.0365,-0.0104 -29.9473,6.74993 -44.6496,20.24346 -6.9003,6.33306 -6.6829,6.41715 -10.1528,-3.92564 l -2.1918,-6.53335 9.7334,-16.39999 c 12.0276,-20.2653 17.7581,-26.42381 30.102,-32.35007 4.8507,-2.32878 14.9176,-5.88003 22.3709,-7.89166 22.902,-6.18119 30.7663,-9.86843 41.4364,-19.42776 L 1376,238.02718 v 85.00649 85.0065 l -9.6424,4.82038 c -5.3034,2.65121 -13.6297,7.46376 -18.5031,10.69454 -12.3275,8.17255 -29.3555,25.42704 -36.7508,37.23956 -5.7565,9.19486 -6.0657,9.48985 -12.6659,12.08339 l -6.7654,2.65843 z"
     id="path117" />
  <path
     style="fill:#1d2b38;fill-opacity:1;stroke-width:1.04242"
     d="m 1243.2234,363.64978 c 0.8743,-2.09262 3.0331,-6.36235 4.7973,-9.48828 3.4299,-6.07739 4.153,-5.94464 5.398,0.99094 0.6624,3.69061 0.4636,4.03604 -4.6509,8.07878 -2.9386,2.32283 -5.7459,4.22333 -6.2385,4.22333 -0.4926,0 -0.1803,-1.71215 0.6941,-3.80477 z"
     id="path118" />
</svg>
