<?xml version="1.0" encoding="utf-8" ?><svg xmlns="http://www.w3.org/2000/svg" xmlns:xlink="http://www.w3.org/1999/xlink" width="1254" height="1254" viewBox="0 0 1254 1254"><defs><linearGradient id="gradient_0" gradientUnits="userSpaceOnUse" x1="848.22919" y1="793.06055" x2="526.09814" y2="635.96582"><stop offset="0" stop-color="#75523B"/><stop offset="1" stop-color="#9E5152"/></linearGradient></defs><path fill="url(#gradient_0)" d="M573.06 410.518C575.024 428.543 578.046 425.888 585.183 438.135C591.662 446.364 595.833 453.077 600.441 462.603C602.567 463.804 601.49 463.584 603.714 463.575L604.14 463.815C608.591 465.577 609.768 466.986 612.152 471.277C614.197 479.238 614.269 484.677 613.271 492.79L614.149 492.908L614.266 491.011L615.005 490.493L618.013 491.229C620.363 494.626 621.175 495.844 622.971 499.63L624.745 503.17C630.027 501.134 635.139 515.862 637.705 519.892L636.748 522.213C637.675 524.755 638.372 526.607 639.504 529.055C645.916 530.246 652.646 512.421 656.28 508.74L657.22 508.891C647.573 551.628 644.668 595.61 648.611 639.245C649.675 651.72 651.018 664.933 654.576 676.936C654.835 678.713 655.034 679.951 655.455 681.728C656.628 686.251 658.855 695.999 660.84 699.787C657.261 708.838 655.263 720.017 665.392 725.479L666.011 726.22L668.875 725.711C669.35 734.429 669.674 738.388 677.312 743.641C676.674 746.595 683.875 757.808 685.739 760.678C693.969 773.083 702.834 785.054 712.299 796.545C715.184 799.491 717.798 802.657 720.471 805.796C733.958 820.656 748.837 835.94 761.833 850.889C763.243 852.356 764.913 853.94 766.039 855.579C771.02 861.237 776.604 867.342 781.359 873.118C781.157 897.576 777.919 927.37 774.182 951.55C772.678 961.026 770.564 969.707 768.909 978.967C768.164 982.301 766.717 989.589 765.65 992.478C762.069 1008.41 752.12 1044.93 738.524 1055.76C737.398 1056.65 732.732 1058.53 731.142 1059.46L721.341 1058.44C704.78 1054.12 696.159 1048.89 681.145 1041.1C686.903 1053.62 693.702 1065.69 699.754 1078.07C711.536 1102.19 720.945 1127.45 726.089 1153.84C727.948 1163.38 729.823 1174.19 729.234 1183.92C728.942 1188.73 727.833 1193.49 723.995 1196.73C711.151 1207.55 652.255 1210.89 635.322 1209.1C630.067 1208.54 623.433 1207.43 620.087 1202.9C618.16 1200.29 617.969 1197.18 618.593 1194.09C619.918 1187.51 624.466 1182.67 629.863 1179.01C647.978 1166.72 673.947 1165.1 694.898 1169.16C695.495 1138.54 679.965 1103.41 665.742 1076.77C653.306 1053.48 642.73 1037.08 638.405 1010.71C620.035 995.264 604.086 977.15 591.093 956.972C589.059 954.642 587.648 951.919 586.084 949.232C580.793 943.989 572.547 926.027 568.414 919.012C565.682 914.376 563.265 907.64 560.345 902.517C554.705 895.742 550.304 888.465 545.71 880.989C547.013 878.916 549.149 877.12 550.955 875.41C547.46 866.582 542.738 841.364 540.914 831.876C538.673 833.921 532.356 839.916 529.966 841.387C514.65 802.383 512.374 769.186 514.289 727.949C514.393 715.309 522.302 657.29 520.791 652.706C524.131 644.237 525.656 612.482 526.188 602.013L526.521 601.427C525.593 594.809 527.778 561.702 528.922 554.081L528.711 553.195C527.538 548.103 527.769 542.692 526.023 538.031C525.906 537.718 525.73 536.853 525.679 536.619C524.042 537.946 515.206 562.697 509.662 565.683C515.342 553.928 520.679 544.871 526.397 532.138C525.123 521.831 524.537 511.451 524.642 501.066C527.636 497.111 538.356 487.589 539.175 485.123C539.582 477.55 541.015 470.187 542.298 462.721C540.061 460.151 538.838 458.343 536.954 455.568C538.831 451.145 541.236 447.611 543.796 443.576L543.628 429.929C544.003 427.188 543.894 423.68 543.905 420.857C548.573 418.767 565.274 411.259 569.64 411.303C571.005 411.338 571.711 410.949 573.06 410.518Z"/><path fill="#946656" d="M707.487 814.448C719.555 828.826 735.432 852.839 745.986 868.42C743.513 870.735 739.988 873.164 740.367 876.809C743.078 878.523 746.039 875.509 748.411 873.811C757.17 888.552 764.738 909.193 766.355 926.182C763.3 929.61 761.118 931.823 757.762 934.963L757.961 935.471C760.556 934.267 762.154 931.199 763.101 930.921C763.999 932.791 763.203 932.364 764.281 934.107L767.069 932.713C768.822 933.465 774.267 949.621 774.182 951.55C772.678 961.026 770.564 969.707 768.909 978.967C768.164 982.301 766.717 989.589 765.65 992.478C762.069 1008.41 752.12 1044.93 738.524 1055.76C737.398 1056.65 732.732 1058.53 731.142 1059.46L721.341 1058.44C704.78 1054.12 696.159 1048.89 681.145 1041.1C686.903 1053.62 693.702 1065.69 699.754 1078.07C711.536 1102.19 720.945 1127.45 726.089 1153.84C727.948 1163.38 729.823 1174.19 729.234 1183.92C728.942 1188.73 727.833 1193.49 723.995 1196.73C711.151 1207.55 652.255 1210.89 635.322 1209.1C630.067 1208.54 623.433 1207.43 620.087 1202.9C618.16 1200.29 617.969 1197.18 618.593 1194.09C619.918 1187.51 624.466 1182.67 629.863 1179.01C647.978 1166.72 673.947 1165.1 694.898 1169.16C695.495 1138.54 679.965 1103.41 665.742 1076.77C653.306 1053.48 642.73 1037.08 638.405 1010.71C620.035 995.264 604.086 977.15 591.093 956.972C589.059 954.642 587.648 951.919 586.084 949.232C580.793 943.989 572.547 926.027 568.414 919.012C565.682 914.376 563.265 907.64 560.345 902.517C554.705 895.742 550.304 888.465 545.71 880.989C547.013 878.916 549.149 877.12 550.955 875.41C547.46 866.582 542.738 841.364 540.914 831.876C540.106 827.223 539.581 822.526 539.342 817.809C545.793 822.762 553.181 828.617 560.372 832.282C608.249 856.683 664.433 841.206 707.487 814.448Z"/><path fill="#5F3B3F" d="M638.405 1010.71C633.98 956.055 665.779 902.598 697.418 860.843C704.573 851.401 716.803 844.567 726.509 853.155C745.361 869.836 725.56 887.004 716.172 898.681C713.384 901.947 711.108 904.837 708.512 908.262C687.491 936.888 665.405 974.314 671.165 1011.13C671.594 1013.91 672.134 1016.67 672.782 1019.41L674.463 1024.78C675.659 1028.22 679.249 1038.68 681.145 1041.1C686.903 1053.62 693.702 1065.69 699.754 1078.07C711.536 1102.19 720.945 1127.45 726.089 1153.84C727.948 1163.38 729.823 1174.19 729.234 1183.92C728.942 1188.73 727.833 1193.49 723.995 1196.73C711.151 1207.55 652.255 1210.89 635.322 1209.1C630.067 1208.54 623.433 1207.43 620.087 1202.9C618.16 1200.29 617.969 1197.18 618.593 1194.09C619.918 1187.51 624.466 1182.67 629.863 1179.01C647.978 1166.72 673.947 1165.1 694.898 1169.16C695.495 1138.54 679.965 1103.41 665.742 1076.77C653.306 1053.48 642.73 1037.08 638.405 1010.71Z"/><path fill="#84534F" d="M752.214 1001.82C754.042 999.394 762.984 994.513 765.61 992.395L764.447 992.799L764.555 992.436L765.65 992.478C762.069 1008.41 752.12 1044.93 738.524 1055.76C737.398 1056.65 732.732 1058.53 731.142 1059.46L721.341 1058.44C721.052 1057.87 720.812 1057.21 720.57 1056.6C723.129 1050.83 731.329 1052.01 734.117 1048.83C742.902 1038.79 751.56 1014.6 752.214 1001.82Z"/><path fill="#84534F" d="M551.601 877.271C558.151 882.138 562.469 887.289 569.886 892.273C592.017 907.144 620.948 911.558 647.005 907.519C650.692 906.948 657.162 905.691 660.638 905.985C659.231 908.372 655.014 910.875 652.292 911.49C622.618 918.193 593.472 912.446 567.587 896.826C564.465 894.941 556.097 887.693 555.033 887.448C553.83 885.006 552.459 880.046 551.601 877.271Z"/><path fill="#84534F" d="M764.281 934.107L767.069 932.713C768.822 933.465 774.267 949.621 774.182 951.55C772.678 961.026 770.564 969.707 768.909 978.967C764.129 983.176 761.639 987.023 756.364 991.166C757.206 985.351 759.678 976.179 761.005 970.134C763.565 958.651 764.784 946.911 764.637 935.147C760.666 938.538 754.977 943.981 750.307 945.583C753.171 942.531 760.698 936.927 764.281 934.107Z"/><path fill="#84534F" d="M586.084 949.232C588.028 948.694 588.88 948.74 590.65 950.095C604.562 960.745 620.184 966.44 637.648 969.593C636.337 970.942 634.902 972.484 633.545 973.754C622.233 971.692 614.596 969.308 604.245 963.885C600.422 961.882 594.959 958.275 591.093 956.972C589.059 954.642 587.648 951.919 586.084 949.232Z"/><path fill="#754949" d="M756.364 991.166C761.639 987.023 764.129 983.176 768.909 978.967C768.164 982.301 766.717 989.589 765.65 992.478L764.555 992.436L764.447 992.799L765.61 992.395C762.984 994.513 754.042 999.394 752.214 1001.82C747.569 1005.67 731.823 1015.68 726.104 1016.12L725.388 1015.4C725.622 1014.7 725.856 1014 726.09 1013.3C736.554 1006.44 748.107 1002.35 756.057 991.878C756.159 991.641 756.262 991.404 756.364 991.166Z"/><path fill="#754949" d="M672.782 1019.41C684.668 1020.6 691.882 1021.79 703.899 1018.88C706.469 1018.26 718.438 1015.26 720.167 1015.23L720.799 1016.01C717.978 1026.56 683.864 1025.84 674.463 1024.78L672.782 1019.41Z"/><path fill="#4A2C32" d="M545.71 880.989C547.013 878.916 549.149 877.12 550.955 875.41L551.601 877.271C552.459 880.046 553.83 885.006 555.033 887.448C556.21 891.59 559.907 900.136 560.345 902.517C554.705 895.742 550.304 888.465 545.71 880.989Z"/><path fill="#84534F" d="M716.172 898.681L718.559 898.54C720.626 902.408 713.591 909.661 708.512 908.262C711.108 904.837 713.384 901.947 716.172 898.681Z"/><path fill="#754949" d="M735.248 950.835L735.898 950.991L736.222 951.813C728.624 964.131 693.717 972.792 679.756 974.424C678.964 973.634 679.127 973.691 678.587 972.654C679.946 968.491 693.421 967.508 697.907 966.213C711.065 962.417 723.237 957.425 735.248 950.835Z"/><path fill="#EDCCA4" d="M600.441 462.603C602.567 463.804 601.49 463.584 603.714 463.575L604.14 463.815C608.591 465.577 609.768 466.986 612.152 471.277C614.197 479.238 614.269 484.677 613.271 492.79L614.149 492.908L614.266 491.011L615.005 490.493L618.013 491.229C620.363 494.626 621.175 495.844 622.971 499.63L624.745 503.17C630.027 501.134 635.139 515.862 637.705 519.892L636.748 522.213C637.675 524.755 638.372 526.607 639.504 529.055C641.636 535.743 642.108 543.174 637.967 549.316C639.232 559.322 644.282 578.441 637.157 586.049C629.185 591.071 625.767 586.235 619.15 588.63C616.698 591.739 612.682 596.289 610.995 599.571C610.564 605.726 602.118 607.24 597.024 608.565C587.75 609.459 583.733 608.856 574.908 606.181C569.731 603.365 566.371 602.497 564.203 597.181C563.927 595.478 560.395 587.991 559.418 585.414L558.819 585.308C556.957 583.615 553.519 583.989 551.511 583.222C538.863 578.386 553.849 544.462 557.082 535.372C559.845 530.029 562.897 523 565.494 517.444L568.181 512.393C572.254 505.13 577.693 496.423 583.317 490.365C583.441 489.712 583.572 485.546 583.612 484.648C584.846 479.291 585.447 477.148 587.708 472.195C588.669 470.939 589.958 468.924 590.883 467.565C594.579 464.121 595.498 463.464 600.441 462.603Z"/><path fill="#DDAB60" d="M600.441 462.603C602.567 463.804 601.49 463.584 603.714 463.575L604.14 463.815C608.591 465.577 609.768 466.986 612.152 471.277C614.197 479.238 614.269 484.677 613.271 492.79C612.451 495.75 611.542 498.684 610.545 501.59C609.305 503.216 608.017 504.994 606.645 506.486C600.727 510.989 598.814 512.132 591.657 509.926L590.858 509.797L587.134 506C584.08 500.197 584.017 496.794 583.317 490.365C583.441 489.712 583.572 485.546 583.612 484.648C584.846 479.291 585.447 477.148 587.708 472.195C588.669 470.939 589.958 468.924 590.883 467.565C594.579 464.121 595.498 463.464 600.441 462.603Z"/><path fill="#D19B4A" d="M604.14 463.815C608.591 465.577 609.768 466.986 612.152 471.277C614.197 479.238 614.269 484.677 613.271 492.79C612.451 495.75 611.542 498.684 610.545 501.59C609.305 503.216 608.017 504.994 606.645 506.486C600.727 510.989 598.814 512.132 591.657 509.926C592.141 506.013 598.025 509.144 602.304 503.779C609.06 495.326 612.016 482.243 607.492 472.122C606.39 469.656 603.792 466.231 604.14 463.815Z"/><path fill="#F4D8B3" d="M596.211 468.195C602.087 472.616 593.883 481.756 590.216 484.944L589.142 484.589C585.698 479.466 592.02 471.291 596.211 468.195Z"/><path fill="#D7B491" d="M606.645 506.486C608.642 514.199 610.885 525.803 611.177 533.764C608.668 533.631 608.473 533.439 606.134 532.345L602.676 512.346C599.394 517.499 598.49 519.344 596.544 525.029C594.805 525.028 594.365 525.189 592.817 524.409C591.296 522.595 591.401 520.09 591.159 517.64C591.577 516.084 591.546 516.091 591.522 514.468L590.736 513.508C588.657 515.328 586.042 523.4 583.287 527.121C584.061 523.401 588.759 512.997 590.858 509.797L591.657 509.926C598.814 512.132 600.727 510.989 606.645 506.486Z"/><path fill="#C8A481" d="M583.287 527.121C581.583 532.502 582.514 532.972 577.263 534.839L576.616 534.482C576.804 527.203 583.287 512.325 587.134 506L590.858 509.797C588.759 512.997 584.061 523.401 583.287 527.121Z"/><path fill="#946656" d="M624.745 503.17C630.027 501.134 635.139 515.862 637.705 519.892L636.748 522.213C635.129 524.681 634.933 525.181 632.712 527.013C631.284 520.087 627.266 509.893 624.745 503.17Z"/><path fill="#5F3B3F" d="M636.748 522.213C637.675 524.755 638.372 526.607 639.504 529.055C641.636 535.743 642.108 543.174 637.967 549.316C636.575 541.817 635.005 534.289 632.712 527.013C634.933 525.181 635.129 524.681 636.748 522.213Z"/><path fill="#C8A481" d="M606.134 532.345C608.473 533.439 608.668 533.631 611.177 533.764C612.138 542.476 610.767 551.028 609.777 559.73C608.775 553.021 606.18 538.685 606.134 532.345Z"/><path fill="#C8A481" d="M613.271 492.79L614.149 492.908C615.803 494.883 617.649 506.279 618.411 509.92C616.049 507.374 612.988 503.903 610.545 501.59C611.542 498.684 612.451 495.75 613.271 492.79Z"/><path fill="#C8A481" d="M596.544 525.029C595.563 527.971 594.44 532.925 593.623 536.065C593.494 535.727 593.365 535.388 593.236 535.05C590.83 531.971 590.156 521.536 591.159 517.64C591.401 520.09 591.296 522.595 592.817 524.409C594.365 525.189 594.805 525.028 596.544 525.029Z"/><path fill="#C8A481" d="M559.418 585.414C567.662 587.988 567.15 589.926 564.203 597.181C563.927 595.478 560.395 587.991 559.418 585.414Z"/><path fill="#C8A481" d="M610.995 599.571C609.165 591.096 611.503 590.177 619.15 588.63C616.698 591.739 612.682 596.289 610.995 599.571Z"/><path fill="#956B58" d="M537.031 782.153C540.595 777.475 539.325 773.157 540.84 768.543C545.049 774.199 546.816 776.342 552.076 781.036C552.865 782.034 555.773 784.764 556.82 785.8C559.718 783.702 563.081 780.875 565.928 778.605C566.251 778.403 567.783 777.756 567.881 777.785C573.174 779.351 581.354 782.655 586.599 783.538C593.09 784.631 602.626 784.961 609.047 784.548C620.035 792.773 624.81 800.112 638.572 789.077L638.542 788.439L637.16 787.572C639.826 785.61 649.566 783.465 653.417 781.7C661.18 778.142 668.485 773.162 676.284 770.035C678.102 770.681 677.974 771.235 679.352 773.163C685.084 782.73 696.153 799.98 703.088 808.516C694.675 820.342 677.279 826.605 663.663 830.985C628.634 842.254 584.823 844.926 553.39 822.593C548.01 818.771 543.688 813.469 538.497 809.506C537.418 804.278 537.066 787.84 537.031 782.153Z"/><path fill="#5F3B3F" d="M573.06 410.518C575.024 428.543 578.046 425.888 585.183 438.135C591.662 446.364 595.833 453.077 600.441 462.603C595.498 463.464 594.579 464.121 590.883 467.565C589.958 468.924 588.669 470.939 587.708 472.195C585.447 477.148 584.846 479.291 583.612 484.648C583.572 485.546 583.441 489.712 583.317 490.365C577.693 496.423 572.254 505.13 568.181 512.393L565.494 517.444C562.897 523 559.845 530.029 557.082 535.372C553.849 544.462 538.863 578.386 551.511 583.222C553.519 583.989 556.957 583.615 558.819 585.308L558.574 586.568C556.843 585.157 551.804 583.591 551.436 586.534C548.373 611.012 547.208 635.955 543.632 660.426C543.259 662.973 542.727 667.957 541.936 670.131C542.338 640.616 538.699 610.571 534.017 581.528C532.849 574.282 531.2 560.529 528.922 554.081L528.711 553.195C527.538 548.103 527.769 542.692 526.023 538.031C525.906 537.718 525.73 536.853 525.679 536.619C524.042 537.946 515.206 562.697 509.662 565.683C515.342 553.928 520.679 544.871 526.397 532.138C525.123 521.831 524.537 511.451 524.642 501.066C527.636 497.111 538.356 487.589 539.175 485.123C539.582 477.55 541.015 470.187 542.298 462.721C540.061 460.151 538.838 458.343 536.954 455.568C538.831 451.145 541.236 447.611 543.796 443.576L543.628 429.929C544.003 427.188 543.894 423.68 543.905 420.857C548.573 418.767 565.274 411.259 569.64 411.303C571.005 411.338 571.711 410.949 573.06 410.518Z"/><path fill="#4A2C32" d="M573.06 410.518C575.024 428.543 578.046 425.888 585.183 438.135C580.443 438.779 579.195 439.247 576.049 443.197C574.295 445.399 571.706 452.179 571.738 454.89L571.469 454.962C570.12 459.661 545.328 480.912 540.44 485.325C539.232 485.182 539.528 485.273 539.175 485.123C539.582 477.55 541.015 470.187 542.298 462.721C540.061 460.151 538.838 458.343 536.954 455.568C538.831 451.145 541.236 447.611 543.796 443.576L543.628 429.929C544.003 427.188 543.894 423.68 543.905 420.857C548.573 418.767 565.274 411.259 569.64 411.303C571.005 411.338 571.711 410.949 573.06 410.518Z"/><path fill="#D7B491" d="M573.06 410.518C575.024 428.543 578.046 425.888 585.183 438.135C580.443 438.779 579.195 439.247 576.049 443.197C574.295 445.399 571.706 452.179 571.738 454.89L571.469 454.962C567.046 435.099 565.975 430.983 569.64 411.303C571.005 411.338 571.711 410.949 573.06 410.518Z"/><path fill="#EDCCA4" d="M571.738 454.89C571.706 452.179 574.295 445.399 576.049 443.197C579.195 439.247 580.443 438.779 585.183 438.135C591.662 446.364 595.833 453.077 600.441 462.603C595.498 463.464 594.579 464.121 590.883 467.565C589.958 468.924 588.669 470.939 587.708 472.195C585.447 477.148 584.846 479.291 583.612 484.648C577.981 474.132 576.345 469.443 572.485 458.305L571.738 454.89Z"/><path fill="#D7B491" d="M583.176 457.549C585.737 460.48 588.389 464.383 590.883 467.565C589.958 468.924 588.669 470.939 587.708 472.195C585.923 467.041 584.6 462.811 583.176 457.549Z"/><path fill="#956B58" d="M572.485 458.305C576.345 469.443 577.981 474.132 583.612 484.648C583.572 485.546 583.441 489.712 583.317 490.365C577.693 496.423 572.254 505.13 568.181 512.393L568.218 504.385C568.033 500.201 568.35 496.481 568.72 492.335C569.412 484.574 570.111 476.932 571.681 469.289C571.945 468.008 571.43 467.139 570.857 466.04C571.02 464.498 572.111 460.037 572.485 458.305Z"/><path fill="#84534F" d="M570.857 466.04C571.43 467.139 571.945 468.008 571.681 469.289C570.111 476.932 569.412 484.574 568.72 492.335C568.35 496.481 568.033 500.201 568.218 504.385L565.735 505.037C563.8 503.733 563.612 501.487 562.811 498.902C562.77 493.29 568.817 471.685 570.857 466.04Z"/><path fill="#84534F" d="M560.389 509.941C561.632 511.998 563.816 515.851 565.494 517.444C562.897 523 559.845 530.029 557.082 535.372C555.426 529.193 558.939 516.527 560.389 509.941Z"/><path fill="#754949" d="M562.811 498.902C563.612 501.487 563.8 503.733 565.735 505.037L568.218 504.385L568.181 512.393L565.494 517.444C563.816 515.851 561.632 511.998 560.389 509.941C560.773 506.071 561.822 502.661 562.811 498.902Z"/><path fill="#4A2C32" d="M528.922 554.081C531.2 560.529 532.849 574.282 534.017 581.528C538.699 610.571 542.338 640.616 541.936 670.131C540.372 695.631 538.515 719.414 534.002 744.732L537.326 751.873C536.6 759.894 535.781 769.095 536.917 777.095L537.031 782.153C537.066 787.84 537.418 804.278 538.497 809.506C538.696 811.596 538.976 815.919 539.342 817.809C539.581 822.526 540.106 827.223 540.914 831.876C538.673 833.921 532.356 839.916 529.966 841.387C514.65 802.383 512.374 769.186 514.289 727.949C514.393 715.309 522.302 657.29 520.791 652.706C524.131 644.237 525.656 612.482 526.188 602.013L526.521 601.427C525.593 594.809 527.778 561.702 528.922 554.081Z"/><path fill="#84534F" d="M583.816 753.713C591.9 762.42 597.667 768.812 606.822 776.634C613.205 782.086 620.608 786.84 626.596 791.896C630.877 788.491 640.382 777.725 644.146 777.827C651.854 778.322 666.335 769.676 673.722 766.934C674.954 766.477 674.488 766.549 675.508 765.139C676.647 767.48 679.361 770.639 679.68 772.557L679.352 773.163C677.974 771.235 678.102 770.681 676.284 770.035C668.485 773.162 661.18 778.142 653.417 781.7C649.566 783.465 639.826 785.61 637.16 787.572L638.542 788.439L638.572 789.077C624.81 800.112 620.035 792.773 609.047 784.548C602.626 784.961 593.09 784.631 586.599 783.538C581.354 782.655 573.174 779.351 567.881 777.785C567.783 777.756 566.251 778.403 565.928 778.605C565.493 777.261 564.811 776.926 563.685 775.844C563.775 775.627 578.904 759.208 580.334 757.671L583.816 753.713Z"/><path fill="#956B58" d="M584.219 764.256C589.949 768.875 596.124 775.631 601.876 779.571C597.921 779.6 593.966 779.512 590.015 779.309C583.231 778.1 577.312 775.953 570.867 773.682C575.408 769.789 579.176 767.446 584.219 764.256Z"/><path fill="#754949" d="M654.775 689.26C654.435 686.816 653.75 683.691 654.329 681.396L655.455 681.728C656.628 686.251 658.855 695.999 660.84 699.787C657.261 708.838 655.263 720.017 665.392 725.479L666.011 726.22L665.785 726.934C664.698 728.309 663.348 730.115 662.202 731.377L661.222 735.721C658.52 738.316 658.062 738.321 657.754 741.935L657.818 744.676L654.756 743.44L654.524 743.263C655.906 737.381 650.536 724.405 648.35 718.026C649.064 715.843 649.97 714.042 649.673 711.725C649.387 709.567 649.145 707.403 648.949 705.235C648.408 698.991 650.88 693.909 654.775 689.26Z"/><path fill="#754949" d="M637.157 586.049C639.724 603.121 635.696 601.433 621.792 598.948C610.365 604.386 613.633 614.309 593.118 615.566L592.449 615.217L597.024 608.565C602.118 607.24 610.564 605.726 610.995 599.571C612.682 596.289 616.698 591.739 619.15 588.63C625.767 586.235 629.185 591.071 637.157 586.049Z"/><path fill="#5F3B3F" d="M573.055 639.084C574.693 637.172 576.54 635.551 578.384 633.835C573.712 646.536 574.6 662.377 574.494 675.875C574.261 692.201 574.239 708.529 574.431 724.855C574.325 727.516 574.493 733.446 573.366 735.255C571.381 727.37 572.733 718.666 572.578 710.284C572.135 686.516 573.236 662.912 573.055 639.084Z"/><path fill="#84534F" d="M537.326 751.873C539.426 756.866 553.621 777.965 552.076 781.036C546.816 776.342 545.049 774.199 540.84 768.543C539.325 773.157 540.595 777.475 537.031 782.153L536.917 777.095C535.781 769.095 536.6 759.894 537.326 751.873Z"/><path fill="#946656" d="M536.671 761.89C538.098 764.084 539.487 766.302 540.84 768.543C539.325 773.157 540.595 777.475 537.031 782.153L536.917 777.095C537.422 773.035 536.876 766.179 536.671 761.89Z"/><path fill="#B88B5A" d="M574.908 606.181C583.733 608.856 587.75 609.459 597.024 608.565L592.449 615.217L591.205 616.72C588.414 616.273 585.09 615.16 583.17 616.455C582.645 618.682 582.802 620.724 581.733 622.625C579.198 617.076 576.755 612.021 574.908 606.181Z"/><path fill="#754949" d="M574.431 724.855C575.691 740.743 573.896 739.876 583.816 753.713L580.334 757.671C576.916 752.662 574.392 750.458 571.267 744.559C573.153 740.826 573.51 739.429 573.366 735.255C574.493 733.446 574.325 727.516 574.431 724.855Z"/><defs><linearGradient id="gradient_1" gradientUnits="userSpaceOnUse" x1="664.83716" y1="760.96075" x2="657.70825" y2="779.89532"><stop offset="0" stop-color="#845B49"/><stop offset="1" stop-color="#9B755C"/></linearGradient></defs><path fill="url(#gradient_1)" d="M644.146 777.827C655.233 773.438 659.081 770.553 668.86 763.674C670.323 762.645 669.702 762.791 671.751 761.794C674.483 763.036 673.567 762.5 675.508 765.139C674.488 766.549 674.954 766.477 673.722 766.934C666.335 769.676 651.854 778.322 644.146 777.827Z"/><path fill="#754949" d="M761.833 850.889C763.243 852.356 764.913 853.94 766.039 855.579C763.935 858.495 758.342 865.862 754.726 866.002L754.093 864.975C754.684 859.555 758.572 855.281 761.833 850.889Z"/><path fill="#754949" d="M712.299 796.545C715.184 799.491 717.798 802.657 720.471 805.796C717.865 807.467 713.362 811.254 710.504 809.499C709.439 802.168 715.099 802.552 712.299 796.545Z"/><path fill="#D7B491" d="M581.733 622.625C582.802 620.724 582.645 618.682 583.17 616.455C585.09 615.16 588.414 616.273 591.205 616.72C589.257 619.562 586.848 624.088 584.302 625.634L583.233 625.39L581.733 622.625Z"/><path fill="#C68F43" d="M654.756 743.44L657.818 744.676C658.681 747.543 658.792 746.24 657.966 748.735C656.569 750.126 656.699 750.072 654.762 750.417C652.694 749.668 653.472 750.321 652.398 748.336C652.404 746.061 653.353 745.277 654.756 743.44Z"/><path fill="#C68F43" d="M661.222 735.721C663.413 737.718 663.089 736.89 663.911 739.422C663.253 741.744 663.884 740.813 661.89 742.271C659.705 742.638 659.864 742.633 657.754 741.935C658.062 738.321 658.52 738.316 661.222 735.721Z"/><path fill="#C68F43" d="M665.785 726.934C667.039 729.539 667.813 730.372 667.21 732.996L666.333 733.928C663.986 733.553 664.339 733.573 662.202 731.377C663.348 730.115 664.698 728.309 665.785 726.934Z"/><path fill="#D19B4A" d="M586.508 721.963C600.375 714.989 597.42 732.701 598.307 738.56C600.9 738.702 600.809 738.6 602.945 739.99C603.908 741.861 603.725 740.88 603.385 743.058C602.104 744.701 602.172 744.832 600.196 745.675C598.057 745.525 598.958 745.924 597.412 744.415C596.912 742.246 596.844 742.313 597.212 739.993C596.155 738.802 596.077 738.707 594.794 737.776C586.307 737.598 582.096 736.782 582.378 727.486C583.851 724.531 583.981 724.097 586.508 721.963Z"/><path fill="#F4D8B3" d="M586.508 721.963C588.85 724.867 587.937 726.168 585.039 728.152C583.063 728.22 583.904 728.496 582.378 727.486C583.851 724.531 583.981 724.097 586.508 721.963Z"/><path fill="#D19B4A" d="M587.812 639.939C593.391 639.521 595.408 641.196 597.713 646.235C600.284 647.85 600.139 647.169 600.748 649.364C600.251 651.28 598.47 653.855 596.436 654.256C588.185 659.525 581.373 656.812 581.719 646.355C583.364 642.697 584.251 641.851 587.812 639.939Z"/><path fill="#F4D8B3" d="M587.812 639.939C587.282 644.131 586.662 646.922 581.719 646.355C583.364 642.697 584.251 641.851 587.812 639.939Z"/><path fill="#754949" d="M597.713 646.235C600.284 647.85 600.139 647.169 600.748 649.364C600.251 651.28 598.47 653.855 596.436 654.256C597.582 650.507 597.673 650.229 597.713 646.235Z"/><path fill="#D19B4A" d="M585.742 681.472C598.206 675.84 601.401 694.214 592.156 697.401C585.431 699.72 581.996 693.973 581.382 688.241C582.575 684.697 583.055 684.044 585.742 681.472Z"/><path fill="#F4D8B3" d="M585.742 681.472L587.426 683.191C587.286 687.351 584.884 687.929 581.382 688.241C582.575 684.697 583.055 684.044 585.742 681.472Z"/><path fill="#DDAB60" d="M612.285 754.118L611.819 753.126L612.213 752.333C615.22 753.227 619.961 750.737 620.45 755.978C619.462 757.892 619.309 757.82 617.561 758.974L618.387 759.318C615.543 760.465 612.586 761.691 610.591 758.709C610.433 756.571 611.118 755.94 612.285 754.118Z"/><path fill="#754949" d="M612.285 754.118C614.395 756.555 614.86 757.914 617.561 758.974L618.387 759.318C615.543 760.465 612.586 761.691 610.591 758.709C610.433 756.571 611.118 755.94 612.285 754.118Z"/><path fill="#D19B4A" d="M636.112 753.661C638.741 754.475 639.799 754.73 640.836 757.375C640.486 759.483 639.673 760.022 638.205 761.589C635.241 760.883 634.097 760.918 633.289 757.828C633.905 755.66 634.549 755.258 636.112 753.661Z"/><path fill="#DDAB60" d="M623.662 754.64C626.161 754.789 628.096 755.123 629.413 757.49C629.442 759.901 629.571 759.028 627.565 761.351C625.084 761.581 623.936 761.34 622.348 759.473C622.189 756.614 622.223 757.521 623.662 754.64Z"/><path fill="#DDAB60" d="M645.997 750.276C647.756 749.521 649.794 750.332 650.553 752.089C651.312 753.845 650.507 755.885 648.753 756.649C646.991 757.417 644.942 756.608 644.179 754.844C643.417 753.081 644.232 751.033 645.997 750.276Z"/><path fill="#D19B4A" d="M604.248 745.67C606.834 745.752 608.323 745.79 610.094 747.635C610.786 749.642 610.373 750.211 609.688 752.23C606.953 752.657 606.572 752.484 604.718 751.163C603.665 748.958 603.985 748.095 604.248 745.67Z"/><path fill="#4A2C32" d="M686.081 240.23C730.53 254.042 765.153 293.146 786.076 333.451C821.414 401.525 835.751 474.424 834.386 550.614C834.449 552.409 834.049 555.056 835.543 556.223C845.378 563.904 864.432 571.689 876.976 570.444L880.549 569.716C895.16 564.28 899.327 540.268 901.563 526.718L903.054 515.405C916.097 521.563 921 522.182 935.183 520.867L933.569 531.283C924.664 585.315 904.534 621.602 842.773 597.9C840.582 597.059 834.85 593.938 833.029 594.135L832.242 595.94C831.751 603.875 829.889 614.887 829.839 622.104C829.778 630.799 834.247 646.001 836.139 655.124C855.66 667.017 875.603 678.502 890.029 696.455C905.439 715.632 901.732 745.439 875.091 751.71C871.905 752.46 860.644 753.552 859.264 754.402C859.966 754.99 783.025 742.947 776.004 736.999C780.774 725.349 781.283 716.68 778.812 704.46C775.263 694.182 771.859 690.463 760.806 691.93C753.017 686.578 749.319 686.427 742.722 693.283C731.454 684.63 718.395 678.182 703.974 677.428C701.483 677.298 697.913 677.735 695.184 677.813L688.832 675.69C686.499 676.94 682.776 677.803 680.078 678.75C674.875 680.576 672.018 682.282 667.363 684.969L670.168 688.478C665.84 691.93 663.502 695.005 660.84 699.787C658.855 695.999 656.628 686.251 655.455 681.728C655.034 679.951 654.835 678.713 654.576 676.936C651.018 664.933 649.675 651.72 648.611 639.245C644.668 595.61 647.573 551.628 657.22 508.891C657.764 507.786 660.597 495.139 661.19 492.731C663.043 486.066 665.341 478.546 666.729 471.856C664.768 470.765 663.844 470.484 662.655 468.574C663.65 465.218 664.53 462.99 665.83 459.798C667.735 457.844 670.227 452.442 669.911 449.553C667.352 448.31 667.201 447.89 666.225 445.485C664.527 442.227 663.021 444.571 661.239 438.744L664.692 436.458L665.254 436.3C669.029 429.213 676.089 415.694 676.444 407.836C675.614 405.787 676.287 406.699 673.789 405.471C682.803 397.306 685.314 394.927 691.113 384.484C693.149 380.686 694.123 378.248 695.705 374.22C696.856 370.368 696.893 366.844 698.216 363.255L696.388 356.304C696.221 355.407 702.332 344.803 703.685 341.62C709.053 329.308 711.306 315.864 710.243 302.475C708.301 280.089 698.933 260.567 686.224 242.457C686.176 241.714 686.129 240.972 686.081 240.23Z"/><path fill="#84534F" d="M813.788 680.526C808.614 678.29 801.074 673.9 795.851 671.201L761.611 653.624C751.397 648.355 744.725 644.193 733.328 642.345C728.651 641.587 722.232 632.879 720.211 628.404C711.741 609.646 729.434 587.444 749.295 598.804C758.417 603.854 759.062 611.454 766.446 616.51C778.044 624.45 791.112 631.073 803.406 637.882C814.004 643.457 825.46 650.104 836.139 655.124C855.66 667.017 875.603 678.502 890.029 696.455C905.439 715.632 901.732 745.439 875.091 751.71C871.905 752.46 860.644 753.552 859.264 754.402C859.966 754.99 783.025 742.947 776.004 736.999C780.774 725.349 781.283 716.68 778.812 704.46C795.745 708.052 835.92 719.914 851.571 718.723C850.176 713.193 848.932 708.298 847.175 702.847C845.023 698.419 818.735 683.423 813.788 680.526Z"/><path fill="#754949" d="M813.788 680.526C832.871 678.039 853.226 693.371 867.871 704.04C870.125 705.682 872.389 707.832 872.9 710.654C872.448 711.548 862.565 717.332 861.429 717.6L860.905 717.484C857.483 718.407 855.061 718.473 851.571 718.723C850.176 713.193 848.932 708.298 847.175 702.847C845.023 698.419 818.735 683.423 813.788 680.526Z"/><path fill="#FCFBFA" d="M847.175 702.847C853.616 706.701 857.237 711.078 860.905 717.484C857.483 718.407 855.061 718.473 851.571 718.723C850.176 713.193 848.932 708.298 847.175 702.847Z"/><path fill="#84534F" d="M832.242 595.94C832.136 595.225 832.013 594.385 831.87 593.421C826.244 589.149 815.861 583.583 810.22 579.621C795.284 569.045 781.553 556.863 769.273 543.294C763.77 537.25 758.672 530.821 753.165 524.797C749.685 521.104 744.081 519.558 740.988 515.444C732.39 504.009 733.087 484.449 745.013 475.325C749.337 472.016 754.832 470.631 760.208 471.496C768.04 472.687 772.678 477.118 777.187 483.067L779.096 486.947C780.301 491.016 782.12 501.817 783.793 504.586C794.061 521.584 809.159 536.379 824.501 548.871C826.949 550.864 830.767 553.942 833.632 554.893L833.689 554.143C833.786 553.011 833.782 551.43 834.386 550.614C834.449 552.409 834.049 555.056 835.543 556.223C845.378 563.904 864.432 571.689 876.976 570.444L880.549 569.716C895.16 564.28 899.327 540.268 901.563 526.718L903.054 515.405C916.097 521.563 921 522.182 935.183 520.867L933.569 531.283C924.664 585.315 904.534 621.602 842.773 597.9C840.582 597.059 834.85 593.938 833.029 594.135L832.242 595.94Z"/><path fill="#754949" d="M903.054 515.405C916.097 521.563 921 522.182 935.183 520.867L933.569 531.283C929.057 534.091 927.297 536.621 921.352 537.356C913.312 538.351 907.433 531.571 901.563 526.718L903.054 515.405Z"/><path fill="#754949" d="M876.976 570.444L880.549 569.716C880.804 571.024 878.991 580.867 877.332 582.058C872.702 580.187 875.062 573.577 876.976 570.444Z"/><path fill="#5F3B3F" d="M667.628 469.651C672.354 468.337 674.938 469.082 679.348 471.189C684.74 473.764 686.598 481.037 689.565 485.861C694.297 493.553 698.791 501.303 703.064 509.221L702.751 510.02C699.027 519.309 692.653 527.93 687.953 536.787C675.312 560.605 662.989 587.774 658.156 614.483C655.769 627.939 654.508 641.57 654.386 655.235C654.337 661.122 655.66 672.019 654.576 676.936C651.018 664.933 649.675 651.72 648.611 639.245C644.668 595.61 647.573 551.628 657.22 508.891C657.764 507.786 660.597 495.139 661.19 492.731C663.043 486.066 665.341 478.546 666.729 471.856L667.628 469.651Z"/><path fill="#D7B491" d="M691.113 384.484L692.347 386.256C694.19 386.187 694.76 384.914 696.55 383.248C697.503 384.583 697.796 387.685 698.094 389.478C693.689 402.899 690.276 409.779 683.523 422.459C678.981 428.832 674.097 435.948 669.301 442.042C667.427 438.988 667.835 438.653 664.692 436.458L665.254 436.3C669.029 429.213 676.089 415.694 676.444 407.836C675.614 405.787 676.287 406.699 673.789 405.471C682.803 397.306 685.314 394.927 691.113 384.484Z"/><path fill="#EDCCA4" d="M667.363 684.969C665.283 679.581 665.598 671.064 671.04 667.979C675.689 665.343 683.951 673.527 688.832 675.69C686.499 676.94 682.776 677.803 680.078 678.75C674.875 680.576 672.018 682.282 667.363 684.969Z"/><path fill="#754949" d="M669.301 442.042C674.097 435.948 678.981 428.832 683.523 422.459C683.037 426.727 676.936 443.546 675.182 448.999C674.394 448.608 673.464 448.634 672.699 449.067C671.934 449.501 671.434 450.285 671.364 451.162L670.848 451.391L670.292 449.478L669.911 449.553C667.352 448.31 667.201 447.89 666.225 445.485C664.527 442.227 663.021 444.571 661.239 438.744L664.692 436.458C667.835 438.653 667.427 438.988 669.301 442.042Z"/><path fill="#D19B4A" d="M664.692 436.458C667.835 438.653 667.427 438.988 669.301 442.042L669.567 442.435C672.095 443.891 671.296 442.9 672.456 445.144C672.356 447.423 671.969 447.813 670.292 449.478L669.911 449.553C667.352 448.31 667.201 447.89 666.225 445.485C664.527 442.227 663.021 444.571 661.239 438.744L664.692 436.458Z"/><path fill="#754949" d="M671.364 451.162C671.434 450.285 671.934 449.501 672.699 449.067C673.464 448.634 674.394 448.608 675.182 448.999C676.461 449.633 677.008 451.168 676.418 452.468L677.382 453.245C676.472 453.962 675.994 455.096 676.117 456.247L674.814 455.43C671.1 456.814 669.913 466.592 667.628 469.651L666.729 471.856C664.768 470.765 663.844 470.484 662.655 468.574C663.65 465.218 664.53 462.99 665.83 459.798C667.735 457.844 670.227 452.442 669.911 449.553L670.292 449.478L670.848 451.391L671.364 451.162Z"/><path fill="#C68F43" d="M671.364 451.162C671.434 450.285 671.934 449.501 672.699 449.067C673.464 448.634 674.394 448.608 675.182 448.999C676.461 449.633 677.008 451.168 676.418 452.468C675.886 453.64 674.588 454.261 673.342 453.938C672.095 453.616 671.261 452.445 671.364 451.162Z"/><path fill="#B88B5A" d="M691.113 384.484C693.149 380.686 694.123 378.248 695.705 374.22C697.765 376.238 698.664 375.524 701.457 378.461C700.38 382.391 699.489 385.641 698.094 389.478C697.796 387.685 697.503 384.583 696.55 383.248C694.76 384.914 694.19 386.187 692.347 386.256L691.113 384.484Z"/><path fill="#C8A481" d="M698.216 363.255C700.161 369.01 701.273 372.309 701.457 378.461C698.664 375.524 697.765 376.238 695.705 374.22C696.856 370.368 696.893 366.844 698.216 363.255Z"/><path fill="#DDAB60" d="M677.382 453.245C678.589 452.293 680.287 452.28 681.509 453.211C682.732 454.142 683.169 455.783 682.572 457.199C681.976 458.616 680.496 459.449 678.976 459.224C677.455 459 676.279 457.776 676.117 456.247C675.994 455.096 676.472 453.962 677.382 453.245Z"/><path fill="#DDAB60" d="M702.296 464.575C704.92 464.744 705.614 465.298 706.73 467.502C706.534 470.342 706.794 469.291 704.935 471.804C701.986 471.472 701.157 471.475 699.762 468.694C700.147 466.007 699.949 466.905 702.296 464.575Z"/><path fill="#DDAB60" d="M692.072 461.972C695.628 462.309 697.217 463.005 697.502 466.855L696.107 468.249C693.384 468.582 692.802 468.609 691.104 466.617C690.735 464.287 691.014 464.041 692.072 461.972Z"/><path fill="#D19B4A" d="M684.203 459.096C685.374 457.897 687.278 457.821 688.541 458.922C689.804 460.024 689.986 461.92 688.957 463.243C688.238 464.167 687.067 464.618 685.913 464.414C684.76 464.21 683.815 463.385 683.456 462.27C683.098 461.155 683.385 459.934 684.203 459.096Z"/><path fill="#D19B4A" d="M717.009 465.007C718.515 464.674 720.038 465.494 720.588 466.935C721.138 468.375 720.55 470.002 719.206 470.757C718.141 471.356 716.824 471.276 715.84 470.553C714.855 469.83 714.385 468.598 714.637 467.403C714.889 466.208 715.817 465.271 717.009 465.007Z"/><path fill="#5F3B3F" d="M666.893 172.196C672.673 175.23 676.926 177.479 682.15 181.393C684.495 183.239 686.937 185.108 689.215 187.023L687.922 190.655C686.891 193.466 684.988 198.016 684.683 200.826C684.892 201.108 685.42 201.877 685.653 202.075C726.662 202.451 741.51 240.467 683.507 238.955L685.029 239.991L686.081 240.23C686.129 240.972 686.176 241.714 686.224 242.457C698.933 260.567 708.301 280.089 710.243 302.475C711.306 315.864 709.053 329.308 703.685 341.62C702.332 344.803 696.221 355.407 696.388 356.304L698.216 363.255C696.893 366.844 696.856 370.368 695.705 374.22C694.123 378.248 693.149 380.686 691.113 384.484C685.314 394.927 682.803 397.306 673.789 405.471C676.287 406.699 675.614 405.787 676.444 407.836C676.089 415.694 669.029 429.213 665.254 436.3L664.692 436.458L661.239 438.744C663.021 444.571 664.527 442.227 666.225 445.485C667.201 447.89 667.352 448.31 669.911 449.553C670.227 452.442 667.735 457.844 665.83 459.798C664.53 462.99 663.65 465.218 662.655 468.574C663.844 470.484 664.768 470.765 666.729 471.856C665.341 478.546 663.043 486.066 661.19 492.731C660.597 495.139 657.764 507.786 657.22 508.891L656.28 508.74C652.646 512.421 645.916 530.246 639.504 529.055C638.372 526.607 637.675 524.755 636.748 522.213L637.705 519.892C635.139 515.862 630.027 501.134 624.745 503.17L622.971 499.63C621.175 495.844 620.363 494.626 618.013 491.229L615.005 490.493L614.266 491.011L614.149 492.908L613.271 492.79C614.269 484.677 614.197 479.238 612.152 471.277C609.768 466.986 608.591 465.577 604.14 463.815L603.714 463.575C601.49 463.584 602.567 463.804 600.441 462.603C595.833 453.077 591.662 446.364 585.183 438.135C578.046 425.888 575.024 428.543 573.06 410.518C571.711 410.949 571.005 411.338 569.64 411.303C565.274 411.259 548.573 418.767 543.905 420.857C543.894 423.68 544.003 427.188 543.628 429.929C543.277 427.725 543.366 423.968 543.347 421.619C493.535 447.633 463.351 499.492 449.472 552.84C447.462 560.568 446.466 574.145 440.311 579.006C436.998 581.575 432.774 582.666 428.631 582.025C419.378 580.626 416.324 572.991 417.434 564.485C423.406 518.748 439.133 475.533 457.716 433.556C463.912 418.505 471.918 403.205 475.441 387.244C481.841 358.252 474.213 332.369 480.738 302.824L480.744 302.164C486.181 277.091 500.012 254.625 519.95 238.481L520.182 238.88C524.64 246.711 531.492 246.722 535.734 238.385C537.403 235.104 535.772 231.429 534.475 228.172C553.926 218.845 558.56 218.128 578.635 214.086L579.005 213.341L581.743 214.018L591.421 214.4C596.171 214.107 598.097 208.482 600.449 204.486L600.045 203.7C602.117 202.532 603.95 199.296 605.379 197.199C612.156 188.991 616.273 185.685 625.168 179.756C636.788 174.607 646.492 170.542 658.308 177.783L659.535 176.812C662.092 174.684 664.002 173.778 666.893 172.196Z"/><path fill="#946656" d="M666.893 172.196C672.673 175.23 676.926 177.479 682.15 181.393C684.495 183.239 686.937 185.108 689.215 187.023L687.922 190.655C686.891 193.466 684.988 198.016 684.683 200.826C684.892 201.108 685.42 201.877 685.653 202.075C726.662 202.451 741.51 240.467 683.507 238.955L685.029 239.991C671.895 237.01 647.458 246.918 637.161 254.064C604.021 277.061 578.035 308.664 536.042 316.338C522.283 318.852 505.109 320.775 491.656 314.465C483.144 310.332 484.998 306.786 480.738 302.824L480.744 302.164C486.181 277.091 500.012 254.625 519.95 238.481L520.182 238.88C524.64 246.711 531.492 246.722 535.734 238.385C537.403 235.104 535.772 231.429 534.475 228.172C553.926 218.845 558.56 218.128 578.635 214.086L579.005 213.341L581.743 214.018L591.421 214.4C596.171 214.107 598.097 208.482 600.449 204.486L600.045 203.7C602.117 202.532 603.95 199.296 605.379 197.199C612.156 188.991 616.273 185.685 625.168 179.756C636.788 174.607 646.492 170.542 658.308 177.783L659.535 176.812C662.092 174.684 664.002 173.778 666.893 172.196Z"/><path fill="#5F3B3F" d="M666.893 172.196C672.673 175.23 676.926 177.479 682.15 181.393C684.495 183.239 686.937 185.108 689.215 187.023L687.922 190.655C686.891 193.466 684.988 198.016 684.683 200.826C684.892 201.108 685.42 201.877 685.653 202.075C726.662 202.451 741.51 240.467 683.507 238.955C681.133 238.196 671.622 231.392 668.664 229.727C664.901 227.607 663.162 226.909 658.969 225.303C640.189 216.756 634.581 218.877 616.713 217.27C612.62 221.611 609.432 228.941 607.603 234.57C606.097 238.793 604.21 252.471 600.97 253.772C580.605 261.955 587.915 235.044 590.803 225.237C591.942 221.408 594.581 218.364 593.635 215.051L591.421 214.4C596.171 214.107 598.097 208.482 600.449 204.486L600.045 203.7C602.117 202.532 603.95 199.296 605.379 197.199C612.156 188.991 616.273 185.685 625.168 179.756C636.788 174.607 646.492 170.542 658.308 177.783L659.535 176.812C662.092 174.684 664.002 173.778 666.893 172.196Z"/><path fill="#4A2C32" d="M681.58 201.524C682.955 201.731 684.265 201.937 685.653 202.075C726.662 202.451 741.51 240.467 683.507 238.955C681.133 238.196 671.622 231.392 668.664 229.727C664.901 227.607 663.162 226.909 658.969 225.303C640.189 216.756 634.581 218.877 616.713 217.27C616.95 216.167 617.935 214.913 618.695 214.037C623.303 208.73 625.858 206.073 632.832 205.283L647.823 204.489C658.719 202.865 670.602 201.472 681.58 201.524Z"/><path fill="#84534F" d="M666.893 172.196C672.673 175.23 676.926 177.479 682.15 181.393C684.495 183.239 686.937 185.108 689.215 187.023L687.922 190.655C686.891 193.466 684.988 198.016 684.683 200.826C684.892 201.108 685.42 201.877 685.653 202.075C684.265 201.937 682.955 201.731 681.58 201.524C670.602 201.472 658.719 202.865 647.823 204.489C648.609 202.159 649.551 201.791 649.104 199.946L645.879 199.067C655.945 199.339 660.841 197.377 662.271 186.738C661.696 182.5 660.845 181.238 658.308 177.783L659.535 176.812C662.092 174.684 664.002 173.778 666.893 172.196Z"/><path fill="#956B58" d="M681.58 201.524C679.223 197.564 675.396 192.285 679.881 188.435C683.279 187.675 685.028 188.882 687.922 190.655C686.891 193.466 684.988 198.016 684.683 200.826C684.892 201.108 685.42 201.877 685.653 202.075C684.265 201.937 682.955 201.731 681.58 201.524Z"/><path fill="#946656" d="M658.308 177.783L659.535 176.812C661.996 178.697 662.98 178.108 665.931 177.551C666.725 179.324 664.342 185.647 662.988 187.097L662.271 186.738C661.696 182.5 660.845 181.238 658.308 177.783Z"/><path fill="#946656" d="M632.832 205.283C631.758 205.209 630.932 205.054 629.871 204.887C631.801 201.258 641.646 198.138 645.879 199.067L649.104 199.946C649.551 201.791 648.609 202.159 647.823 204.489L632.832 205.283Z"/><path fill="#84534F" d="M616.713 217.27C634.581 218.877 640.189 216.756 658.969 225.303C645.075 227.372 619.827 228.568 607.603 234.57C609.432 228.941 612.62 221.611 616.713 217.27Z"/><path fill="#956B58" d="M480.744 302.164C484.748 303.978 482.363 305.282 484.74 305.756C489.121 300.525 496.778 297.921 503.346 300.381C505.671 303.873 494.715 311.503 491.892 313.551L491.656 314.465C483.144 310.332 484.998 306.786 480.738 302.824L480.744 302.164Z"/><path fill="#84534F" d="M581.743 214.018L591.421 214.4L593.635 215.051C594.581 218.364 591.942 221.408 590.803 225.237C585.883 222.641 583.649 221.473 583.578 215.115L582.33 214.982L581.743 214.018Z"/><path fill="#EDCCA4" d="M673.789 405.471C676.287 406.699 675.614 405.787 676.444 407.836C676.089 415.694 669.029 429.213 665.254 436.3L664.692 436.458L661.239 438.744C663.021 444.571 664.527 442.227 666.225 445.485C667.201 447.89 667.352 448.31 669.911 449.553C670.227 452.442 667.735 457.844 665.83 459.798C664.53 462.99 663.65 465.218 662.655 468.574C663.844 470.484 664.768 470.765 666.729 471.856C665.341 478.546 663.043 486.066 661.19 492.731C660.597 495.139 657.764 507.786 657.22 508.891L656.28 508.74C652.646 512.421 645.916 530.246 639.504 529.055C638.372 526.607 637.675 524.755 636.748 522.213L637.705 519.892C635.139 515.862 630.027 501.134 624.745 503.17L622.971 499.63C621.175 495.844 620.363 494.626 618.013 491.229L615.005 490.493L614.266 491.011L614.149 492.908L613.271 492.79C614.269 484.677 614.197 479.238 612.152 471.277C609.768 466.986 608.591 465.577 604.14 463.815L603.714 463.575C611.611 448.539 638.104 432.986 652.532 422.786C652.181 421.451 651.96 420.461 651.707 419.105C652.419 416.671 652.543 415.696 655.026 415.592C656.543 416.572 656.712 417.202 657.65 418.766C662.137 415.93 669.652 409.173 673.789 405.471Z"/><path fill="#956B58" d="M625.853 490.853C632.172 483.739 657.018 459.115 665.83 459.798C664.53 462.99 663.65 465.218 662.655 468.574C663.844 470.484 664.768 470.765 666.729 471.856C665.341 478.546 663.043 486.066 661.19 492.731C660.597 495.139 657.764 507.786 657.22 508.891L656.28 508.74C652.646 512.421 645.916 530.246 639.504 529.055C638.372 526.607 637.675 524.755 636.748 522.213L637.705 519.892C635.139 515.862 630.027 501.134 624.745 503.17L622.971 499.63C624.419 499.292 623.909 499.431 625.207 498.477C626.3 496.282 625.915 493.399 625.853 490.853Z"/><path fill="#754949" d="M642.545 511.375C646.388 509.501 649.611 503.608 652.21 499.876L651.709 500.894C656.271 495.688 655.6 496.184 661.19 492.731C660.597 495.139 657.764 507.786 657.22 508.891L656.28 508.74C652.646 512.421 645.916 530.246 639.504 529.055C638.372 526.607 637.675 524.755 636.748 522.213L637.705 519.892C639.011 517.054 640.922 514.082 642.545 511.375Z"/><path fill="#84534F" d="M662.655 468.574C663.844 470.484 664.768 470.765 666.729 471.856C665.341 478.546 663.043 486.066 661.19 492.731C655.6 496.184 656.271 495.688 651.709 500.894L652.21 499.876C649.611 503.608 646.388 509.501 642.545 511.375C645.407 507.015 653.261 497.155 654.861 492.318C657.69 483.763 659.102 477.333 662.655 468.574Z"/><path fill="#946656" d="M666.225 445.485C667.201 447.89 667.352 448.31 669.911 449.553C670.227 452.442 667.735 457.844 665.83 459.798C657.018 459.115 632.172 483.739 625.853 490.853C625.915 493.399 626.3 496.282 625.207 498.477C623.909 499.431 624.419 499.292 622.971 499.63C621.175 495.844 620.363 494.626 618.013 491.229L620.433 488.674C623.499 485.626 626.267 482.42 629.503 479.267C641.435 471.761 657.001 455.74 666.225 445.485Z"/><path fill="#D7B491" d="M629.503 479.267C630.388 476.445 632.365 474.026 633.583 471.62C639.874 459.203 648.95 454.08 658.601 444.929C661.533 442.149 661.254 441.85 661.239 438.744C663.021 444.571 664.527 442.227 666.225 445.485C657.001 455.74 641.435 471.761 629.503 479.267Z"/><path fill="#D7B491" d="M626.517 459.279C623.236 464.283 618.459 471.245 615.62 476.289C621.634 482.497 618.394 483.155 620.433 488.674L618.013 491.229L615.005 490.493L614.266 491.011L614.149 492.908L613.271 492.79C614.269 484.677 614.197 479.238 612.152 471.277C617.683 464.959 619.373 463.692 626.517 459.279Z"/><path fill="#D19B4A" d="M652.532 422.786C652.181 421.451 651.96 420.461 651.707 419.105C652.419 416.671 652.543 415.696 655.026 415.592C656.543 416.572 656.712 417.202 657.65 418.766C658.192 421.624 660.427 425.563 656.393 426.779C653.574 425.894 653.385 425.863 652.532 422.786Z"/><path fill="#DDAB60" d="M657.808 429.055C658.814 428.434 660.079 428.414 661.104 429.003C662.128 429.593 662.747 430.696 662.715 431.878C662.683 433.059 662.006 434.128 660.951 434.662C659.414 435.44 657.536 434.868 656.694 433.364C655.851 431.861 656.343 429.961 657.808 429.055Z"/><defs><linearGradient id="gradient_2" gradientUnits="userSpaceOnUse" x1="631.05743" y1="381.51355" x2="657.8468" y2="432.73462"><stop offset="0" stop-color="#845B54"/><stop offset="1" stop-color="#9F6F6C"/></linearGradient></defs><path fill="url(#gradient_2)" d="M660.706 388.192C677.601 377.506 684.401 372.211 696.388 356.304L698.216 363.255C696.893 366.844 696.856 370.368 695.705 374.22C694.123 378.248 693.149 380.686 691.113 384.484C685.314 394.927 682.803 397.306 673.789 405.471C669.652 409.173 662.137 415.93 657.65 418.766C656.712 417.202 656.543 416.572 655.026 415.592C652.543 415.696 652.419 416.671 651.707 419.105C651.96 420.461 652.181 421.451 652.532 422.786C638.104 432.986 611.611 448.539 603.714 463.575C601.49 463.584 602.567 463.804 600.441 462.603C595.833 453.077 591.662 446.364 585.183 438.135C578.046 425.888 575.024 428.543 573.06 410.518C581.466 408.604 645.052 399.988 647.572 393.996L648.885 393.743L649.679 393.455C653.606 392.187 657.067 390.146 660.706 388.192Z"/><path fill="#84534F" d="M649.679 393.455C653.606 392.187 657.067 390.146 660.706 388.192L662.642 389.073C663.358 393.991 656.738 397.578 653.102 399.934C651.975 398.781 650.454 397.612 649.19 396.564L648.885 393.743L649.679 393.455Z"/><path fill="#DDAB60" d="M649.19 396.564C650.454 397.612 651.975 398.781 653.102 399.934L651.211 402.769C649.002 403.703 650.095 403.63 647.825 403.073C646.398 401.274 646.876 402.279 646.514 399.87C647.59 397.298 646.811 398.42 649.19 396.564Z"/><path fill="#D19B4A" d="M649.868 407.017C650.904 406.386 652.202 406.372 653.251 406.981C654.3 407.59 654.932 408.724 654.898 409.936C654.864 411.149 654.169 412.245 653.087 412.794C651.502 413.598 649.564 413.007 648.699 411.454C647.834 409.901 648.35 407.941 649.868 407.017Z"/><path fill="#DDAB60" d="M647.248 385.964C645.573 386.134 644.066 384.943 643.844 383.274C643.623 381.605 644.767 380.062 646.428 379.79C648.09 379.517 649.667 380.614 649.99 382.266C650.313 383.918 649.266 385.528 647.624 385.902C647.5 385.93 647.375 385.951 647.248 385.964Z"/><path fill="#D19B4A" d="M647.248 385.964C647.375 385.951 647.5 385.93 647.624 385.902C649.887 388.221 649.977 387.631 650.701 390.345C650.386 391.26 649.889 392.55 649.679 393.455L648.885 393.743L647.572 393.996C645.405 392.109 645.75 392.907 644.866 390.463C645.148 388.224 645.829 387.714 647.248 385.964Z"/><path fill="#D19B4A" d="M604.489 298.442C608.921 297.645 614.525 297.968 618.805 299.425L622.338 300.852C627.031 303.585 629.043 304.797 633.01 308.76C634.302 310.51 636.154 312.865 637.221 314.692C641.481 323.712 640.872 328.883 643.041 333.665L643.929 333.893C651.888 335.983 651.514 339.561 646.478 345.018L645.669 345.906L644.718 345.272L642.064 344.459C638.182 345.536 636.878 366.226 612.669 369.706C604.221 370.937 595.636 368.679 588.886 363.452C571.102 349.793 571.703 324.864 585.416 308.349C589.71 304.623 592.128 302.458 597.549 300.274C600.189 299.275 601.693 299.02 604.489 298.442Z"/><path fill="#DDAB60" d="M597.549 300.274C600.189 299.275 601.693 299.02 604.489 298.442L605.275 299.422C604.501 301.624 603.785 302.133 602.197 303.808C600.476 301.88 599.82 301.635 597.549 300.274Z"/><path fill="#DDAB60" d="M601.489 305.629C610.253 303.769 618.198 304.452 625.309 310.567C629.836 314.907 630.837 316.737 633.524 322.306L635.108 327.714C635.496 331.395 635.611 333 635.528 336.728C635.12 338.963 634.74 341.235 634.243 343.448C631.576 349.844 629.567 354.108 623.779 358.5C622.367 355.289 622.07 354.853 619.769 352.199C618.37 350.458 617.577 350.33 615.527 349.482C611.439 351.039 609.67 351.082 605.294 350.804L600.916 348.797C597.305 352.221 595.51 353.86 592.569 357.815C589.858 355.359 587.879 352.548 585.658 349.644C584.081 346.391 583.474 344.339 582.407 340.945C581.672 331.614 581.687 325.853 586.64 317.374L588.641 314.225C590.989 311.79 591.728 310.962 594.526 309.125C597.24 307.341 598.542 306.87 601.489 305.629Z"/><path fill="#754949" d="M601.489 305.629C610.253 303.769 618.198 304.452 625.309 310.567C629.836 314.907 630.837 316.737 633.524 322.306C630.842 322.58 627.457 322.817 624.892 323.412C622.299 324.351 621.97 323.947 620.699 326.074C615.948 319.91 612.648 318.952 605.084 319.74C598.584 322.49 596.513 325.121 594.737 332.014C594.383 336.831 594.364 338.617 596.161 343.099C597.966 345.722 598.492 346.709 600.916 348.797C597.305 352.221 595.51 353.86 592.569 357.815C589.858 355.359 587.879 352.548 585.658 349.644C584.081 346.391 583.474 344.339 582.407 340.945C581.672 331.614 581.687 325.853 586.64 317.374L588.641 314.225C590.989 311.79 591.728 310.962 594.526 309.125C597.24 307.341 598.542 306.87 601.489 305.629Z"/><path fill="#84534F" d="M596.161 343.099C597.966 345.722 598.492 346.709 600.916 348.797C597.305 352.221 595.51 353.86 592.569 357.815C589.858 355.359 587.879 352.548 585.658 349.644C587.914 348.003 590.519 346.668 592.971 345.308C594.697 344.428 594.702 344.393 596.161 343.099Z"/><path fill="#5F3B3F" d="M624.892 323.412C623.104 323.418 621.695 323.606 620.085 322.881C620.392 319.77 622.637 312.133 625.309 310.567C629.836 314.907 630.837 316.737 633.524 322.306C630.842 322.58 627.457 322.817 624.892 323.412Z"/><path fill="#5F3B3F" d="M582.407 340.945C583.755 339.39 590.268 336.34 592.477 336.325C595.079 337.959 594.343 342.906 592.971 345.308C590.519 346.668 587.914 348.003 585.658 349.644C584.081 346.391 583.474 344.339 582.407 340.945Z"/><path fill="#84534F" d="M588.641 314.225C590.989 311.79 591.728 310.962 594.526 309.125C593.23 313.374 595.036 311.729 595.08 313.987C595.131 316.64 594.722 319.482 592.271 320.904C589.963 320.597 588.132 319.117 586.64 317.374L588.641 314.225Z"/><path fill="#754949" d="M624.892 323.412C627.457 322.817 630.842 322.58 633.524 322.306L635.108 327.714C635.496 331.395 635.611 333 635.528 336.728C635.12 338.963 634.74 341.235 634.243 343.448C631.576 349.844 629.567 354.108 623.779 358.5C622.367 355.289 622.07 354.853 619.769 352.199C618.37 350.458 617.577 350.33 615.527 349.482L618.781 346.848C622.107 341.954 622.367 340.806 623.011 335.12C622.902 331.129 622.205 329.629 620.699 326.074C621.97 323.947 622.299 324.351 624.892 323.412Z"/><path fill="#5F3B3F" d="M618.781 346.848C622.913 347.498 628.87 344.239 634.243 343.448C631.576 349.844 629.567 354.108 623.779 358.5C622.367 355.289 622.07 354.853 619.769 352.199C618.37 350.458 617.577 350.33 615.527 349.482L618.781 346.848Z"/><path fill="#84534F" d="M624.892 323.412C627.457 322.817 630.842 322.58 633.524 322.306L635.108 327.714C630.831 329.454 626.245 331.301 623.295 335.047L623.011 335.12C622.902 331.129 622.205 329.629 620.699 326.074C621.97 323.947 622.299 324.351 624.892 323.412Z"/><path fill="#5F3B3F" d="M635.108 327.714C635.496 331.395 635.611 333 635.528 336.728C631.432 336.823 627.13 338.6 623.639 337.294L623.295 335.047C626.245 331.301 630.831 329.454 635.108 327.714Z"/><path fill="#EDCCA4" d="M605.084 319.74C606.519 321.284 606.117 320.377 606.164 322.622C604.393 325.809 600.314 331.921 596.695 333.099C595.037 332.689 595.583 333.164 594.737 332.014C596.513 325.121 598.584 322.49 605.084 319.74Z"/><path fill="#754949" d="M600.916 348.797L605.294 350.804C609.67 351.082 611.439 351.039 615.527 349.482C617.577 350.33 618.37 350.458 619.769 352.199C622.07 354.853 622.367 355.289 623.779 358.5C620.679 360.267 619.145 361.116 615.74 362.466C608.775 363.662 604.742 363.723 598.032 361.182C596.059 360.193 594.406 359.029 592.569 357.815C595.51 353.86 597.305 352.221 600.916 348.797Z"/><path fill="#5F3B3F" d="M600.916 348.797L605.294 350.804C602.238 354.708 600.617 356.966 598.032 361.182C596.059 360.193 594.406 359.029 592.569 357.815C595.51 353.86 597.305 352.221 600.916 348.797Z"/><path fill="#84534F" d="M615.74 362.466C615.398 358.876 616.203 353.944 619.769 352.199C622.07 354.853 622.367 355.289 623.779 358.5C620.679 360.267 619.145 361.116 615.74 362.466Z"/><path fill="#4A2C32" d="M633.028 282.348C641.401 282.599 648.847 286.653 653.87 293.298C656.739 297.093 662.577 307.076 662.037 311.724L661.012 312.466L659.832 312.107C650.469 293.696 650.044 290.097 629.356 285.129C630.12 283.52 631.379 283.178 633.028 282.348Z"/><path fill="#4A2C32" d="M635.132 372.22C635.711 372.159 636.069 372.342 636.692 372.507L636.764 373.395C633.371 379.399 623.402 383.393 616.848 384.39C609.922 385.443 604.692 383.917 598.269 381.913C596.94 380.812 596.341 380.552 595.688 378.978C597.28 376.357 605.529 380.763 609.694 380.671C619.546 380.455 626.713 376.522 635.132 372.22Z"/><path fill="#4A2C32" d="M643.706 272.999C649.733 273.313 653.89 275.303 658.573 279.938C662.05 283.38 668.085 292.511 668.687 297.617C668.766 298.289 668.129 298.418 667.379 298.878C661.863 294.976 659.653 284.508 653.209 280.047C650.533 278.194 643.033 276.431 642.175 274.676L643.706 272.999Z"/><path fill="#D19B4A" d="M645.173 354.249C652.891 359.742 644.848 359.38 646.226 366.313C647.752 367.506 648.247 367.71 649.26 369.365C649.337 372.502 646.858 373.781 646.761 378.724C646.21 377.937 643.268 371.883 643.31 370.378C646.724 363.352 644.377 364.655 642.339 358.63C642.831 356.424 643.624 355.893 645.173 354.249Z"/><path fill="#4A2C32" d="M633.01 308.76C634.655 306.513 635.943 304.16 638.357 303.021L639.952 303.099C643.092 306.879 640.102 311.724 637.221 314.692C636.154 312.865 634.302 310.51 633.01 308.76Z"/><path fill="#4A2C32" d="M618.805 299.425C621.087 296.312 621.701 294.717 625.416 294L626.628 294.563C626.973 297.633 624.562 298.928 622.338 300.852L618.805 299.425Z"/><path fill="#D19B4A" d="M644.718 345.272L645.669 345.906C647.742 347.785 647.932 348.279 647.66 350.885C646.233 352.502 647.097 351.969 644.937 352.472C642.777 351.68 643.571 352.369 642.489 350.32C642.428 347.886 643.246 347.247 644.718 345.272Z"/><path fill="#FCFBFA" d="M253.094 479.279C254.036 477.946 254.679 478.132 256.075 478.443C263.39 480.077 270.364 478.077 277.405 476.148C277.343 481.569 279.187 486.009 280.673 491.323C280.909 492.959 281.123 494.391 281.458 496.021L282.443 496.746C284.527 496.283 286.471 495.759 288.532 495.204C310.155 500.544 309.42 525.62 309.368 543.735L316.228 543.692C317.855 544.892 320.193 546.499 321.597 547.865C322.192 550.073 322.778 552.029 323.111 554.295C333.11 560.236 334.775 563.579 331.023 575.155L336.3 580.854C391.154 639.485 445.084 655.653 497.127 583.963C500.754 578.967 505.99 569.77 509.662 565.683C515.206 562.697 524.042 537.946 525.679 536.619C525.73 536.853 525.906 537.718 526.023 538.031C527.769 542.692 527.538 548.103 528.711 553.195L528.922 554.081C527.778 561.702 525.593 594.809 526.521 601.427L526.188 602.013C525.656 612.482 524.131 644.237 520.791 652.706C522.302 657.29 514.393 715.309 514.289 727.949C490.081 758.575 456.993 779.26 417.906 783.805C404.045 785.417 392.507 785.254 378.63 784.896L378.456 784.386C376.253 784.5 376.123 784.561 373.862 784.13C373.39 782.496 375.487 774.628 375.309 770.459C374.988 762.922 374.357 760.056 372.645 752.86L373.991 752.131C370.851 750.82 369.717 745.439 365.922 742.081C361.983 740.21 359.388 740.861 355.037 741.238C348.592 735.322 344.687 737.521 339.197 743.146C332.433 734.242 326.078 727.337 316.394 721.51C311.106 718.328 302.4 718.905 300.42 716.534C298.754 718.181 292.578 718.867 290.022 719.319C285.935 720.042 280.415 725.977 278.819 725.044C277.253 705.951 273.75 682.184 271.382 662.864L260.573 572.513C260.467 572.44 253.239 571.155 252.387 570.977C240.865 568.564 234.772 565.035 231.852 553.217C232.837 548.183 233.171 546.929 236.503 543.083C227.623 533.911 227.989 525.529 237.173 516.962C231.906 508.323 231 499.045 241.791 495.104C245.347 493.804 247.889 493.873 251.385 493.075L251.984 488.995L253.532 482.975L253.094 479.279Z"/><path fill="#F4D8B3" d="M253.094 479.279C254.036 477.946 254.679 478.132 256.075 478.443C263.39 480.077 270.364 478.077 277.405 476.148C277.343 481.569 279.187 486.009 280.673 491.323C280.909 492.959 281.123 494.391 281.458 496.021L282.443 496.746C284.527 496.283 286.471 495.759 288.532 495.204C310.155 500.544 309.42 525.62 309.368 543.735L316.228 543.692C317.855 544.892 320.193 546.499 321.597 547.865C322.192 550.073 322.778 552.029 323.111 554.295C333.11 560.236 334.775 563.579 331.023 575.155C327.741 584.872 324.429 589.834 316.596 596.793C315.131 598.095 312.407 599.85 311.25 600.934L310.505 601.153C303.1 603.39 300.28 607.367 292.501 603.339C291.664 602.904 290.835 602.452 290.014 601.985L289.395 602.925C289.941 611.916 290.823 621.198 291.826 630.167C295.033 658.856 296.928 687.9 300.42 716.534C298.754 718.181 292.578 718.867 290.022 719.319C285.935 720.042 280.415 725.977 278.819 725.044C277.253 705.951 273.75 682.184 271.382 662.864L260.573 572.513C260.467 572.44 253.239 571.155 252.387 570.977C240.865 568.564 234.772 565.035 231.852 553.217C232.837 548.183 233.171 546.929 236.503 543.083C227.623 533.911 227.989 525.529 237.173 516.962C231.906 508.323 231 499.045 241.791 495.104C245.347 493.804 247.889 493.873 251.385 493.075L251.984 488.995L253.532 482.975L253.094 479.279Z"/><path fill="#4A2C32" d="M270.921 525.755C275.366 529.568 275.193 529.933 281.191 529.342C282.194 531.632 283.56 545.15 284.042 548.506C284.104 549.587 284.273 553.833 284.468 554.629L286.7 576.868C286.928 580.26 287.015 583.595 287.77 586.899C287.935 589.036 288.864 601.363 289.395 602.925C289.941 611.916 290.823 621.198 291.826 630.167C295.033 658.856 296.928 687.9 300.42 716.534C298.754 718.181 292.578 718.867 290.022 719.319C285.935 720.042 280.415 725.977 278.819 725.044C277.253 705.951 273.75 682.184 271.382 662.864L260.573 572.513C261.996 571.769 265.81 571.463 267.638 571.106C280.553 568.583 282.423 557.514 270.229 551.254C272.927 549.942 273.434 549.697 275.65 547.704C283.628 538.152 274.676 531.639 265.794 528.771L268.297 527.166L270.428 526.02L270.921 525.755Z"/><path fill="#B88B5A" d="M253.094 479.279C254.036 477.946 254.679 478.132 256.075 478.443C263.39 480.077 270.364 478.077 277.405 476.148C277.343 481.569 279.187 486.009 280.673 491.323L280.565 498.107C278.515 499.956 276.445 501.71 274.622 503.779C270.977 504.212 268.203 504.517 264.52 504.654C260.969 502.822 255.575 500.185 252.556 497.835L251.984 488.995L253.532 482.975L253.094 479.279Z"/><path fill="#D19B4A" d="M253.532 482.975C264.43 481.074 282.825 486.423 268.817 498.273C267.921 499.022 267.005 499.747 266.071 500.448C262.776 497.619 258.399 492.996 253.815 494.212C252.532 495.829 252.926 495.499 252.556 497.835L251.984 488.995L253.532 482.975Z"/><path fill="#D7B491" d="M293.038 513.826C292.987 515.452 292.81 520.448 292.419 521.588C288.079 534.246 283.464 543.779 293.995 555.288C295.15 556.551 296.351 557.526 297.752 558.661C298.627 561.099 299.484 563.279 300.058 565.812L305.436 567.174C301.913 571.865 299.974 573.652 295.216 577.286C295.209 575.52 295.265 575.145 294.881 573.381C293.235 572.642 289.762 576.068 286.7 576.868L284.468 554.629C284.273 553.833 284.104 549.587 284.042 548.506C283.56 545.15 282.194 531.632 281.191 529.342C288.107 525.523 290.063 520.974 293.038 513.826Z"/><path fill="#C8A481" d="M284.042 548.506C286.664 551.226 288.634 552.859 290.096 556.341L289.979 557.447C287.915 557.706 285.947 555.922 284.468 554.629C284.273 553.833 284.104 549.587 284.042 548.506Z"/><path fill="#EDCCA4" d="M270.229 551.254C263.131 554.8 237.984 551.617 237.634 543.165L238.784 542.64C242.039 543.295 243.195 544.452 246.193 545.948C255.123 550.459 265.494 551.182 274.963 547.954C275.192 547.87 275.421 547.787 275.65 547.704C273.434 549.697 272.927 549.942 270.229 551.254Z"/><path fill="#EDCCA4" d="M304.408 559.097C306.606 555.705 308.359 548.566 309.901 547.087L311.022 547.557L309.592 547.297L310.166 546.994C314.772 552.176 308.911 562.565 305.436 567.174L300.058 565.812C299.484 563.279 298.627 561.099 297.752 558.661L304.408 559.097Z"/><path fill="#EDCCA4" d="M265.794 528.771C256.445 530.747 244.18 525.319 238.059 518.107L238.257 517.389C241.314 516.285 257.248 527.326 268.297 527.166L265.794 528.771Z"/><path fill="#B88B5A" d="M286.7 576.868C289.762 576.068 293.235 572.642 294.881 573.381C295.265 575.145 295.209 575.52 295.216 577.286L294.706 577.706C291.858 580.01 289.564 580.343 288.073 582.53C287.922 584.072 287.835 585.351 287.77 586.899C287.015 583.595 286.928 580.26 286.7 576.868Z"/><path fill="#353234" d="M264.52 504.654C268.203 504.517 270.977 504.212 274.622 503.779C273.384 506.041 272.084 508.345 270.919 510.64C268.499 507.551 267.552 506.935 264.52 504.654Z"/><path fill="#C8A481" d="M270.428 526.02C267.59 522.101 265.576 517.31 269.506 513.382C270.531 515.774 269.033 519.604 270.74 525.182L270.921 525.755L270.428 526.02Z"/><path fill="#B88B5A" d="M295.607 584.122C301.074 584.035 305.37 584.803 305.42 591.398C304.239 594.684 302.313 597.322 298.472 597.372C296.5 597.391 294.604 596.609 293.219 595.204C289.156 591.042 292.088 587.003 295.607 584.122Z"/><path fill="#D19B4A" d="M295.607 584.122C301.074 584.035 305.37 584.803 305.42 591.398C301.869 588.559 301.482 595.517 295.607 584.122Z"/><path fill="#754949" d="M509.662 565.683C515.206 562.697 524.042 537.946 525.679 536.619C525.73 536.853 525.906 537.718 526.023 538.031C527.769 542.692 527.538 548.103 528.711 553.195L528.922 554.081C527.778 561.702 525.593 594.809 526.521 601.427L526.188 602.013L525.362 601.872C461.151 689.58 389.829 681.981 318.289 608.129L311.25 600.934C312.407 599.85 315.131 598.095 316.596 596.793C324.429 589.834 327.741 584.872 331.023 575.155L336.3 580.854C391.154 639.485 445.084 655.653 497.127 583.963C500.754 578.967 505.99 569.77 509.662 565.683Z"/><path fill="#5F3B3F" d="M331.023 575.155L336.3 580.854C334.346 593.138 332.269 605.536 318.289 608.129L311.25 600.934C312.407 599.85 315.131 598.095 316.596 596.793C324.429 589.834 327.741 584.872 331.023 575.155Z"/><path fill="#754949" d="M376.922 752.485C401.949 753.418 424.673 752.503 447.492 740.724C483.272 722.256 505.419 688.396 520.791 652.706C522.302 657.29 514.393 715.309 514.289 727.949C490.081 758.575 456.993 779.26 417.906 783.805C404.045 785.417 392.507 785.254 378.63 784.896L378.456 784.386C376.253 784.5 376.123 784.561 373.862 784.13C373.39 782.496 375.487 774.628 375.309 770.459C374.988 762.922 374.357 760.056 372.645 752.86L373.991 752.131L376.922 752.485Z"/><path fill="#5F3B3F" d="M378.456 784.386C376.253 784.5 376.123 784.561 373.862 784.13C373.39 782.496 375.487 774.628 375.309 770.459C374.988 762.922 374.357 760.056 372.645 752.86L373.991 752.131L376.922 752.485C383.496 761.061 390.9 774.466 381.961 783.889C380.492 784.204 379.955 784.273 378.456 784.386Z"/><path fill="#4A2C32" d="M688.832 675.69L695.184 677.813C697.913 677.735 701.483 677.298 703.974 677.428C718.395 678.182 731.454 684.63 742.722 693.283C749.319 686.427 753.017 686.578 760.806 691.93C771.859 690.463 775.263 694.182 778.812 704.46C781.283 716.68 780.774 725.349 776.004 736.999C783.025 742.947 859.966 754.99 859.264 754.402C887.143 850.808 898.169 961.378 851.2 1054.22C849.85 1056.89 845.496 1064.28 842.784 1065.31L841.929 1064.76C841.564 1061.28 843.71 1045 843.903 1038.66C844.905 1010.93 840.673 983.262 831.427 957.098C824.085 985.973 812.669 1015.45 797.338 1040.94C788.763 1055.2 774.565 1077.64 754.999 1071.55C746.246 1068.82 738.868 1064.25 731.142 1059.46C732.732 1058.53 737.398 1056.65 738.524 1055.76C752.12 1044.93 762.069 1008.41 765.65 992.478C766.717 989.589 768.164 982.301 768.909 978.967C770.564 969.707 772.678 961.026 774.182 951.55C777.919 927.37 781.157 897.576 781.359 873.118C776.604 867.342 771.02 861.237 766.039 855.579C764.913 853.94 763.243 852.356 761.833 850.889C748.837 835.94 733.958 820.656 720.471 805.796C717.798 802.657 715.184 799.491 712.299 796.545C702.834 785.054 693.969 773.083 685.739 760.678C683.875 757.808 676.674 746.595 677.312 743.641C669.674 738.388 669.35 734.429 668.875 725.711L666.011 726.22L665.392 725.479C655.263 720.017 657.261 708.838 660.84 699.787C663.502 695.005 665.84 691.93 670.168 688.478L667.363 684.969C672.018 682.282 674.875 680.576 680.078 678.75C682.776 677.803 686.499 676.94 688.832 675.69Z"/><path fill="#F4D8B3" d="M688.832 675.69L695.184 677.813C697.913 677.735 701.483 677.298 703.974 677.428C718.395 678.182 731.454 684.63 742.722 693.283C749.319 686.427 753.017 686.578 760.806 691.93C771.859 690.463 775.263 694.182 778.812 704.46C781.283 716.68 780.774 725.349 776.004 736.999C768.332 751.222 760.317 760.611 746.171 746.015C740.541 747.892 735.362 749.302 730.365 744.877C727.304 741.345 727.523 739.147 727.684 734.651C723.659 733.237 719.652 731.778 715.661 730.272L710.029 728.189C705.348 731.557 704.073 732.45 701.153 737.652C705.959 739.513 707.788 740.363 709.096 745.546C708.656 753.557 701.573 757.194 694.298 754.82C688.565 752.95 686.89 750.623 684.251 745.522L681.577 744.999L677.312 743.641C669.674 738.388 669.35 734.429 668.875 725.711L666.011 726.22L665.392 725.479C655.263 720.017 657.261 708.838 660.84 699.787C663.502 695.005 665.84 691.93 670.168 688.478L667.363 684.969C672.018 682.282 674.875 680.576 680.078 678.75C682.776 677.803 686.499 676.94 688.832 675.69Z"/><path fill="#D7B491" d="M746.529 724.275L746.84 723.479C749.324 716.954 750.607 707.787 748.04 701.025C747.756 700.277 746.321 698.223 745.707 696.908C746.623 696.14 746.142 696.323 747.418 696.445C755.995 697.268 754.49 712.958 753.368 718.484C752.626 722.262 751.262 725.891 749.333 729.222L746.529 724.275Z"/><path fill="#D7B491" d="M681.577 744.999C682.563 743.024 681.461 740.941 681.355 738.753C680.797 727.218 684.177 717.494 694.548 711.433C696.648 710.206 699.311 709.139 701.774 709.939L701.893 710.797C698.806 713.169 695.182 715.24 692.402 717.883C684.395 725.494 681.699 734.915 684.251 745.522L681.577 744.999Z"/><path fill="#C8A481" d="M746.529 724.275L749.333 729.222C748.012 731.469 747.402 732.302 745.737 734.312C740.311 737.843 737.017 739.938 732.365 734.325C739.674 731.695 741.76 730.118 746.529 724.275Z"/><path fill="#D7B491" d="M688.832 675.69L695.184 677.813C684.603 680.647 678.961 681.664 670.168 688.478L667.363 684.969C672.018 682.282 674.875 680.576 680.078 678.75C682.776 677.803 686.499 676.94 688.832 675.69Z"/><path fill="#EDCCA4" d="M727.684 734.651C729.898 734.689 730.204 734.697 732.365 734.325C737.017 739.938 740.311 737.843 745.737 734.312C740.435 743.435 734.993 740.648 730.365 744.877C727.304 741.345 727.523 739.147 727.684 734.651Z"/><path fill="#D7B491" d="M665.392 725.479C665.8 724.46 665.715 724.865 665.835 723.764C666.675 716.083 668.261 712.779 672.644 706.659L673.726 710.848C670.96 716.194 670.098 719.834 668.875 725.711L666.011 726.22L665.392 725.479Z"/><path fill="#D7B491" d="M677.705 701.093C681.344 697.851 686.7 693.888 691.856 694.127L692.109 694.954C689.773 697.783 685.991 699.468 682.666 701.387L677.705 701.093Z"/><path fill="#A37B6A" d="M677.705 701.093L682.666 701.387C678.776 704.86 676.884 706.644 673.726 710.848L672.644 706.659C674.338 703.871 675.199 703.112 677.705 701.093Z"/><path fill="#EDCCA4" d="M709.096 745.546C701.822 744.693 704.623 740.307 700.879 738.764L701.153 737.652C705.959 739.513 707.788 740.363 709.096 745.546Z"/><path fill="#EDCCA4" d="M710.029 728.189C711.997 726.859 715.419 725.039 717.816 725.577L718.301 726.651C717.421 728.419 716.943 728.835 715.661 730.272L710.029 728.189Z"/><path fill="#C68F43" d="M751.985 741.541C751.932 728.661 766.965 728.613 766.615 740.628C762.376 747.621 757 748.633 751.985 741.541Z"/><path fill="#DDAB60" d="M751.985 741.541C751.932 728.661 766.965 728.613 766.615 740.628L766.02 738.132C762.247 734.877 761.637 739.627 756.783 738.865C755.518 737.471 755.533 737.341 753.929 736.428C753.314 737.298 752.391 740.348 751.985 741.541Z"/><path fill="#4A2C32" d="M600.925 156.343C608.714 126.994 615.645 96.3895 615.435 65.8098C616.035 60.3463 612.69 50.2528 618.779 47.3715C633.94 40.1979 654.95 46.8256 669.762 49.0251C686.35 51.4885 744.435 81.9184 742.993 100.931C740.941 105.511 736.498 108.938 733.254 112.744C718.085 130.537 706.264 150.297 695.989 171.244L692.643 178.544L689.215 187.023C686.937 185.108 684.495 183.239 682.15 181.393C676.926 177.479 672.673 175.23 666.893 172.196C664.002 173.778 662.092 174.684 659.535 176.812L658.308 177.783C646.492 170.542 636.788 174.607 625.168 179.756C616.273 185.685 612.156 188.991 605.379 197.199L588.629 193.515L587.73 193.223C591.107 190.515 599.069 162.365 600.925 156.343Z"/><path fill="#A37B6A" d="M600.925 156.343C602.607 157.805 610.803 157.093 614.299 157.215C612.975 158.837 612.337 159.296 612.152 161.378C614.101 167.762 621.644 171.302 625.168 179.756C616.273 185.685 612.156 188.991 605.379 197.199L588.629 193.515L587.73 193.223C591.107 190.515 599.069 162.365 600.925 156.343Z"/><path fill="#956B58" d="M614.299 157.215C632.63 158.783 650.487 163.869 666.893 172.196C664.002 173.778 662.092 174.684 659.535 176.812L658.308 177.783C646.492 170.542 636.788 174.607 625.168 179.756C621.644 171.302 614.101 167.762 612.152 161.378C612.337 159.296 612.975 158.837 614.299 157.215Z"/><path fill="#4A2C32" d="M682.15 181.393C682.893 177.978 683.408 172.524 687.23 171.711L688.591 172.74C690.07 175.898 690.11 176.284 692.643 178.544L689.215 187.023C686.937 185.108 684.495 183.239 682.15 181.393Z"/><path fill="#5F3B3F" d="M688.591 172.74C688.664 170.167 688.233 170.102 689.452 168.384C691.527 168.168 694.045 170.094 695.989 171.244L692.643 178.544C690.11 176.284 690.07 175.898 688.591 172.74Z"/><path fill="#5F3B3F" d="M540.914 831.876C542.738 841.364 547.46 866.582 550.955 875.41C549.149 877.12 547.013 878.916 545.71 880.989C523.512 904.195 489.946 944.751 498.118 978.87C501.868 994.531 511.507 1009.12 518.609 1023.45C535.097 1056.71 544.854 1090.55 547.033 1127.69C547.579 1136.98 548.086 1147.15 546.818 1156.36C546.19 1160.93 544.727 1165.57 540.845 1168.39C527.938 1177.76 463.514 1180.54 446.313 1177.59C441.942 1176.84 436.716 1175.63 434.166 1171.62C432.333 1168.74 432.429 1165.15 433.143 1161.92C434.543 1155.6 440.059 1150.77 445.353 1147.51C465.44 1135.15 492.051 1135.96 514.219 1141.08C521.594 1102.97 502.619 1056.65 484.087 1023.88C475.432 1008.57 462.308 985.599 463.551 967.621C466.204 929.255 489.884 891.666 512.541 861.613C517.735 854.728 523.836 847.126 529.966 841.387C532.356 839.916 538.673 833.921 540.914 831.876Z"/><path fill="#4A2C32" d="M300.42 716.534C302.4 718.905 311.106 718.328 316.394 721.51C326.078 727.337 332.433 734.242 339.197 743.146C344.687 737.521 348.592 735.322 355.037 741.238C359.388 740.861 361.983 740.21 365.922 742.081C369.717 745.439 370.851 750.82 373.991 752.131L372.645 752.86C374.357 760.056 374.988 762.922 375.309 770.459C375.487 774.628 373.39 782.496 373.862 784.13C376.123 784.561 376.253 784.5 378.456 784.386L378.63 784.896C376.673 784.915 374.644 784.612 373.211 785.72C366.924 795.507 367.024 805.568 350.931 796.875L350.099 796.433L349.604 796.16C340.848 798.459 337.94 798.347 334.327 789.418C328.94 793.024 318.113 797.718 311.815 795.062L308.611 794.593C312.268 844.335 318.527 897.683 323.239 947.663L329.026 1009.78C329.836 1018.61 330.697 1033.37 332.101 1041.78C330.456 1042.87 328.563 1044.24 326.787 1044.99C322.82 1045.37 320.788 1044.92 317.051 1043.67C315.808 1036.66 314.866 1025.41 314.002 1018.11L307.918 967.8L288.027 805.063C285.458 799.295 270.987 803.602 276.618 784.645C267.931 782.509 265.853 771.126 271.017 764.507C269.557 760.412 265.32 758.203 265.446 751.486C265.559 745.393 268.675 742.53 273.189 739.244C273.672 731.047 277.812 730.138 278.819 725.044C280.415 725.977 285.935 720.042 290.022 719.319C292.578 718.867 298.754 718.181 300.42 716.534Z"/><path fill="#F4D8B3" d="M300.42 716.534C302.4 718.905 311.106 718.328 316.394 721.51C326.078 727.337 332.433 734.242 339.197 743.146C344.687 737.521 348.592 735.322 355.037 741.238C359.388 740.861 361.983 740.21 365.922 742.081C369.717 745.439 370.851 750.82 373.991 752.131L372.645 752.86C374.357 760.056 374.988 762.922 375.309 770.459C375.487 774.628 373.39 782.496 373.862 784.13C376.123 784.561 376.253 784.5 378.456 784.386L378.63 784.896C376.673 784.915 374.644 784.612 373.211 785.72C366.924 795.507 367.024 805.568 350.931 796.875L350.099 796.433L349.604 796.16C340.848 798.459 337.94 798.347 334.327 789.418C328.94 793.024 318.113 797.718 311.815 795.062C313.153 793.548 312.379 792.803 311.623 790.182C309.659 783.378 310.973 776.177 311.91 769.278C317.748 772.433 325.398 774.921 331.344 770.756C316.228 765.82 310.68 763.46 306.323 746.877C305.588 744.58 305.133 744.842 302.881 742.984C300.593 741.743 298.452 741.611 295.894 741.26C293.483 745.148 292.211 746.776 288.229 749.108C283.912 749.833 281.531 749.746 277.281 748.761C274.643 744.926 274.228 743.605 273.189 739.244C273.672 731.047 277.812 730.138 278.819 725.044C280.415 725.977 285.935 720.042 290.022 719.319C292.578 718.867 298.754 718.181 300.42 716.534Z"/><path fill="#D7B491" d="M331.344 770.756C342.545 766.115 348.548 759.112 341.541 746.753L341.706 746.013C352.692 743.572 350.912 780.871 344.076 785.807C340.605 788.313 340.735 788.011 336.584 787.646C335.341 788.38 335.341 788.387 334.327 789.418C328.94 793.024 318.113 797.718 311.815 795.062C313.153 793.548 312.379 792.803 311.623 790.182C309.659 783.378 310.973 776.177 311.91 769.278C317.748 772.433 325.398 774.921 331.344 770.756Z"/><path fill="#EDCCA4" d="M295.894 741.26C297.867 733.83 308.921 740.439 311.277 744.879L311.073 746.172C309.501 747.257 308.277 746.954 306.323 746.877C305.588 744.58 305.133 744.842 302.881 742.984C300.593 741.743 298.452 741.611 295.894 741.26Z"/><path fill="#EDCCA4" d="M355.037 741.238C359.388 740.861 361.983 740.21 365.922 742.081C363.347 745.927 359.696 748.48 355.283 745.668C354.373 743.252 354.633 744.063 355.037 741.238Z"/><path fill="#C68F43" d="M352.913 783.489C354.122 781.274 356.499 779.955 359.017 780.101C361.536 780.247 363.745 781.832 364.689 784.171C365.825 786.983 364.873 790.206 362.393 791.95C359.913 793.695 356.558 793.5 354.296 791.481C352.034 789.462 351.461 786.151 352.913 783.489Z"/><path fill="#DDAB60" d="M352.913 783.489C354.122 781.274 356.499 779.955 359.017 780.101C361.536 780.247 363.745 781.832 364.689 784.171C359.07 785.775 357.682 787.263 352.913 783.489Z"/><path fill="#EDCCA4" d="M271.017 764.507C269.557 760.412 265.32 758.203 265.446 751.486C265.559 745.393 268.675 742.53 273.189 739.244C274.228 743.605 274.643 744.926 277.281 748.761C281.531 749.746 283.912 749.833 288.229 749.108C295.143 754.694 297.273 760.038 290.424 766.863C311.079 772.681 295.52 784.098 298.091 785.831C307.398 792.104 306.455 799.415 295.483 802.799C293.009 803.524 288.778 802.667 288.027 805.063C285.458 799.295 270.987 803.602 276.618 784.645C267.931 782.509 265.853 771.126 271.017 764.507Z"/><path fill="#F4D8B3" d="M276.618 784.645C267.931 782.509 265.853 771.126 271.017 764.507C275.265 768.847 279.064 768.819 285.016 769.116C288.551 772.544 289.76 774.022 292.724 777.984C291.379 781.375 290.626 783.13 289.866 786.768C284.324 786.766 282.097 786.563 276.618 784.645Z"/><path fill="#D7B491" d="M277.281 748.761C281.531 749.746 283.912 749.833 288.229 749.108C295.143 754.694 297.273 760.038 290.424 766.863C288.848 767.572 285.622 768.116 283.824 768.489C284.119 764.769 284.084 761.14 284.099 757.411C281.172 754.608 278.569 752.587 277.281 748.761Z"/><path fill="#B88B5A" d="M302.881 742.984C305.133 744.842 305.588 744.58 306.323 746.877C310.68 763.46 316.228 765.82 331.344 770.756C325.398 774.921 317.748 772.433 311.91 769.278C310.973 776.177 309.659 783.378 311.623 790.182C312.379 792.803 313.153 793.548 311.815 795.062L308.611 794.593C306.383 777.272 304.732 760.334 302.881 742.984Z"/><path fill="#F4D8B3" d="M884.955 442.102C873.93 429.948 877.355 422.34 891.699 417.552C892.679 417.225 894.732 407.2 895.601 405.845C901.084 396.526 912.777 389.296 923.412 390.91C927.904 391.573 931.937 394.02 934.598 397.698C936.379 400.121 937.259 403.343 938.127 406.222C945.518 408.159 950 411.929 951.598 419.613C977.05 432.079 959.674 468.346 946.431 483.875C946.612 484.486 948.166 490.265 948.29 490.391C959.067 501.399 954.722 516.02 938.398 520.183C937.337 520.46 936.265 520.688 935.183 520.867C921 522.182 916.097 521.563 903.054 515.405C892.66 508.341 891.474 505.372 895.775 493.815C893.847 487.586 893.856 483.79 898.857 479.274L901.571 477.247C891.459 469.358 893.666 460.157 889.675 449.568C889.067 447.954 886.074 443.708 884.955 442.102Z"/><path fill="#D7B491" d="M884.955 442.102L885.787 439.877C888.025 439.794 890.326 442.967 892.651 444.322C894.221 446.031 895.618 447.602 897.333 449.172C909.649 451.893 911.319 457.65 915.409 468.595C915.313 470.884 914.97 473.102 915.914 475.136C916.908 475.808 916.64 475.813 917.722 476.034L917.761 476.938C918.219 485.767 922.489 490.013 931.03 489.531C935.384 489.286 942.375 485.598 945.005 485.727C945.628 487.563 945.624 486.652 944.901 488.548C939.833 493.005 933.104 493.993 926.588 493.582C922.687 493.323 918.83 492.614 915.092 491.471C911.629 490.277 909.127 488.379 906.192 487.405C904.446 484.743 904.147 484.255 903.194 481.235C902.797 478.281 903.348 479.548 901.571 477.247C891.459 469.358 893.666 460.157 889.675 449.568C889.067 447.954 886.074 443.708 884.955 442.102Z"/><path fill="#C8A481" d="M903.194 481.235L904.267 480.443C906.182 481.256 917.395 487.14 917.95 488.225C916.795 489.731 916.514 490.137 915.092 491.471C911.629 490.277 909.127 488.379 906.192 487.405C904.446 484.743 904.147 484.255 903.194 481.235Z"/><path fill="#B88B5A" d="M892.651 444.322L893.469 444.21C896.991 443.697 898.759 443.487 900.956 440.53C901.588 439.674 902.198 438.802 902.784 437.914L903.42 437.977L904.417 442.221C906.619 451.809 915.101 445.554 917.037 453.709C918.178 458.514 919.356 458.787 924.032 460.264C921.925 462.334 917.51 466.918 915.409 468.595C911.319 457.65 909.649 451.893 897.333 449.172C895.618 447.602 894.221 446.031 892.651 444.322Z"/><path fill="#C8A481" d="M924.032 460.264C927.926 459.226 928.521 458.971 931.909 456.705C933.749 457.789 933.784 457.93 935.952 458.358C928.804 465.558 921.464 463.66 917.722 476.034C916.64 475.813 916.908 475.808 915.914 475.136C914.97 473.102 915.313 470.884 915.409 468.595C917.51 466.918 921.925 462.334 924.032 460.264Z"/><path fill="#EDCCA4" d="M937.569 444.026C941.149 442.504 941.611 441.749 945.704 441.629L946.344 442.251C944.433 445.982 941.986 445.68 941.704 450.48C941.507 453.826 939.823 455.636 937.006 457.365C938.888 451.709 939.996 449.275 937.569 444.026Z"/><path fill="#B88B5A" d="M937.569 444.026C939.996 449.275 938.888 451.709 937.006 457.365L935.952 458.358C933.784 457.93 933.749 457.789 931.909 456.705C935.907 450.521 931.964 448.083 937.569 444.026Z"/><path fill="#EDCCA4" d="M901.571 477.247C903.348 479.548 902.797 478.281 903.194 481.235C904.147 484.255 904.446 484.743 906.192 487.405C900.772 486.796 900.295 483.687 898.857 479.274L901.571 477.247Z"/><path fill="#DDAB60" d="M934.348 509.799C934.251 509.334 934.161 508.868 934.08 508.4C932.63 499.891 939.535 494.366 946.82 501.736C947.057 510.48 942.053 515.874 934.348 509.799Z"/><path fill="#C68F43" d="M946.82 501.736C947.057 510.48 942.053 515.874 934.348 509.799C939.261 504.791 941.146 504.992 946.82 501.736Z"/><path fill="#EDCCA4" d="M934.894 419.429C936.59 419.377 939.019 419.85 940.742 420.118L940.792 420.565C928.39 423.543 919.263 433.56 915.898 445.615L915.415 447.674L915.473 447.018L914.346 448.373L913.686 447.736C911.21 435.758 923.953 422.607 934.894 419.429Z"/><path fill="#C8A481" d="M904.308 426.057C904.932 416.208 921.037 398.686 930.554 405.856L930.459 406.468L929.645 406.669C919.308 409.307 909.054 416.789 905.89 427.368L904.308 426.057Z"/><path fill="#C8A481" d="M905.89 427.368C905.439 428.966 905.288 430.189 904.152 431.365C902.594 431.22 903.309 431.496 902.027 430.485C901.577 428.752 901.469 428.792 901.766 427.062L904.308 426.057L905.89 427.368Z"/><path fill="#5F3B3F" d="M519.95 238.481L519.556 237.671C507.806 213.239 504.802 186.653 513.897 160.798C518.152 148.7 531.072 124.1 547.392 131.188C550.712 132.628 553.259 135.417 554.392 138.853C555.93 143.455 554.71 150.717 550.364 153.314C526.189 167.757 526.235 203.939 534.475 228.172C535.772 231.429 537.403 235.104 535.734 238.385C531.492 246.722 524.64 246.711 520.182 238.88L519.95 238.481Z"/><path fill="#D19B4A" d="M241.244 468.596C239.31 464.775 238.473 460.492 238.828 456.223C241.247 428.053 293.526 426.746 287.952 462.955C285.963 468.364 283.224 473.995 277.405 476.148C270.364 478.077 263.39 480.077 256.075 478.443C254.679 478.132 254.036 477.946 253.094 479.279C251.527 476.388 245.874 476.345 241.244 468.596Z"/><path fill="#C68F43" d="M241.244 468.596C247.595 465.074 253.499 471.566 262.135 471.381C273.899 471.13 274.89 467.172 282.824 459.733C284.247 458.399 284.818 458.513 286.357 458.576C288.104 460.188 287.546 459.895 287.952 462.955C285.963 468.364 283.224 473.995 277.405 476.148C270.364 478.077 263.39 480.077 256.075 478.443C254.679 478.132 254.036 477.946 253.094 479.279C251.527 476.388 245.874 476.345 241.244 468.596Z"/><path fill="#DDAB60" d="M253.186 442.563C256.307 442.704 257.417 442.608 258.082 445.684C256.854 449.595 254.399 451.777 251.561 454.676C249.878 454.864 249.401 454.517 247.793 453.943C244.517 449.863 250.114 444.961 253.186 442.563Z"/><path fill="#4A2C32" d="M579.005 213.341C574.907 212.15 570.931 210.575 567.129 208.637C560.539 205.343 549.617 198.418 547.585 190.962C544.913 181.156 554.753 178.676 562.468 181.061C571.786 183.942 579.45 188.255 587.73 193.223L588.629 193.515L605.379 197.199C603.95 199.296 602.117 202.532 600.045 203.7L600.449 204.486C598.097 208.482 596.171 214.107 591.421 214.4L581.743 214.018L579.005 213.341Z"/><path fill="#946656" d="M588.629 193.515L605.379 197.199C603.95 199.296 602.117 202.532 600.045 203.7C596.892 202.577 590.461 200.777 588.483 197.962C587.417 196.445 588.143 195.301 588.629 193.515Z"/><path fill="#D19B4A" d="M326.787 1044.99C328.563 1044.24 330.456 1042.87 332.101 1041.78C333.09 1051.27 339.276 1074.05 325.471 1074.02C324.841 1073.69 322.958 1072.66 322.53 1072.3C317.991 1068.55 317.577 1049.87 317.051 1043.67C320.788 1044.92 322.82 1045.37 326.787 1044.99Z"/><path fill="#B88B5A" d="M326.787 1044.99C328.563 1044.24 330.456 1042.87 332.101 1041.78C333.09 1051.27 339.276 1074.05 325.471 1074.02C325.652 1073.24 325.677 1072.95 326.004 1072.24C330.132 1063.28 328.225 1054.52 326.787 1044.99Z"/></svg>