<?xml version="1.0" encoding="UTF-8" standalone="no"?>
<svg
   version="1.1"
   style="display: block;"
   viewBox="0 0 2172 724"
   width="2172"
   height="724"
   preserveAspectRatio="none"
   id="svg219"
   sodipodi:docname="Weevil World Logo.svg"
   inkscape:version="1.4.3 (0d15f75, 2025-12-25)"
   xmlns:inkscape="http://www.inkscape.org/namespaces/inkscape"
   xmlns:sodipodi="http://sodipodi.sourceforge.net/DTD/sodipodi-0.dtd"
   xmlns:xlink="http://www.w3.org/1999/xlink"
   xmlns="http://www.w3.org/2000/svg"
   xmlns:svg="http://www.w3.org/2000/svg">
  <sodipodi:namedview
     id="namedview219"
     pagecolor="#ffffff"
     bordercolor="#000000"
     borderopacity="0.25"
     inkscape:showpageshadow="2"
     inkscape:pageopacity="0.0"
     inkscape:pagecheckerboard="0"
     inkscape:deskcolor="#d1d1d1"
     inkscape:zoom="0.81767956"
     inkscape:cx="954.53041"
     inkscape:cy="365.05743"
     inkscape:window-width="1920"
     inkscape:window-height="1017"
     inkscape:window-x="-8"
     inkscape:window-y="-8"
     inkscape:window-maximized="1"
     inkscape:current-layer="svg219" />
  <defs
     id="defs4">
    <linearGradient
       id="linearGradient492"
       inkscape:collect="always">
      <stop
         style="stop-color:#f4ebdf;stop-opacity:1;"
         offset="0"
         id="stop491" />
      <stop
         style="stop-color:#f0e3d2;stop-opacity:0;"
         offset="1"
         id="stop492" />
    </linearGradient>
    <linearGradient
       id="linearGradient454"
       inkscape:collect="always">
      <stop
         style="stop-color:#f0e3d2;stop-opacity:1;"
         offset="0"
         id="stop454" />
      <stop
         style="stop-color:#f0e3d2;stop-opacity:0;"
         offset="1"
         id="stop455" />
    </linearGradient>
    <linearGradient
       id="Gradient1"
       gradientUnits="userSpaceOnUse"
       x1="1142.69"
       y1="564.579"
       x2="1133.31"
       y2="557.421">
      <stop
         class="stop0"
         offset="0"
         stop-opacity="1"
         stop-color="rgb(0,0,17)"
         id="stop1" />
      <stop
         class="stop1"
         offset="1"
         stop-opacity="1"
         stop-color="rgb(21,40,54)"
         id="stop2" />
    </linearGradient>
    <linearGradient
       id="Gradient2"
       gradientUnits="userSpaceOnUse"
       x1="1056.25"
       y1="553.004"
       x2="1052.14"
       y2="537.644">
      <stop
         class="stop0"
         offset="0"
         stop-opacity="1"
         stop-color="rgb(0,7,22)"
         id="stop3" />
      <stop
         class="stop1"
         offset="1"
         stop-opacity="1"
         stop-color="rgb(2,16,45)"
         id="stop4" />
    </linearGradient>
    <linearGradient
       inkscape:collect="always"
       xlink:href="#linearGradient454"
       id="linearGradient455"
       x1="1191.1757"
       y1="448.83105"
       x2="1185.0609"
       y2="-423.14865"
       gradientUnits="userSpaceOnUse" />
    <linearGradient
       inkscape:collect="always"
       xlink:href="#linearGradient454"
       id="linearGradient456"
       x1="1191.1757"
       y1="448.83105"
       x2="1185.0609"
       y2="-423.14865"
       gradientUnits="userSpaceOnUse" />
    <linearGradient
       inkscape:collect="always"
       xlink:href="#linearGradient454"
       id="linearGradient457"
       x1="1191.1757"
       y1="448.83105"
       x2="1185.0609"
       y2="-423.14865"
       gradientUnits="userSpaceOnUse" />
    <linearGradient
       inkscape:collect="always"
       xlink:href="#linearGradient454"
       id="linearGradient458"
       x1="1191.1757"
       y1="448.83105"
       x2="1185.0609"
       y2="-423.14865"
       gradientUnits="userSpaceOnUse" />
    <linearGradient
       inkscape:collect="always"
       xlink:href="#linearGradient454"
       id="linearGradient459"
       x1="1191.1757"
       y1="448.83105"
       x2="1185.0609"
       y2="-423.14865"
       gradientUnits="userSpaceOnUse" />
    <linearGradient
       inkscape:collect="always"
       xlink:href="#linearGradient454"
       id="linearGradient460"
       x1="1191.1757"
       y1="448.83105"
       x2="1185.0609"
       y2="-423.14865"
       gradientUnits="userSpaceOnUse" />
    <linearGradient
       inkscape:collect="always"
       xlink:href="#linearGradient454"
       id="linearGradient461"
       x1="1191.1757"
       y1="448.83105"
       x2="1185.0609"
       y2="-423.14865"
       gradientUnits="userSpaceOnUse" />
    <linearGradient
       inkscape:collect="always"
       xlink:href="#linearGradient454"
       id="linearGradient462"
       x1="1191.1757"
       y1="448.83105"
       x2="1185.0609"
       y2="-423.14865"
       gradientUnits="userSpaceOnUse" />
    <linearGradient
       inkscape:collect="always"
       xlink:href="#linearGradient454"
       id="linearGradient463"
       x1="1191.1757"
       y1="448.83105"
       x2="1185.0609"
       y2="-423.14865"
       gradientUnits="userSpaceOnUse" />
    <linearGradient
       inkscape:collect="always"
       xlink:href="#linearGradient454"
       id="linearGradient464"
       x1="1191.1757"
       y1="448.83105"
       x2="1185.0609"
       y2="-423.14865"
       gradientUnits="userSpaceOnUse" />
    <linearGradient
       inkscape:collect="always"
       xlink:href="#linearGradient454"
       id="linearGradient465"
       x1="1191.1757"
       y1="448.83105"
       x2="1185.0609"
       y2="-423.14865"
       gradientUnits="userSpaceOnUse" />
    <linearGradient
       inkscape:collect="always"
       xlink:href="#linearGradient454"
       id="linearGradient466"
       x1="1191.1757"
       y1="448.83105"
       x2="1185.0609"
       y2="-423.14865"
       gradientUnits="userSpaceOnUse" />
    <linearGradient
       inkscape:collect="always"
       xlink:href="#linearGradient454"
       id="linearGradient467"
       x1="1191.1757"
       y1="448.83105"
       x2="1185.0609"
       y2="-423.14865"
       gradientUnits="userSpaceOnUse" />
    <linearGradient
       inkscape:collect="always"
       xlink:href="#linearGradient454"
       id="linearGradient468"
       x1="1191.1757"
       y1="448.83105"
       x2="1185.0609"
       y2="-423.14865"
       gradientUnits="userSpaceOnUse" />
    <linearGradient
       inkscape:collect="always"
       xlink:href="#linearGradient454"
       id="linearGradient469"
       x1="1191.1757"
       y1="448.83105"
       x2="1185.0609"
       y2="-423.14865"
       gradientUnits="userSpaceOnUse" />
    <linearGradient
       inkscape:collect="always"
       xlink:href="#linearGradient454"
       id="linearGradient470"
       x1="1191.1757"
       y1="448.83105"
       x2="1185.0609"
       y2="-423.14865"
       gradientUnits="userSpaceOnUse" />
    <linearGradient
       inkscape:collect="always"
       xlink:href="#linearGradient454"
       id="linearGradient471"
       x1="1191.1757"
       y1="448.83105"
       x2="1185.0609"
       y2="-423.14865"
       gradientUnits="userSpaceOnUse" />
    <linearGradient
       inkscape:collect="always"
       xlink:href="#linearGradient454"
       id="linearGradient472"
       x1="1191.1757"
       y1="448.83105"
       x2="1185.0609"
       y2="-423.14865"
       gradientUnits="userSpaceOnUse" />
    <linearGradient
       inkscape:collect="always"
       xlink:href="#linearGradient454"
       id="linearGradient473"
       x1="1191.1757"
       y1="448.83105"
       x2="1185.0609"
       y2="-423.14865"
       gradientUnits="userSpaceOnUse" />
    <linearGradient
       inkscape:collect="always"
       xlink:href="#linearGradient454"
       id="linearGradient474"
       x1="1191.1757"
       y1="448.83105"
       x2="1185.0609"
       y2="-423.14865"
       gradientUnits="userSpaceOnUse" />
    <linearGradient
       inkscape:collect="always"
       xlink:href="#linearGradient454"
       id="linearGradient475"
       x1="1191.1757"
       y1="448.83105"
       x2="1185.0609"
       y2="-423.14865"
       gradientUnits="userSpaceOnUse" />
    <linearGradient
       inkscape:collect="always"
       xlink:href="#linearGradient454"
       id="linearGradient476"
       x1="1191.1757"
       y1="448.83105"
       x2="1185.0609"
       y2="-423.14865"
       gradientUnits="userSpaceOnUse" />
    <linearGradient
       inkscape:collect="always"
       xlink:href="#linearGradient454"
       id="linearGradient477"
       x1="1191.1757"
       y1="448.83105"
       x2="1185.0609"
       y2="-423.14865"
       gradientUnits="userSpaceOnUse" />
    <linearGradient
       inkscape:collect="always"
       xlink:href="#linearGradient454"
       id="linearGradient478"
       x1="1191.1757"
       y1="448.83105"
       x2="1185.0609"
       y2="-423.14865"
       gradientUnits="userSpaceOnUse" />
    <linearGradient
       inkscape:collect="always"
       xlink:href="#linearGradient454"
       id="linearGradient479"
       x1="1191.1757"
       y1="448.83105"
       x2="1185.0609"
       y2="-423.14865"
       gradientUnits="userSpaceOnUse" />
    <linearGradient
       inkscape:collect="always"
       xlink:href="#linearGradient454"
       id="linearGradient480"
       x1="1191.1757"
       y1="448.83105"
       x2="1185.0609"
       y2="-423.14865"
       gradientUnits="userSpaceOnUse" />
    <linearGradient
       inkscape:collect="always"
       xlink:href="#linearGradient454"
       id="linearGradient481"
       x1="1191.1757"
       y1="448.83105"
       x2="1185.0609"
       y2="-423.14865"
       gradientUnits="userSpaceOnUse" />
    <linearGradient
       inkscape:collect="always"
       xlink:href="#linearGradient454"
       id="linearGradient482"
       x1="1191.1757"
       y1="448.83105"
       x2="1185.0609"
       y2="-423.14865"
       gradientUnits="userSpaceOnUse" />
    <linearGradient
       inkscape:collect="always"
       xlink:href="#linearGradient454"
       id="linearGradient483"
       x1="1191.1757"
       y1="448.83105"
       x2="1185.0609"
       y2="-423.14865"
       gradientUnits="userSpaceOnUse" />
    <linearGradient
       inkscape:collect="always"
       xlink:href="#linearGradient454"
       id="linearGradient484"
       x1="1191.1757"
       y1="448.83105"
       x2="1185.0609"
       y2="-423.14865"
       gradientUnits="userSpaceOnUse" />
    <linearGradient
       inkscape:collect="always"
       xlink:href="#linearGradient454"
       id="linearGradient485"
       x1="1191.1757"
       y1="448.83105"
       x2="1185.0609"
       y2="-423.14865"
       gradientUnits="userSpaceOnUse" />
    <linearGradient
       inkscape:collect="always"
       xlink:href="#linearGradient454"
       id="linearGradient486"
       x1="1191.1757"
       y1="448.83105"
       x2="1185.0609"
       y2="-423.14865"
       gradientUnits="userSpaceOnUse" />
    <linearGradient
       inkscape:collect="always"
       xlink:href="#linearGradient454"
       id="linearGradient487"
       x1="1191.1757"
       y1="448.83105"
       x2="1185.0609"
       y2="-423.14865"
       gradientUnits="userSpaceOnUse" />
    <linearGradient
       inkscape:collect="always"
       xlink:href="#linearGradient454"
       id="linearGradient488"
       x1="1191.1757"
       y1="448.83105"
       x2="1185.0609"
       y2="-423.14865"
       gradientUnits="userSpaceOnUse" />
    <linearGradient
       inkscape:collect="always"
       xlink:href="#linearGradient454"
       id="linearGradient489"
       x1="1191.1757"
       y1="448.83105"
       x2="1185.0609"
       y2="-423.14865"
       gradientUnits="userSpaceOnUse" />
    <linearGradient
       inkscape:collect="always"
       xlink:href="#linearGradient492"
       id="linearGradient491"
       x1="1191.1757"
       y1="448.83105"
       x2="1185.0609"
       y2="-423.14865"
       gradientUnits="userSpaceOnUse" />
    <linearGradient
       inkscape:collect="always"
       xlink:href="#linearGradient454"
       id="linearGradient493"
       gradientUnits="userSpaceOnUse"
       x1="1191.1757"
       y1="448.83105"
       x2="1185.0609"
       y2="-423.14865" />
  </defs>
  <path
     id="path5"
     style="fill:url(#linearGradient455);fill-opacity:1"
     d="M 257.10352 141.17578 C 231.17514 141.18278 206.82884 148.88703 186.71484 174.45703 C 163.92284 203.43103 162.12252 257.13633 194.85352 280.86133 C 204.59552 287.99633 216.80184 290.90664 228.71484 288.93164 C 257.05084 284.18064 258.60423 253.29906 254.49023 230.41406 C 253.56723 227.01706 253.30561 225.91197 253.09961 222.41797 C 249.73661 222.10597 245.79259 221.25161 243.05859 222.97461 C 241.27559 225.71661 241.69539 228.66741 241.77539 231.94141 L 236.72656 238.95117 C 231.18556 242.17517 225.9793 244.38089 219.2793 242.71289 C 217.6403 242.32189 216.05736 241.72264 214.56836 240.93164 L 213.83984 240.52734 C 209.33891 238.16738 208.42956 236.96319 205.13867 233.19531 C 184.16967 192.41431 227.82308 153.93147 267.95508 167.23047 C 307.07208 180.19247 316.42661 233.99584 327.84961 268.96484 C 344.83861 320.97384 358.12248 374.88417 376.27148 426.57617 C 378.35348 430.91317 380.81183 435.38597 385.79883 436.79297 C 405.91283 442.46797 407.67173 421.0875 412.42773 407.6875 C 413.71873 404.0495 414.78189 400.16575 415.96289 396.46875 L 439.51953 323.14844 C 440.57953 319.86044 447.04367 299.45625 448.38867 297.15625 L 450.56641 289.23242 L 452.1582 286.97656 L 453.03711 283.15625 L 454.37305 282.83594 C 456.69197 286.46581 457.70259 291.04459 458.89453 295.23047 C 468.07953 323.50547 477.07948 351.83947 485.89648 380.23047 C 491.35148 397.52547 508.05623 458.75644 529.99023 458.02344 C 534.05723 455.19544 533.89616 452.69747 534.16016 447.85547 C 533.79316 447.33747 531.65923 442.68183 531.24023 441.79688 L 531.83594 440.30469 C 534.76494 440.22369 537.05452 440.39142 539.97852 440.60742 C 543.48652 438.85942 547.47402 436.87138 548.04102 432.60938 C 546.50802 428.66938 540.61348 428.1105 537.02148 423.5625 C 535.99648 419.9825 536.45194 418.85886 537.33594 415.17188 L 538.24023 411.05469 C 541.74823 399.54969 545.82 387.79652 549.625 376.35352 L 551.23438 371.73242 C 557.30137 356.67242 563.8683 337.21064 569.2793 321.68164 L 572.33398 313.39062 L 599.61328 238.62695 C 604.88228 224.22795 610.10927 210.01934 615.94727 195.77734 C 619.74827 186.50734 633.61242 172.50678 632.35742 165.30078 C 621.11842 151.68678 591.5725 155.02058 578.5625 166.01758 C 571.4585 171.90958 567.07831 180.45606 566.44531 189.66406 C 565.78031 198.69906 571.41008 216.83783 581.45508 218.04883 L 583.55664 216.17383 C 589.39564 224.56083 547.70742 325.01652 542.23242 341.85352 L 539.92969 347.82227 C 536.6027 356.66423 533.19692 365.47685 529.71094 374.25781 C 524.10794 360.05381 517.68975 337.49883 513.09375 322.54883 L 511.43555 318.61719 C 503.77655 278.58119 478.63966 234.03748 477.01562 192.52148 C 476.68063 183.94848 493.71622 177.0548 489.82422 169.7168 C 486.40122 167.6768 425.57642 169.75303 417.48242 168.70703 C 413.74942 168.22403 405.41786 169.72425 402.38086 172.65625 C 401.88586 179.36325 412.99248 180.99795 418.39648 186.37695 C 432.22348 200.13895 438.18973 227.6097 443.92773 246.4707 C 438.48373 266.2347 431.46278 287.30214 425.30078 306.95312 C 418.64578 328.17314 411.58391 351.21311 403.75391 371.91211 C 394.93791 347.67311 387.19797 313.00542 379.41797 287.48242 C 371.93197 259.52442 362.77352 230.76905 356.47852 202.62305 C 351.72552 181.36805 365.34253 176.44655 375.76953 162.06055 C 376.65653 160.83755 375.71711 159.36752 375.16211 158.22852 C 362.75711 155.13752 349.25438 156.49817 336.98438 154.07617 C 310.54188 148.85817 283.03189 141.16878 257.10352 141.17578 z M 214.78125 234.07617 C 215.25042 234.50092 215.73181 235.00542 216.23047 235.59961 C 215.73139 235.00493 215.25081 234.50112 214.78125 234.07617 z "
     transform="translate(0,0)" />
  <path
     id="path11"
     style="fill:url(#linearGradient476);fill-opacity:1"
     d="M 1286.6348 150.71484 C 1250.9912 151.24702 1218.043 162.6375 1199.9805 201.17188 C 1185.3805 232.30688 1189.9902 282.27373 1224.2402 299.17773 C 1241.0202 307.46273 1265.4206 302.53745 1272.3906 283.68945 C 1275.8806 275.36945 1276.8299 256.23163 1267.1699 252.26562 C 1263.2899 252.48163 1261.5905 255.65767 1258.2305 259.13867 C 1252.2905 262.36167 1248.9303 263.22041 1242.0703 262.94141 C 1232.1903 260.09441 1225.0001 253.13555 1221.5801 243.43555 C 1208.7101 207.01555 1243.0609 167.05886 1280.7109 185.13086 C 1305.2609 196.91786 1315.5807 226.97989 1323.9707 251.08789 L 1327.5605 262.1543 L 1328.4492 264.55273 L 1334.8496 284.51172 C 1338.5396 286.10172 1342.2599 287.3143 1344.9199 290.2793 C 1346.7099 295.4393 1344.8398 296.24288 1341.0098 299.67188 C 1339.6598 301.76087 1340.5595 303.01073 1341.1895 306.17773 L 1342.25 309.79688 L 1365.3496 390.23438 C 1374.5196 421.42638 1390.8295 476.84989 1412.7695 405.46289 C 1417.8995 388.79789 1431.5106 352.77906 1433.1406 337.91406 L 1435.0801 333.00391 C 1440.1501 316.16891 1445.7596 296.76372 1451.5996 280.26172 L 1480.0098 379.23828 C 1484.8398 395.97828 1489.3007 412.97012 1495.2207 429.32812 C 1499.5107 441.15412 1519.5798 440.76781 1524.0898 429.63281 C 1530.7098 413.31381 1535.1603 395.82809 1540.5703 378.99609 L 1568.4297 294.15039 C 1577.2497 267.32839 1585.2401 240.1215 1598.0801 214.6875 C 1605.5401 199.8915 1612.9501 179.85744 1593.3301 169.52344 C 1576.6301 160.73044 1547.8206 175.05569 1555.1406 196.55469 C 1557.0506 202.19669 1562.3609 207.41667 1569.1309 206.51367 C 1571.4109 205.12967 1572.0298 204.84477 1573.7598 202.75977 C 1578.5198 208.58977 1569.4997 234.17591 1566.9297 241.62891 C 1551.6897 285.83091 1538.1105 331.41078 1521.8105 375.17578 C 1510.2805 335.48878 1499.0305 295.71909 1488.0605 255.87109 C 1484.0705 241.41509 1480.2209 226.9355 1476.4609 212.4375 C 1471.8409 194.5875 1478.9894 186.92056 1489.8594 173.85156 C 1488.3194 172.24656 1486.2493 170.93856 1484.0293 171.35156 C 1473.3293 173.34556 1409.6801 169.10416 1404.5801 173.28516 C 1403.2501 176.23316 1403.5098 175.09275 1404.0898 178.46875 C 1406.7198 182.75875 1415.8799 184.4988 1421.1699 190.8418 C 1432.6199 204.5518 1437.3904 227.36745 1441.9004 244.93945 C 1433.2804 275.30445 1421.0309 311.51877 1413.6309 341.00977 L 1406.6699 362.73047 C 1405.9499 365.60147 1405.4604 369.54062 1402.6504 370.64062 C 1400.5804 368.29262 1400.1908 364.43862 1399.5508 361.26562 C 1397.5708 355.44162 1395.9401 348.7713 1394.3301 342.7793 C 1386.4801 312.0754 1378.9708 281.28495 1371.8008 250.41406 C 1367.9708 234.28506 1362.7809 215.70689 1361.1309 199.46289 C 1360.3109 191.41289 1363.1598 179.73094 1369.5898 174.58594 C 1372.9798 171.87494 1375.1104 171.6637 1378.6504 167.8457 C 1379.8104 164.1027 1379.6704 165.54195 1378.6504 161.50195 C 1374.7904 157.66395 1357.3403 159.17184 1351.0703 157.96484 C 1330.3778 153.98459 1308.0209 150.39554 1286.6348 150.71484 z M 1304.3008 177.83203 C 1308.7684 177.65766 1312.6373 178.55227 1317.3398 180.22852 C 1319.9798 182.01352 1322.3609 183.61956 1324.8809 185.60156 L 1327.9395 191.08984 C 1328.7795 196.66484 1332.5504 202.03328 1334.6504 207.48828 C 1343.3804 230.16928 1348.1798 254.17261 1356.0898 277.09961 C 1356.5098 278.31961 1362.4102 280.16697 1365.1602 286.91797 L 1363.1797 290.61719 C 1361.2797 292.26519 1361.1503 292.51766 1360.5703 294.97266 C 1361.1903 298.45666 1364.2196 300.68192 1366.8496 303.16992 C 1365.8896 306.90092 1365.3498 311.07811 1364.7598 314.91211 C 1354.6898 304.34311 1360.2396 307.72913 1356.3496 295.07812 C 1355.5996 292.60512 1350.4195 291.5163 1348.7695 287.0293 C 1349.0495 283.0993 1350.3591 281.64241 1352.5391 278.44141 C 1347.2591 257.51741 1337.5101 219.33886 1327.5801 200.50586 C 1325.3105 196.21357 1319.7718 196.00462 1314.9023 195.16797 L 1314.9004 195.16797 L 1309.9004 191.74414 L 1307.5293 187.99023 C 1304.7993 183.54323 1303.0396 183.10109 1299.0996 179.62109 L 1299.5801 178.37305 C 1301.2551 178.0668 1302.8116 177.89016 1304.3008 177.83203 z M 1401.0039 361.05078 C 1400.616 361.06122 1400.2427 361.0994 1399.8926 361.17578 C 1400.2427 361.0994 1400.616 361.06122 1401.0039 361.05078 z "
     transform="translate(0,0)" />
  <path
     transform="translate(0,0)"
     fill="rgb(243,231,215)"
     d="M 1274.14 227.234 C 1288.52 230.363 1294.19 236.804 1302.37 248.779 L 1310.19 262.836 L 1314.35 270.387 C 1319.78 279.059 1328.43 287.037 1330.63 290.749 C 1313.61 288.487 1301.9 239.801 1283.44 232.648 C 1280.34 231.444 1277.32 229.708 1274.08 230.948 L 1274.14 227.234 z"
     id="path13"
     style="fill:url(#linearGradient477);fill-opacity:1" />
  <path
     transform="translate(0,0)"
     fill="rgb(246,232,211)"
     d="M 1330 295.053 C 1336.12 296.252 1336.49 300.891 1336.94 306.939 C 1335.85 305.677 1334.78 304.402 1333.72 303.115 C 1331.05 299.839 1329.64 298.687 1330 295.053 z"
     id="path16"
     style="fill:url(#linearGradient478);fill-opacity:1" />
  <path
     transform="translate(0,0)"
     fill="rgb(201,195,182)"
     d="M 1353.96 282.559 C 1355.6 281.162 1358.06 281.308 1359.52 282.891 C 1360.99 284.474 1360.95 286.931 1359.43 288.465 C 1358.39 289.518 1356.86 289.915 1355.43 289.498 C 1354.01 289.081 1352.93 287.918 1352.63 286.469 C 1352.32 285.02 1352.83 283.518 1353.96 282.559 z"
     id="path21"
     style="fill:url(#linearGradient479);fill-opacity:1" />
  <path
     id="path25"
     style="fill:url(#linearGradient480);fill-opacity:1"
     d="M 2011.9199 180.48047 C 2006.0299 180.43547 1976.9298 195.44255 1970.7598 199.68555 C 1967.9698 201.59855 1967.4991 202.66675 1967.1191 205.59375 C 1969.9291 208.67175 1972.9704 207.38033 1978.1504 211.11133 C 1981.3104 215.02233 1980.1602 235.05942 1980.1602 240.85742 C 1980.1102 257.40442 1980.2897 273.95114 1980.6797 290.49414 C 1980.6897 294.10314 1981.4002 295.56002 1979.4102 297.79102 C 1975.5202 297.00002 1972.2207 293.52175 1967.9707 291.46875 C 1904.3407 271.04075 1877.8392 364.22014 1903.1992 409.24414 C 1921.8592 442.37414 1960.1002 448.95714 1984.4102 419.49414 C 1985.6502 425.79614 1986.2293 433.12936 1994.5293 433.19336 C 2010.4093 433.31436 2034.1491 442.45602 2043.0391 424.54102 C 2041.3391 414.33803 2034.6497 410.82311 2027.4297 419.37305 L 2028.0195 424.92773 L 2030.0703 425.97656 C 2030.4903 427.91056 2030.1909 427.65875 2029.2109 429.71875 C 2024.3409 432.33075 2018.9992 429.58223 2015.9492 425.49023 C 2014.2392 421.49623 2014.1592 418.96236 2013.6992 414.69336 L 2014.0703 240.75 C 2014.1603 222.959 2014.8398 205.05491 2014.7598 187.25391 C 2014.7498 183.40091 2015.1599 182.40547 2011.9199 180.48047 z M 2015.9492 425.49023 C 2017.6503 424.52351 2019.1066 424.03884 2020.5156 423.87305 C 2019.1064 424.03852 2017.6505 424.5234 2015.9492 425.49023 z M 1955.6621 304.16406 C 1966.4485 304.00048 1977.3448 314.40053 1979.0195 326.02344 C 1980.3695 335.21644 1980.5398 345.81666 1980.0898 355.22266 C 1979.0598 376.86666 1985.9708 399.45817 1968.0508 415.45312 C 1967.032 416.02513 1966.0723 416.53169 1965.1582 416.97266 C 1962.4167 418.29509 1960.0729 419.03132 1957.6875 419.20312 C 1956.8916 419.26047 1956.091 419.25514 1955.2695 419.1875 C 1954.4493 419.12002 1953.6086 418.9913 1952.7305 418.80078 L 1952.7285 418.80078 C 1950.9709 418.41928 1949.0659 417.79273 1946.8809 416.92773 C 1923.4809 400.60773 1924.5694 330.02058 1943.6094 309.76758 C 1947.2375 305.90911 1951.4413 304.22807 1955.6621 304.16406 z "
     transform="translate(0,0)" />
  <path
     transform="translate(0,0)"
     fill="rgb(243,231,215)"
     d="M 2027.43 419.373 C 2034.65 410.823 2041.34 414.338 2043.04 424.541 C 2039.08 420.802 2032.75 421.348 2030.07 425.977 L 2028.02 424.927 L 2027.43 419.373 z"
     id="path26"
     style="fill:url(#linearGradient481);fill-opacity:1" />
  <path
     id="path32"
     d="M 1639.3262 288.3418 C 1637.0302 288.21077 1634.6738 288.21602 1632.2598 288.36523 C 1567.1498 295.55323 1553.0101 389.22067 1598.5801 425.38867 C 1609.8301 434.25467 1623.95 438.65972 1638.25 437.76172 C 1724.2459 427.01731 1710.501 292.40349 1639.3262 288.3418 z M 1635.7578 303.63477 C 1667.0878 304.24503 1668.2011 404.67489 1643.7891 420.15039 C 1639.9491 422.57439 1635.2691 423.30492 1630.8691 422.16992 C 1604.8891 415.65792 1606.2907 348.28014 1612.9707 327.61914 C 1613.9807 324.50314 1615.0007 321.31277 1616.2207 318.25977 C 1618.5607 313.68077 1619.6298 312.28358 1622.8398 308.26758 C 1627.6075 304.98939 1631.9103 303.55982 1635.7578 303.63477 z "
     transform="translate(0,0)"
     style="fill:url(#linearGradient482);fill-opacity:1" />
  <path
     id="path35"
     style="fill:url(#linearGradient456);fill-opacity:1"
     d="M 782.34766 288.24023 C 766.06126 287.81687 749.99206 295.14452 737.42188 309.87695 C 730.65887 317.92795 725.59697 327.26613 722.54297 337.32812 L 720.60938 345.2168 C 717.59537 365.1148 717.56467 375.86544 723.01367 395.64844 L 725.03711 399.14844 C 725.04911 399.56544 725.04736 400.10319 725.19336 400.49219 C 743.11736 448.19019 806.93983 449.83583 832.17383 407.42383 C 833.95383 404.43283 836.77942 397.84533 835.85742 394.61133 L 834.5293 394.07031 C 821.9763 398.32531 809.29523 419.66886 788.49023 414.13086 C 778.13223 413.43286 755.80164 393.50723 759.64062 382.24023 C 764.63763 367.57423 809.96319 362.3055 822.61719 352.3125 C 842.03819 336.9755 834.03548 323.84987 823.89648 308.54688 L 819.19531 303.45508 C 807.81244 293.58595 795.01486 288.56952 782.34766 288.24023 z M 778.63867 302.13086 C 787.00539 302.49758 794.37198 306.47994 796.91211 315.02344 C 803.07811 335.76344 794.49786 347.58637 776.25586 354.35938 C 748.23086 360.54138 750.85145 341.91137 757.18945 321.48438 C 760.03145 312.32337 766.24991 306.09236 775.00391 302.19336 C 776.22878 302.10098 777.44343 302.07847 778.63867 302.13086 z "
     transform="translate(0,0)" />
  <path
     id="path38"
     style="fill:url(#linearGradient457);fill-opacity:1"
     d="M 648.42188 288.48047 C 630.55426 288.81949 612.46627 297.64648 601.04883 315.41992 C 587.07883 337.16692 584.25052 359.5035 588.22852 384.4375 C 596.41652 440.6905 665.02397 458.05744 697.79297 410.27344 L 699.83984 407.51758 C 702.37184 403.33158 703.06736 401.32716 704.73438 396.78516 L 701.89062 392.9043 C 697.24464 395.7713 694.87156 398.5378 691.10156 402.4668 L 684.54297 407.43555 C 684.22297 407.63555 683.89827 407.82953 683.57227 408.01953 C 663.55127 419.67053 642.47258 413.70837 630.51758 394.10938 C 626.71958 387.88236 625.35347 379.28073 633.10547 375.42773 C 651.91947 366.07673 672.19713 362.16005 690.95312 352.12305 L 697.67773 346.73242 C 701.3647 341.46443 703.3556 334.44318 701.59961 328.2832 C 694.00248 301.63758 671.39449 288.04459 648.42188 288.48047 z M 644.4082 302.02148 C 671.5302 302.13348 678.25008 344.1618 642.58008 354.8418 C 613.28008 362.1638 619.83117 335.30048 626.95117 317.64648 C 630.25417 309.45748 636.0332 304.83248 644.4082 302.02148 z M 701.60742 350.97852 C 701.22816 351.34676 700.82224 351.67505 700.39648 351.96094 C 700.82229 351.67507 701.22815 351.34676 701.60742 350.97852 z M 700.39648 351.96094 C 699.97073 352.24683 699.52407 352.49097 699.0625 352.69336 C 699.52413 352.49099 699.97068 352.24681 700.39648 351.96094 z M 693.13477 353.06836 C 693.63275 353.21139 694.13568 353.31026 694.64062 353.36523 C 694.13638 353.31024 693.63208 353.2112 693.13477 353.06836 z "
     transform="translate(0,0)" />
  <path
     transform="translate(0,0)"
     fill="rgb(246,232,211)"
     d="M 701.89 392.904 L 704.734 396.786 C 703.067 401.328 702.371 403.331 699.839 407.517 C 697.199 405.838 693.864 404.048 691.102 402.467 C 694.872 398.538 697.244 395.771 701.89 392.904 z"
     id="path39"
     style="fill:url(#linearGradient458);fill-opacity:1" />
  <path
     transform="translate(0,0)"
     fill="rgb(243,231,215)"
     d="M 691.102 402.467 C 693.864 404.048 697.199 405.838 699.839 407.517 L 697.792 410.273 C 696.47 409.673 686.618 407.845 684.543 407.435 L 691.102 402.467 z"
     id="path40"
     style="fill:url(#linearGradient459);fill-opacity:1" />
  <path
     transform="translate(0,0)"
     fill="rgb(246,232,211)"
     d="M 1109.82 181.929 L 1111.81 182.585 C 1111.97 182.772 1113.54 184.613 1113.54 184.613 C 1114.46 214.705 1112.08 244.774 1112.23 274.926 C 1112.46 320.831 1111.02 366.958 1112.29 412.823 C 1112.67 426.459 1129.26 434.625 1137.2 423.113 C 1137.16 420.567 1134.46 417.926 1132.63 415.426 C 1130.83 405.944 1142.43 399.531 1149.71 405.353 C 1155.49 409.974 1156.61 418.803 1151.64 424.623 C 1145.32 432.019 1139.11 434.306 1129.74 435.596 C 1123.32 435.844 1067.92 433.761 1066.37 432.583 C 1067.02 428.814 1075.85 418.837 1076.05 414.827 C 1079.33 349.814 1077.39 283.296 1078.09 218.084 C 1079.32 211.865 1065.37 206.17 1065.6 204.483 C 1066.55 197.683 1106.04 183.486 1109.82 181.929 z"
     id="path43"
     style="fill:url(#linearGradient460);fill-opacity:1" />
  <path
     transform="translate(0,0)"
     fill="rgb(246,232,211)"
     d="M 1875.89 422.319 C 1878.52 425.429 1883.64 428.094 1882.8 432.552 C 1881.07 433.612 1876.54 434.623 1874.72 434.395 C 1867.23 433.457 1832.82 436.324 1828.6 432.617 C 1828.22 427.663 1836.4 418.585 1836.66 413.392 C 1839.79 350.304 1837.61 286.36 1838.13 223.06 C 1838.22 211.514 1837.62 210.014 1827.05 207.792 C 1825.02 205.224 1825.44 206.4 1825.57 203.1 C 1830.19 197.446 1865.18 178.769 1871 180.951 C 1874.56 186.271 1872.37 232.403 1872.31 241.511 L 1872.04 358.555 C 1872.03 372.407 1870.83 408.88 1874.48 420.204 L 1875.89 422.319 z"
     id="path44"
     style="fill:url(#linearGradient483);fill-opacity:1" />
  <path
     transform="translate(0,0)"
     fill="rgb(243,231,215)"
     d="M 1874.48 420.204 L 1875.89 422.319 C 1871.97 425.079 1852.9 428.668 1850.64 423.536 C 1853.32 422.077 1871.93 421.913 1874.48 420.204 z"
     id="path45"
     style="fill:url(#linearGradient484);fill-opacity:1" />
  <path
     id="path46"
     d="M 838.92383 295.2207 C 836.72283 297.7147 837.35486 296.86295 837.13086 300.75195 L 843.22461 304.51562 C 852.77961 312.92563 859.50789 330.32492 863.46289 342.41992 C 877.89089 386.54692 907.68814 442.64728 905.99414 489.61328 L 908.39844 491.75195 L 911.43164 492.26172 L 912.70117 489.11328 C 912.47717 460.45728 922.11928 436.09037 932.11328 409.73438 L 933.42773 406.38672 L 965.72852 327.86719 C 961.43452 327.78519 956.47413 327.89609 952.32812 326.99609 C 943.47812 346.54909 934.83327 368.93161 926.57227 388.97461 L 920.65625 402.95117 L 916.17578 389.80469 C 908.80578 370.38369 895.68597 336.34425 890.41797 315.53125 C 889.78397 313.02825 895.83494 300.30998 897.46094 296.45898 C 895.56394 294.94198 844.53283 294.1737 838.92383 295.2207 z "
     transform="translate(0,0)"
     style="fill:url(#linearGradient475);fill-opacity:1" />
  <path
     id="path49"
     style="fill:#558687;fill-opacity:0.98684192"
     d="M 1028.9805 527.94922 L 1027.6602 528.08789 C 1030.8202 532.29789 1033.9004 536.26372 1036.6504 540.76172 C 1027.1609 533.01817 1024.4009 531.77513 1012.7227 527.97266 L 1012.7207 527.97266 L 1010.5703 529.91211 C 1011.7803 532.31307 1013.1292 532.25625 1016.1191 533.61719 C 1018.4091 534.84919 1020.8909 536.12334 1023.1309 537.40234 C 1025.5906 539.23215 1029.4405 541.9127 1031.6406 543.84766 L 1034.4297 546.14062 C 1035.8697 543.00365 1036.1698 542.70656 1039.0098 540.72656 L 1039.0293 540.25391 C 1037.5593 538.48091 1035.4291 535.20594 1034.0391 533.21094 L 1028.9805 527.94922 z M 970.86133 533.69727 C 955.99465 534.05597 942.89031 538.66852 924.89844 546.86914 C 920.63944 548.81114 909.02583 551.40781 906.04883 553.75781 C 913.34383 554.07881 925.62877 551.04923 932.25977 548.11523 C 965.92672 533.21925 984.07509 532.81422 1018 549.16016 L 1026.9805 554.25195 C 1035.1404 559.20792 1042.05 564.68746 1048.1699 572.06641 C 1038.7999 566.53941 1030.3604 561.50502 1020.1504 557.54102 C 1017.4304 556.51504 1013.869 555.52251 1011.0391 554.64453 C 995.74074 550.91653 964.34178 546.31545 958.17578 567.81445 C 954.52578 580.54245 975.31847 591.78148 983.98047 578.89648 C 984.37347 575.89748 984.71059 576.80489 983.18359 574.71289 C 979.88659 574.50589 980.94628 574.1192 978.36328 575.7832 L 978.34766 579.67773 C 969.37366 585.04373 957.20144 574.08731 966.27344 560.82031 C 975.76895 554.62982 981.40518 554.23001 992.75586 553.45703 C 984.41221 556.5749 979.82753 557.5952 974.88477 565.23633 C 976.35477 568.73633 976.30537 568.87402 979.10938 570.16602 C 983.17638 568.53302 982.45306 566.86147 986.28906 563.48047 L 986.80469 563.03125 C 991.75869 560.44225 997.2524 558.49205 1002.9395 558.99805 L 1004.0703 560.23438 C 1003.0307 561.147 1001.9814 562.05444 1000.9219 562.95508 C 1025.0218 559.86799 1059.691 578.99993 1070.8008 599.76953 C 1073.1408 603.21853 1074.0796 604.32867 1074.8496 608.51367 C 1074.0696 610.46767 1074.5795 609.86381 1073.0195 611.00781 C 1074.6795 613.08781 1075.0795 613.81808 1077.5195 614.95508 C 1079.3695 613.44908 1081.6409 611.45703 1081.1309 609.08203 C 1078.5609 597.15103 1065.6205 586.18409 1057.8105 577.74609 C 1049.6105 568.88609 1041.2293 561.18927 1032.0293 554.32227 L 1022.25 548.16602 L 1012.0293 542.69141 L 1000.9609 537.78906 C 989.33616 534.79881 979.78133 533.48204 970.86133 533.69727 z "
     transform="translate(0,0)" />
  <path
     id="path60"
     style="fill:#558687;fill-opacity:0.98684192"
     d="M 1099.7344 532.97656 C 1099.6781 532.9748 1099.6209 532.97899 1099.5645 532.97852 C 1099.8172 532.98066 1100.0669 533.00246 1100.3164 533.03125 C 1100.123 533.00899 1099.9297 532.98269 1099.7344 532.97656 z M 1099.3633 532.98047 C 1099.0469 532.98622 1098.7289 533.00582 1098.4082 533.04883 C 1098.7288 533.00589 1099.047 532.98619 1099.3633 532.98047 z M 1100.5859 533.05664 C 1100.6258 533.06288 1100.6653 533.0731 1100.7051 533.08008 C 1100.6653 533.07311 1100.6258 533.06287 1100.5859 533.05664 z M 1101.4395 533.25195 C 1101.4648 533.25954 1101.4903 533.26552 1101.5156 533.27344 C 1101.4903 533.26553 1101.4648 533.25953 1101.4395 533.25195 z M 1102.2598 533.5625 C 1102.317 533.58853 1102.3747 533.61465 1102.4316 533.64258 C 1102.3746 533.61461 1102.3171 533.58857 1102.2598 533.5625 z M 1103.1426 534.04297 C 1103.1852 534.07053 1103.2271 534.10212 1103.2695 534.13086 C 1103.2271 534.1021 1103.1852 534.07054 1103.1426 534.04297 z M 1103.7422 534.49219 C 1103.9313 534.6427 1104.1191 534.80622 1104.3047 534.98242 C 1104.1192 534.80633 1103.9312 534.64261 1103.7422 534.49219 z M 1104.627 535.29688 C 1104.8383 535.51768 1105.0458 535.76416 1105.252 536.02148 C 1105.0456 535.76401 1104.8384 535.51777 1104.627 535.29688 z M 1105.4844 536.30664 C 1105.7677 536.68337 1106.0478 537.08886 1106.3203 537.54102 C 1106.0475 537.0884 1105.768 536.68368 1105.4844 536.30664 z M 1089.9902 537.67773 C 1086.3104 542.77054 1085.8099 572.95243 1091.0098 577.52734 L 1093.0195 577.56836 C 1107.6195 567.75736 1109.4395 556.10622 1107.4395 539.57422 L 1103.4707 540.12109 C 1107.0907 548.76409 1103.5991 562.01144 1098.1191 569.27344 L 1097.1309 568.78711 C 1095.4609 560.46111 1097.7902 550.47473 1096.4102 542.42773 L 1095.1406 539.70508 C 1094.0606 541.37308 1094.0198 542.78856 1093.7598 544.72656 C 1093.7698 551.82856 1093.8709 564.84134 1092.2109 571.27734 C 1088.9711 566.91156 1089.1612 545.18051 1092.3008 539.86914 L 1089.9902 537.67773 z "
     transform="translate(0,0)" />
  <path
     transform="translate(0,0)"
     fill="rgb(83,130,130)"
     d="M 1090.14 536.724 C 1095.87 533.158 1101.85 530.124 1106.32 537.541 C 1106.72 538.206 1107.09 538.883 1107.44 539.574 L 1103.47 540.122 C 1103.13 544.576 1102.84 548.986 1102.21 553.411 C 1102.04 548.472 1102.5 542.142 1099.9 538.463 L 1098.11 537.49 C 1096.57 538.85 1096.64 540.396 1096.41 542.428 L 1095.14 539.705 C 1094.06 541.373 1094.02 542.789 1093.76 544.727 C 1093.7 543.474 1092.76 541.153 1092.3 539.869 L 1089.99 537.678 L 1090.14 536.724 z"
     id="path62"
     style="fill-opacity:0.98684192;fill:#558687" />
  <path
     transform="translate(0,0)"
     fill="rgb(87,136,135)"
     d="M 1099.9 538.463 C 1102.5 542.142 1102.04 548.472 1102.21 553.411 C 1101.89 555.689 1101.37 558.958 1099.71 560.29 C 1099.07 556.766 1099.82 543.015 1099.9 538.463 z"
     id="path63"
     style="fill-opacity:0.98684192;fill:#558687" />
  <path
     id="path65"
     style="fill:#558687;fill-opacity:0.98684192"
     d="M 1069.4785 533.27734 C 1068.6786 533.27792 1067.8332 533.30969 1066.9395 533.375 C 1063.8495 538.164 1063.2002 541.17327 1062.2402 546.82227 C 1062.5702 549.98327 1062.9498 553.04647 1063.0098 556.23047 C 1065.0298 563.14647 1068.6695 572.4545 1075.2695 576.1875 C 1078.8495 576.4565 1077.54 576.80039 1080.5 574.90039 C 1084.36 568.98539 1084.2999 559.90216 1083.9199 553.03516 C 1083.2262 540.47922 1081.4772 533.26866 1069.4785 533.27734 z M 1073.3008 537.66406 C 1073.4008 537.92906 1074.4991 567.93584 1074.7891 571.46484 C 1069.7391 563.96584 1069.0308 545.57306 1073.3008 537.66406 z M 1077.0898 539.39648 L 1078.9395 540.70117 C 1081.5295 545.28317 1080.1507 566.35298 1079.9707 572.45898 L 1078.4707 571.16016 C 1075.7607 563.72016 1076.8498 547.72348 1077.0898 539.39648 z M 1066.9902 542.44922 L 1067.8809 542.87109 L 1067.9902 557.38281 C 1065.0702 554.72981 1065.2602 545.86522 1066.9902 542.44922 z "
     transform="translate(0,0)" />
  <path
     transform="translate(0,0)"
     fill="rgb(87,136,135)"
     d="M 1039.01 540.726 C 1040.74 543.124 1042.53 545.416 1043.77 548.107 C 1042.63 549.309 1041.42 550.731 1040.07 551.636 L 1038.7 550.669 L 1034.43 546.141 C 1035.87 543.004 1036.17 542.706 1039.01 540.726 z"
     id="path71"
     style="fill-opacity:0.98684192;fill:#558687" />
  <path
     transform="translate(0,0)"
     fill="rgb(71,115,117)"
     d="M 1031.46 503.066 C 1036.08 505.54 1039.61 507.189 1042.78 511.593 C 1048 524.567 1043.68 534.724 1060.77 535.421 L 1059.49 536.924 C 1057.13 536.874 1054.85 536.815 1052.49 536.886 L 1045.92 531.577 C 1044.85 529.905 1043.65 527.557 1042.66 525.773 L 1040.68 520.768 C 1038.57 516.12 1040.49 515.244 1037.13 509.339 C 1034.33 507.527 1035.53 507.753 1032.34 508.142 L 1033.71 510.729 C 1033 510.986 1030.32 507.999 1024.86 508.358 C 1027.78 505.601 1027.5 504.954 1031.46 503.066 z"
     id="path72"
     style="fill-opacity:0.98684192;fill:#558687" />
  <path
     transform="translate(0,0)"
     fill="rgb(83,130,130)"
     d="M 1086.92 599.904 C 1086.31 600.064 1085.27 600.03 1084.6 600.045 C 1081.14 596.239 1081.02 594.003 1082.22 589.058 C 1084.19 586.777 1083.15 587.317 1086.11 587.012 L 1088.89 590.435 L 1089.71 592.388 C 1088.98 595.021 1088.42 597.619 1086.92 599.904 z"
     id="path73"
     style="fill-opacity:0.98684192;fill:#558687" />
  <path
     transform="translate(0,0)"
     fill="rgb(71,115,117)"
     d="M 1091.93 603.207 L 1096.48 605.372 C 1096.76 609.098 1097.68 610.737 1095.87 613.082 C 1093.84 613.462 1091.66 613.972 1089.61 613.983 C 1088.74 609.114 1089.75 607.319 1091.93 603.207 z"
     id="path75"
     style="fill-opacity:0.98684192;fill:#558687" />
  <path
     transform="translate(0,0)"
     fill="rgb(71,115,117)"
     d="M 1043.77 548.107 C 1045.21 550.661 1047 553.654 1048.23 556.261 C 1049.32 558.122 1050.78 560.143 1050.8 562.242 L 1049.96 562.421 C 1046.85 560.331 1042.64 554.764 1040.07 551.636 C 1041.42 550.731 1042.63 549.309 1043.77 548.107 z"
     id="path76"
     style="fill-opacity:0.98684192;fill:#558687" />
  <path
     id="path79"
     d="M 1793.502 283.94727 C 1785.5855 283.95794 1776.1323 286.8208 1765.6191 293.97852 C 1759.1591 300.38952 1750.6908 293.27367 1742.3008 290.26367 C 1731.1008 290.16667 1715.13 293.80708 1711 305.70508 C 1711.45 308.75008 1723.0595 317.73398 1724.4395 325.20898 C 1729.7195 353.84798 1728.5809 385.20262 1728.7109 414.39062 C 1728.7409 420.90863 1718.9295 429.66692 1721.7695 435.91992 C 1727.9095 438.03292 1734.2605 429.91356 1737.3105 425.35156 C 1738.9005 427.00656 1739.4805 428.51341 1740.4805 430.56641 C 1743.8905 434.24041 1750.3101 438.13659 1754.3301 433.43359 C 1753.4301 430.33359 1753.5296 431.12853 1750.8496 428.64453 C 1740.5596 413.92253 1747.2308 356.59991 1748.3008 337.62891 C 1748.7408 329.83091 1752.8595 321.78855 1758.2695 316.06055 C 1760.6495 314.29355 1764.6694 312.2187 1767.3594 310.7207 C 1782.1594 307.3947 1779.2095 316.22848 1788.7695 324.39648 C 1789.8395 325.31148 1796.1905 326.83195 1797.9805 327.25195 C 1830.4648 320.25117 1821.775 283.90913 1793.502 283.94727 z "
     transform="translate(0,0)"
     style="fill:url(#linearGradient485);fill-opacity:1" />
  <path
     transform="translate(0,0)"
     fill="rgb(243,231,215)"
     d="M 1750.85 428.644 C 1753.53 431.128 1753.43 430.334 1754.33 433.434 C 1750.31 438.137 1743.89 434.24 1740.48 430.566 C 1745.22 428.065 1745.6 428.282 1750.85 428.644 z"
     id="path81"
     style="fill:url(#linearGradient486);fill-opacity:1" />
  <path
     transform="translate(0,0)"
     fill="rgb(243,231,215)"
     d="M 1758.27 316.061 C 1753.96 313.478 1752.32 316.531 1749.15 310.068 C 1751.91 308.419 1763.8 310.276 1767.36 310.721 C 1764.67 312.219 1760.65 314.294 1758.27 316.061 z"
     id="path82"
     style="fill:url(#linearGradient487);fill-opacity:1" />
  <path
     transform="translate(0,0)"
     fill="rgb(243,231,215)"
     d="M 1748.59 299.924 L 1749.25 300.176 C 1746.99 305.995 1734.8 304.989 1732.01 306.844 L 1731.5 309.429 L 1731.49 308.41 C 1729.71 305.701 1729.65 304.938 1729.12 301.698 C 1732.08 300.139 1743.96 300.264 1748.59 299.924 z"
     id="path83"
     style="fill:url(#linearGradient488);fill-opacity:1" />
  <path
     transform="translate(0,0)"
     fill="rgb(243,231,215)"
     d="M 1016.86 299.059 C 1019.89 297.717 1036.69 288.976 1038.37 293.161 C 1040.27 297.919 1040.66 330.875 1039.14 333.684 C 1040.32 360.644 1037.79 388.697 1040.43 415.43 C 1040.95 420.721 1051.07 426.031 1049.62 432.649 C 1046.49 434.809 1002.17 434.454 997.654 432.925 C 995.586 429.668 1007.13 418.708 1007.16 412.5 C 1007.27 382.207 1009.78 350.547 1006.04 320.578 C 1005.29 314.576 995.105 317.986 995.888 308.348 C 997.928 307.051 1001.63 305.426 1003.92 304.331 C 1008.11 302.51 1012.61 300.775 1016.86 299.059 z"
     id="path84"
     style="fill:url(#linearGradient461);fill-opacity:1" />
  <path
     transform="translate(0,0)"
     fill="rgb(246,232,211)"
     d="M 1016.86 299.059 C 1019.89 297.717 1036.69 288.976 1038.37 293.161 C 1040.27 297.919 1040.66 330.875 1039.14 333.684 C 1037.83 329.894 1039.13 311.442 1038.51 305.02 C 1034.71 301.94 1031.37 302.852 1028.49 306.503 L 1028.96 307.977 C 1032.7 309.299 1036.8 309.86 1038.15 313.538 C 1037.93 316.494 1038 317.085 1035.99 319.229 C 1033.05 320.599 1028.15 317.908 1025.18 317.156 C 1021.25 316.159 1021.52 315.217 1019.45 311.864 C 1013.89 308.879 1002.83 314.77 995.888 308.348 C 997.928 307.051 1001.63 305.426 1003.92 304.331 C 1008.11 302.51 1012.61 300.775 1016.86 299.059 z"
     id="path85"
     style="fill:url(#linearGradient462);fill-opacity:1" />
  <path
     transform="translate(0,0)"
     fill="rgb(243,231,215)"
     d="M 1003.92 304.331 C 1008.11 302.51 1012.61 300.775 1016.86 299.059 C 1020.92 301.103 1021.93 301.595 1026.52 302.526 L 1026.5 303.432 C 1014.62 309.988 1013.87 305.657 1003.92 304.331 z"
     id="path86"
     style="fill:url(#linearGradient463);fill-opacity:1" />
  <path
     transform="translate(0,0)"
     fill="rgb(87,136,135)"
     d="M 762.907 512.896 C 768.359 514.643 794.662 523.714 797.304 526.818 C 796.172 527.965 796.108 528.037 794.675 528.749 L 794.173 531.747 C 791.617 533.272 792.369 532.82 788.872 532.431 C 787.073 531.099 777.468 523.301 776.561 522.985 C 762.7 518.148 736.834 519.562 727.616 533.29 C 712.839 555.299 740.874 579.176 760.296 561.215 C 762.449 559.224 760.77 553.978 763.89 552.458 C 765.308 553.838 767.019 557.088 766.671 559.014 C 761.903 585.428 717.702 575.161 717.895 552.064 L 716.737 546.633 C 721.303 520.572 739.277 517.93 762.025 515.328 L 762.907 512.896 z"
     id="path88"
     style="fill-opacity:0.98684192;fill:#558687" />
  <path
     id="path89"
     style="fill:#558687;fill-opacity:0.98684192"
     d="M 724.57227 506.82031 C 699.50567 507.79492 675.15533 518.50294 662.9668 541.75781 L 666.03906 544.41211 C 672.46306 532.85711 675.22584 528.95822 686.08984 521.57422 C 678.43984 531.87422 673.22305 537.99622 675.24805 551.69922 L 675.34375 552.32227 C 682.61375 561.73827 691.53942 565.93956 699.85742 554.60156 L 699.05859 551.22852 C 698.88059 547.46452 697.11752 546.35836 693.97852 545.10938 C 689.37058 545.81537 691.03525 545.27006 686.93945 548.54492 C 688.18622 550.17068 690.01107 552.75127 691.51367 553.98633 L 694.61914 555.92383 L 694.41016 557.61133 C 690.06325 559.63328 684.74198 558.43053 681.08398 555.51367 L 677.51758 549.58008 C 676.36658 544.23608 677.20006 538.95417 679.53906 534.07617 C 692.19906 507.68217 739.47339 504.96115 762.02539 515.32812 L 762.90625 512.89648 C 754.26775 509.67698 744.86425 507.65652 735.32617 506.99023 C 731.74939 506.74038 728.15321 506.68108 724.57227 506.82031 z M 681.08398 555.51367 C 681.45009 555.291 681.83148 555.10183 682.22266 554.93945 C 681.83095 555.10199 681.45057 555.2907 681.08398 555.51367 z "
     transform="translate(0,0)" />
  <path
     id="path94"
     style="fill:#558687;fill-opacity:0.98684192"
     d="M 1241.6094 510.65234 C 1239.5952 510.746 1237.5859 511.53304 1235.4805 513.42188 C 1234.1605 517.42386 1234.1298 516.00748 1234.8398 519.89648 L 1236.5391 520.19141 C 1238.2691 517.86241 1237.7702 518.57952 1237.9902 515.35352 C 1244.5402 513.81852 1245.9494 514.06992 1250.1094 519.41992 C 1253.6994 545.74892 1222.1104 536.98691 1207.1504 534.12891 C 1188.2305 530.51192 1169.2493 536.91696 1152.6094 545.58789 L 1142.9609 551.3125 C 1130.8309 559.8335 1122.6595 567.14734 1112.6895 578.27734 C 1109.2995 581.74634 1102.0302 588.79763 1099.4102 592.39062 L 1096.4297 595.95508 C 1095.2597 597.51508 1093.0991 600.72363 1091.6191 601.64062 L 1091.9297 603.20703 L 1096.4805 605.37109 L 1098.0195 603.72852 C 1098.8195 601.56652 1100.8497 598.72303 1102.1797 596.70703 L 1104.4805 593.24609 C 1118.1505 577.69609 1138.1394 564.32767 1159.3594 563.01367 C 1162.8294 562.79867 1166.2002 562.61495 1169.6602 562.25195 C 1168.4102 560.66095 1168.2991 561.00844 1168.0391 559.27344 C 1185.8991 558.01444 1187.32 571.55758 1193.75 570.14258 C 1195.52 568.05458 1195.3701 565.66165 1195.5801 562.89062 C 1191.8601 559.34965 1186.8908 557.42653 1184.8008 554.76953 C 1188.0608 554.06953 1192.1502 555.42356 1195.4902 556.22656 C 1217.0797 565.54461 1205.8691 583.3107 1193.1992 580.38672 C 1190.6492 576.29072 1194.6191 577.53235 1191.0391 574.85938 C 1187.7491 574.86937 1188.6595 574.41752 1186.1895 576.10352 C 1185.4595 589.76552 1214.7097 586.9782 1211.6797 570.0332 C 1206.5697 541.3762 1166.0005 552.20019 1148.0605 558.36719 C 1139.7105 562.06919 1130.0095 567.5735 1121.9395 572.0625 C 1129.2994 563.80062 1137.5297 557.67008 1147.0195 552.11914 C 1175.5895 536.82914 1200.8196 531.07114 1231.3496 545.32812 C 1234.8396 546.30013 1236.2107 546.78061 1239.4707 548.34961 C 1245.1707 550.51561 1259.8998 555.97989 1265.8398 553.71289 L 1265.5195 551.99805 C 1265.9895 550.81405 1266.0492 550.77436 1266.1992 549.44336 C 1251.2992 548.97036 1251.7501 549.57174 1237.9102 543.80078 C 1235.5402 542.69078 1233.6696 542.07142 1232.0996 539.98242 C 1234.9091 537.78481 1240.9884 538.13914 1246.0879 536.75 L 1246.0898 536.74805 C 1251.7398 533.15805 1253.1505 531.37536 1256.2305 525.81836 C 1256.0105 520.31136 1254.6503 518.35472 1251.8203 513.88672 C 1248.4453 512.30497 1245.4375 510.79513 1242.4727 510.6543 C 1242.1844 510.6406 1241.8971 510.63896 1241.6094 510.65234 z "
     transform="translate(0,0)" />
  <path
     transform="translate(0,0)"
     fill="rgb(246,232,211)"
     d="M 1019.15 230.723 C 1029.17 229.04 1038.71 235.623 1040.69 245.585 C 1042.67 255.547 1036.38 265.281 1026.48 267.559 C 1019.81 269.095 1012.83 266.881 1008.26 261.779 C 1003.7 256.677 1002.27 249.496 1004.53 243.035 C 1006.8 236.575 1012.4 231.858 1019.15 230.723 z"
     id="path100"
     style="fill:url(#linearGradient464);fill-opacity:1" />
  <path
     id="path101"
     style="fill:#558687;fill-opacity:0.98684192"
     d="M 1439.1621 506.89453 C 1429.4888 507.37435 1419.6762 509.26673 1410.0996 512.32617 L 1411.3301 514.86133 C 1420.5701 510.50933 1429.6709 511.06772 1439.2109 509.88672 C 1460.5809 507.24372 1506.9002 526.21358 1490.9102 554.39258 C 1485.5002 558.80158 1482.0202 560.31813 1475.4902 556.95312 L 1482.6504 551.47266 C 1482.8304 547.40566 1483.3297 548.66861 1481.1797 545.72461 C 1472.3297 543.42761 1468.5802 551.64847 1474.7402 558.85547 C 1486.3098 564.55927 1493.0608 559.51125 1496.7109 548.24609 L 1496.7109 548.24414 C 1496.0109 535.09814 1492.9905 531.78766 1484.8105 521.22266 C 1494.8004 529.34855 1501.9199 535.28381 1505.9199 548.06445 C 1506.8799 553.23345 1507.3796 556.10575 1507.5996 561.34375 L 1511.5605 561.59375 L 1511.9395 555.39844 L 1511.7305 553.8125 C 1510.6205 549.2195 1508.9191 544.91935 1507.2891 540.48438 L 1504.3105 535.01367 C 1489.8605 516.45305 1469.972 507.98206 1448.7754 506.89453 C 1445.5959 506.7314 1442.3866 506.73459 1439.1621 506.89453 z "
     transform="translate(0,0)" />
  <path
     transform="translate(0,0)"
     fill="rgb(83,130,130)"
     d="M 1474.74 558.855 C 1468.58 551.648 1472.33 543.427 1481.18 545.724 C 1483.33 548.668 1482.83 547.406 1482.65 551.473 L 1475.49 556.953 L 1474.74 558.855 z"
     id="path103"
     style="fill-opacity:0.98684192;fill:#558687" />
  <path
     transform="translate(0,0)"
     fill="rgb(83,130,130)"
     d="M 1425.01 568.114 L 1425.42 568.02 C 1426.87 567.687 1428.32 567.336 1429.76 566.965 C 1452.51 560.985 1452.85 535.47 1433.29 525.11 C 1422.32 519.302 1405.14 518.771 1393.97 523.821 C 1389.01 526.061 1382.13 535.746 1376.89 532.513 C 1376.77 530.85 1376.73 530.128 1376.9 528.459 L 1376.94 528.086 L 1373.97 527.958 L 1373.23 527.033 C 1376.77 523.695 1404 514.319 1410.1 512.326 L 1411.33 514.862 L 1409.85 515.549 C 1423.86 515.779 1435 517.737 1445.32 527.983 C 1470.41 552.88 1432.93 590.711 1408.52 568.564 L 1415.5 565.763 L 1425.01 568.114 z"
     id="path105"
     style="fill-opacity:0.98684192;fill:#558687" />
  <path
     transform="translate(0,0)"
     fill="rgb(246,232,211)"
     d="M 955.637 319.15 C 957.5 303.584 950.061 303.45 950.693 297.012 C 955.887 295.006 982.505 293.942 986.665 297.472 C 980.372 304.985 974.714 310.129 969.627 318.428 L 965.729 327.868 C 961.435 327.786 956.475 327.897 952.329 326.997 C 953.399 323.489 953.878 322.37 955.637 319.15 z"
     id="path106"
     style="fill:url(#linearGradient465);fill-opacity:1" />
  <path
     transform="translate(0,0)"
     fill="rgb(243,231,215)"
     d="M 955.637 319.15 C 958.627 319.569 966.872 319.159 969.627 318.428 L 965.729 327.868 C 961.435 327.786 956.475 327.897 952.329 326.997 C 953.399 323.489 953.878 322.37 955.637 319.15 z"
     id="path107"
     style="fill:url(#linearGradient466);fill-opacity:1" />
  <path
     transform="translate(0,0)"
     fill="rgb(83,130,130)"
     d="M 730.358 486.426 C 757.673 485.779 796.646 502.06 817.605 518.783 L 817.466 520.349 C 814.725 520.626 809.513 516.813 806.871 515.321 C 776.272 498.036 751.321 487.665 715.309 491.367 C 706.944 492.752 698.768 495.11 690.95 498.394 C 668.21 508.209 660.845 517.667 652.52 538.526 C 650.395 540.236 650.398 539.68 647.066 539.836 C 643.044 537.231 646.838 533.001 649.072 530.048 C 671.311 500.634 694.228 490.776 730.358 486.426 z"
     id="path108"
     style="fill-opacity:0.98684192;fill:#558687" />
  <path
     id="path109"
     style="fill:#558687;fill-opacity:0.98684192"
     d="M 1086.4102 502.69922 C 1082.5718 502.80685 1078.1988 505.05437 1074.9121 509.625 L 1076.5137 511.45312 C 1085.0937 511.85712 1085.3229 509.31677 1094.9629 512.25977 L 1094.8398 512.72461 C 1094.9256 512.75036 1095.0123 512.77609 1095.0996 512.80273 C 1095.5215 506.06455 1091.4218 502.55869 1086.4102 502.69922 z M 1084.7207 515.00586 C 1082.302 515.04148 1079.8707 515.26147 1076.4707 515.54297 C 1070.2507 520.27297 1069.3705 521.47613 1068.0605 529.20312 C 1072.5005 529.99712 1077.4901 530.04602 1081.0801 532.04102 C 1082.5201 532.54902 1085.5204 533.73014 1086.9004 533.82812 C 1092.4204 529.63613 1098.24 531.55967 1101.75 526.13867 C 1101.36 520.96767 1098.2897 518.79445 1094.4297 515.31445 L 1092.8906 515.56836 C 1089.5456 515.11736 1087.1395 514.97023 1084.7207 515.00586 z "
     transform="translate(0,0)" />
  <path
     transform="translate(0,0)"
     fill="rgb(87,136,135)"
     d="M 1092.89 515.569 L 1094.43 515.314 C 1098.29 518.794 1101.36 520.967 1101.75 526.138 C 1098.24 531.559 1092.42 529.636 1086.9 533.828 C 1085.52 533.73 1082.52 532.549 1081.08 532.041 C 1092.83 526.493 1084.66 522.262 1087.79 516.249 L 1092.89 515.569 z"
     id="path112"
     style="fill-opacity:0.98684192;fill:#558687" />
  <path
     transform="translate(0,0)"
     fill="rgb(83,130,130)"
     d="M 1352.45 519.101 C 1399.51 487.893 1450.63 470.233 1502.16 509.644 C 1507.8 513.955 1517.81 522.535 1518.11 530.189 C 1514.11 528.201 1504.64 514.659 1499.7 510.72 C 1462.73 481.21 1414.82 487.534 1375.81 508.924 C 1372.66 510.649 1355.34 520.717 1353.44 521.145 L 1352.33 520.161 L 1352.45 519.101 z"
     id="path113"
     style="fill-opacity:0.98684192;fill:#558687" />
  <path
     id="path114"
     d="M 1258.0449 509.12305 C 1256.1162 509.13666 1254.0836 509.29041 1251.9492 509.59766 C 1260.1892 513.20266 1265.1893 514.3375 1267.2793 523.8125 C 1284.4293 528.2935 1278.9995 537.5125 1270.5195 547.0625 L 1271.6992 547.20898 C 1292.6617 539.91898 1286.9763 508.91883 1258.0449 509.12305 z "
     transform="translate(0,0)"
     style="fill:#558687;fill-opacity:0.98684192" />
  <path
     id="path116"
     d="M 1507.5996 561.34375 C 1506.3696 570.77375 1504.1205 577.46194 1497.3105 584.46094 C 1493.1305 587.89394 1486.6898 591.74244 1481.2598 589.39844 C 1478.7398 586.07644 1479.4002 587.36592 1479.7402 582.29492 C 1478.1102 579.62092 1477.8695 579.31659 1475.0195 578.05859 C 1466.8595 577.76059 1462.9603 586.35677 1467.0703 590.63477 C 1478.1603 602.17777 1499.1509 592.42152 1505.8809 580.22852 C 1509.6809 573.34752 1510.7005 569.58275 1511.5605 561.59375 L 1507.5996 561.34375 z "
     transform="translate(0,0)"
     style="fill:#558687;fill-opacity:0.98684192" />
  <path
     id="path118"
     style="fill:#558687;fill-opacity:0.98684192"
     d="M 1139.5605 584.95117 C 1136.7473 584.80433 1133.5842 585.41355 1130.4492 586.9668 C 1123.3092 590.4988 1120.0495 591.50919 1113.9395 596.24219 L 1108.9609 600.29102 C 1107.0709 602.45602 1106.1096 602.83139 1105.5996 605.27539 C 1110.1496 601.34339 1113.4793 598.37177 1118.5293 595.13477 C 1120.2193 593.97177 1123.3105 592.4293 1125.2305 591.4043 C 1132.4801 587.76159 1139.6999 585.48868 1144.1797 594.36328 L 1144.0801 596.90039 C 1142.0601 598.64839 1143.0307 598.30444 1140.4707 598.27344 C 1137.7107 594.72944 1138.0799 593.767 1133.1699 593.875 L 1132.6992 598.33203 C 1135.1392 602.11203 1142.7801 604.41345 1145.3301 601.56445 C 1153.3026 592.6327 1148.0004 585.3917 1139.5605 584.95117 z M 1113.9395 596.24219 C 1112.4795 595.41919 1110.9328 594.86292 1109.3418 594.41602 C 1110.933 594.86289 1112.4795 595.41919 1113.9395 596.24219 z "
     transform="translate(0,0)" />
  <path
     transform="translate(0,0)"
     fill="rgb(87,136,135)"
     d="M 659.337 552.857 L 662.967 541.758 L 666.039 544.412 C 665.197 547.656 664.276 550.983 663.629 554.263 C 662.674 567.699 667.496 587.21 683.767 590.125 C 685.88 590.504 688.721 589.907 690.565 588.716 C 692.768 584.922 689.674 575.771 700.344 578.328 C 715.177 588.529 688.675 607.644 672.519 588.677 C 662.864 577.342 660.797 576.648 659.031 560.76 L 659.337 552.857 z"
     id="path123"
     style="fill-opacity:0.98684192;fill:#558687" />
  <path
     id="path124"
     d="M 1356.8809 533.09961 L 1351.7891 533.44922 C 1308.8291 556.20422 1283.5905 576.33978 1235.5605 552.80078 L 1222.9805 547.21289 C 1209.7305 542.72589 1204.4309 540.53041 1189.9609 542.44141 C 1220.9709 545.66141 1231.9791 555.76128 1259.2891 564.48828 C 1282.0091 571.75128 1312.8291 556.84178 1332.3691 546.17578 C 1339.7091 542.16778 1349.4909 537.82961 1356.8809 533.09961 z "
     transform="translate(0,0)"
     style="fill:#558687;fill-opacity:0.98684192" />
  <path
     transform="translate(0,0)"
     fill="rgb(83,130,130)"
     d="M 1529.31 534.478 C 1532.36 533.945 1534.68 533.947 1537.77 533.958 C 1600.12 534.18 1662.49 533.684 1724.83 534.14 C 1726.99 534.156 1728.12 534.491 1730 535.513 C 1721.98 536.732 1709.45 536.078 1701.03 536.085 L 1649.44 536.114 L 1572.84 536.169 C 1566.08 536.171 1532.74 537.22 1529.31 534.478 z"
     id="path126"
     style="fill-opacity:0.98684192;fill:#558687" />
  <path
     transform="translate(0,0)"
     fill="rgb(83,130,130)"
     d="M 441.095 534.497 C 442.242 534.344 443.394 534.222 444.549 534.132 C 459.008 533.086 634.111 533.116 637.502 534.186 C 637.861 534.3 638.692 535.202 639.024 535.485 C 638.512 535.691 637.987 535.861 637.451 535.995 C 636.02 536.363 607.416 536.274 606.389 536.183 C 584.337 534.219 449.351 539.422 441.095 534.497 z"
     id="path127"
     style="fill-opacity:0.98684192;fill:#558687" />
  <path
     id="path128"
     d="M 1053.3867 480.63086 C 1051.2939 480.68571 1049.1663 481.60264 1046.8301 483.91602 C 1046.1501 487.51302 1045.9993 486.14538 1047.2793 489.48438 L 1049.0605 490.7793 C 1053.7505 489.7453 1053.7993 482.90347 1059.0293 485.23047 C 1065.5093 495.94647 1057.9002 501.02019 1055.2402 510.11719 C 1058.1002 516.98119 1061.6201 517.32714 1066.8301 521.86914 L 1068 519.77148 C 1067.05 517.09148 1063.5502 515.37672 1060.7402 513.26172 C 1057.2302 506.94072 1062.3302 501.46509 1063.6602 495.24609 C 1064.0802 493.27909 1063.7402 489.80756 1063.6602 487.60156 L 1065.0605 487.60547 C 1069.0105 489.48447 1075.0005 496.41873 1078.3105 499.92773 L 1078.5605 497.76562 L 1072.9492 491.31445 C 1069.5492 488.35345 1068.1509 487.40612 1064.3809 485.07812 C 1060.2684 482.84312 1056.8747 480.53944 1053.3867 480.63086 z "
     transform="translate(0,0)"
     style="fill:#558687;fill-opacity:0.98684192" />
  <path
     transform="translate(0,0)"
     fill="rgb(71,115,117)"
     d="M 873.181 559.8 C 922.551 574.488 931.304 543.49 976.11 541.188 C 977.552 541.114 979.839 541.468 980.921 542.604 C 979.118 542.718 964.906 543.173 963.946 543.575 C 921.99 561.17 893.804 578.911 849.278 551.792 C 841.685 547.167 816.791 535.777 815.174 533.106 C 820.1 533.455 857.01 553.006 864.131 556.394 L 873.181 559.8 z"
     id="path131"
     style="fill-opacity:0.98684192;fill:#558687" />
  <path
     id="path132"
     d="M 1029.9355 584.6543 C 1026.7858 584.78031 1023.8813 585.95369 1021.4707 588.69922 C 1017.2107 599.60022 1033.5808 609.87466 1038.8008 595.84766 L 1038.9199 595.52344 C 1030.6999 592.27744 1034.7395 597.12013 1029.1895 598.32812 L 1026.1309 596.07031 C 1025.2009 593.48131 1025.0806 594.32497 1025.8906 592.41797 C 1033.2306 584.96297 1043.8308 590.43728 1051.0508 594.48828 C 1053.7908 596.24628 1057.7091 598.33067 1059.2891 601.01367 L 1064.3105 604.13281 L 1064.8809 603.61914 L 1061.75 599.49414 C 1055.5625 597.11602 1041.1848 584.20426 1029.9355 584.6543 z "
     transform="translate(0,0)"
     style="fill:#558687;fill-opacity:0.98684192" />
  <path
     transform="translate(0,0)"
     fill="rgb(246,232,211)"
     d="M 256.861 226.262 C 265.15 236.022 267.81 240.258 267.91 253.333 L 267.565 253.965 L 267.822 255.212 C 264.181 268.021 260.877 273.534 250.324 281.474 C 257.174 268.899 258.775 258.386 259.552 244.245 C 258.88 237.309 258.328 233.05 256.861 226.262 z"
     id="path134"
     style="fill:url(#linearGradient467);fill-opacity:1" />
  <path
     id="path135"
     d="M 627.875 547.99609 L 626.30859 550.92383 L 625.92969 552.45898 C 626.62969 562.42098 632.29852 564.35284 641.10352 562.21484 C 643.83652 558.80384 644.49033 558.00395 645.61133 553.75195 L 644.49219 549.29297 L 643.18945 551.5332 C 640.68745 553.6482 632.14764 554.21764 628.93164 552.93164 L 629.10156 549.9707 L 627.875 547.99609 z "
     transform="translate(0,0)"
     style="fill:#558687;fill-opacity:0.98684192" />
  <path
     transform="translate(0,0)"
     fill="rgb(71,115,117)"
     d="M 627.875 547.996 C 633.449 542.702 639.792 543.074 644.493 549.292 L 643.189 551.533 C 641.482 548.28 639.871 547.16 636.374 546.473 C 632.598 547.064 632.072 547.486 629.102 549.971 L 627.875 547.996 z"
     id="path137"
     style="fill-opacity:0.98684192;fill:#558687" />
  <path
     id="path138"
     d="M 1543.2109 547.98438 L 1542.7305 550.32812 L 1541.8008 553.83594 C 1541.1708 553.79494 1526.6802 552.47267 1527.2402 552.63867 L 1525.6699 552.88281 C 1526.0599 555.48981 1526.2402 557.76381 1527.4102 560.13281 C 1538.0102 567.20881 1548.1409 560.49037 1543.2109 547.98438 z "
     transform="translate(0,0)"
     style="fill:#558687;fill-opacity:0.98684192" />
  <path
     transform="translate(0,0)"
     fill="rgb(71,115,117)"
     d="M 1525.67 552.882 C 1526.49 543.816 1537.05 542.048 1543.21 547.984 L 1542.73 550.329 C 1536.31 545.418 1531.1 544.332 1527.24 552.638 L 1525.67 552.882 z"
     id="path140"
     style="fill-opacity:0.98684192;fill:#558687" />
  <path
     transform="translate(0,0)"
     fill="rgb(87,136,135)"
     d="M 1085.81 620.538 C 1087.07 624.894 1089.33 627.304 1092.1 630.862 L 1093.48 632.16 C 1091.91 637.15 1088.87 641.891 1087.37 647.312 C 1086.27 651.267 1087.14 660.341 1085.32 662.572 C 1082.51 659.821 1085.23 654.524 1083.75 649.942 C 1081.82 644.017 1080.53 638.137 1077.18 632.718 L 1077.21 631.679 C 1080.79 628.378 1083.1 624.568 1085.81 620.538 z"
     id="path141"
     style="fill-opacity:0.98684192;fill:#558687" />
  <path
     transform="translate(0,0)"
     fill="rgb(83,130,130)"
     d="M 1085.81 620.538 C 1087.07 624.894 1089.33 627.304 1092.1 630.862 C 1088.46 633.355 1082.34 631.008 1077.21 631.679 C 1080.79 628.378 1083.1 624.568 1085.81 620.538 z"
     id="path142"
     style="fill-opacity:0.98684192;fill:#558687" />
  <path
     transform="translate(0,0)"
     fill="rgb(83,130,130)"
     d="M 1763.68 527.836 C 1764.89 528.074 1771.98 530.787 1773.64 531.363 C 1781.27 534.006 1785.97 534.483 1793.81 535.021 C 1786.54 535.862 1780.81 536.345 1773.74 538.509 C 1759.39 544.991 1765.39 539.133 1749.77 534.902 L 1749.45 534.818 C 1755.29 534.331 1759.56 531.77 1763.68 527.836 z"
     id="path143"
     style="fill-opacity:0.98684192;fill:#558687" />
  <path
     transform="translate(0,0)"
     fill="rgb(87,136,135)"
     d="M 406.174 527.89 C 411.901 530.291 410.854 531.716 419.241 533.723 L 419.362 536.039 L 420.371 535.364 C 413.513 537.577 408.453 542.195 402.645 540.941 C 395.711 537.881 390.598 537.192 383.272 535.357 L 382.849 534.528 C 393.443 533.547 396.479 531.927 406.174 527.89 z"
     id="path144"
     style="fill-opacity:0.98684192;fill:#558687" />
  <path
     id="path145"
     d="M 1108.5391 484.21484 C 1102.9591 486.59084 1093.8505 492.35559 1092.8105 498.80859 L 1093.8398 499.03516 L 1095.4805 496.87695 C 1097.8105 493.08895 1102.0193 489.08005 1106.2793 487.62305 L 1107.5703 488.40039 C 1107.3403 491.50939 1106.8906 495.62447 1107.6406 498.60547 C 1114.3106 507.82847 1111.1998 512.24692 1103.7598 519.29492 L 1104.7598 520.22852 L 1108.4004 518.79297 C 1112.3804 515.85297 1113.3799 514.50942 1115.1699 509.98242 C 1113.4799 499.86242 1107.8199 499.93547 1109.6699 488.23047 L 1108.5391 484.21484 z "
     transform="translate(0,0)"
     style="fill:#558687;fill-opacity:0.98684192" />
  <path
     transform="translate(0,0)"
     fill="rgb(71,115,117)"
     d="M 1127.48 514.137 C 1131.46 506.754 1151.12 493.015 1155.47 502.053 C 1154.18 504.739 1144.44 508.748 1140.99 509.259 L 1139.89 508.644 L 1141.18 505.272 C 1131.64 505.594 1130.91 522.592 1126.03 529.222 L 1125.52 531.545 C 1120.12 536.129 1119.14 537.197 1111.85 537.062 L 1111.98 536.054 C 1123.9 531.028 1123.24 532.392 1126.24 519.883 L 1127.48 514.137 z"
     id="path147"
     style="fill-opacity:0.98684192;fill:#558687" />
  <path
     transform="translate(0,0)"
     fill="rgb(243,231,215)"
     d="M 1727.71 289.327 C 1727.02 288.958 1726.21 288.522 1725.27 288.017 C 1723.25 278.45 1720.06 267.266 1714.15 259.339 C 1708.13 251.265 1704.57 257.31 1698.35 256.534 C 1695.42 254.772 1695.01 253.655 1693.34 250.596 L 1694.76 247.126 C 1712.99 242.965 1724.22 271.195 1727.66 284.203 L 1727.71 289.327 z"
     id="path148"
     style="fill:url(#linearGradient489);fill-opacity:1" />
  <path
     transform="translate(0,0)"
     fill="rgb(243,231,215)"
     d="M 1747.41 282.799 C 1750.85 272.232 1764.01 242.815 1777.12 245.302 C 1779.8 247.83 1780.86 251.468 1780.08 255.05 C 1775.09 259.243 1769.35 253.246 1764.41 255.309 C 1754.92 264.536 1751.42 276.225 1749.67 289.113 C 1748.37 289.004 1747.97 288.406 1746.99 287.496 L 1747.41 282.799 z"
     id="path149"
     style="fill:url(#linearGradient493);fill-opacity:1" />
  <path
     id="path150"
     d="M 1167.8242 511.32617 C 1160.0301 511.30827 1153.2375 517.52273 1145.25 525.13086 L 1147.5605 525.5293 L 1150.7305 522.55273 C 1153.1905 518.41373 1161.9491 515.34742 1166.5391 515.23242 C 1169.3891 516.57842 1168.5305 515.74089 1169.8105 518.71289 C 1174.3905 519.26089 1179.7804 521.25659 1183.4004 520.68359 L 1183.4102 519.13477 C 1177.5377 513.59077 1172.5007 511.33691 1167.8242 511.32617 z "
     transform="translate(0,0)"
     style="fill:#558687;fill-opacity:0.98684192" />
  <path
     transform="translate(0,0)"
     fill="rgb(83,130,130)"
     d="M 984.829 520.505 C 997.705 510.845 1008.62 506.505 1020.21 521.505 C 1021.5 522.602 1022.37 523.67 1023.97 523.786 C 1025.29 525.069 1027.01 526.453 1027.66 528.088 L 1024.16 526.456 C 1004.8 515.073 1004.62 521.256 984.829 520.505 z"
     id="path152"
     style="fill-opacity:0.98684192;fill:#558687" />
  <path
     transform="translate(0,0)"
     fill="rgb(87,136,135)"
     d="M 1085.36 467.352 C 1086.98 470.284 1088.71 473.61 1090.61 476.333 C 1091.4 478.353 1092.25 480.349 1092.83 482.439 C 1086.04 489.155 1087.51 486.868 1085.24 497.768 C 1083.7 495.312 1083.69 490.967 1083.43 487.933 C 1082.39 484.431 1079.37 484.518 1076.41 483.968 C 1077.77 481.481 1079.24 478.178 1080.49 475.562 L 1085.36 467.352 z"
     id="path153"
     style="fill-opacity:0.98684192;fill:#558687" />
  <path
     transform="translate(0,0)"
     fill="rgb(83,130,130)"
     d="M 1085.36 467.352 C 1086.98 470.284 1088.71 473.61 1090.61 476.333 C 1086.58 476.86 1084.31 476.935 1080.49 475.562 L 1085.36 467.352 z"
     id="path154"
     style="fill-opacity:0.98684192;fill:#558687" />
  <path
     transform="translate(0,0)"
     fill="rgb(243,231,215)"
     d="M 236.555 197.122 C 240.039 196.743 241.574 196.275 244.44 198.131 C 247.809 201.654 251.649 214.544 254.316 220.416 C 253.817 221.751 254.057 221.802 253.1 222.418 C 241.298 201.593 243.809 215.33 234.159 207.112 C 233 203.508 234.602 200.157 236.555 197.122 z"
     id="path155"
     style="fill:url(#linearGradient468);fill-opacity:1" />
  <path
     transform="translate(0,0)"
     fill="rgb(246,232,211)"
     d="M 1274.08 230.948 C 1273.5 236.335 1269.5 238.734 1264.28 238.077 C 1259.31 234.465 1259.2 230.414 1261.57 224.965 C 1264.59 222.245 1263.19 222.843 1267.1 222.412 C 1270.86 223.805 1271.65 224.121 1274.14 227.234 L 1274.08 230.948 z"
     id="path156"
     style="fill:url(#linearGradient491);fill-opacity:1" />
  <path
     transform="translate(0,0)"
     fill="rgb(201,195,182)"
     d="M 905.994 489.613 L 908.399 491.751 C 906.003 494.802 905.927 499.325 904.455 502.819 C 900.992 507.708 896.628 516.814 893.222 519.344 C 888.759 519.964 887.768 519.176 884.832 515.683 C 885.362 514.819 885.474 513.762 885.138 512.806 C 888.925 502.472 900.801 521.051 905.994 489.613 z"
     id="path157"
     style="fill:url(#linearGradient472);fill-opacity:1" />
  <path
     transform="translate(0,0)"
     fill="rgb(83,130,130)"
     d="M 617.243 553.602 C 609.768 557.785 610.744 554.562 604.31 551.378 C 603.435 550.945 598.188 557.01 594.637 553.223 C 594.128 549.35 593.651 550.278 595.377 547.483 C 598.28 546.824 601.476 548.502 604.34 549.624 C 607.507 547.779 607.974 547.171 610.319 544.306 C 613.499 544.043 615.825 546.004 618.528 547.75 L 617.243 553.602 z"
     id="path158"
     style="fill-opacity:0.98684192;fill:#558687" />
  <path
     transform="translate(0,0)"
     fill="rgb(83,130,130)"
     d="M 1518.11 530.189 C 1520.3 529.019 1523 529.51 1524.64 531.375 C 1526.27 533.239 1526.41 535.984 1524.96 537.998 C 1520.11 543.859 1512.38 538.847 1507.29 540.484 L 1504.31 535.013 C 1507.54 535.512 1512.35 536.502 1515.43 536.062 C 1514.9 533.723 1516 531.32 1518.11 530.189 z"
     id="path161"
     style="fill-opacity:0.98684192;fill:#558687" />
  <path
     transform="translate(0,0)"
     fill="rgb(243,231,215)"
     d="M 290.224 252.584 L 290.471 253.994 C 265.932 271.964 277.599 281.506 239.864 290.346 C 264.533 278.092 263.325 281.092 279.848 259.125 L 285.9 254.376 L 290.224 252.584 z"
     id="path163"
     style="fill:url(#linearGradient469);fill-opacity:1" />
  <path
     transform="translate(0,0)"
     fill="rgb(243,231,215)"
     d="M 290.224 252.584 C 295.157 248.85 299.03 244.101 305.869 248.496 C 307.123 253.541 304.591 257.774 299.636 259.346 C 292.782 257.882 294.746 254.805 290.471 253.994 L 290.224 252.584 z"
     id="path166"
     style="fill:url(#linearGradient470);fill-opacity:1" />
  <path
     transform="translate(0,0)"
     fill="rgb(243,231,215)"
     d="M 257.243 223.057 C 270.507 221.759 276.07 232.034 272.356 243.18 C 270.327 242.553 270.619 241.023 269.332 238.579 C 265.263 230.848 264.034 228.463 257.243 223.057 z"
     id="path168"
     style="fill:url(#linearGradient471);fill-opacity:1" />
  <path
     transform="translate(0,0)"
     fill="rgb(243,231,215)"
     d="M 921.912 510.032 C 925.374 508.387 926.389 507.662 930.048 508.429 C 932.803 510.546 931.989 509.482 933.079 513.053 C 932.55 516.43 932.444 517.013 930.268 519.591 C 926.969 520.889 928.339 520.828 924.802 519.617 C 922.078 517.115 922.008 516.266 921.278 512.56 L 921.912 510.032 z"
     id="path169"
     style="fill:url(#linearGradient473);fill-opacity:1" />
  <path
     transform="translate(0,0)"
     fill="rgb(83,130,130)"
     d="M 875.376 551.644 C 869.116 550.347 848.339 542.353 846.467 536.193 C 852.901 537.273 866.44 546.516 878.041 548.922 L 875.376 551.644 z"
     id="path170"
     style="fill-opacity:0.98684192;fill:#558687" />
  <path
     transform="translate(0,0)"
     fill="rgb(162,157,152)"
     d="M 912.701 489.113 C 913.923 496.524 915.65 505.174 921.912 510.032 L 921.278 512.56 C 919.284 511.07 917.053 507.823 915.478 505.747 L 914.126 503.365 L 913.759 501.869 C 912.506 498.707 912.05 495.591 911.431 492.261 L 912.701 489.113 z"
     id="path172"
     style="fill:url(#linearGradient474);fill-opacity:1" />
  <path
     transform="translate(0,0)"
     fill="rgb(87,136,135)"
     d="M 1556.77 544.316 C 1559.63 543.262 1562.82 544.591 1564.08 547.364 C 1565.34 550.137 1564.25 553.415 1561.58 554.881 C 1559.67 555.931 1557.33 555.822 1555.52 554.599 C 1553.71 553.375 1552.74 551.243 1553 549.076 C 1553.27 546.909 1554.72 545.071 1556.77 544.316 z"
     id="path173"
     style="fill-opacity:0.98684192;fill:#558687" />
  <path
     transform="translate(0,0)"
     fill="rgb(87,136,135)"
     d="M 554.114 549.515 C 559.025 548.925 587.679 548.928 591.37 550.015 L 591.662 551.987 C 585.581 552.057 557.96 552.836 553.741 551.288 L 554.114 549.515 z"
     id="path175"
     style="fill-opacity:0.98684192;fill:#558687" />
  <path
     transform="translate(0,0)"
     fill="rgb(87,136,135)"
     d="M 1591.6 549.563 C 1600.46 549.141 1606.57 548.517 1615.33 550.34 L 1615.91 551.251 C 1611.58 552.579 1607.85 552.248 1603.34 552.172 C 1598.48 552.143 1583.75 552.286 1580.19 550.616 C 1583.64 549.386 1587.88 549.609 1591.6 549.563 z"
     id="path176"
     style="fill-opacity:0.98684192;fill:#558687" />
  <path
     transform="translate(0,0)"
     fill="rgb(83,130,130)"
     d="M 1108.54 484.214 C 1113.82 481.488 1120.65 477.421 1124.7 483.513 C 1124.95 485.918 1125.36 487.638 1124.38 489.84 L 1122.83 490.422 C 1116.57 487.36 1118.12 485.275 1113.53 485.31 L 1109.67 488.23 L 1108.54 484.214 z"
     id="path177"
     style="fill-opacity:0.98684192;fill:#558687" />
  <path
     transform="translate(0,0)"
     fill="rgb(83,130,130)"
     d="M 1316.65 538.909 C 1317.29 539.465 1317.46 540.13 1317.83 540.957 C 1314.44 546.272 1297.26 551.403 1291.17 552.895 L 1290.39 551.291 C 1291.29 550.045 1312.33 541.355 1316.65 538.909 z"
     id="path178"
     style="fill-opacity:0.98684192;fill:#558687" />
  <path
     transform="translate(0,0)"
     fill="rgb(71,115,117)"
     d="M 1143.34 533.74 C 1148.35 531.347 1151.29 529.596 1156.84 529.291 L 1157.95 530.023 C 1154.21 534.396 1147.86 536.26 1142.96 540.527 L 1141.66 541.407 C 1140.18 540.051 1138.95 539.839 1137.04 539.219 L 1136.38 537.775 C 1139.22 537.575 1141.14 535.567 1143.34 533.74 z"
     id="path179"
     style="fill-opacity:0.98684192;fill:#558687" />
  <path
     transform="translate(0,0)"
     fill="rgb(71,115,117)"
     d="M 1117.52 566.389 C 1120.94 559.179 1125.23 551.466 1128.99 544.358 L 1136.06 546.331 L 1136.09 546.828 C 1130.6 551.214 1122.43 560.881 1117.52 566.389 z"
     id="path181"
     style="fill-opacity:0.98684192;fill:#558687" />
  <path
     transform="translate(0,0)"
     fill="rgb(83,130,130)"
     d="M 1408.52 568.564 C 1404.13 563.533 1402.9 559.598 1405.43 553.484 C 1407.31 554.216 1410.68 562.121 1415.5 565.763 L 1408.52 568.564 z"
     id="path182"
     style="fill-opacity:0.98684192;fill:#558687" />
  <path
     transform="translate(0,0)"
     fill="rgb(87,136,135)"
     d="M 1358.97 525.677 C 1363.9 525.802 1366.35 525.305 1368.73 529.928 C 1367.77 534.141 1368.06 532.891 1364.65 536.484 L 1361.94 536.173 C 1358.65 532.095 1357.83 530.334 1358.97 525.677 z"
     id="path183"
     style="fill-opacity:0.98684192;fill:#558687" />
  <path
     transform="translate(0,0)"
     fill="rgb(83,130,130)"
     d="M 1089.68 618.658 C 1099.94 627.107 1097.8 614.155 1106.27 622.986 C 1099.12 631.375 1092.75 628.477 1089.68 618.658 z"
     id="path184"
     style="fill-opacity:0.98684192;fill:#558687" />
  <path
     transform="translate(0,0)"
     fill="rgb(83,130,130)"
     d="M 804.709 525.455 C 807.83 525.625 811.498 525.622 812.976 528.677 C 810.904 532.267 812.078 531.229 808.12 532.714 L 807.765 534.563 L 809.142 535.527 L 806.907 535.867 C 803.245 534.24 804.074 535.162 802.047 532.19 C 802.336 527.97 802.101 529.361 804.709 525.455 z"
     id="path185"
     style="fill-opacity:0.98684192;fill:#558687" />
  <path
     transform="translate(0,0)"
     fill="rgb(83,130,130)"
     d="M 1468.49 504.169 C 1476.79 503.92 1491.38 508.339 1495.5 516.046 C 1491.52 515.802 1473.76 506.582 1468.49 504.169 z"
     id="path187"
     style="fill-opacity:0.98684192;fill:#558687" />
  <path
     transform="translate(0,0)"
     fill="rgb(83,130,130)"
     d="M 1067.97 618.456 C 1070.37 618.732 1071.95 620.59 1073.8 622.254 C 1077.08 622.562 1076.55 621.992 1079.79 619.964 C 1080.19 622.197 1080.23 621.272 1079.42 623.585 C 1075.25 627.231 1070.94 629.908 1066.51 624.971 C 1066.12 621.024 1066.06 622.406 1067.97 618.456 z"
     id="path188"
     style="fill-opacity:0.98684192;fill:#558687" />
  <path
     transform="translate(0,0)"
     fill="rgb(87,136,135)"
     d="M 1348.82 528.811 C 1347.02 530.55 1344.2 530.653 1342.27 529.05 C 1340.35 527.446 1339.95 524.652 1341.33 522.569 C 1342.72 520.485 1345.45 519.781 1347.68 520.936 C 1349.9 522.091 1350.89 524.734 1349.98 527.066 C 1349.72 527.725 1349.33 528.32 1348.82 528.811 z"
     id="path189"
     style="fill-opacity:0.98684192;fill:#558687" />
  <path
     transform="translate(0,0)"
     fill="rgb(83,130,130)"
     d="M 699.036 504.124 L 700.7 504.037 L 700.623 504.944 C 692.785 508.686 687.044 511.513 679.559 515.957 L 677.48 515.746 C 676.126 510.268 694.601 505.237 699.036 504.124 z"
     id="path190"
     style="fill-opacity:0.98684192;fill:#558687" />
  <path
     transform="translate(0,0)"
     fill="rgb(83,130,130)"
     d="M 1024.86 508.358 C 1022.22 507.687 1017.25 505.296 1016.2 502.659 L 1017.49 501.173 C 1023.15 499.496 1026.24 500.876 1031.46 503.066 C 1027.5 504.954 1027.78 505.601 1024.86 508.358 z"
     id="path191"
     style="fill-opacity:0.98684192;fill:#558687" />
  <path
     transform="translate(0,0)"
     fill="rgb(87,136,135)"
     d="M 1137.98 532.337 L 1140.65 530.07 C 1139.38 532.65 1138.1 535.5 1136.38 537.775 L 1137.04 539.219 C 1138.95 539.839 1140.18 540.051 1141.66 541.407 L 1136.06 546.331 L 1128.99 544.358 L 1134.23 536.765 L 1137.98 532.337 z"
     id="path192"
     style="fill:#558687;fill-opacity:0.98684192" />
  <path
     transform="translate(0,0)"
     fill="rgb(83,130,130)"
     d="M 821.564 520.652 C 823.722 519.341 826.528 519.952 827.945 522.041 C 829.363 524.13 828.894 526.964 826.879 528.484 C 825.482 529.538 823.618 529.737 822.03 529 C 820.443 528.264 819.39 526.713 819.293 524.966 C 819.195 523.219 820.069 521.56 821.564 520.652 z"
     id="path195"
     style="fill-opacity:0.98684192;fill:#558687" />
  <path
     transform="translate(0,0)"
     fill="rgb(87,136,135)"
     d="M 895.571 548.168 C 897.243 547.777 898.997 548.32 900.155 549.589 C 901.313 550.857 901.696 552.652 901.155 554.283 C 900.614 555.913 899.234 557.123 897.547 557.448 C 895.01 557.935 892.549 556.304 892.011 553.777 C 891.473 551.25 893.055 548.757 895.571 548.168 z"
     id="path196"
     style="fill-opacity:0.98684192;fill:#558687" />
  <path
     transform="translate(0,0)"
     fill="rgb(83,130,130)"
     d="M 733.532 496.334 L 734.591 495.981 C 737.988 497.024 742.238 497.754 744.365 500.298 L 743.535 501.659 L 741.788 500.853 C 738.459 501.388 730.073 501.505 727.406 499.458 L 727.76 498.5 L 733.532 496.334 z"
     id="path197"
     style="fill-opacity:0.98684192;fill:#558687" />
  <path
     transform="translate(0,0)"
     fill="rgb(83,130,130)"
     d="M 1272.55 549.316 C 1273.97 548.443 1275.75 548.442 1277.17 549.313 C 1278.59 550.185 1279.4 551.78 1279.27 553.44 C 1279.13 555.1 1278.07 556.542 1276.53 557.171 C 1274.4 558.039 1271.96 557.129 1270.92 555.078 C 1269.88 553.027 1270.59 550.521 1272.55 549.316 z"
     id="path198"
     style="fill-opacity:0.98684192;fill:#558687" />
  <path
     transform="translate(0,0)"
     fill="rgb(71,115,117)"
     d="M 1437.25 496.64 C 1439.92 497.455 1441.11 497.373 1443.91 497.404 L 1444.52 499.301 L 1445.43 498.955 C 1441.77 500.183 1439.9 500.475 1436.17 501.085 C 1432.4 501.247 1430.92 501.468 1427.37 500.053 L 1427.96 498.92 C 1431.75 497.494 1433.36 497.258 1437.25 496.64 z"
     id="path199"
     style="fill-opacity:0.98684192;fill:#558687" />
  <path
     transform="translate(0,0)"
     fill="rgb(87,136,135)"
     d="M 834.709 528.484 C 836.681 527.261 839.264 527.793 840.592 529.696 C 841.92 531.598 841.53 534.207 839.703 535.636 C 838.429 536.633 836.708 536.844 835.231 536.186 C 833.754 535.527 832.762 534.106 832.652 532.492 C 832.543 530.878 833.334 529.336 834.709 528.484 z"
     id="path200"
     style="fill-opacity:0.98684192;fill:#558687" />
  <path
     transform="translate(0,0)"
     fill="rgb(83,130,130)"
     d="M 1749.46 538.304 C 1753.34 539.355 1754.26 539.604 1757.54 541.892 C 1759.62 544.787 1759.6 545.439 1759.48 549.068 C 1757.64 549.742 1756.9 549.645 1754.98 549.618 C 1751.08 545.319 1755.33 544.433 1749.46 538.304 z"
     id="path201"
     style="fill-opacity:0.98684192;fill:#558687" />
  <path
     transform="translate(0,0)"
     fill="rgb(87,136,135)"
     d="M 412.388 520.434 C 413.66 520.485 415.099 520.899 416.356 521.2 C 417.315 522.303 419.266 529.11 420.009 531.35 C 416.541 530.221 414.475 529.832 412.062 527.011 C 411.151 523.079 411.237 524.541 412.388 520.434 z"
     id="path204"
     style="fill-opacity:0.98684192;fill:#558687" />
  <path
     transform="translate(0,0)"
     fill="rgb(87,136,135)"
     d="M 1754.75 519.464 C 1757.96 520.661 1758.9 521.8 1759.31 525.014 C 1757.83 528.533 1756.14 529.414 1753.07 531.583 L 1751.04 531.07 C 1751.59 528.053 1753.38 522.227 1754.75 519.464 z"
     id="path205"
     style="fill-opacity:0.98684192;fill:#558687" />
  <path
     transform="translate(0,0)"
     fill="rgb(87,136,135)"
     d="M 1735.51 531.379 C 1737.56 530.54 1739.9 531.527 1740.74 533.581 C 1741.57 535.635 1740.58 537.976 1738.52 538.804 C 1736.47 539.629 1734.14 538.64 1733.31 536.593 C 1732.48 534.547 1733.46 532.214 1735.51 531.379 z"
     id="path207"
     style="fill-opacity:0.98684192;fill:#558687" />
  <path
     transform="translate(0,0)"
     fill="rgb(83,130,130)"
     d="M 432.909 531.326 C 434.952 530.706 437.12 531.81 437.82 533.827 C 438.52 535.844 437.501 538.054 435.513 538.832 C 434.156 539.363 432.617 539.109 431.502 538.17 C 430.388 537.231 429.877 535.757 430.17 534.33 C 430.463 532.902 431.515 531.75 432.909 531.326 z"
     id="path209"
     style="fill-opacity:0.98684192;fill:#558687" />
  <path
     transform="translate(0,0)"
     fill="rgb(83,130,130)"
     d="M 1623.35 547.475 C 1625 546.44 1627.17 546.879 1628.3 548.475 C 1629.42 550.071 1629.09 552.266 1627.56 553.471 C 1626.49 554.31 1625.05 554.491 1623.81 553.941 C 1622.57 553.391 1621.73 552.201 1621.63 550.847 C 1621.54 549.492 1622.2 548.195 1623.35 547.475 z"
     id="path213"
     style="fill-opacity:0.98684192;fill:#558687" />
</svg>
