<?xml version="1.0" encoding="UTF-8"?>
<!-- Generator: visioncortex VTracer 0.6.12 -->
<svg version="1.1" xmlns="http://www.w3.org/2000/svg" width="2048" height="2048">
<path d="M0 0 C0.432 0.176 0.432 0.176 2.615 1.069 C17.454 7.4 30.368 16.304 41.688 27.75 C42.111 28.172 42.111 28.172 44.254 30.305 C44.655 30.708 44.655 30.708 46.688 32.75 C47.359 33.424 48.031 34.098 48.723 34.793 C85.831 74.046 100.934 134.896 99.688 187.75 C100.529 187.776 101.371 187.802 102.238 187.828 C148.619 189.947 198.108 201.49 240.688 219.938 C241.436 220.259 242.185 220.58 242.957 220.91 C243.652 221.222 244.346 221.534 245.062 221.855 C245.668 222.125 246.274 222.395 246.898 222.673 C248.688 223.75 248.688 223.75 250.519 225.8 C253.35 228.346 255.253 228.456 259.016 228.84 C260.278 228.981 261.541 229.123 262.842 229.269 C263.509 229.337 264.177 229.404 264.865 229.474 C268.39 229.837 271.908 230.266 275.426 230.695 C276.133 230.781 276.84 230.866 277.568 230.954 C325.227 236.857 372.354 255.918 410.688 284.75 C410.953 284.947 410.953 284.947 412.297 285.943 C421.487 292.76 430.148 300.14 438.688 307.75 C439.223 308.226 439.759 308.703 440.311 309.193 C447.622 315.73 454.614 322.58 461.562 329.5 C462.359 330.292 463.156 331.085 463.978 331.901 C468.184 336.119 472.229 340.417 476.115 344.932 C478.368 347.536 480.715 350.043 483.062 352.562 C488.178 358.107 492.961 363.87 497.688 369.75 C498.695 370.979 499.705 372.207 500.715 373.434 C507.783 382.034 514.614 390.775 521.209 399.743 C522.626 401.666 524.054 403.579 525.484 405.492 C551.263 440.286 573.778 477.33 593.688 515.75 C594.203 516.738 594.719 517.725 595.25 518.743 C609.713 546.541 621.713 575.427 632.688 604.75 C633.41 606.65 634.133 608.55 634.855 610.449 C664.626 689.535 679.8 775.71 683.688 929.75 C683.668 930.773 683.649 931.795 683.629 932.849 C681.791 1022.114 663.663 1113.49 630.938 1196.571 C629.81 1199.439 628.7 1202.314 627.596 1205.191 C621.224 1221.755 614.077 1237.771 606.191 1253.681 C604.781 1256.56 603.413 1259.454 602.066 1262.363 C596.684 1273.988 590.681 1285.089 584.202 1296.138 C582.712 1298.708 581.26 1301.296 579.82 1303.895 C572.699 1316.701 564.8 1328.858 556.562 1340.973 C554.872 1343.477 553.209 1345.997 551.562 1348.531 C541.242 1364.388 529.84 1379.448 517.363 1393.672 C514.804 1396.591 512.366 1399.597 509.938 1402.625 C506.766 1406.535 503.456 1410.14 499.805 1413.605 C497.926 1415.509 496.188 1417.46 494.441 1419.484 C490.716 1423.774 486.778 1427.808 482.75 1431.812 C482.085 1432.481 481.421 1433.149 480.736 1433.838 C476.777 1437.79 472.707 1441.553 468.471 1445.207 C466.292 1447.092 464.179 1449.045 462.062 1451 C456.409 1456.099 450.45 1460.758 444.424 1465.403 C442.819 1466.648 441.229 1467.913 439.641 1469.18 C410.615 1492.115 360.453 1528.75 321.688 1528.75 C324.054 1539.603 326.428 1550.455 328.806 1561.306 C329.226 1563.22 329.645 1565.135 330.064 1567.05 C336.75 1597.569 343.539 1628.064 350.381 1658.549 C351.2 1662.198 352.018 1665.846 352.837 1669.495 C353.865 1674.078 354.893 1678.661 355.921 1683.244 C356.023 1683.699 356.023 1683.699 356.54 1686.002 C359.015 1697.037 361.495 1708.071 363.981 1719.104 C365.569 1726.153 367.153 1733.202 368.734 1740.253 C369.661 1744.385 370.59 1748.517 371.524 1752.648 C372.391 1756.481 373.252 1760.315 374.109 1764.151 C374.421 1765.543 374.736 1766.935 375.052 1768.326 C379.819 1789.299 379.819 1789.299 376.688 1799.938 C376.463 1800.724 376.238 1801.511 376.006 1802.321 C374.452 1807.319 372.797 1811.006 368.531 1814.266 C366.688 1815.75 366.688 1815.75 364.461 1818.742 C361.492 1822.386 358.246 1823.415 353.812 1824.625 C353.472 1824.731 353.472 1824.731 351.746 1825.266 C345.891 1826.983 340.711 1827.33 334.765 1825.75 C328.819 1824.402 322.967 1824.473 316.894 1824.495 C315.641 1824.491 314.388 1824.487 313.096 1824.484 C310.386 1824.477 307.675 1824.473 304.964 1824.476 C300.662 1824.478 296.36 1824.464 292.057 1824.447 C279.828 1824.4 267.599 1824.376 255.369 1824.369 C248.603 1824.365 241.837 1824.347 235.07 1824.314 C231.502 1824.297 227.933 1824.288 224.365 1824.297 C188.361 1824.381 188.361 1824.381 178.641 1817.191 C171.164 1809.228 167.632 1802.309 166.25 1791.25 C166.394 1790.095 166.539 1788.94 166.688 1787.75 C166.774 1786.809 166.86 1785.868 166.949 1784.898 C168.479 1774.642 173.5 1767.814 181.688 1761.75 C197.028 1754.196 215.689 1756.134 232.321 1756.348 C235.452 1756.384 238.584 1756.397 241.716 1756.409 C260.057 1756.48 278.365 1756.884 296.688 1757.75 C296.456 1756.85 296.225 1755.949 295.987 1755.022 C293.013 1743.33 290.348 1731.577 287.715 1719.805 C287.234 1717.661 286.753 1715.518 286.272 1713.375 C284.986 1707.644 283.703 1701.913 282.421 1696.181 C281.623 1692.616 280.825 1689.05 280.026 1685.485 C276.239 1668.575 272.461 1651.663 268.688 1634.75 C268.435 1633.62 268.183 1632.49 267.923 1631.326 C264.92 1617.868 261.923 1604.408 258.938 1590.946 C258.106 1587.197 257.273 1583.449 256.438 1579.701 C255.466 1575.336 254.498 1570.969 253.533 1566.601 C253.182 1565.015 252.83 1563.429 252.476 1561.843 C251.997 1559.696 251.523 1557.549 251.051 1555.401 C250.786 1554.204 250.52 1553.008 250.247 1551.776 C249.688 1548.75 249.688 1548.75 249.688 1544.75 C249.19 1544.78 249.19 1544.78 246.672 1544.934 C174.282 1549.295 99.535 1546.924 35.674 1508.241 C34.944 1507.799 34.213 1507.357 33.461 1506.902 C33.143 1506.706 33.143 1506.706 31.537 1505.715 C29.602 1504.705 27.818 1504.191 25.688 1503.75 C25.128 1504.71 24.569 1505.671 23.992 1506.66 C18.805 1515.538 13.552 1524.377 8.25 1533.188 C7.647 1534.2 7.044 1535.213 6.423 1536.256 C6.138 1536.729 6.138 1536.729 4.691 1539.121 C4.184 1539.966 3.677 1540.811 3.155 1541.681 C1.688 1543.75 1.688 1543.75 -1.312 1545.75 C-0.727 1546.386 -0.141 1547.022 0.463 1547.677 C3.267 1551.55 4.685 1555.438 6.277 1559.918 C6.614 1560.84 6.95 1561.762 7.297 1562.711 C8.415 1565.783 9.52 1568.86 10.625 1571.938 C11.419 1574.127 12.214 1576.316 13.01 1578.505 C15.142 1584.375 17.262 1590.25 19.38 1596.125 C21.539 1602.109 23.707 1608.09 25.875 1614.07 C28.518 1621.363 31.159 1628.655 33.797 1635.95 C39.569 1651.913 45.362 1667.869 51.188 1683.812 C51.567 1684.852 51.947 1685.891 52.338 1686.962 C57.018 1699.766 61.72 1712.561 66.438 1725.352 C66.678 1726.005 66.919 1726.658 67.168 1727.331 C69.75 1734.335 72.335 1741.337 74.924 1748.338 C75.772 1750.636 76.62 1752.933 77.469 1755.23 C77.852 1756.266 78.236 1757.301 78.631 1758.367 C84.551 1774.414 90.248 1789.877 83.682 1806.761 C79.933 1814.26 72.674 1821.318 64.902 1824.512 C58.05 1826.6 51.373 1827.861 44.383 1825.754 C38.024 1824.122 31.491 1824.474 24.972 1824.495 C23.488 1824.492 22.004 1824.488 20.52 1824.484 C17.335 1824.476 14.15 1824.473 10.965 1824.476 C5.915 1824.478 0.866 1824.464 -4.184 1824.447 C-18.54 1824.4 -32.896 1824.376 -47.252 1824.369 C-55.189 1824.365 -63.127 1824.347 -71.064 1824.314 C-76.07 1824.294 -81.075 1824.291 -86.08 1824.302 C-89.214 1824.305 -92.349 1824.291 -95.483 1824.272 C-96.92 1824.267 -98.357 1824.268 -99.794 1824.277 C-112.128 1824.348 -124.896 1823.721 -134.062 1814.688 C-135.501 1813.061 -136.921 1811.417 -138.312 1809.75 C-138.849 1809.291 -139.385 1808.832 -139.938 1808.359 C-143.703 1803.952 -145.113 1796.116 -145.449 1790.438 C-145.25 1788.563 -145.25 1788.563 -144.312 1784.75 C-144.204 1783.924 -144.096 1783.097 -143.984 1782.246 C-142.585 1774.315 -137.952 1767.974 -131.597 1763.097 C-117.988 1755.072 -102.463 1756.092 -87.25 1756.262 C-84.762 1756.271 -82.274 1756.278 -79.785 1756.283 C-73.288 1756.302 -66.792 1756.351 -60.295 1756.407 C-53.645 1756.458 -46.994 1756.481 -40.344 1756.506 C-27.333 1756.559 -14.323 1756.643 -1.312 1756.75 C-1.433 1756.42 -1.433 1756.42 -2.044 1754.749 C-5.198 1746.125 -8.349 1737.5 -11.5 1728.875 C-11.758 1728.169 -12.016 1727.463 -12.281 1726.736 C-20.367 1704.601 -28.413 1682.452 -36.421 1660.289 C-41.053 1647.47 -45.702 1634.657 -50.414 1621.867 C-50.825 1620.751 -51.236 1619.635 -51.66 1618.485 C-53.587 1613.256 -55.517 1608.027 -57.454 1602.801 C-63.338 1586.894 -68.969 1571.005 -73.188 1554.562 C-73.494 1553.415 -73.801 1552.267 -74.117 1551.084 C-74.406 1549.97 -74.695 1548.855 -74.992 1547.707 C-75.247 1546.727 -75.502 1545.747 -75.765 1544.738 C-76.941 1538.317 -76.36 1533.962 -73.523 1528.094 C-73.229 1527.478 -72.934 1526.862 -72.63 1526.228 C-71.665 1524.227 -70.678 1522.238 -69.688 1520.25 C-69.35 1519.563 -69.013 1518.876 -68.666 1518.168 C-62.795 1506.219 -56.244 1494.82 -49.099 1483.584 C-45.851 1478.432 -42.716 1473.21 -39.562 1468 C-38.402 1466.088 -37.241 1464.176 -36.078 1462.266 C-35.835 1461.865 -35.835 1461.865 -34.603 1459.837 C-33.541 1458.119 -32.433 1456.43 -31.312 1454.75 C-31.539 1450.745 -34.061 1448.462 -36.625 1445.562 C-48.916 1431.194 -58.562 1415.092 -68.227 1398.905 C-70.462 1395.162 -72.72 1391.433 -74.996 1387.715 C-75.55 1386.805 -76.105 1385.895 -76.676 1384.958 C-77.691 1383.292 -78.711 1381.627 -79.734 1379.966 C-82.148 1375.978 -84.054 1372.282 -85.312 1367.75 C-92.209 1373.473 -98.615 1379.595 -104.461 1386.395 C-108.901 1391.501 -113.656 1396.278 -118.438 1401.062 C-119.318 1401.955 -120.198 1402.848 -121.105 1403.768 C-121.96 1404.624 -122.815 1405.481 -123.695 1406.363 C-124.079 1406.749 -124.079 1406.749 -126.02 1408.7 C-128.326 1410.762 -130.62 1412.24 -133.312 1413.75 C-134.096 1414.266 -134.88 1414.781 -135.688 1415.312 C-143.103 1419.373 -149.419 1418.944 -157.414 1417.324 C-163.812 1415.451 -168.35 1410.969 -172.312 1405.75 C-175.074 1400.086 -176.1 1393.994 -175.312 1387.75 C-175.227 1387.004 -175.142 1386.257 -175.055 1385.488 C-173.246 1376.573 -166.543 1370.9 -160.312 1364.75 C-159.547 1363.983 -158.781 1363.216 -157.992 1362.426 C-156.744 1361.18 -155.491 1359.938 -154.232 1358.702 C-152.432 1356.871 -150.767 1354.985 -149.108 1353.027 C-145.28 1348.625 -141.137 1344.635 -136.902 1340.629 C-135.319 1339.102 -133.738 1337.574 -132.158 1336.045 C-129.696 1333.663 -127.227 1331.29 -124.731 1328.943 C-122.304 1326.655 -119.914 1324.334 -117.527 1322.004 C-116.773 1321.31 -116.019 1320.616 -115.243 1319.901 C-110.347 1315.034 -110.347 1315.034 -110.25 1311.443 C-110.746 1309.096 -111.439 1306.982 -112.312 1304.75 C-112.618 1303.722 -112.924 1302.693 -113.239 1301.634 C-113.554 1300.699 -113.87 1299.764 -114.195 1298.801 C-114.554 1297.719 -114.913 1296.638 -115.282 1295.524 C-115.473 1294.953 -115.473 1294.953 -116.438 1292.062 C-119.015 1284.24 -121.465 1276.427 -123.543 1268.457 C-123.72 1267.778 -123.897 1267.099 -124.08 1266.4 C-124.931 1263.113 -125.761 1259.822 -126.573 1256.525 C-129.349 1245.577 -129.349 1245.577 -133.312 1240.75 C-133.521 1240.488 -133.521 1240.488 -134.576 1239.16 C-135.991 1237.383 -137.432 1235.629 -138.875 1233.875 C-152.857 1216.662 -152.857 1216.662 -157.312 1207.75 C-159.299 1207.18 -161.303 1206.669 -163.312 1206.188 C-170.535 1203.999 -175.165 1201.136 -179.312 1194.75 C-183.689 1184.922 -183.872 1176.813 -180.312 1166.75 C-179.939 1165.885 -179.565 1165.02 -179.18 1164.129 C-177.509 1159.546 -179.043 1154.437 -179.797 1149.723 C-184.718 1117.771 -183.063 1082.489 -168.047 1053.215 C-167.857 1052.84 -167.857 1052.84 -166.894 1050.945 C-166.157 1049.532 -165.391 1048.133 -164.589 1046.756 C-163.051 1043.855 -162.121 1041.791 -162.729 1038.486 C-162.991 1037.688 -163.253 1036.889 -163.524 1036.066 C-163.811 1035.185 -164.097 1034.305 -164.393 1033.397 C-165.764 1029.451 -167.191 1025.534 -168.684 1021.633 C-169.342 1019.892 -169.999 1018.151 -170.657 1016.41 C-170.998 1015.507 -171.34 1014.605 -171.692 1013.676 C-193.394 956.23 -193.394 956.23 -199.312 926.75 C-199.475 925.94 -199.638 925.13 -199.806 924.296 C-200.813 919.134 -201.626 913.963 -202.312 908.75 C-202.364 908.37 -202.364 908.37 -202.625 906.446 C-209.03 857.132 -200.514 808.289 -184.312 761.75 C-199.594 784.672 -209.539 811.796 -218.312 837.75 C-218.499 838.301 -218.499 838.301 -219.441 841.088 C-225.195 858.547 -228.45 876.301 -231.348 894.414 C-237.733 933.62 -237.733 933.62 -251.336 944.406 C-261.092 951.039 -271.541 953.991 -283.312 952.75 C-295.799 950.155 -303.306 945.254 -310.492 934.785 C-327.786 905.95 -320.501 866.4 -316.312 834.75 C-316.258 834.337 -316.258 834.337 -315.982 832.246 C-305.428 752.744 -279.456 676.935 -246.567 604.015 C-240.737 591.079 -235.102 578.115 -230.312 564.75 C-230.045 564.007 -229.778 563.264 -229.502 562.499 C-224.222 547.553 -222.88 532.701 -222.875 516.938 C-222.872 516.15 -222.87 515.362 -222.867 514.551 C-222.856 494.298 -225.209 474.266 -227.449 454.164 C-234.471 389.527 -215.725 338.354 -176.133 287.977 C-162.385 270.902 -146.847 253.98 -129.312 240.75 C-128.045 239.778 -126.779 238.805 -125.512 237.832 C-103.123 220.75 -103.123 220.75 -99.312 220.75 C-101.626 215.17 -105.018 211.808 -109.312 207.75 C-111.712 205.378 -114.084 202.994 -116.391 200.531 C-141.239 174.432 -177.128 154.909 -213.57 153.535 C-219.928 153.478 -226.025 153.897 -232.312 154.75 C-241.238 155.671 -247.581 153.576 -254.578 147.918 C-260.943 141.942 -264.457 136.587 -264.812 127.75 C-264.453 118.798 -260.86 113.589 -254.473 107.512 C-241.382 96.835 -221.236 97.977 -205.375 99.438 C-167.972 103.368 -133.91 121.483 -106.543 146.707 C-104.487 148.59 -102.382 150.391 -100.25 152.188 C-86.683 164.076 -75.646 179.412 -66.312 194.75 C-65.736 195.665 -65.16 196.58 -64.566 197.523 C-63.312 199.75 -63.312 199.75 -63.312 201.75 C-62.786 201.564 -62.26 201.378 -61.718 201.187 C-23.561 187.817 14.433 184.178 54.688 184.75 C54.358 184.09 54.027 183.43 53.688 182.75 C53.457 181.259 53.272 179.761 53.109 178.262 C48.835 141.021 36.989 104.57 10.66 76.863 C8.688 74.75 8.688 74.75 6.738 72.246 C-1.057 62.759 -12.668 56.463 -22.992 50.098 C-32.015 44.371 -36.611 38.206 -39.312 27.75 C-40.687 20.216 -37.789 12.782 -33.875 6.41 C-25.191 -4.8 -12.13 -5.006 0 0 Z " fill="#015472" transform="translate(842.3125,112.25)"/>
<path d="M0 0 C2 1 2 1 2.895 3.562 C3.197 4.697 3.5 5.831 3.812 7 C7.484 20.544 11.55 33.939 15.973 47.256 C16.762 49.63 17.547 52.006 18.331 54.381 C20.272 60.26 22.219 66.137 24.166 72.014 C25.827 77.029 27.487 82.045 29.142 87.063 C29.916 89.403 30.692 91.741 31.469 94.079 C31.938 95.5 32.407 96.921 32.876 98.342 C33.082 98.962 33.082 98.962 34.123 102.103 C35 105 35 105 35 107 C34.417 106.893 33.835 106.786 33.234 106.676 C24.845 105.449 17.228 106.051 10.121 111.008 C3.72 116.803 0.787 122.398 0 131 C-0.01 133.9 0.383 136.105 1 139 C1.068 139.705 1.137 140.41 1.207 141.137 C2.193 148.667 6.856 152.761 12 158 C13.051 159.221 14.094 160.45 15.125 161.688 C23.329 171.102 32.433 179.981 42 188 C43.092 188.943 44.183 189.887 45.273 190.832 C46.495 191.888 47.716 192.944 48.938 194 C49.499 194.487 50.06 194.974 50.639 195.475 C51.2 195.958 51.762 196.44 52.34 196.938 C52.887 197.414 53.433 197.891 53.997 198.382 C56 200 56 200 58.181 201.361 C65.714 206.284 67.203 211.829 69.133 220.34 C69.457 221.657 69.784 222.973 70.114 224.288 C70.98 227.778 71.803 231.276 72.618 234.777 C73.466 238.39 74.352 241.994 75.233 245.598 C77.209 253.72 79.117 261.856 81 270 C81.234 271.013 81.469 272.025 81.71 273.068 C83.669 281.563 85.534 290.074 87.29 298.614 C88.121 302.576 88.999 306.526 89.883 310.477 C96.406 339.698 102.332 369.007 107.5 398.5 C107.713 399.712 107.927 400.923 108.146 402.171 C110.226 414.023 112.225 425.849 113.615 437.803 C114.109 441.902 114.792 445.946 115.562 450 C116.968 457.512 118.15 464.832 118.062 472.5 C118.053 473.542 118.044 474.583 118.035 475.656 C118.029 476.043 118.029 476.043 118 478 C115.326 476.01 112.661 474.007 110 472 C109.01 471.257 108.02 470.515 107 469.75 C106.34 469.173 105.68 468.595 105 468 C105 467.34 105 466.68 105 466 C104.381 465.876 103.763 465.753 103.125 465.625 C101 465 101 465 99 463 C91.564 460.329 84.737 459.345 77 461 C76.313 461.142 75.626 461.284 74.918 461.43 C68.517 463.273 63.893 467.73 60 473 C56.186 481.617 56.148 490.208 58.773 499.164 C62.67 508.174 71.412 514.208 79 520 C80.522 521.248 82.043 522.498 83.562 523.75 C93.563 531.757 104.261 539.024 115 546 C113.361 551.664 111.569 557.245 109.625 562.812 C106.362 572.348 104.149 582.163 102 592 C101.804 592.892 101.609 593.784 101.407 594.703 C101.223 595.578 101.038 596.454 100.848 597.355 C100.765 597.747 100.765 597.747 100.344 599.731 C99.225 607.109 101.41 614.567 105 621 C105.89 622.007 106.796 623 107.711 623.984 C112.196 629.057 114.926 635.11 117.938 641.125 C119.112 643.441 120.288 645.756 121.465 648.07 C122.04 649.221 122.616 650.372 123.208 651.558 C124.401 653.849 125.66 656.107 126.983 658.325 C131.553 666.058 132.94 671.576 132.5 680.5 C132.45 682.446 132.401 684.392 132.354 686.337 C132.295 688.556 132.219 690.774 132.143 692.992 C131.965 698.609 131.931 704.225 131.891 709.844 C131.582 745.005 129.604 780.019 126 815 C125.01 815.33 124.02 815.66 123 816 C121.976 817.829 121.976 817.829 121 820 C120.155 821.262 119.28 822.505 118.383 823.73 C118.124 824.086 118.124 824.086 116.812 825.887 C116.534 826.266 116.534 826.266 115.125 828.188 C113.939 829.816 112.754 831.445 111.57 833.074 C110.971 833.898 110.372 834.723 109.755 835.572 C107.138 839.192 104.567 842.844 102 846.5 C97.339 853.13 92.611 859.707 87.855 866.27 C84.2 871.321 80.587 876.4 77 881.5 C70.746 890.391 64.378 899.198 58 908 C54.614 912.675 51.23 917.352 47.859 922.039 C46.263 924.258 44.655 926.461 43.016 928.648 C38.933 934.189 35.482 940.098 32.062 946.062 C31.565 946.902 31.067 947.742 30.554 948.607 C27.321 954.384 26.255 958.447 27 965 C27.119 966.124 27.237 967.247 27.36 968.405 C27.846 972.551 28.408 976.68 29 980.812 C29.105 981.564 29.21 982.315 29.319 983.089 C31.282 996.968 34.14 1010.577 37.496 1024.183 C39.24 1031.395 40.549 1037.589 39 1045 C39.99 1045 40.98 1045 42 1045 C42.043 1047 42.041 1049 42 1051 C40.069 1052.931 36.514 1052.391 33.871 1052.535 C33.139 1052.578 32.407 1052.621 31.653 1052.666 C29.248 1052.805 26.843 1052.935 24.438 1053.062 C23.614 1053.107 22.791 1053.151 21.943 1053.196 C-44.648 1056.72 -113.783 1050.763 -172.013 1015.491 C-172.744 1015.049 -173.474 1014.607 -174.227 1014.152 C-174.862 1013.76 -175.497 1013.368 -176.151 1012.965 C-178.086 1011.955 -179.87 1011.441 -182 1011 C-182.559 1011.96 -183.119 1012.921 -183.695 1013.91 C-188.883 1022.788 -194.136 1031.627 -199.438 1040.438 C-200.04 1041.45 -200.643 1042.463 -201.264 1043.506 C-201.55 1043.979 -201.55 1043.979 -202.996 1046.371 C-203.503 1047.216 -204.01 1048.061 -204.533 1048.931 C-206 1051 -206 1051 -209 1053 C-208.414 1053.636 -207.828 1054.272 -207.224 1054.927 C-204.421 1058.8 -203.003 1062.688 -201.41 1067.168 C-201.074 1068.09 -200.737 1069.012 -200.391 1069.961 C-199.272 1073.033 -198.167 1076.11 -197.062 1079.188 C-196.268 1081.377 -195.473 1083.566 -194.677 1085.755 C-192.546 1091.625 -190.425 1097.5 -188.308 1103.375 C-186.149 1109.359 -183.98 1115.34 -181.812 1121.32 C-179.17 1128.613 -176.528 1135.905 -173.891 1143.2 C-168.119 1159.163 -162.326 1175.119 -156.5 1191.062 C-156.12 1192.102 -155.741 1193.141 -155.349 1194.212 C-150.67 1207.016 -145.968 1219.811 -141.25 1232.602 C-141.009 1233.255 -140.768 1233.908 -140.52 1234.581 C-137.937 1241.585 -135.352 1248.587 -132.764 1255.588 C-131.915 1257.886 -131.067 1260.183 -130.219 1262.48 C-129.835 1263.516 -129.452 1264.551 -129.057 1265.617 C-123.136 1281.664 -117.44 1297.127 -124.006 1314.011 C-127.754 1321.51 -135.014 1328.568 -142.785 1331.762 C-149.638 1333.85 -156.315 1335.111 -163.305 1333.004 C-169.664 1331.372 -176.196 1331.724 -182.715 1331.745 C-184.199 1331.742 -185.684 1331.738 -187.168 1331.734 C-190.353 1331.726 -193.537 1331.723 -196.722 1331.726 C-201.772 1331.728 -206.822 1331.714 -211.871 1331.697 C-226.227 1331.65 -240.583 1331.626 -254.939 1331.619 C-262.877 1331.615 -270.814 1331.597 -278.752 1331.564 C-283.757 1331.544 -288.762 1331.541 -293.768 1331.552 C-296.902 1331.555 -300.036 1331.541 -303.17 1331.522 C-304.607 1331.517 -306.044 1331.518 -307.481 1331.527 C-319.816 1331.598 -332.583 1330.971 -341.75 1321.938 C-343.188 1320.311 -344.608 1318.667 -346 1317 C-346.536 1316.541 -347.072 1316.082 -347.625 1315.609 C-351.391 1311.202 -352.801 1303.366 -353.137 1297.688 C-352.938 1295.812 -352.938 1295.812 -352 1292 C-351.892 1291.174 -351.783 1290.347 -351.672 1289.496 C-350.273 1281.565 -345.639 1275.224 -339.285 1270.347 C-325.676 1262.322 -310.15 1263.342 -294.938 1263.512 C-292.449 1263.521 -289.961 1263.528 -287.473 1263.533 C-280.976 1263.552 -274.479 1263.601 -267.982 1263.657 C-261.332 1263.708 -254.682 1263.731 -248.031 1263.756 C-235.021 1263.809 -222.01 1263.893 -209 1264 C-209.242 1263.34 -209.483 1262.679 -209.732 1261.999 C-212.885 1253.375 -216.037 1244.75 -219.188 1236.125 C-219.445 1235.419 -219.703 1234.713 -219.969 1233.986 C-228.055 1211.851 -236.101 1189.702 -244.108 1167.539 C-248.74 1154.72 -253.39 1141.907 -258.102 1129.117 C-258.513 1128.001 -258.924 1126.885 -259.347 1125.735 C-261.274 1120.506 -263.205 1115.277 -265.142 1110.051 C-271.025 1094.144 -276.657 1078.255 -280.875 1061.812 C-281.182 1060.665 -281.489 1059.517 -281.805 1058.334 C-282.093 1057.22 -282.382 1056.105 -282.68 1054.957 C-282.935 1053.977 -283.19 1052.997 -283.453 1051.988 C-284.629 1045.567 -284.047 1041.212 -281.211 1035.344 C-280.916 1034.728 -280.622 1034.112 -280.318 1033.478 C-279.353 1031.477 -278.366 1029.488 -277.375 1027.5 C-277.038 1026.813 -276.701 1026.126 -276.353 1025.418 C-270.482 1013.469 -263.932 1002.07 -256.787 990.834 C-253.539 985.682 -250.403 980.46 -247.25 975.25 C-246.09 973.338 -244.928 971.426 -243.766 969.516 C-243.279 968.714 -242.792 967.913 -242.29 967.087 C-241.228 965.369 -240.12 963.68 -239 962 C-239.227 957.995 -241.748 955.712 -244.312 952.812 C-256.604 938.444 -266.249 922.342 -275.914 906.155 C-278.15 902.412 -280.408 898.683 -282.684 894.965 C-283.238 894.055 -283.792 893.145 -284.363 892.208 C-285.379 890.542 -286.398 888.877 -287.422 887.216 C-289.836 883.228 -291.741 879.532 -293 875 C-299.897 880.723 -306.302 886.845 -312.148 893.645 C-316.589 898.751 -321.344 903.528 -326.125 908.312 C-326.565 908.759 -326.565 908.759 -328.793 911.018 C-329.648 911.874 -330.502 912.731 -331.383 913.613 C-332.15 914.385 -332.917 915.156 -333.708 915.95 C-336.014 918.012 -338.308 919.49 -341 921 C-341.784 921.516 -342.567 922.031 -343.375 922.562 C-350.79 926.623 -357.107 926.194 -365.102 924.574 C-371.5 922.701 -376.037 918.219 -380 913 C-382.762 907.336 -383.788 901.244 -383 895 C-382.915 894.254 -382.83 893.507 -382.742 892.738 C-380.933 883.823 -374.231 878.15 -368 872 C-367.234 871.233 -366.469 870.466 -365.68 869.676 C-364.431 868.43 -363.178 867.188 -361.92 865.952 C-360.119 864.121 -358.455 862.235 -356.795 860.277 C-352.968 855.875 -348.824 851.885 -344.59 847.879 C-343.007 846.352 -341.426 844.824 -339.846 843.295 C-337.383 840.913 -334.914 838.54 -332.418 836.193 C-329.991 833.905 -327.601 831.584 -325.215 829.254 C-324.461 828.56 -323.707 827.866 -322.93 827.151 C-318.035 822.284 -318.035 822.284 -317.938 818.693 C-318.433 816.346 -319.126 814.232 -320 812 C-320.306 810.972 -320.611 809.943 -320.926 808.884 C-321.242 807.949 -321.558 807.014 -321.883 806.051 C-322.242 804.969 -322.6 803.888 -322.97 802.774 C-323.351 801.632 -323.732 800.489 -324.125 799.312 C-326.703 791.49 -329.152 783.677 -331.23 775.707 C-331.408 775.028 -331.585 774.349 -331.767 773.65 C-332.619 770.363 -333.449 767.072 -334.26 763.775 C-337.036 752.827 -337.036 752.827 -341 748 C-341.208 747.738 -341.208 747.738 -342.263 746.41 C-343.679 744.633 -345.119 742.879 -346.562 741.125 C-360.544 723.912 -360.544 723.912 -365 715 C-366.986 714.43 -368.99 713.919 -371 713.438 C-378.223 711.249 -382.852 708.386 -387 702 C-391.376 692.172 -391.56 684.063 -388 674 C-387.813 673.568 -387.813 673.568 -386.867 671.379 C-385.197 666.796 -386.73 661.687 -387.484 656.973 C-392.406 625.021 -390.75 589.739 -375.734 560.465 C-375.354 559.716 -374.973 558.967 -374.581 558.195 C-373.845 556.782 -373.078 555.383 -372.276 554.006 C-370.739 551.105 -369.809 549.041 -370.416 545.736 C-370.679 544.938 -370.941 544.139 -371.211 543.316 C-371.498 542.435 -371.785 541.555 -372.08 540.647 C-373.451 536.701 -374.878 532.784 -376.371 528.883 C-377.029 527.142 -377.687 525.401 -378.344 523.66 C-378.686 522.757 -379.027 521.855 -379.379 520.926 C-401.081 463.48 -401.081 463.48 -407 434 C-407.163 433.19 -407.326 432.38 -407.494 431.546 C-408.501 426.384 -409.314 421.213 -410 416 C-410.051 415.62 -410.051 415.62 -410.312 413.696 C-419.188 345.366 -403.286 271.636 -361.237 216.696 C-354.813 208.51 -348.054 200.648 -341 193 C-340.162 192.059 -339.324 191.118 -338.461 190.148 C-331.729 182.61 -324.566 175.696 -317 169 C-316.749 168.777 -316.749 168.777 -315.479 167.646 C-283.135 139.042 -247.719 120.119 -206.358 108.66 C-203.229 107.784 -200.116 106.858 -197 105.938 C-191.616 104.397 -186.202 103.083 -180.75 101.812 C-113.266 85.976 -47.033 62.871 -4.332 4.734 C-3.003 3.004 -1.576 1.506 0 0 Z " fill="#77C4BC" transform="translate(1050,605)"/>
<path d="M0 0 C0.432 0.176 0.432 0.176 2.615 1.069 C17.454 7.4 30.368 16.304 41.688 27.75 C42.111 28.172 42.111 28.172 44.254 30.305 C44.655 30.708 44.655 30.708 46.688 32.75 C47.359 33.424 48.031 34.098 48.723 34.793 C85.831 74.046 100.934 134.896 99.688 187.75 C100.529 187.776 101.371 187.802 102.238 187.828 C148.619 189.947 198.108 201.49 240.688 219.938 C241.436 220.259 242.185 220.58 242.957 220.91 C246.848 222.657 250.073 224.244 252.688 227.75 C252.688 229.07 252.688 230.39 252.688 231.75 C253.347 231.75 254.008 231.75 254.688 231.75 C280.113 275.348 281.495 331.267 269.285 379.059 C267.066 387.238 264.578 395.359 260.875 403 C258.858 407.237 256.921 411.489 255.076 415.802 C251.981 423.024 248.586 429.92 244.688 436.75 C244.055 437.902 243.422 439.055 242.77 440.242 C233.44 457.197 223.196 473.533 211.81 489.182 C210.736 490.682 209.711 492.215 208.688 493.75 C207.801 494.451 206.914 495.152 206 495.875 C203.488 497.913 201.614 500.03 199.688 502.625 C196.291 507.144 192.549 511.255 188.688 515.375 C188.106 515.996 187.525 516.617 186.926 517.257 C179.588 525.042 172.071 532.087 163.688 538.75 C162.732 539.534 161.777 540.317 160.793 541.125 C129.863 565.901 91.761 578.842 53.888 588.753 C51.753 589.312 49.62 589.877 47.486 590.443 C40.257 592.352 33.015 594.162 25.73 595.848 C19.729 597.238 13.815 598.777 7.938 600.625 C2.793 602.213 -2.35 603.779 -7.547 605.188 C-38.585 613.618 -66.922 627.972 -91.776 648.486 C-93.238 649.688 -94.716 650.87 -96.195 652.051 C-102.156 656.831 -107.819 661.87 -113.41 667.07 C-116.008 669.469 -118.65 671.799 -121.312 674.125 C-145.214 695.667 -163.987 722.976 -179.062 751.188 C-179.369 751.76 -179.369 751.76 -180.919 754.656 C-182.151 756.958 -183.381 759.261 -184.61 761.565 C-186.084 764.323 -187.569 767.075 -189.059 769.824 C-200.828 791.661 -210.373 814.265 -218.312 837.75 C-218.499 838.301 -218.499 838.301 -219.441 841.088 C-225.195 858.547 -228.45 876.301 -231.348 894.414 C-237.733 933.62 -237.733 933.62 -251.336 944.406 C-261.092 951.039 -271.541 953.991 -283.312 952.75 C-295.799 950.155 -303.306 945.254 -310.492 934.785 C-327.786 905.95 -320.501 866.4 -316.312 834.75 C-316.258 834.337 -316.258 834.337 -315.982 832.246 C-305.428 752.744 -279.456 676.935 -246.567 604.015 C-240.737 591.079 -235.102 578.115 -230.312 564.75 C-230.045 564.007 -229.778 563.264 -229.502 562.499 C-224.222 547.553 -222.88 532.701 -222.875 516.938 C-222.872 516.15 -222.87 515.362 -222.867 514.551 C-222.856 494.298 -225.209 474.266 -227.449 454.164 C-234.471 389.527 -215.725 338.354 -176.133 287.977 C-162.385 270.902 -146.847 253.98 -129.312 240.75 C-128.045 239.778 -126.779 238.805 -125.512 237.832 C-103.123 220.75 -103.123 220.75 -99.312 220.75 C-101.626 215.17 -105.018 211.808 -109.312 207.75 C-111.712 205.378 -114.084 202.994 -116.391 200.531 C-141.239 174.432 -177.128 154.909 -213.57 153.535 C-219.928 153.478 -226.025 153.897 -232.312 154.75 C-241.238 155.671 -247.581 153.576 -254.578 147.918 C-260.943 141.942 -264.457 136.587 -264.812 127.75 C-264.453 118.798 -260.86 113.589 -254.473 107.512 C-241.382 96.835 -221.236 97.977 -205.375 99.438 C-167.972 103.368 -133.91 121.483 -106.543 146.707 C-104.487 148.59 -102.382 150.391 -100.25 152.188 C-86.683 164.076 -75.646 179.412 -66.312 194.75 C-65.736 195.665 -65.16 196.58 -64.566 197.523 C-63.312 199.75 -63.312 199.75 -63.312 201.75 C-62.786 201.564 -62.26 201.378 -61.718 201.187 C-23.561 187.817 14.433 184.178 54.688 184.75 C54.358 184.09 54.027 183.43 53.688 182.75 C53.457 181.259 53.272 179.761 53.109 178.262 C48.835 141.021 36.989 104.57 10.66 76.863 C8.688 74.75 8.688 74.75 6.738 72.246 C-1.057 62.759 -12.668 56.463 -22.992 50.098 C-32.015 44.371 -36.611 38.206 -39.312 27.75 C-40.687 20.216 -37.789 12.782 -33.875 6.41 C-25.191 -4.8 -12.13 -5.006 0 0 Z " fill="#025E77" transform="translate(842.3125,112.25)"/>
<path d="M0 0 C2.263 1.969 4.379 4.018 6.478 6.162 C6.837 6.511 6.837 6.511 8.657 8.281 C11.721 11.291 14.666 14.344 17.392 17.666 C19.211 19.874 20.917 21.656 23.103 23.474 C26.224 26.131 29.251 28.864 32.244 31.663 C37.528 36.601 42.896 41.348 48.536 45.88 C51.619 48.363 54.67 50.881 57.718 53.406 C63.749 58.398 69.808 63.343 75.978 68.162 C84.635 74.925 93.12 81.817 101.251 89.212 C109.838 97.015 109.838 97.015 114.165 100.287 C117.019 102.701 119.312 105.39 121.731 108.232 C123.522 110.259 125.395 112.109 127.353 113.974 C164.51 150.845 182.203 206.713 182.784 258.031 C182.794 262.806 182.704 267.576 182.603 272.349 C182.594 273.15 182.585 273.951 182.576 274.776 C182.081 314.964 166.547 353.499 151.665 390.224 C151.336 391.036 151.007 391.848 150.668 392.684 C149.724 395.009 148.776 397.332 147.825 399.654 C147.544 400.343 147.263 401.033 146.974 401.743 C145.343 405.702 143.564 409.543 141.603 413.349 C142.34 413.622 143.077 413.895 143.836 414.176 C146.448 415.283 148.542 416.505 150.868 418.115 C151.667 418.668 152.466 419.22 153.289 419.79 C154.135 420.387 154.981 420.984 155.853 421.599 C156.738 422.224 157.623 422.849 158.535 423.492 C178.307 437.604 197.584 453.583 210.603 474.349 C211.021 475.009 211.439 475.668 211.87 476.348 C217.75 485.711 222.713 495.268 226.857 505.516 C227.551 507.222 228.275 508.915 229.001 510.607 C247.522 555.394 238.538 603.826 220.735 647.037 C215.723 658.903 210.312 670.591 204.935 682.294 C199.963 693.13 195.348 704.033 191.358 715.275 C190.846 716.683 190.304 718.079 189.737 719.466 C189.461 720.148 189.184 720.83 188.899 721.533 C188.65 722.125 188.401 722.717 188.145 723.327 C187.387 726.153 187.348 728.427 187.603 731.349 C189.195 733.649 189.195 733.649 191.455 735.851 C192.296 736.685 193.138 737.52 194.005 738.38 C194.466 738.822 194.466 738.822 196.798 741.06 C197.749 741.995 198.699 742.931 199.647 743.869 C202.147 746.335 204.664 748.784 207.186 751.228 C211.204 755.128 215.198 759.053 219.189 762.98 C220.576 764.339 221.971 765.69 223.367 767.041 C240.172 783.464 240.172 783.464 240.728 794.927 C240.54 797.476 240.157 799.855 239.603 802.349 C239.459 803.039 239.316 803.728 239.169 804.439 C237.33 810.842 232.864 815.449 227.603 819.349 C221.175 822.312 215.45 822.833 208.603 821.349 C207.506 821.121 206.409 820.892 205.278 820.657 C200.795 819.062 198.375 816.905 195.04 813.607 C194.409 813 193.777 812.394 193.126 811.769 C182.463 801.45 172.086 790.829 161.678 780.253 C159.763 778.308 157.843 776.366 155.919 774.428 C154.129 772.625 152.344 770.815 150.567 768.999 C146.156 764.57 142.179 761.174 136.603 758.349 C135.585 757.367 134.577 756.374 133.603 755.349 C132.943 755.349 132.283 755.349 131.603 755.349 C129.747 757.772 128.007 760.205 126.29 762.724 C125.201 764.295 124.111 765.865 123.021 767.435 C122.456 768.249 121.892 769.064 121.311 769.903 C118.622 773.753 115.863 777.55 113.103 781.349 C108.895 787.154 104.726 792.984 100.603 798.849 C95.941 805.478 91.213 812.056 86.458 818.619 C82.803 823.67 79.189 828.749 75.603 833.849 C71.289 839.983 66.932 846.083 62.54 852.162 C62.266 852.541 62.266 852.541 60.878 854.462 C56.738 860.183 56.738 860.183 54.925 862.41 C53.603 864.349 53.603 864.349 53.728 867.099 C54.603 870.349 54.603 870.349 56.02 873.99 C57.678 878.368 58.774 882.782 59.794 887.345 C59.985 888.178 60.175 889.011 60.372 889.869 C60.975 892.507 61.57 895.147 62.165 897.787 C62.568 899.553 62.971 901.319 63.374 903.085 C64.118 906.348 64.86 909.61 65.597 912.874 C65.764 913.61 65.931 914.347 66.103 915.105 C66.447 916.649 66.78 918.195 67.105 919.743 C67.188 920.133 67.188 920.133 67.606 922.107 C67.75 922.802 67.894 923.497 68.042 924.213 C68.603 926.349 68.603 926.349 69.534 928.546 C70.765 931.776 71.513 934.958 72.261 938.333 C72.415 939.025 72.57 939.717 72.729 940.43 C73.244 942.745 73.754 945.061 74.263 947.377 C74.633 949.042 75.003 950.708 75.374 952.373 C76.382 956.914 77.386 961.455 78.389 965.997 C79.454 970.819 80.525 975.64 81.595 980.461 C83.638 989.67 85.676 998.88 87.714 1008.09 C90.637 1021.303 93.566 1034.515 96.495 1047.727 C96.937 1049.722 97.379 1051.717 97.822 1053.713 C97.931 1054.205 97.931 1054.205 98.483 1056.695 C99.798 1062.627 101.112 1068.56 102.425 1074.492 C106.474 1092.791 110.531 1111.087 114.662 1129.368 C115.206 1131.777 115.75 1134.186 116.293 1136.595 C116.642 1138.142 116.991 1139.689 117.34 1141.236 C117.509 1141.983 117.677 1142.731 117.851 1143.501 C118.822 1147.803 119.799 1152.103 120.78 1156.403 C121.23 1158.379 121.677 1160.356 122.124 1162.333 C122.656 1164.689 123.192 1167.044 123.733 1169.397 C125.939 1179.216 127.483 1187.751 124.603 1197.537 C124.378 1198.323 124.153 1199.11 123.921 1199.92 C122.367 1204.918 120.712 1208.605 116.446 1211.865 C114.603 1213.349 114.603 1213.349 112.376 1216.341 C109.407 1219.985 106.161 1221.014 101.728 1222.224 C101.387 1222.33 101.387 1222.33 99.661 1222.865 C93.806 1224.582 88.627 1224.929 82.68 1223.349 C76.734 1222.001 70.882 1222.072 64.809 1222.094 C63.556 1222.09 62.303 1222.087 61.011 1222.083 C58.301 1222.076 55.59 1222.072 52.879 1222.075 C48.577 1222.078 44.275 1222.063 39.972 1222.046 C27.743 1221.999 15.514 1221.975 3.284 1221.968 C-3.482 1221.964 -10.248 1221.946 -17.015 1221.913 C-20.583 1221.896 -24.152 1221.887 -27.72 1221.896 C-63.724 1221.98 -63.724 1221.98 -73.444 1214.791 C-80.921 1206.827 -84.453 1199.909 -85.835 1188.849 C-85.763 1188.272 -85.763 1188.272 -85.397 1185.349 C-85.311 1184.408 -85.225 1183.467 -85.136 1182.498 C-83.606 1172.241 -78.585 1165.413 -70.397 1159.349 C-55.057 1151.796 -36.396 1153.733 -19.764 1153.948 C-16.633 1153.983 -13.501 1153.996 -10.369 1154.008 C7.972 1154.079 26.28 1154.483 44.603 1155.349 C44.371 1154.447 44.14 1153.545 43.901 1152.616 C40.939 1140.973 38.285 1129.268 35.665 1117.544 C35.187 1115.412 34.709 1113.28 34.23 1111.148 C32.685 1104.257 31.143 1097.366 29.603 1090.474 C29.072 1088.1 28.541 1085.725 28.01 1083.351 C25.836 1073.629 23.662 1063.907 21.49 1054.185 C18.347 1040.118 15.185 1026.055 12.003 1011.996 C10.343 1004.661 8.691 997.325 7.042 989.988 C5.936 985.069 4.826 980.152 3.705 975.237 C2.662 970.658 1.629 966.077 0.606 961.494 C0.232 959.828 -0.147 958.164 -0.53 956.5 C-1.05 954.238 -1.555 951.973 -2.056 949.708 C-2.341 948.447 -2.626 947.186 -2.92 945.888 C-3.428 942.12 -3.112 939.067 -2.397 935.349 C-3.387 935.349 -4.377 935.349 -5.397 935.349 C-5.339 934.135 -5.281 932.921 -5.222 931.669 C-5.225 925.318 -6.748 919.375 -8.21 913.224 C-8.767 910.792 -9.323 908.36 -9.878 905.927 C-10.384 903.735 -10.891 901.542 -11.397 899.349 C-13.662 889.463 -15.163 879.512 -16.585 869.474 C-16.764 868.225 -16.944 866.975 -17.128 865.688 C-17.6 862.245 -18.018 858.803 -18.397 855.349 C-18.5 854.524 -18.603 853.7 -18.709 852.85 C-19.197 846.009 -16.144 841.147 -12.71 835.412 C-12.123 834.405 -11.537 833.399 -10.933 832.362 C-5.795 823.698 -0.083 815.554 5.978 807.519 C8.738 803.833 11.415 800.088 14.103 796.349 C15.184 794.85 16.266 793.351 17.349 791.853 C17.885 791.111 18.421 790.368 18.973 789.604 C20.61 787.339 22.248 785.076 23.888 782.814 C29.672 774.826 35.411 766.81 41.083 758.743 C45.251 752.824 49.488 746.957 53.736 741.095 C57.5 735.894 61.22 730.662 64.915 725.412 C72.097 715.221 72.097 715.221 75.228 710.849 C75.533 710.421 75.533 710.421 77.079 708.255 C78.603 706.349 78.603 706.349 80.603 705.349 C80.988 703.47 80.988 703.47 81.181 700.976 C81.258 700.043 81.334 699.111 81.413 698.15 C81.45 697.64 81.45 697.64 81.638 695.06 C81.721 694.009 81.805 692.959 81.891 691.876 C82.158 688.493 82.412 685.109 82.665 681.724 C82.839 679.495 83.014 677.266 83.19 675.037 C83.608 669.711 84.009 664.384 84.401 659.057 C84.568 656.809 84.744 654.562 84.926 652.315 C86.03 637.779 86.08 623.176 86.254 608.605 C86.284 606.23 86.314 603.854 86.345 601.478 C86.352 600.899 86.352 600.899 86.389 597.971 C86.485 591.763 86.74 585.621 87.298 579.439 C89.158 555.309 76.904 533.336 62.603 514.349 C62.235 513.989 62.235 513.989 60.372 512.166 C56.154 507.836 54.853 500.593 54.399 494.72 C54.881 486.17 57.735 477.743 60.012 469.53 C60.757 466.777 61.4 464.004 62.04 461.224 C63.482 455.322 65.53 449.656 67.622 443.958 C69.603 438.539 69.603 438.539 69.603 436.349 C68.204 435.211 68.204 435.211 66.228 433.951 C65.497 433.477 64.767 433.004 64.014 432.516 C63.218 432.007 62.423 431.498 61.603 430.974 C49.989 423.39 38.633 415.433 28.419 406.013 C26.798 404.528 25.137 403.152 23.415 401.787 C15.401 394.841 12.367 388.485 11.228 377.849 C12.296 367.881 14.974 361.318 22.563 354.615 C28.325 350.319 34.11 348.931 41.228 349.537 C42.69 349.781 44.149 350.053 45.603 350.349 C46.007 350.418 46.007 350.418 48.056 350.767 C52.365 351.58 54.538 352.151 57.603 355.349 C58.593 355.679 59.583 356.009 60.603 356.349 C62.293 357.992 63.955 359.664 65.603 361.349 C67.904 363.387 70.251 365.369 72.603 367.349 C72.781 359.896 72.322 352.781 71.228 345.412 C71.101 344.513 70.975 343.613 70.845 342.687 C70.178 338.013 69.446 333.352 68.665 328.696 C68.004 324.748 67.345 320.8 66.692 316.852 C61.511 285.576 55.948 254.41 49.603 223.349 C49.456 222.631 49.309 221.912 49.159 221.172 C45.912 205.285 42.274 189.507 38.411 173.759 C37.005 168.019 35.619 162.274 34.247 156.525 C34.036 155.641 33.825 154.757 33.607 153.846 C32.209 147.964 30.855 142.073 29.52 136.176 C28.566 131.993 27.582 127.817 26.593 123.642 C26.094 121.508 25.608 119.371 25.134 117.231 C24.432 114.077 23.686 110.936 22.931 107.794 C22.73 106.846 22.53 105.899 22.324 104.922 C20.462 97.484 16.875 94.481 10.603 90.349 C8.894 88.873 7.202 87.377 5.54 85.849 C2.585 83.153 -0.378 80.474 -3.397 77.849 C-4.731 76.683 -6.064 75.516 -7.397 74.349 C-8.121 73.72 -8.844 73.091 -9.589 72.443 C-42.969 42.967 -42.969 42.967 -45.397 25.349 C-45.408 22.575 -45.003 20.052 -44.397 17.349 C-44.269 16.64 -44.14 15.931 -44.007 15.201 C-42.196 7.83 -37.437 2.751 -31.397 -1.651 C-21.413 -5.81 -9.221 -6.349 0 0 Z " fill="#0D9BB2" transform="translate(1094.3974609375,714.65087890625)"/>
<path d="M0 0 C0.432 0.176 0.432 0.176 2.615 1.069 C17.454 7.4 30.368 16.304 41.688 27.75 C42.111 28.172 42.111 28.172 44.254 30.305 C44.655 30.708 44.655 30.708 46.688 32.75 C47.359 33.424 48.031 34.098 48.723 34.793 C85.831 74.046 100.934 134.896 99.688 187.75 C100.529 187.776 101.371 187.802 102.238 187.828 C150.824 190.048 202.53 202.46 246.688 222.75 C246.688 223.74 246.688 224.73 246.688 225.75 C245.487 225.897 244.287 226.044 243.051 226.195 C201.637 231.616 167.525 251.988 134.688 276.75 C134.143 277.159 133.599 277.569 133.038 277.99 C124.357 284.537 115.92 291.375 107.508 298.262 C105.915 299.564 104.317 300.861 102.719 302.156 C97.641 306.278 92.644 310.483 87.688 314.75 C82.722 319.024 77.718 323.237 72.629 327.363 C70.461 329.122 68.304 330.89 66.152 332.668 C38.809 355.197 10.89 373.221 -22.312 385.75 C-23.519 386.213 -24.726 386.676 -25.969 387.152 C-42.961 393.252 -61.366 396.972 -79.312 398.75 C-80.24 398.842 -81.167 398.934 -82.123 399.029 C-93.265 399.966 -104.41 399.936 -115.584 399.935 C-119.013 399.937 -122.442 399.956 -125.871 399.975 C-137.373 400.005 -148.801 399.735 -160.273 398.883 C-161.309 398.808 -162.344 398.733 -163.41 398.655 C-180.856 397.217 -202.604 393.902 -215.312 380.75 C-216.855 378.447 -218.141 376.165 -219.34 373.668 C-220.312 371.75 -220.312 371.75 -222.312 369.75 C-207.228 320.384 -170.362 271.721 -129.312 240.75 C-128.045 239.778 -126.779 238.805 -125.512 237.832 C-103.123 220.75 -103.123 220.75 -99.312 220.75 C-101.626 215.17 -105.018 211.808 -109.312 207.75 C-111.712 205.378 -114.084 202.994 -116.391 200.531 C-141.239 174.432 -177.128 154.909 -213.57 153.535 C-219.928 153.478 -226.025 153.897 -232.312 154.75 C-241.238 155.671 -247.581 153.576 -254.578 147.918 C-260.943 141.942 -264.457 136.587 -264.812 127.75 C-264.453 118.798 -260.86 113.589 -254.473 107.512 C-241.382 96.835 -221.236 97.977 -205.375 99.438 C-167.972 103.368 -133.91 121.483 -106.543 146.707 C-104.487 148.59 -102.382 150.391 -100.25 152.188 C-86.683 164.076 -75.646 179.412 -66.312 194.75 C-65.736 195.665 -65.16 196.58 -64.566 197.523 C-63.312 199.75 -63.312 199.75 -63.312 201.75 C-62.786 201.564 -62.26 201.378 -61.718 201.187 C-23.561 187.817 14.433 184.178 54.688 184.75 C54.358 184.09 54.027 183.43 53.688 182.75 C53.457 181.259 53.272 179.761 53.109 178.262 C48.835 141.021 36.989 104.57 10.66 76.863 C8.688 74.75 8.688 74.75 6.738 72.246 C-1.057 62.759 -12.668 56.463 -22.992 50.098 C-32.015 44.371 -36.611 38.206 -39.312 27.75 C-40.687 20.216 -37.789 12.782 -33.875 6.41 C-25.191 -4.8 -12.13 -5.006 0 0 Z " fill="#42A29B" transform="translate(842.3125,112.25)"/>
<path d="M0 0 C3.026 1.34 4.967 2.773 7.172 5.23 C7.749 5.865 8.327 6.499 8.922 7.153 C9.525 7.824 10.128 8.496 10.75 9.188 C15.602 14.48 20.466 19.418 26 24 C27.013 24.894 28.023 25.792 29.031 26.691 C35.992 32.853 43.121 38.381 50.934 43.435 C55.899 46.696 55.899 46.696 57 50 C55.788 52.489 55.788 52.489 53.914 55.453 C53.234 56.541 52.555 57.629 51.854 58.75 C51.111 59.917 50.368 61.083 49.625 62.25 C48.882 63.432 48.139 64.614 47.398 65.797 C46.293 67.56 45.187 69.322 44.078 71.082 C40.484 76.79 37.076 82.599 33.699 88.438 C32 91 32 91 29 93 C29.586 93.636 30.172 94.272 30.776 94.927 C33.579 98.8 34.997 102.688 36.59 107.168 C36.926 108.09 37.263 109.012 37.609 109.961 C38.728 113.033 39.833 116.11 40.938 119.188 C41.732 121.377 42.527 123.566 43.323 125.755 C45.454 131.625 47.575 137.5 49.692 143.375 C51.851 149.359 54.02 155.34 56.188 161.32 C58.83 168.613 61.472 175.905 64.109 183.2 C69.881 199.163 75.674 215.119 81.5 231.062 C81.88 232.102 82.259 233.141 82.651 234.212 C87.33 247.016 92.032 259.811 96.75 272.602 C96.991 273.255 97.232 273.908 97.48 274.581 C100.063 281.585 102.648 288.587 105.236 295.588 C106.085 297.886 106.933 300.183 107.781 302.48 C108.165 303.516 108.548 304.551 108.943 305.617 C114.864 321.664 120.56 337.127 113.994 354.011 C110.246 361.51 102.986 368.568 95.215 371.762 C88.362 373.85 81.685 375.111 74.695 373.004 C68.336 371.372 61.804 371.724 55.285 371.745 C53.801 371.742 52.316 371.738 50.832 371.734 C47.647 371.726 44.463 371.723 41.278 371.726 C36.228 371.728 31.178 371.714 26.129 371.697 C11.773 371.65 -2.583 371.626 -16.939 371.619 C-24.877 371.615 -32.814 371.597 -40.752 371.564 C-45.757 371.544 -50.762 371.541 -55.768 371.552 C-58.902 371.555 -62.036 371.541 -65.17 371.522 C-66.607 371.517 -68.044 371.518 -69.481 371.527 C-81.816 371.598 -94.583 370.971 -103.75 361.938 C-105.188 360.311 -106.608 358.667 -108 357 C-108.536 356.541 -109.072 356.082 -109.625 355.609 C-113.391 351.202 -114.801 343.366 -115.137 337.688 C-114.938 335.812 -114.938 335.812 -114 332 C-113.946 331.587 -113.946 331.587 -113.672 329.496 C-112.273 321.565 -107.639 315.224 -101.285 310.347 C-87.676 302.322 -72.15 303.342 -56.938 303.512 C-54.449 303.521 -51.961 303.528 -49.473 303.533 C-42.976 303.552 -36.479 303.601 -29.982 303.657 C-23.332 303.708 -16.682 303.731 -10.031 303.756 C2.979 303.809 15.99 303.893 29 304 C28.758 303.34 28.517 302.679 28.268 301.999 C25.115 293.375 21.963 284.75 18.812 276.125 C18.555 275.419 18.297 274.713 18.031 273.986 C9.945 251.851 1.899 229.702 -6.108 207.539 C-10.74 194.72 -15.39 181.907 -20.102 169.117 C-20.307 168.559 -20.307 168.559 -21.347 165.735 C-23.274 160.506 -25.205 155.277 -27.142 150.051 C-33.025 134.144 -38.657 118.255 -42.875 101.812 C-43.028 101.239 -43.028 101.239 -43.805 98.334 C-44.093 97.22 -44.382 96.105 -44.68 94.957 C-44.935 93.977 -45.19 92.997 -45.453 91.988 C-46.629 85.567 -46.047 81.212 -43.211 75.344 C-43.064 75.036 -43.064 75.036 -42.318 73.478 C-41.353 71.477 -40.366 69.488 -39.375 67.5 C-39.038 66.813 -38.701 66.126 -38.353 65.418 C-32.481 53.466 -25.928 42.064 -18.782 30.825 C-15.559 25.716 -12.444 20.541 -9.312 15.375 C-8.163 13.487 -7.013 11.599 -5.863 9.711 C-3.896 6.481 -1.943 3.244 0 0 Z " fill="#0C9BB2" transform="translate(812,1565)"/>
<path d="M0 0 C-2.691 2.107 -5.367 3.823 -8.402 5.391 C-9.277 5.845 -10.152 6.299 -11.054 6.767 C-12.005 7.256 -12.957 7.746 -13.938 8.25 C-14.945 8.773 -15.952 9.296 -16.989 9.835 C-22.652 12.772 -28.33 15.678 -34.02 18.562 C-81.664 42.777 -128.796 73.242 -162 116 C-162.799 117.005 -163.598 118.011 -164.422 119.047 C-175.509 133.089 -184.64 148.202 -193.625 163.651 C-194.602 165.32 -195.647 166.95 -196.737 168.548 C-198 171 -198 171 -197.962 173.144 C-196.632 175.709 -195.169 176.382 -192.609 177.699 C-192.146 177.941 -192.146 177.941 -189.801 179.162 C-188.794 179.665 -187.787 180.169 -186.75 180.688 C-185.717 181.214 -184.685 181.74 -183.621 182.281 C-173.608 187.318 -163.429 191.894 -153 196 C-152.358 196.253 -151.715 196.507 -151.053 196.768 C-133.337 203.577 -114.145 206.688 -95.562 210.25 C-94.93 210.373 -94.93 210.373 -91.729 210.996 C-73.298 214.438 -55.168 215.375 -36.438 215.312 C-35.335 215.311 -34.232 215.31 -33.096 215.308 C-17.86 215.271 -2.91 214.921 12.158 212.462 C15.232 211.962 18.311 211.522 21.395 211.086 C53.437 206.43 82.305 195.53 111.609 182.056 C114.964 180.574 117.549 179.878 121.188 179.938 C122.446 179.958 123.704 179.979 125 180 C124.358 185.138 122.836 187.581 118.875 190.938 C106.025 200.429 90.761 205.702 75.839 210.992 C74.106 211.608 72.375 212.231 70.649 212.867 C30.58 227.607 -12.839 228.469 -54.949 228.203 C-56 228.199 -57.051 228.194 -58.134 228.19 C-67.459 228.102 -76.5 227.371 -85.652 225.582 C-88.234 225.133 -90.781 224.765 -93.379 224.449 C-130.028 219.914 -163.446 207.261 -196.097 190.441 C-196.948 190.004 -197.799 189.567 -198.676 189.117 C-199.417 188.732 -200.159 188.346 -200.923 187.949 C-202.941 187.027 -204.835 186.46 -207 186 C-207.196 186.625 -207.196 186.625 -208.188 189.789 C-210.09 195.489 -212.507 200.913 -215 206.375 C-215.438 207.359 -215.877 208.342 -216.328 209.355 C-216.756 210.298 -217.184 211.24 -217.625 212.211 C-217.817 212.635 -217.817 212.635 -218.789 214.783 C-220 217 -220 217 -221.586 218.549 C-224.919 221.969 -224.303 227.287 -224.535 231.805 C-224.578 232.632 -224.621 233.459 -224.666 234.311 C-224.807 237.165 -224.937 240.02 -225.062 242.875 C-225.107 243.875 -225.152 244.876 -225.197 245.906 C-226.235 270.431 -226.193 294.971 -226.188 319.513 C-226.187 322.754 -226.189 325.995 -226.19 329.236 C-226.191 334.407 -226.185 339.577 -226.174 344.748 C-226.17 346.683 -226.168 348.619 -226.167 350.555 C-226.164 353.231 -226.156 355.906 -226.145 358.581 C-226.146 359.365 -226.146 360.149 -226.147 360.957 C-226.124 364.761 -225.92 368.302 -225 372 C-224.176 372.209 -223.353 372.418 -222.504 372.633 C-218.03 374.379 -214.729 376.973 -210.938 379.875 C-196.716 390.425 -181.671 399.012 -165 405 C-163.129 405.728 -161.258 406.456 -159.388 407.186 C-123.473 421.023 -85.351 429.017 -47 432 C-46.413 432.055 -46.413 432.055 -43.445 432.332 C-39.298 432.666 -35.158 432.867 -31 433 C-29.943 433.034 -28.886 433.068 -27.797 433.103 C-7.395 433.652 12.448 432.139 32.698 429.724 C37.656 429.137 42.61 428.679 47.589 428.309 C74.654 426.242 130.61 418.39 151 398 C153 397.959 155 397.957 157 398 C157.672 399.762 157.672 399.762 158 402 C151.519 413.728 136.795 418.665 125.028 423.211 C123.228 423.911 121.439 424.641 119.652 425.375 C110.63 429.025 101.416 431.605 92 434 C91.221 434.206 90.442 434.412 89.64 434.625 C39.379 447.746 -17.659 449.674 -69 443 C-71.598 442.683 -74.195 442.366 -76.793 442.051 C-106.739 438.33 -136.09 431.744 -164 420 C-165.136 419.531 -166.271 419.062 -167.441 418.578 C-186.236 410.679 -204.329 401.29 -220.16 388.348 C-222 387 -222 387 -225 386 C-223.356 431.49 -223.356 431.49 -221.17 450.243 C-220.408 456.848 -219.793 463.438 -219.352 470.07 C-219.298 470.871 -219.245 471.672 -219.189 472.497 C-219.162 472.905 -219.162 472.905 -219.025 474.966 C-217.901 491.818 -216.211 508.513 -213.938 525.25 C-213.808 526.207 -213.678 527.164 -213.544 528.149 C-212.284 537.354 -210.99 546.544 -209.346 555.689 C-208.874 558.84 -208.856 561.822 -209 565 C-208.051 565.186 -207.102 565.371 -206.125 565.562 C-202.769 566.523 -200.374 568.007 -197.562 570.062 C-177.739 584.456 -154.136 594.364 -131 602 C-130.277 602.239 -129.554 602.478 -128.81 602.725 C-110.034 608.819 -90.575 612.934 -71.032 615.57 C-67.356 616.091 -63.69 616.671 -60.023 617.254 C-57.842 617.597 -55.661 617.94 -53.48 618.282 C-52.067 618.506 -50.654 618.732 -49.241 618.96 C9.546 628.439 81.572 625.038 137 602 C149.235 597.385 149.235 597.385 156 598 C154.708 604.027 151.945 606.695 147 610 C130.576 619.735 112.053 623.719 93.532 627.471 C91.274 627.943 89.039 628.471 86.797 629.012 C80.757 630.363 74.611 631.054 68.473 631.805 C66.399 632.06 64.327 632.323 62.254 632.588 C60.885 632.758 59.517 632.928 58.148 633.098 C57.546 633.172 57.546 633.172 54.498 633.551 C43.304 634.757 32.095 635.163 20.844 635.203 C19.54 635.209 18.237 635.215 16.893 635.22 C14.147 635.231 11.401 635.237 8.655 635.24 C5.913 635.245 3.172 635.258 0.431 635.281 C-48.092 635.679 -102.399 630.487 -146.962 609.913 C-149.971 608.565 -153.074 607.52 -156.188 606.438 C-171.298 600.941 -185.592 593.193 -199.199 584.68 C-202 583 -202 583 -205 582 C-203.246 595.149 -200.758 607.954 -197.727 620.863 C-196.329 626.898 -195.005 632.948 -193.688 639 C-193.421 640.199 -193.154 641.399 -192.88 642.635 C-192.634 643.766 -192.389 644.897 -192.137 646.062 C-192.027 646.563 -192.027 646.563 -191.471 649.098 C-190.981 652.115 -190.918 654.949 -191 658 C-195.371 653.851 -199.058 649.319 -202.75 644.562 C-203.371 643.773 -203.992 642.983 -204.633 642.169 C-207.941 637.903 -210.883 633.64 -213.532 628.94 C-217.701 621.597 -217.701 621.597 -222.121 619.566 C-224.351 618.986 -226.591 618.442 -228.84 617.938 C-234.503 616.257 -237.829 612.883 -241 608 C-245.376 598.172 -245.56 590.063 -242 580 C-241.813 579.568 -241.813 579.568 -240.867 577.379 C-239.197 572.796 -240.73 567.687 -241.484 562.973 C-246.406 531.021 -244.75 495.739 -229.734 466.465 C-229.354 465.716 -228.973 464.967 -228.581 464.195 C-227.845 462.782 -227.078 461.383 -226.276 460.006 C-224.739 457.105 -223.809 455.041 -224.416 451.736 C-224.679 450.938 -224.941 450.139 -225.211 449.316 C-225.498 448.435 -225.785 447.555 -226.08 446.647 C-227.451 442.701 -228.878 438.784 -230.371 434.883 C-231.029 433.142 -231.687 431.401 -232.344 429.66 C-232.686 428.757 -233.027 427.855 -233.379 426.926 C-255.081 369.48 -255.081 369.48 -261 340 C-261.163 339.19 -261.326 338.38 -261.494 337.546 C-262.501 332.384 -263.314 327.213 -264 322 C-264.051 321.62 -264.051 321.62 -264.312 319.696 C-273.188 251.366 -257.286 177.636 -215.237 122.696 C-208.813 114.51 -202.054 106.648 -195 99 C-194.162 98.059 -193.324 97.118 -192.461 96.148 C-185.729 88.61 -178.566 81.696 -171 75 C-170.498 74.553 -169.996 74.107 -169.479 73.646 C-137.135 45.042 -101.719 26.119 -60.358 14.66 C-57.229 13.784 -54.116 12.858 -51 11.938 C-44.402 10.046 -37.738 8.489 -31.055 6.937 C-24.232 5.337 -17.489 3.525 -10.772 1.524 C-7.087 0.453 -3.846 -0.263 0 0 Z " fill="#0D9BB2" transform="translate(904,699)"/>
<path d="M0 0 C5.555 4.059 10.901 8.337 16.211 12.711 C18.791 14.829 21.39 16.92 24 19 C25.667 20.333 27.334 21.666 29 23 C29.874 23.697 30.748 24.395 31.648 25.113 C48.207 38.469 65.025 53.293 77 71 C77.745 72.062 78.49 73.124 79.258 74.219 C102.508 108.127 107.861 152.096 102 192 C101.89 193.031 101.781 194.062 101.668 195.125 C98.105 225.192 83.605 255.263 72 283 C65.204 280.565 58.531 276.737 54 271 C51.48 265.583 51.268 259.501 50.812 253.625 C50.653 252.085 50.489 250.546 50.318 249.008 C50.079 246.819 49.846 244.633 49.655 242.439 C49.116 236.232 48.062 230.137 47 224 C46.695 222.168 46.391 220.335 46.09 218.502 C40.908 187.227 35.345 156.061 29 125 C28.853 124.282 28.707 123.563 28.556 122.823 C25.069 105.757 21.101 88.825 16.949 71.91 C16.039 68.18 15.156 64.444 14.273 60.707 C12.277 52.266 10.227 43.841 8.105 35.43 C7.865 34.477 7.625 33.524 7.378 32.543 C6.396 28.652 5.412 24.761 4.425 20.872 C3.69 17.975 2.96 15.077 2.23 12.18 C2.006 11.299 1.781 10.418 1.549 9.51 C1.447 9.103 1.447 9.103 0.93 7.046 C0.75 6.335 0.57 5.623 0.384 4.89 C0 3 0 3 0 0 Z " fill="#015472" transform="translate(1115,813)"/>
<path d="M0 0 C0.863 0.353 1.726 0.706 2.615 1.069 C17.454 7.4 30.368 16.304 41.688 27.75 C42.534 28.593 43.381 29.436 44.254 30.305 C45.057 31.112 45.86 31.919 46.688 32.75 C47.359 33.424 48.031 34.098 48.723 34.793 C79.99 67.868 94.328 115.899 98.875 160.25 C98.959 161.044 99.043 161.837 99.13 162.655 C100.371 176.077 99.795 189.504 98.571 202.9 C98.374 205.079 98.195 207.259 98.018 209.439 C95.665 236.812 95.665 236.812 86.188 245.25 C80.328 249.262 74.07 248.454 67.352 247.375 C61.98 245.893 59.682 242.619 56.816 238.004 C55.015 234.408 54.563 231.278 54.606 227.28 C54.612 226.401 54.619 225.522 54.626 224.617 C54.637 223.672 54.648 222.727 54.66 221.754 C54.673 219.73 54.685 217.706 54.697 215.682 C54.722 212.509 54.75 209.337 54.783 206.164 C54.896 194.823 54.927 183.918 52.688 172.75 C52.383 170.85 52.085 168.949 51.793 167.047 C46.454 134.243 34.323 104.295 12.688 78.75 C12 77.911 11.313 77.072 10.605 76.207 C1.228 65.111 -10.767 57.636 -22.992 50.098 C-32.015 44.371 -36.611 38.206 -39.312 27.75 C-40.687 20.216 -37.789 12.782 -33.875 6.41 C-25.191 -4.8 -12.13 -5.006 0 0 Z " fill="#015472" transform="translate(842.3125,112.25)"/>
<path d="M0 0 C11.255 3.942 20.488 13.896 29 22 C29.681 22.628 30.361 23.256 31.062 23.902 C35.818 28.414 39.45 33.505 43 39 C43.589 39.906 44.178 40.812 44.785 41.746 C58.824 64.486 64.066 93.003 58.56 119.209 C57.528 123.523 56.308 127.763 55 132 C54.764 132.786 54.529 133.571 54.286 134.38 C49.935 148.595 43.669 162.027 37.499 175.52 C28.118 196.044 19.433 216.693 12 238 C11.34 238 10.68 238 10 238 C9.67 237.01 9.34 236.02 9 235 C-0.901 227.891 -10.316 225.639 -22.383 227.031 C-28.676 228.109 -33.103 230.932 -38 235 C-38.33 235 -38.66 235 -39 235 C-38.528 223.632 -37.916 212.283 -37.098 200.934 C-34.543 165.292 -32.934 129.72 -32 94 C-30.005 96.619 -28.287 99.161 -26.766 102.082 C-26.356 102.85 -25.946 103.617 -25.523 104.408 C-24.683 105.995 -23.849 107.587 -23.023 109.182 C-19.336 116.035 -15.091 122.053 -7.625 124.938 C0.099 127.045 7.835 126.792 15 123 C20.701 118.672 24.4 113.998 26 107 C26.175 106.313 26.351 105.626 26.531 104.918 C28.712 93.281 21.149 81.848 15.875 71.938 C15.203 70.659 14.532 69.38 13.862 68.1 C11.918 64.395 9.959 60.697 8 57 C6.989 55.081 5.978 53.162 4.969 51.242 C4.527 50.402 4.084 49.562 3.629 48.696 C2.808 47.136 1.988 45.575 1.168 44.015 C-0.445 40.946 -2.064 37.883 -3.719 34.836 C-4.183 33.962 -4.647 33.088 -5.125 32.188 C-5.499 31.5 -5.873 30.813 -6.258 30.105 C-8.51 23.716 -5.905 17.382 -4.062 11.188 C-3.785 10.221 -3.507 9.255 -3.221 8.26 C-1.146 1.146 -1.146 1.146 0 0 Z " fill="#015472" transform="translate(1215,1184)"/>
<path d="M0 0 C-2.691 2.107 -5.367 3.823 -8.402 5.391 C-9.277 5.845 -10.152 6.299 -11.054 6.767 C-12.005 7.256 -12.957 7.746 -13.938 8.25 C-14.945 8.773 -15.952 9.296 -16.989 9.835 C-22.652 12.772 -28.33 15.678 -34.02 18.562 C-81.664 42.777 -128.796 73.242 -162 116 C-162.799 117.005 -163.598 118.011 -164.422 119.047 C-175.509 133.089 -184.64 148.202 -193.625 163.651 C-194.602 165.32 -195.647 166.95 -196.737 168.548 C-198 171 -198 171 -197.962 173.144 C-196.632 175.709 -195.169 176.382 -192.609 177.699 C-192.146 177.941 -192.146 177.941 -189.801 179.162 C-188.794 179.665 -187.787 180.169 -186.75 180.688 C-185.717 181.214 -184.685 181.74 -183.621 182.281 C-173.608 187.318 -163.429 191.894 -153 196 C-152.358 196.253 -151.715 196.507 -151.053 196.768 C-133.337 203.577 -114.145 206.688 -95.562 210.25 C-94.93 210.373 -94.93 210.373 -91.729 210.996 C-73.298 214.438 -55.168 215.375 -36.438 215.312 C-35.335 215.311 -34.232 215.31 -33.096 215.308 C-17.86 215.271 -2.91 214.921 12.158 212.462 C15.232 211.962 18.311 211.522 21.395 211.086 C53.437 206.43 82.305 195.53 111.609 182.056 C114.964 180.574 117.549 179.878 121.188 179.938 C122.446 179.958 123.704 179.979 125 180 C124.358 185.138 122.836 187.581 118.875 190.938 C106.025 200.429 90.761 205.702 75.839 210.992 C74.106 211.608 72.375 212.231 70.649 212.867 C30.58 227.607 -12.839 228.469 -54.949 228.203 C-56 228.199 -57.051 228.194 -58.134 228.19 C-67.459 228.102 -76.5 227.371 -85.652 225.582 C-88.234 225.133 -90.781 224.765 -93.379 224.449 C-130.028 219.914 -163.446 207.261 -196.097 190.441 C-196.948 190.004 -197.799 189.567 -198.676 189.117 C-199.417 188.732 -200.159 188.346 -200.923 187.949 C-202.941 187.027 -204.835 186.46 -207 186 C-207.197 186.625 -207.197 186.625 -208.191 189.789 C-210.091 195.478 -212.47 200.912 -214.938 206.375 C-215.367 207.359 -215.797 208.342 -216.24 209.355 C-216.665 210.298 -217.09 211.24 -217.527 212.211 C-217.906 213.06 -218.285 213.908 -218.676 214.783 C-220.139 217.233 -221.625 218.455 -224 220 C-223.624 201.864 -222.764 183.787 -221.562 165.688 C-221.501 164.743 -221.44 163.798 -221.376 162.825 C-221.021 157.402 -220.63 151.983 -220.196 146.566 C-220.002 144.031 -219.844 141.496 -219.687 138.959 C-219.044 130.058 -217.943 123.558 -211.438 117 C-210.804 116.3 -210.171 115.6 -209.518 114.878 C-207.709 112.888 -205.858 110.944 -204 109 C-202.433 107.233 -200.87 105.463 -199.312 103.688 C-197.876 102.124 -196.438 100.562 -195 99 C-194.582 98.53 -194.582 98.53 -192.465 96.152 C-185.731 88.613 -178.568 81.698 -171 75 C-170.498 74.553 -169.996 74.107 -169.479 73.646 C-137.135 45.042 -101.719 26.119 -60.358 14.66 C-57.229 13.784 -54.116 12.858 -51 11.938 C-44.402 10.046 -37.738 8.489 -31.055 6.937 C-24.232 5.337 -17.489 3.525 -10.772 1.524 C-7.087 0.453 -3.846 -0.263 0 0 Z " fill="#44A599" transform="translate(904,699)"/>
<path d="M0 0 C3.755 3.121 7.402 6.351 10.992 9.66 C13.048 11.544 15.153 13.344 17.285 15.141 C30.853 27.029 41.889 42.365 51.223 57.703 C51.774 58.578 52.326 59.454 52.895 60.355 C54.109 62.502 54.787 64.274 55.41 66.641 C56.56 70.389 58.231 73.494 60.292 76.826 C66.515 86.924 66.515 86.924 65.855 93.391 C64.252 99.25 61.658 103.213 56.434 106.41 C50.355 109.203 45.67 110.779 39.223 108.703 C32.551 104.86 29.035 98.142 25.223 91.703 C24.311 90.2 23.395 88.7 22.473 87.203 C22.107 86.595 21.74 85.986 21.363 85.359 C20.136 83.578 18.776 82.206 17.223 80.703 C16.087 79.441 14.963 78.17 13.848 76.891 C13.539 76.537 13.539 76.537 11.977 74.75 C10.543 73.077 9.157 71.364 7.785 69.641 C5.179 66.653 2.443 64.161 -0.574 61.602 C-2.052 60.328 -3.5 59.02 -4.918 57.68 C-31.317 32.807 -66.957 15.746 -103.613 16.531 C-107.381 16.736 -111.039 17.196 -114.777 17.703 C-123.703 18.624 -130.046 16.529 -137.043 10.871 C-143.407 4.896 -146.922 -0.46 -147.277 -9.297 C-146.917 -18.248 -143.325 -23.458 -136.938 -29.535 C-100.724 -59.069 -30.037 -24.486 0 0 Z " fill="#015472" transform="translate(724.77734375,249.296875)"/>
<path d="M0 0 C15.894 12.858 23.106 25.379 25.285 45.652 C25.944 62.419 20.48 77.718 9.621 90.391 C-1.81 101.77 -15.985 108.198 -32.123 108.322 C-33.052 108.319 -33.981 108.316 -34.938 108.312 C-35.862 108.329 -36.787 108.345 -37.74 108.361 C-53.646 108.372 -65.957 101.005 -77 90 C-77.65 89.374 -78.299 88.747 -78.969 88.102 C-89.502 77.152 -93.359 61.155 -93.143 46.29 C-92.076 29.163 -85.426 15.632 -73 4 C-52.917 -13.333 -22.001 -15.922 0 0 Z " fill="#FCC144" transform="translate(945,513)"/>
<path d="M0 0 C0.99 0 1.98 0 3 0 C3.203 2.317 3.406 4.634 3.608 6.952 C3.79 9.03 3.973 11.107 4.157 13.185 C4.6 18.218 5.028 23.248 5.367 28.289 C6.352 42.353 8.129 56.28 10 70.25 C10.132 71.235 10.263 72.219 10.399 73.234 C12.981 92.472 12.981 92.472 14.656 101.725 C15.13 104.862 15.144 107.835 15 111 C15.949 111.186 16.898 111.371 17.875 111.562 C21.231 112.523 23.626 114.007 26.438 116.062 C46.261 130.456 69.864 140.364 93 148 C93.723 148.239 94.446 148.478 95.19 148.725 C113.966 154.819 133.425 158.934 152.968 161.57 C156.644 162.091 160.31 162.671 163.977 163.254 C166.158 163.597 168.339 163.94 170.52 164.282 C171.933 164.506 173.346 164.732 174.759 164.96 C233.546 174.439 305.572 171.038 361 148 C373.235 143.385 373.235 143.385 380 144 C378.708 150.027 375.945 152.695 371 156 C354.576 165.735 336.053 169.719 317.532 173.471 C315.274 173.943 313.039 174.471 310.797 175.012 C304.757 176.363 298.611 177.054 292.473 177.805 C290.399 178.06 288.327 178.323 286.254 178.588 C284.885 178.758 283.517 178.928 282.148 179.098 C280.944 179.247 279.739 179.397 278.498 179.551 C267.304 180.757 256.095 181.163 244.844 181.203 C243.54 181.209 242.237 181.215 240.893 181.22 C238.147 181.231 235.401 181.237 232.655 181.24 C229.913 181.245 227.172 181.258 224.431 181.281 C175.908 181.679 121.601 176.487 77.038 155.913 C74.029 154.565 70.926 153.52 67.812 152.438 C52.702 146.941 38.408 139.193 24.801 130.68 C22 129 22 129 19 128 C20.754 141.149 23.242 153.954 26.273 166.863 C27.671 172.898 28.995 178.948 30.312 185 C30.579 186.199 30.846 187.399 31.12 188.635 C31.366 189.766 31.611 190.897 31.863 192.062 C32.083 193.064 32.302 194.066 32.529 195.098 C33.019 198.115 33.082 200.949 33 204 C28.629 199.851 24.942 195.319 21.25 190.562 C20.629 189.773 20.008 188.983 19.367 188.169 C16.059 183.903 13.117 179.64 10.468 174.94 C6.299 167.597 6.299 167.597 1.879 165.566 C-0.351 164.986 -2.591 164.442 -4.84 163.938 C-10.503 162.257 -13.829 158.883 -17 154 C-21.376 144.172 -21.56 136.063 -18 126 C-17.626 125.135 -17.252 124.27 -16.867 123.379 C-15.197 118.796 -16.73 113.687 -17.484 108.973 C-23.386 70.657 -17.267 34.622 0 0 Z " fill="#0E9BB2" transform="translate(680,1153)"/>
<path d="M0 0 C0.312 0.746 0.625 1.491 0.946 2.26 C2.378 5.674 3.814 9.087 5.25 12.5 C5.741 13.673 6.232 14.846 6.738 16.055 C7.706 18.352 8.687 20.644 9.682 22.929 C10.454 24.729 11.197 26.544 11.865 28.385 C14.518 35.044 19.928 37.616 26 40.938 C27.071 41.54 28.143 42.143 29.247 42.764 C63.757 61.884 101.436 69.799 140.283 74.659 C142 74.875 143.717 75.096 145.432 75.325 C193.082 81.596 247.902 77.27 293.145 60.859 C295.909 60.027 298.009 59.788 300.875 59.875 C301.656 59.893 302.437 59.911 303.242 59.93 C303.532 59.941 303.532 59.941 305 60 C305.438 62.125 305.438 62.125 305 65 C300.377 71.069 292.919 73.51 286 76 C285.081 76.338 284.162 76.675 283.215 77.023 C257.434 85.698 228.138 89.597 201 90 C199.813 90.02 198.626 90.041 197.403 90.062 C178.828 90.337 160.504 89.829 142 88 C141.186 87.925 140.372 87.85 139.534 87.773 C103.9 84.499 70.134 76.435 37.683 61.355 C37.091 61.082 37.091 61.082 34.094 59.695 C33.039 59.2 31.984 58.706 30.896 58.196 C28 57 28 57 25.244 56.457 C23 56 23 56 21 54 C18.641 56.329 16.289 58.664 13.938 61 C13.281 61.648 12.624 62.297 11.947 62.965 C8.725 66.171 5.6 69.408 2.637 72.855 C-1.718 77.903 -6.414 82.598 -11.125 87.312 C-12.005 88.205 -12.886 89.098 -13.793 90.018 C-14.648 90.874 -15.502 91.731 -16.383 92.613 C-17.15 93.385 -17.917 94.156 -18.708 94.95 C-21.014 97.012 -23.308 98.49 -26 100 C-26.784 100.516 -27.567 101.031 -28.375 101.562 C-35.79 105.623 -42.107 105.194 -50.102 103.574 C-56.5 101.701 -61.037 97.219 -65 92 C-67.762 86.336 -68.788 80.244 -68 74 C-67.957 73.627 -67.957 73.627 -67.742 71.738 C-65.933 62.823 -59.231 57.15 -53 51 C-52.234 50.233 -51.469 49.466 -50.68 48.676 C-49.431 47.43 -48.179 46.187 -46.92 44.951 C-45.122 43.124 -43.448 41.245 -41.784 39.297 C-37.944 34.881 -33.89 30.711 -29.766 26.562 C-29.006 25.797 -28.246 25.031 -27.463 24.243 C-25.871 22.641 -24.278 21.041 -22.683 19.443 C-20.236 16.986 -17.8 14.518 -15.363 12.051 C-13.811 10.492 -12.257 8.933 -10.703 7.375 C-9.975 6.635 -9.247 5.894 -8.497 5.131 C-7.819 4.456 -7.141 3.781 -6.442 3.086 C-6.145 2.787 -6.145 2.787 -4.642 1.275 C-3 0 -3 0 0 0 Z " fill="#0D9BB2" transform="translate(735,1426)"/>
<path d="M0 0 C0.33 0.99 0.66 1.98 1 3 C1.844 3.271 2.689 3.541 3.559 3.82 C8.096 5.376 11.282 7.981 15.062 10.875 C29.284 21.425 44.329 30.012 61 36 C62.871 36.728 64.742 37.456 66.612 38.186 C102.527 52.023 140.649 60.017 179 63 C180.173 63.11 181.346 63.219 182.555 63.332 C186.702 63.666 190.842 63.867 195 64 C196.057 64.034 197.114 64.068 198.203 64.103 C218.605 64.652 238.448 63.139 258.698 60.724 C263.656 60.137 268.61 59.679 273.589 59.309 C300.654 57.242 356.61 49.39 377 29 C379 28.959 381 28.957 383 29 C383.672 30.762 383.672 30.762 384 33 C377.519 44.728 362.795 49.665 351.028 54.211 C349.228 54.911 347.439 55.641 345.652 56.375 C336.63 60.025 327.416 62.605 318 65 C317.611 65.103 317.611 65.103 315.64 65.625 C265.379 78.746 208.341 80.674 157 74 C154.402 73.683 151.805 73.366 149.207 73.051 C119.261 69.33 89.91 62.744 62 51 C60.864 50.531 59.729 50.062 58.559 49.578 C39.764 41.679 21.671 32.29 5.84 19.348 C4 18 4 18 1 17 C0.67 11.39 0.34 5.78 0 0 Z " fill="#49A89C" transform="translate(678,1068)"/>
<path d="M0 0 C5.648 2.204 10.396 5.096 15.438 8.438 C51.747 31.818 94.38 44.826 136.968 50.57 C140.644 51.091 144.31 51.671 147.977 52.254 C150.158 52.597 152.339 52.94 154.52 53.282 C155.933 53.506 157.346 53.732 158.759 53.96 C217.546 63.439 289.572 60.038 345 37 C357.235 32.385 357.235 32.385 364 33 C362.708 39.027 359.945 41.695 355 45 C338.576 54.735 320.053 58.719 301.532 62.471 C299.274 62.943 297.039 63.471 294.797 64.012 C288.757 65.363 282.611 66.054 276.473 66.805 C274.399 67.06 272.327 67.323 270.254 67.588 C268.885 67.758 267.517 67.928 266.148 68.098 C264.944 68.247 263.739 68.397 262.498 68.551 C251.304 69.757 240.095 70.163 228.844 70.203 C227.54 70.209 226.237 70.215 224.893 70.22 C222.147 70.231 219.401 70.237 216.655 70.24 C213.913 70.245 211.172 70.258 208.431 70.281 C159.908 70.679 105.601 65.487 61.038 44.913 C58.029 43.565 54.926 42.52 51.812 41.438 C36.702 35.941 22.408 28.193 8.801 19.68 C6 18 6 18 3 17 C2.67 18.32 2.34 19.64 2 21 C1.663 18.438 1.33 15.875 1 13.312 C0.905 12.591 0.809 11.87 0.711 11.127 C0.233 7.39 -0.119 3.777 0 0 Z " fill="#49A89C" transform="translate(696,1264)"/>
<path d="M0 0 C0.779 0.45 1.557 0.9 2.359 1.363 C5.49 3.163 8.629 4.948 11.771 6.729 C13.28 7.59 14.786 8.457 16.288 9.33 C50.266 29.075 88.767 37.22 127.508 41.708 C129.914 41.99 132.314 42.304 134.715 42.621 C181.736 48.382 235.55 44.035 280.145 27.859 C282.909 27.027 285.009 26.788 287.875 26.875 C288.656 26.893 289.437 26.911 290.242 26.93 C290.822 26.953 291.402 26.976 292 27 C292.438 29.125 292.438 29.125 292 32 C287.377 38.069 279.919 40.51 273 43 C272.081 43.338 271.162 43.675 270.215 44.023 C244.434 52.698 215.138 56.597 188 57 C186.813 57.02 185.626 57.041 184.403 57.062 C165.828 57.337 147.504 56.829 129 55 C128.186 54.925 127.372 54.85 126.534 54.773 C90.9 51.499 57.134 43.435 24.683 28.355 C23.499 27.808 22.314 27.26 21.094 26.695 C20.039 26.2 18.984 25.706 17.896 25.196 C15 24 15 24 12.209 23.539 C11.48 23.361 10.751 23.183 10 23 C8.562 19.688 8.562 19.688 7.887 17.531 C6.43 13.374 4.318 9.547 2.305 5.637 C1 3 1 3 0 0 Z " fill="#4AA99D" transform="translate(748,1459)"/>
<path d="M0 0 C0.66 0.33 1.32 0.66 2 1 C-7.24 10.24 -16.48 19.48 -26 29 C-26.66 28.67 -27.32 28.34 -28 28 C-19.35 18.565 -10.592 9.482 -1 1 C-0.67 0.67 -0.34 0.34 0 0 Z " fill="#3B9992" transform="translate(734,773)"/>
<path d="M0 0 C0.33 0.66 0.66 1.32 1 2 C-1.64 5.3 -4.28 8.6 -7 12 C-7.33 11.34 -7.66 10.68 -8 10 C-6.022 5.935 -3.263 3.086 0 0 Z " fill="#22A0B3" transform="translate(1059,717)"/>
<path d="M0 0 C-2.853 2.325 -5.541 3.751 -9 5 C-9 4.34 -9 3.68 -9 3 C-9.66 2.67 -10.32 2.34 -11 2 C-7.177 0.577 -4.087 -0.24 0 0 Z " fill="#3F9D95" transform="translate(904,699)"/>
</svg>
