<?xml version="1.0" encoding="UTF-8" standalone="no"?>
<svg
   width="1731"
   height="909"
   viewBox="0 0 1731 909"
   version="1.1"
   id="svg142"
   sodipodi:docname="image (5).svg"
   inkscape:version="1.4.3 (0d15f75, 2025-12-25)"
   xmlns:inkscape="http://www.inkscape.org/namespaces/inkscape"
   xmlns:sodipodi="http://sodipodi.sourceforge.net/DTD/sodipodi-0.dtd"
   xmlns="http://www.w3.org/2000/svg"
   xmlns:svg="http://www.w3.org/2000/svg">
  <sodipodi:namedview
     id="namedview142"
     pagecolor="#ffffff"
     bordercolor="#000000"
     borderopacity="0.25"
     inkscape:showpageshadow="2"
     inkscape:pageopacity="0.0"
     inkscape:pagecheckerboard="0"
     inkscape:deskcolor="#d1d1d1"
     inkscape:zoom="0.89658966"
     inkscape:cx="864.94417"
     inkscape:cy="454.5"
     inkscape:window-width="1920"
     inkscape:window-height="1017"
     inkscape:window-x="-8"
     inkscape:window-y="-8"
     inkscape:window-maximized="1"
     inkscape:current-layer="svg142" />
  <path
     fill="#001432"
     d="M0 0L1731 0L1731 498.302L1731 506.907L1731 644.112L1731 909L1717.16 909L1708.15 909L1369.45 909L1261.1 909L905.759 909L769.904 909L567.285 909L566.49 909L370.015 909C357.835 896.847 335.362 887.336 322.736 877.406C316.469 875.526 303.692 869.571 296.729 866.879C276.431 859.03 261.134 855.74 239.751 853.22C233.991 852.923 226.404 852.623 221.192 850.349C193.757 860.584 165.519 868.025 136.06 868.021C113.146 868.018 100.396 866.659 77.2716 870.005C51.9384 878.892 34.2946 886.198 18.2181 909L12.1362 909L0 909L0 504.407L0 0Z"
     id="path1" />
  <path
     fill="#02536B"
     d="M-2.40225e-14 504.407C27.7369 535.515 46.3581 573.676 53.8144 614.689C55.9309 626.436 56.0434 638.563 57.886 648.708L66.5172 658.043C70.2614 663.069 74.1731 668.217 77.7991 673.308C84.6698 685.042 90.9771 697.663 92.4222 711.469C106.808 709.234 118.93 704.35 134.74 703.065C118.344 655.153 146.623 577.817 197.569 562.358C200.588 561.442 204.085 561.287 206.807 560.324L207.624 560.027C221.038 569.01 245.792 592.834 262.558 580.579C264.65 588.847 264.844 591.703 264.316 600.549C271.397 607.998 307.273 645.719 298.492 654.6C296.042 655.497 295.695 655.417 293.13 654.85C289.276 651.72 285.626 646.096 282.553 641.943C274.445 630.984 266.453 625.667 254.684 619.575C250.117 620.246 248.538 620.554 244.002 620.095C246.323 625.729 247.892 629.44 249.437 635.327L250.824 639.989L250.914 642.546C252.733 652.208 252.305 660.259 249.84 669.753L248.927 673.002C247.923 681.864 245.355 690.478 241.343 698.442C247.897 698.33 253.625 697.245 254.736 705.618C259.349 707.167 279.923 707.302 286.974 708.378C313.269 712.393 341.32 722.498 365.087 734.594L369.233 737.839C345.375 753.781 333.321 768.053 313.149 788.167C303.547 797.225 293.598 805.907 283.325 814.196C262.943 829.389 244.657 840.329 221.192 850.349C193.757 860.584 165.519 868.025 136.06 868.021C113.146 868.018 100.396 866.659 77.2716 870.005C51.9384 878.892 34.2946 886.198 18.2181 909L12.1362 909L0 909L0 504.407L-2.40225e-14 504.407Z"
     id="path2" />
  <path
     fill="#2D8B90"
     d="M39.0566 884.403C56.4307 865.797 72.1493 849.053 91.3511 832.439C167.792 765.319 267.736 731.295 369.233 737.839C345.375 753.781 333.321 768.053 313.149 788.167C303.547 797.225 293.598 805.907 283.325 814.196C262.943 829.389 244.657 840.329 221.192 850.349C193.757 860.584 165.519 868.025 136.06 868.021C113.146 868.018 100.396 866.659 77.2716 870.005C63.8321 869.708 49.6641 876.573 39.0566 884.403Z"
     id="path3" />
  <path
     fill="#13798A"
     d="M149.182 807.028C160.998 805.383 196.018 810.56 205.899 816.681C202.43 817.101 188.47 813.901 184.456 813.084C157.494 809.077 148.235 810.433 121.697 814.48C133.007 807.244 135.496 807.939 149.182 807.028Z"
     id="path4" />
  <path
     fill="#13798A"
     d="M198.279 772.508C213.362 769.234 245.977 779.19 260.515 785.412C262.559 786.287 267.715 788.221 269.081 789.82L267.618 789.48C251.043 783.186 230.22 779.548 212.749 776.853C209.175 776.302 195.487 776.741 193.727 774.59L198.279 772.508Z"
     id="path5" />
  <path
     fill="#012A45"
     d="M-2.40225e-14 504.407C27.7369 535.515 46.3581 573.676 53.8144 614.689C55.9309 626.436 56.0434 638.563 57.886 648.708C52.1279 643.145 42.9079 634.924 35.9637 631.13C36.8772 635.579 43.3509 649.459 45.663 655.115C49.7049 665.226 53.4293 675.46 56.8307 685.804C56.4461 691.006 59.7567 712.322 60.8795 719.198C62.7408 730.597 63.0578 778.59 57.0793 786.227C53.6702 829.899 43.8546 846.223 24.5637 885.262C20.8809 892.715 15.5376 901.607 12.1362 909L0 909L0 504.407L-2.40225e-14 504.407Z"
     id="path6" />
  <path
     fill="#13798A"
     d="M57.0793 786.227C56.2067 782.909 54.3128 778.276 52.4985 775.54C29.5813 740.985 24.3525 696.805 30.0425 656.434C30.7626 651.325 32.485 634.915 35.9637 631.13C36.8772 635.579 43.3509 649.459 45.663 655.115C49.7049 665.226 53.4293 675.46 56.8307 685.804C56.4461 691.006 59.7567 712.322 60.8795 719.198C62.7408 730.597 63.0578 778.59 57.0793 786.227Z"
     id="path7" />
  <path
     fill="#62B7AF"
     d="M206.308 604.024C214.544 613.109 219.055 614.419 230.569 618.094L244.002 620.095C246.323 625.729 247.892 629.44 249.437 635.327L250.824 639.989L250.914 642.546C252.733 652.208 252.305 660.259 249.84 669.753L248.927 673.002C247.923 681.864 245.355 690.478 241.343 698.442L239.433 699.557L239.498 700.618C237.476 704.927 236.431 706.506 233.654 710.398C228.13 716.275 221.033 723.824 213.156 726.39L209.647 728.391L206.805 729.392C205.174 728.299 193.108 726.512 190.287 726.036L189.75 723.058C185.083 714.872 179.003 715.951 172.618 711.256C173.887 707.795 175.03 702.696 175.971 699.012C176.613 696.378 177.084 693.765 177.586 691.103L178.467 689.848C181.883 691.087 179.484 691.611 183.692 691.421L184.726 689.98C185.14 686.384 183.384 682.594 182.133 679.119C186.562 676.468 190.338 674.755 192.242 669.822L191.367 668.363C187.446 667.375 187.653 667.915 183.244 669.647C186.113 657.769 189.234 645.712 193.162 634.15C196.836 630.143 204.72 627.89 204.501 621.102C202.542 618.82 202.915 619.436 199.819 618.286C202.148 613.43 204.232 609 206.308 604.024Z"
     id="path8" />
  <path
     fill="#2D8B90"
     d="M248.927 673.002C247.105 672.498 240.854 675.83 237.118 676.754C231.314 678.169 225.355 678.851 219.382 678.786C213.788 678.752 199.705 675.38 195.951 671.571C198.338 671.367 205.633 674.394 208.569 675.07C223.191 678.433 236.925 676.92 249.84 669.753L248.927 673.002Z"
     id="path9" />
  <path
     fill="#2D8B90"
     d="M239.498 700.618C222.015 706.693 211.532 707.99 192.67 701.072C190.972 700.45 190.694 700.157 190.236 698.847C213.955 705.861 216.673 704.296 239.433 699.557L239.498 700.618Z"
     id="path10" />
  <path
     fill="#2D8B90"
     d="M250.824 639.989L250.914 642.546C249.259 643.398 247.575 644.194 245.866 644.931C229.766 651.727 216.429 647.245 201.472 641.187C218.966 643.518 233.536 652.271 250.824 639.989Z"
     id="path11" />
  <path
     fill="#2D8B90"
     d="M230.569 618.094L244.002 620.095C246.323 625.729 247.892 629.44 249.437 635.327C241.852 628.92 242.475 626.355 230.569 618.094Z"
     id="path12" />
  <path
     fill="#2D8B90"
     d="M189.75 723.058C195.783 726.243 206.208 726.291 213.156 726.39L209.647 728.391L206.805 729.392C205.174 728.299 193.108 726.512 190.287 726.036L189.75 723.058Z"
     id="path13" />
  <path
     fill="#2D8B90"
     d="M35.9637 631.13C42.9079 634.924 52.1279 643.145 57.886 648.708L66.5172 658.043C70.2614 663.069 74.1731 668.217 77.7991 673.308C84.6698 685.042 90.9771 697.663 92.4222 711.469L92.8233 714.187C94.2356 751.202 78.9993 767.116 64.0158 799.215C63.5701 795.388 66.5703 778.656 67.042 773.532C69.6997 744.658 69.1239 712.444 56.8307 685.804C53.4293 675.46 49.7049 665.226 45.663 655.115C43.3509 649.459 36.8772 635.579 35.9637 631.13Z"
     id="path14" />
  <path
     fill="#13798A"
     d="M173.05 675.072C169.222 664.092 166.244 652.849 172.454 641.96C178.774 630.878 192.029 627.183 199.819 618.286C202.915 619.436 202.542 618.82 204.501 621.102C204.72 627.89 196.836 630.143 193.162 634.15C189.234 645.712 186.113 657.769 183.244 669.647C187.653 667.915 187.446 667.375 191.367 668.363L192.242 669.822C190.338 674.755 186.562 676.468 182.133 679.119C183.384 682.594 185.14 686.384 184.726 689.98L183.692 691.421C179.484 691.611 181.883 691.087 178.467 689.848L177.586 691.103C177.084 693.765 176.613 696.378 175.971 699.012C175.03 702.696 173.887 707.795 172.618 711.256C179.003 715.951 185.083 714.872 189.75 723.058L190.287 726.036C189.852 727.188 189.407 728.723 188.703 729.604C187.296 728.802 183.721 729.473 181.142 729.313L177.7 733.667C174.692 733.171 171.062 732.299 168.023 731.66C167.393 731.466 166.069 730.687 165.42 730.336C165.107 727.731 167.805 723.515 169.116 720.441C162.84 718.3 161.23 729.365 155.183 730.766C152.591 729.494 153.401 730.31 152.146 727.692C152.436 724.57 158.92 718.989 161.516 716.419C153.757 695.738 153.221 687.287 173.05 675.072Z"
     id="path15" />
  <path
     fill="#02536B"
     d="M183.244 669.647C181.889 671.276 182.707 670.783 180.829 671.351C171.027 661.665 179.138 637.105 193.162 634.15C189.234 645.712 186.113 657.769 183.244 669.647Z"
     id="path16" />
  <path
     fill="#02536B"
     d="M172.618 711.256C170.62 711.296 169.656 711.305 167.68 711.031C158.811 701.514 166.798 683.701 174.647 682.937C175.597 685.39 174.704 686.271 173.788 689.333L177.586 691.103C177.084 693.765 176.613 696.378 175.971 699.012C175.03 702.696 173.887 707.795 172.618 711.256Z"
     id="path17" />
  <path
     fill="#13798A"
     d="M173.788 689.333L177.586 691.103C177.084 693.765 176.613 696.378 175.971 699.012C174.637 698.372 173.605 697.74 172.347 696.986C171.512 693.576 172.368 693.292 173.788 689.333Z"
     id="path18" />
  <path
     fill="#62B7AF"
     d="M169.116 720.441C172.494 722.506 180.384 726.179 181.142 729.313L177.7 733.667C174.692 733.171 171.062 732.299 168.023 731.66C167.393 731.466 166.069 730.687 165.42 730.336C165.107 727.731 167.805 723.515 169.116 720.441Z"
     id="path19" />
  <path
     fill="#012A45"
     d="M92.4222 711.469C106.808 709.234 118.93 704.35 134.74 703.065C137.601 711.513 142.194 722.126 147.813 729.121C135.905 735.621 126.98 740.915 116.061 749.249C115.498 749.073 114.807 748.858 113.987 748.602C109.156 740.011 101.988 717.83 92.8233 714.187L92.4222 711.469Z"
     id="path20" />
  <path
     fill="#003652"
     d="M92.8233 714.187C101.988 717.83 109.156 740.011 113.987 748.602C114.807 748.858 115.498 749.073 116.061 749.249C92.7137 768.167 75.8907 786.13 60.8308 812.953C61.5532 810.326 64.4685 801.113 64.0158 799.215C78.9993 767.116 94.2356 751.202 92.8233 714.187Z"
     id="path21" />
  <path
     fill="#00415B"
     d="M209.647 728.391C214.878 727.952 216.062 727.345 220.564 724.514C225.164 726.028 231.347 727.591 234.824 730.671C233.318 733.566 231.11 737.05 231.134 740.198L232.61 742.503C225.291 745.94 184.353 758.529 176.595 758.605L173.312 758.199L172.809 757.101C174.959 752.689 185.028 737.619 188.185 733.172L188.703 729.604C189.407 728.723 189.852 727.188 190.287 726.036C193.108 726.512 205.174 728.299 206.805 729.392L209.647 728.391Z"
     id="path22" />
  <path
     fill="#62B7AF"
     d="M190.287 726.036C193.108 726.512 205.174 728.299 206.805 729.392C200.331 731.856 195.116 732.691 188.185 733.172L188.703 729.604C189.407 728.723 189.852 727.188 190.287 726.036Z"
     id="path23" />
  <path
     fill="#13798A"
     d="M241.343 698.442C247.897 698.33 253.625 697.245 254.736 705.618C250.17 714.671 244.404 726.154 240.204 735.252C244.791 735.727 252.885 736.248 256.804 737.829C258.597 740.117 258.229 739.035 258.233 741.886C252.648 747.345 240.554 741.444 232.61 742.503L231.134 740.198C231.11 737.05 233.318 733.566 234.824 730.671C231.347 727.591 225.164 726.028 220.564 724.514C216.062 727.345 214.878 727.952 209.647 728.391L213.156 726.39C221.033 723.824 228.13 716.275 233.654 710.398C236.431 706.506 237.476 704.927 239.498 700.618L239.433 699.557L241.343 698.442Z"
     id="path24" />
  <path
     fill="#02536B"
     d="M233.654 710.398C237.407 709.514 242.04 708.557 245.649 707.403C242.702 714.344 238.679 724.274 234.824 730.671C231.347 727.591 225.164 726.028 220.564 724.514C216.062 727.345 214.878 727.952 209.647 728.391L213.156 726.39C221.033 723.824 228.13 716.275 233.654 710.398Z"
     id="path25" />
  <path
     fill="#00415B"
     d="M168.023 731.66C171.062 732.299 174.692 733.171 177.7 733.667C174.896 740.549 165.416 754.403 161.282 762.792C154.623 760.918 132.128 758.023 124.571 756.887C138.54 746.954 157.526 739.346 168.023 731.66Z"
     id="path26" />
  <path
     fill="#13798A"
     d="M181.142 729.313C183.721 729.473 187.296 728.802 188.703 729.604L188.185 733.172C185.028 737.619 174.959 752.689 172.809 757.101L173.312 758.199L176.595 758.605C181.91 759.398 186.423 759.566 190.122 763.789L189.794 765.172C183.478 768.948 167.567 765.825 161.282 762.792C165.416 754.403 174.896 740.549 177.7 733.667L181.142 729.313Z"
     id="path27" />
  <path
     fill="#F5BA55"
     d="M223.875 584.797C228.682 583.951 233.265 587.163 234.111 591.972C234.956 596.781 231.744 601.365 226.937 602.211C222.131 603.056 217.55 599.843 216.705 595.035C215.86 590.227 219.07 585.644 223.875 584.797Z"
     id="path28" />
  <path
     fill="#012A45"
     d="M365.087 734.594C371.132 734.983 385.084 738.61 387.575 738.59C396.556 745.835 399.878 746.993 411.675 746.569C411.689 750.015 411.557 759.289 412.048 762.241C414.457 762.531 414.852 762.721 417.083 761.988C419.353 759.233 418.298 752.967 418.053 749.059L418.225 748.278C424.792 751.268 459.44 762.453 465.495 761.904L467.746 761.956C470.158 764.516 468.707 766.372 471.211 768.47C472.76 766.792 472.272 767.189 472.642 764.435C482.508 767.469 492.523 769.996 502.648 772.005C524.771 767.598 542.584 760.912 565.62 759.847C571.563 758.468 591.272 759.813 598.372 760.187C598.064 773.189 601.223 781.75 612.055 789.072C611.944 791.956 611.364 795.92 612.863 798.135C614.215 798.55 614.676 798.774 616.102 798.92C614.204 783.528 619.629 791.411 626.752 776.168L633.826 775.742C634.844 784.712 635.91 791.909 644.149 797.302C644.856 801.048 644.32 803.436 646.119 805.709L648.064 805.933C667.344 810.274 795.834 838.457 809.006 847.174L755.069 852.221C747.836 852.911 734.364 854.834 727.773 854.831C685.116 860.734 597.196 869.812 570.074 905.048C569.098 906.332 568.168 907.65 567.285 909L566.49 909L370.015 909C357.835 896.847 335.362 887.336 322.736 877.406C316.469 875.526 303.692 869.571 296.729 866.879C276.431 859.03 261.134 855.74 239.751 853.22C233.991 852.923 226.404 852.623 221.192 850.349C244.657 840.329 262.943 829.389 283.325 814.196C293.598 805.907 303.547 797.225 313.149 788.167C333.321 768.053 345.375 753.781 369.233 737.839L365.087 734.594Z"
     id="path29" />
  <path
     fill="#003652"
     d="M365.087 734.594C371.132 734.983 385.084 738.61 387.575 738.59C396.556 745.835 399.878 746.993 411.675 746.569C411.689 750.015 411.557 759.289 412.048 762.241C414.457 762.531 414.852 762.721 417.083 761.988C419.353 759.233 418.298 752.967 418.053 749.059L418.225 748.278C424.792 751.268 459.44 762.453 465.495 761.904L467.746 761.956C470.158 764.516 468.707 766.372 471.211 768.47C472.76 766.792 472.272 767.189 472.642 764.435C482.508 767.469 492.523 769.996 502.648 772.005C524.771 767.598 542.584 760.912 565.62 759.847C571.563 758.468 591.272 759.813 598.372 760.187C598.064 773.189 601.223 781.75 612.055 789.072C611.944 791.956 611.364 795.92 612.863 798.135C614.215 798.55 614.676 798.774 616.102 798.92C614.204 783.528 619.629 791.411 626.752 776.168L633.826 775.742C634.844 784.712 635.91 791.909 644.149 797.302C644.856 801.048 644.32 803.436 646.119 805.709L648.064 805.933C667.344 810.274 795.834 838.457 809.006 847.174L755.069 852.221C747.836 852.911 734.364 854.834 727.773 854.831C724.473 852.782 701.344 848.815 696.209 847.947C617.797 834.698 541.349 811.014 463.808 794.462C445.787 790.505 427.57 787.495 409.234 785.443C385.929 782.977 362.44 782.772 339.096 784.832C330.238 785.672 321.92 787.371 313.149 788.167C333.321 768.053 345.375 753.781 369.233 737.839L365.087 734.594Z"
     id="path30" />
  <path
     fill="#00415B"
     d="M502.648 772.005C524.771 767.598 542.584 760.912 565.62 759.847C570.479 762.803 580.645 777.25 585.222 781.953C580.994 783.122 568.548 786.705 564.824 786.269C554.441 785.055 510.668 775.473 502.648 772.005Z"
     id="path31" />
  <path
     fill="#012A45"
     d="M626.752 776.168L633.826 775.742C634.844 784.712 635.91 791.909 644.149 797.302C643.959 800.214 644.409 802.751 642.78 804.372C633.906 803.589 623.075 799.533 616.102 798.92C614.204 783.528 619.629 791.411 626.752 776.168Z"
     id="path32" />
  <path
     fill="#003652"
     d="M283.325 814.196C284.286 814.72 285.421 815.224 286.52 815.21C305.849 814.97 325.182 814.687 344.461 816.876C409.543 824.264 469.963 851.077 526.107 883.704C535.348 889.074 558.463 902.431 566.49 909L370.015 909C357.835 896.847 335.362 887.336 322.736 877.406C316.469 875.526 303.692 869.571 296.729 866.879C276.431 859.03 261.134 855.74 239.751 853.22C233.991 852.923 226.404 852.623 221.192 850.349C244.657 840.329 262.943 829.389 283.325 814.196Z"
     id="path33" />
  <path
     fill="#02536B"
     d="M239.751 853.22C284.669 825.977 334.052 842.022 360.324 885.944L361.001 887.09C352.432 884.643 330.996 878.099 322.736 877.406C316.469 875.526 303.692 869.571 296.729 866.879C276.431 859.03 261.134 855.74 239.751 853.22Z"
     id="path34" />
  <path
     fill="#13798A"
     d="M416.099 846.709L418.672 847.849C421.172 850.544 421.751 853.934 422.704 857.488C421.59 862.852 421.252 864.601 418.603 869.379C417.722 869.194 416.932 868.653 416.109 868.201C411.157 861.107 411.376 853.831 416.099 846.709Z"
     id="path35" />
  <path
     fill="#13798A"
     d="M398.155 855.512C408.002 854.733 411.051 859.631 412.797 868.533C403.237 867.098 401.319 864.159 398.155 855.512Z"
     id="path36" />
  <path
     fill="#13798A"
     d="M428.635 863.42C432.189 863.07 433.68 862.703 436.181 864.659L436.221 866.457C434.755 869.201 432.98 870.116 430.411 871.876C427.597 871.599 424.365 871.654 422.737 869.285C423.54 866.739 426.408 865.08 428.635 863.42Z"
     id="path37" />
  <path
     fill="#F5BA55"
     d="M513.846 829.074C517.47 827.577 521.623 829.29 523.139 832.907C524.655 836.525 522.966 840.688 519.358 842.225C515.723 843.773 511.522 842.067 509.994 838.422C508.466 834.776 510.194 830.583 513.846 829.074Z"
     id="path38" />
  <defs
     id="defs39">
    <linearGradient
       id="gradient_0"
       gradientUnits="userSpaceOnUse"
       x1="1164.0582"
       y1="757.85504"
       x2="1174.5752"
       y2="911.54114">
      <stop
         offset="0"
         stop-color="#002542"
         id="stop38" />
      <stop
         offset="1"
         stop-color="#013C58"
         id="stop39" />
    </linearGradient>
  </defs>
  <path
     fill="url(#gradient_0)"
     d="M1335.17 747.517C1338.07 735.668 1341.06 724.606 1348.62 714.716C1355.86 726.786 1358.81 735.28 1362.05 749.013C1366.87 749.504 1386.71 752.733 1389.18 751.565C1396.25 757.402 1403.14 764.895 1409.33 771.699C1422.6 786.31 1435.99 800.431 1451.12 813.183C1462.95 822.317 1473.41 830.044 1486.06 838.12C1438.75 841.762 1395.65 869.875 1369.45 909L1261.1 909L905.759 909C912.805 903.804 926.295 896.138 934.316 891.954C1004.3 855.45 1086.09 842.024 1163.9 836.029L1163.65 825.03C1144.67 816.736 1141.67 804.768 1147.62 785.662C1156.75 759.839 1166.26 739.589 1181.62 777.117C1190.16 773.689 1200.63 771.03 1209.49 768.238C1231.61 761.269 1253.88 754.662 1276.92 751.56C1281.65 750.923 1287.86 750.087 1292.33 748.546C1295.05 749.129 1332.58 748.384 1335.17 747.517Z"
     id="path39" />
  <path
     fill="#00415B"
     d="M1451.12 813.183C1462.95 822.317 1473.41 830.044 1486.06 838.12C1438.75 841.762 1395.65 869.875 1369.45 909L1261.1 909C1273.52 893.529 1287.04 881.416 1302.51 869.207C1345.43 835.316 1385 823.636 1437.25 814.435C1441.21 814.34 1447.89 814.806 1451.12 813.183Z"
     id="path40" />
  <path
     fill="#012A45"
     d="M1362.05 749.013C1366.87 749.504 1386.71 752.733 1389.18 751.565C1396.25 757.402 1403.14 764.895 1409.33 771.699C1422.6 786.31 1435.99 800.431 1451.12 813.183C1447.89 814.806 1441.21 814.34 1437.25 814.435C1412.68 809.133 1376.55 811.865 1351.51 814.366L1351.52 813.987C1351.78 809.296 1351.44 805.841 1353.93 801.827C1367.09 791.335 1364.09 763.593 1362.05 749.013Z"
     id="path41" />
  <path
     fill="#095F73"
     d="M1147.62 785.662C1156.75 759.839 1166.26 739.589 1181.62 777.117C1186.08 788.846 1190.28 800.809 1184.91 813.103C1182.2 819.293 1175.45 823.556 1168.78 823.643C1162.08 825.53 1164.29 830.247 1165.03 836.532L1163.9 836.029L1163.65 825.03C1144.67 816.736 1141.67 804.768 1147.62 785.662Z"
     id="path42" />
  <path
     fill="#095F73"
     d="M1335.17 747.517C1338.07 735.668 1341.06 724.606 1348.62 714.716C1355.86 726.786 1358.81 735.28 1362.05 749.013C1364.09 763.593 1367.09 791.335 1353.93 801.827C1352.29 802.916 1352.09 803.196 1350.77 804.683C1350.38 807.501 1349.56 812.971 1347.47 814.989C1346.13 812.186 1346.4 808.073 1346.37 804.856C1328.25 791.592 1332.09 766.951 1335.17 747.517Z"
     id="path43" />
  <path
     fill="#13798A"
     d="M1165.03 836.532C1164.29 830.247 1162.08 825.53 1168.78 823.643C1169 827.382 1169.71 832.403 1168.3 835.705C1166.79 836.453 1166.78 836.584 1165.03 836.532Z"
     id="path44" />
  <path
     fill="#095F73"
     d="M1209.48 799.32C1224.04 761.991 1250.35 769.055 1237.43 806.087C1263.62 797.617 1257.15 816.014 1243.82 828.172C1240.58 828.883 1237.34 829.576 1234.1 830.252C1228.68 833.508 1215.29 834.375 1208.99 833.898C1207.98 833.893 1202.31 833.919 1201.87 833.489C1194.83 826.624 1190.29 804.41 1196.68 796.524C1197.73 795.208 1199.3 794.414 1200.98 794.351C1204.8 794.238 1206.75 796.72 1209.48 799.32Z"
     id="path45" />
  <path
     fill="#00415B"
     d="M1208.99 833.898C1212.67 831.166 1218.12 806.254 1222.81 800.146L1223.6 800.808L1213.79 832.95C1220.54 831.936 1227.32 831.037 1234.1 830.252C1228.68 833.508 1215.29 834.375 1208.99 833.898Z"
     id="path46" />
  <path
     fill="#095F73"
     d="M1320.23 768.264C1326.96 770.84 1328.76 783.73 1330.12 789.464C1333.46 803.592 1323.54 807.204 1322.89 818.147C1319.7 815.23 1321.53 813.264 1320.76 812.403C1309.08 799.373 1311.32 782.364 1320.23 768.264Z"
     id="path47" />
  <path
     fill="#13798A"
     d="M1160.2 856.021C1168.41 859.398 1166.03 872.021 1162.55 878.179C1154.58 872.801 1155.83 863.274 1160.2 856.021Z"
     id="path48" />
  <path
     fill="#095F73"
     d="M1262.3 842.803C1267.4 847.635 1266.23 857.622 1262.05 862.783C1256.81 854.384 1255.24 850.71 1262.3 842.803Z"
     id="path49" />
  <path
     fill="#13798A"
     d="M1174.75 863.83C1177.49 864.391 1176.59 863.832 1178.27 865.793C1178.39 870.758 1172.46 874.776 1168.42 876.633L1166.05 876.131L1165.5 874.405C1166.79 869.417 1170.53 866.359 1174.75 863.83Z"
     id="path50" />
  <path
     fill="#13798A"
     d="M1142.58 870.03C1150.96 868.965 1153.75 871.907 1157.79 878.696C1148.97 879.083 1145.44 879.271 1142.58 870.03Z"
     id="path51" />
  <path
     fill="#095F73"
     d="M1246.66 855.557C1251.05 856.223 1257.49 858.006 1257.52 863.343L1255.78 864.582C1251.27 864.993 1248.92 864.806 1246.04 860.835C1245.26 857.235 1245.05 858.631 1246.66 855.557Z"
     id="path52" />
  <path
     fill="#095F73"
     d="M1273.25 849.536C1274 849.588 1275.44 849.931 1276.24 850.093C1278.35 854.158 1272.31 858.518 1269.42 860.745L1266.74 860.536C1264.54 855.787 1269.57 851.798 1273.25 849.536Z"
     id="path53" />
  <path
     fill="#012A45"
     d="M1053.23 796.547L1053.03 796.203C1049.27 789.532 1045.1 780.461 1054.71 776.292C1058.77 774.529 1063.5 778.477 1067.37 780.205C1070.47 778.653 1070.41 756.776 1080.54 754.015C1091.57 753.652 1094.46 770.934 1095.79 778.733C1110.59 765.9 1120.46 774.849 1111.18 792.145C1119.25 790.531 1140.33 785.922 1147.62 785.662C1141.67 804.768 1144.67 816.736 1163.65 825.03L1163.9 836.029C1086.09 842.024 1004.3 855.45 934.316 891.954C926.295 896.138 912.805 903.804 905.759 909L769.904 909L567.285 909C568.168 907.65 569.098 906.332 570.074 905.048C597.196 869.812 685.116 860.734 727.773 854.831C734.364 854.834 747.836 852.911 755.069 852.221L809.006 847.174C795.834 838.457 667.344 810.274 648.064 805.933C648.045 793.654 656.539 793.319 658.88 781.659C659.744 777.357 659.424 771.821 659.324 767.386C678.677 769.163 711.627 777.002 731.947 780.304C747.062 782.76 776.138 786.829 789.476 790.131C793.06 789.919 795.687 789.765 799.262 789.949C804.43 789.862 812.738 790.864 818.423 791.158C832.665 791.995 846.931 792.345 861.197 792.205C870.47 792.089 879.714 791.99 888.882 790.522C890.945 790.192 892.988 789.66 895.074 790.015C896.243 790.703 898.515 791.254 899.863 791.238C937.306 790.797 974.733 794.82 1011.93 796.11C1025.69 796.555 1039.46 796.7 1053.23 796.547Z"
     id="path54" />
  <path
     fill="#095F73"
     d="M659.324 767.386C678.677 769.163 711.627 777.002 731.947 780.304C747.062 782.76 776.138 786.829 789.476 790.131C793.06 789.919 795.687 789.765 799.262 789.949L798.743 790.983C790.858 791.737 764.467 793.661 759.574 798.147L759.498 799.758C776.762 816.024 973.073 812.022 977.461 840.038C976.227 843.915 973.668 845.933 970.189 847.78C933.483 867.261 781.441 861.454 769.736 899.738C768.753 902.952 769.225 905.781 769.904 909L567.285 909C568.168 907.65 569.098 906.332 570.074 905.048C597.196 869.812 685.116 860.734 727.773 854.831C734.364 854.834 747.836 852.911 755.069 852.221L809.006 847.174C795.834 838.457 667.344 810.274 648.064 805.933C648.045 793.654 656.539 793.319 658.88 781.659C659.744 777.357 659.424 771.821 659.324 767.386Z"
     id="path55" />
  <path
     fill="#012A45"
     d="M659.324 767.386C678.677 769.163 711.627 777.002 731.947 780.304C747.062 782.76 776.138 786.829 789.476 790.131C779.247 790.773 724.897 791.404 725.585 803.077C739.894 821.412 897.161 818.453 912.251 831.966C910.824 840.179 820 847.627 809.006 847.174C795.834 838.457 667.344 810.274 648.064 805.933C648.045 793.654 656.539 793.319 658.88 781.659C659.744 777.357 659.424 771.821 659.324 767.386Z"
     id="path56" />
  <path
     fill="#00415B"
     d="M1028.15 810.56C1032.45 808.629 1037.51 810.478 1039.56 814.73C1041.6 818.982 1039.89 824.09 1035.69 826.25C1032.88 827.699 1029.5 827.505 1026.87 825.744C1024.24 823.983 1022.77 820.931 1023.04 817.775C1023.3 814.619 1025.26 811.857 1028.15 810.56Z"
     id="path57" />
  <path
     fill="#2D8B90"
     d="M1493.11 698.96C1496.28 701.504 1496.91 706.005 1500.51 710.788C1512.84 723.852 1527.48 734.069 1546.19 734.821L1546.56 734.782C1548.18 731.701 1550.61 732.041 1553.91 731.322C1554.64 732.344 1555.99 734.103 1556.53 735.155C1561.29 734.51 1566.48 733.155 1571.19 732.048C1568.75 728.329 1568.26 727.134 1566.68 722.932L1568.32 722.908C1571.49 726.062 1576.88 731.739 1580.44 733.964C1583.52 733.326 1584.81 733.31 1587.05 731.112C1599.3 738.517 1608.2 743.934 1619.34 753.228C1649.33 778.04 1672.25 809.185 1687.31 844.999C1697.1 868.279 1703.94 886.995 1717.16 909L1708.15 909L1369.45 909C1395.65 869.875 1438.75 841.762 1486.06 838.12C1473.41 830.044 1462.95 822.317 1451.12 813.183C1435.99 800.431 1422.6 786.31 1409.33 771.699C1403.14 764.895 1396.25 757.402 1389.18 751.565C1382.91 745.992 1377.64 741.976 1370.97 736.986L1371.52 735.867C1391.52 723.791 1429.32 712.082 1452.08 709.29C1460.89 708.209 1471.59 708.04 1480.64 707.426C1480 698.236 1486.42 699.049 1493.11 698.96Z"
     id="path58" />
  <path
     fill="#02536B"
     d="M1493.11 698.96C1496.28 701.504 1496.91 706.005 1500.51 710.788C1512.84 723.852 1527.48 734.069 1546.19 734.821L1546.56 734.782C1548.18 731.701 1550.61 732.041 1553.91 731.322C1554.64 732.344 1555.99 734.103 1556.53 735.155C1561.29 734.51 1566.48 733.155 1571.19 732.048C1568.75 728.329 1568.26 727.134 1566.68 722.932L1568.32 722.908C1571.49 726.062 1576.88 731.739 1580.44 733.964C1583.52 733.326 1584.81 733.31 1587.05 731.112C1599.3 738.517 1608.2 743.934 1619.34 753.228C1649.33 778.04 1672.25 809.185 1687.31 844.999C1697.1 868.279 1703.94 886.995 1717.16 909L1708.15 909C1705.18 905.159 1700.36 900.623 1696.89 896.928L1696.72 895.313C1691.55 887.295 1684.06 880.199 1677.71 873.174C1609.92 798.21 1515.17 744.298 1413.16 737.797C1400.57 736.995 1383.66 735.153 1370.97 736.986L1371.52 735.867C1391.52 723.791 1429.32 712.082 1452.08 709.29C1460.89 708.209 1471.59 708.04 1480.64 707.426C1480 698.236 1486.42 699.049 1493.11 698.96Z"
     id="path59" />
  <defs
     id="defs60">
    <linearGradient
       id="gradient_1"
       gradientUnits="userSpaceOnUse"
       x1="1528.7949"
       y1="762.34015"
       x2="1522.3765"
       y2="705.95941">
      <stop
         offset="0"
         stop-color="#013752"
         id="stop59" />
      <stop
         offset="1"
         stop-color="#035A74"
         id="stop60" />
    </linearGradient>
  </defs>
  <path
     fill="url(#gradient_1)"
     d="M1489.21 707.595C1493.18 708.508 1496.64 709.592 1500.51 710.788C1512.84 723.852 1527.48 734.069 1546.19 734.821L1546.56 734.782C1548.84 738.668 1560.99 757.492 1561.66 759.654C1559.05 760.715 1557.07 760.931 1554.32 761.381C1546.48 757.463 1505.79 746.015 1503.51 743.266C1503.81 739.098 1491.91 714.739 1489.21 707.595Z"
     id="path60" />
  <path
     fill="#00415B"
     d="M1556.53 735.155C1561.29 734.51 1566.48 733.155 1571.19 732.048C1572.91 737.254 1577.77 738.548 1582.25 741.283C1591.27 746.78 1602.53 752.374 1609.78 760.188C1597.25 762.137 1583.98 762.546 1572.37 764.412C1569.12 756.12 1561.01 743.755 1556.53 735.155Z"
     id="path61" />
  <path
     fill="#13798A"
     d="M1493.11 698.96C1496.28 701.504 1496.91 706.005 1500.51 710.788C1496.64 709.592 1493.18 708.508 1489.21 707.595C1491.91 714.739 1503.81 739.098 1503.51 743.266C1497.09 743.522 1481.28 747.164 1477.33 744.911C1475.86 741.908 1475.96 743.09 1476.42 740.241C1480.16 736.594 1489.42 737.021 1494.72 736.795L1480.64 707.426C1480 698.236 1486.42 699.049 1493.11 698.96Z"
     id="path62" />
  <path
     fill="#13798A"
     d="M1553.91 731.322C1554.64 732.344 1555.99 734.103 1556.53 735.155C1561.01 743.755 1569.12 756.12 1572.37 764.412C1567.6 768.688 1549.75 771.714 1544.18 767.487C1543.33 762.676 1550.91 761.942 1554.32 761.381C1557.07 760.931 1559.05 760.715 1561.66 759.654C1560.99 757.492 1548.84 738.668 1546.56 734.782C1548.18 731.701 1550.61 732.041 1553.91 731.322Z"
     id="path63" />
  <path
     fill="#012A45"
     d="M1486.06 838.12C1514.48 853.864 1536.61 862.939 1569.09 869.112C1611.83 877.234 1661.04 865.852 1696.89 896.928C1700.36 900.623 1705.18 905.159 1708.15 909L1369.45 909C1395.65 869.875 1438.75 841.762 1486.06 838.12Z"
     id="path64" />
  <path
     fill="#02536B"
     d="M1531.67 561.084C1531.81 561.152 1531.94 561.219 1532.07 561.286C1592.64 574.209 1621.08 662.786 1596.57 715.101C1595.14 718.14 1592.53 723.259 1590.52 725.66C1589.43 727.381 1588.19 729.474 1587.05 731.112C1584.81 733.31 1583.52 733.326 1580.44 733.964C1576.88 731.739 1571.49 726.062 1568.32 722.908L1566.68 722.932C1568.26 727.134 1568.75 728.329 1571.19 732.048C1566.48 733.155 1561.29 734.51 1556.53 735.155C1555.99 734.103 1554.64 732.344 1553.91 731.322C1550.61 732.041 1548.18 731.701 1546.56 734.782L1546.19 734.821C1527.48 734.069 1512.84 723.852 1500.51 710.788C1496.91 706.005 1496.28 701.504 1493.11 698.96C1489.77 690.487 1487.43 684.439 1486.22 675.412L1485.56 670.31C1482.79 661.408 1483.65 651.27 1485.21 642.199L1485.28 640.737L1487.48 633.615C1488.44 629.894 1490.17 625.743 1491.56 622.107C1489.18 620.063 1484.8 620.616 1481.02 620.447C1470.39 626.445 1461.1 632.428 1453.23 641.991C1448.69 647.514 1444.7 658.25 1436.45 656.98C1428.5 645.162 1464.18 609.655 1472.63 601.201C1472.44 592.811 1473.35 588.759 1475.47 580.917C1497.73 592.872 1513.25 571.241 1531.67 561.084Z"
     id="path65" />
  <path
     fill="#62B7AF"
     d="M1503.74 618.792C1515.39 616.303 1522.76 612.997 1530.74 604.134C1532.83 610.293 1534.16 613.231 1537.11 619.052L1537.71 619.682C1545.88 628.031 1557.27 632.434 1563.28 643.093C1569.62 654.338 1566.54 665.079 1562.27 676.411C1567.74 679.966 1571.77 682.39 1575.83 687.7L1578.07 693.137C1575.83 694.827 1573.82 696.474 1570.83 695.451C1570.53 701.24 1570.6 707.925 1567.73 712.951C1565.96 713.721 1564.35 714.024 1562.53 712.698C1557.17 720.011 1543.42 714.681 1544.31 727.958C1544.34 728.428 1545.87 733.243 1546.19 734.821C1527.48 734.069 1512.84 723.852 1500.51 710.788C1496.91 706.005 1496.28 701.504 1493.11 698.96C1489.77 690.487 1487.43 684.439 1486.22 675.412L1485.56 670.31C1482.79 661.408 1483.65 651.27 1485.21 642.199L1485.28 640.737L1487.48 633.615C1488.44 629.894 1490.17 625.743 1491.56 622.107L1492.3 620.714C1494.78 619.343 1500.64 619.104 1503.74 618.792Z"
     id="path66" />
  <path
     fill="#13798A"
     d="M1537.11 619.052L1537.71 619.682C1545.88 628.031 1557.27 632.434 1563.28 643.093C1569.62 654.338 1566.54 665.079 1562.27 676.411C1567.74 679.966 1571.77 682.39 1575.83 687.7L1578.07 693.137C1575.83 694.827 1573.82 696.474 1570.83 695.451C1570.53 701.24 1570.6 707.925 1567.73 712.951C1565.96 713.721 1564.35 714.024 1562.53 712.698L1559.1 699.941C1558.37 696.498 1558.03 694.569 1556.65 691.344C1555.72 692.178 1554.99 693.287 1554.25 694.305C1551.88 694.183 1552.57 694.157 1550.31 692.327C1548.91 688.648 1551.39 684.199 1552.88 679.551C1548.49 677.338 1544.17 675.849 1543.72 670.287L1545.1 668.933C1548.07 668.248 1550.25 669.833 1553.02 671.266C1549.84 662.746 1546 645.14 1542.89 634.896C1539.66 630.458 1532.14 628.384 1532.15 621.916C1534.13 619.476 1533.7 620.163 1537.11 619.052Z"
     id="path67" />
  <path
     fill="#02536B"
     d="M1542.89 634.896C1556.7 638.573 1563.9 661.133 1554.89 671.654C1554.15 671.561 1553.57 671.6 1553.02 671.266C1549.84 662.746 1546 645.14 1542.89 634.896Z"
     id="path68" />
  <path
     fill="#02536B"
     d="M1559.1 699.941L1562.39 699.087L1563.32 697.218C1563.33 692.697 1560.13 686.147 1558.34 681.617C1562.17 684.481 1564.46 686.866 1567.8 690.211L1570.83 695.451C1570.53 701.24 1570.6 707.925 1567.73 712.951C1565.96 713.721 1564.35 714.024 1562.53 712.698L1559.1 699.941Z"
     id="path69" />
  <path
     fill="#2D8B90"
     d="M1567.8 690.211C1570.08 688.736 1573.15 688.269 1575.83 687.7L1578.07 693.137C1575.83 694.827 1573.82 696.474 1570.83 695.451L1567.8 690.211Z"
     id="path70" />
  <path
     fill="#2D8B90"
     d="M1485.56 670.31L1486.26 670.788C1496.62 677.765 1513.44 679.923 1525.13 676.653C1527.46 675.999 1535.65 674.504 1537.68 674.71C1518.41 682.014 1507.89 682.575 1488.34 673.801L1487.27 673.315C1486.42 674.514 1486.54 674.062 1486.22 675.412L1485.56 670.31Z"
     id="path71" />
  <path
     fill="#2D8B90"
     d="M1485.28 640.737L1485.96 641.237C1503.08 653.521 1528.58 642.05 1530.55 643.067C1528.79 645.387 1516.84 648.238 1513.95 648.504C1501.87 649.612 1495.04 648.85 1485.21 642.199L1485.28 640.737Z"
     id="path72" />
  <path
     fill="#2D8B90"
     d="M1491.56 622.107L1492.3 620.714C1494.78 619.343 1500.64 619.104 1503.74 618.792C1496.64 624.234 1493.74 627.318 1487.48 633.615C1488.44 629.894 1490.17 625.743 1491.56 622.107Z"
     id="path73" />
  <path
     fill="#13798A"
     d="M1578.07 693.137C1578.47 704.735 1577.59 709.198 1572.09 719.57L1582 727.839C1582.84 731.16 1582.59 730.157 1580.44 733.964C1576.88 731.739 1571.49 726.062 1568.32 722.908L1566.68 722.932C1568.26 727.134 1568.75 728.329 1571.19 732.048C1566.48 733.155 1561.29 734.51 1556.53 735.155C1555.99 734.103 1554.64 732.344 1553.91 731.322C1550.61 732.041 1548.18 731.701 1546.56 734.782L1546.19 734.821C1545.87 733.243 1544.34 728.428 1544.31 727.958C1543.42 714.681 1557.17 720.011 1562.53 712.698C1564.35 714.024 1565.96 713.721 1567.73 712.951C1570.6 707.925 1570.53 701.24 1570.83 695.451C1573.82 696.474 1575.83 694.827 1578.07 693.137Z"
     id="path74" />
  <path
     fill="#62B7AF"
     d="M1553.91 731.322L1553.22 729.864L1553.75 728.429C1556.5 726.392 1563.27 723.296 1566.68 722.932C1568.26 727.134 1568.75 728.329 1571.19 732.048C1566.48 733.155 1561.29 734.51 1556.53 735.155C1555.99 734.103 1554.64 732.344 1553.91 731.322Z"
     id="path75" />
  <path
     fill="#095F73"
     d="M1582 727.839C1585.73 724.692 1586.24 724.74 1590.52 725.66C1589.43 727.381 1588.19 729.474 1587.05 731.112C1584.81 733.31 1583.52 733.326 1580.44 733.964C1582.59 730.157 1582.84 731.16 1582 727.839Z"
     id="path76" />
  <path
     fill="#F5BA55"
     d="M1509.75 585.673C1514.3 584.463 1519 587.049 1520.42 591.544C1521.83 596.038 1519.47 600.852 1515.04 602.472C1512 603.589 1508.58 602.94 1506.16 600.783C1503.73 598.627 1502.69 595.312 1503.44 592.154C1504.19 588.996 1506.61 586.506 1509.75 585.673Z"
     id="path77" />
  <path
     fill="#00415B"
     d="M1731 644.112L1731 909L1717.16 909C1703.94 886.995 1697.1 868.279 1687.31 844.999C1672.25 809.185 1649.33 778.04 1619.34 753.228C1624.98 744.029 1628.51 727.942 1635.47 718.155C1638.4 714.025 1648.48 701.031 1648.43 697.8L1649.3 698.462C1651.8 697.401 1656.3 691.73 1658.38 689.381C1658.24 685.593 1657.52 673.398 1658.95 670.75C1658.99 676.458 1659.06 682.165 1659.17 687.872C1680.15 665.872 1702.27 653.002 1731 644.112Z"
     id="path78" />
  <path
     fill="#2D8B90"
     d="M1687.29 713.475L1688.24 714.226C1690.49 722.179 1683.75 757.561 1681.35 767.089C1677.8 781.192 1672.32 789.819 1672.62 804.948L1667.57 795.015C1650.06 760.612 1659.01 736.931 1687.29 713.475Z"
     id="path79" />
  <path
     fill="#003652"
     d="M895.074 790.015C926.165 784.455 952.089 778.573 982.275 768.912C1054.94 745.659 1117.6 716.049 1196.13 726.004C1231.43 730.479 1257.95 738.796 1292.33 748.546C1287.86 750.087 1281.65 750.923 1276.92 751.56C1253.88 754.662 1231.61 761.269 1209.49 768.238C1200.63 771.03 1190.16 773.689 1181.62 777.117C1166.26 739.589 1156.75 759.839 1147.62 785.662C1140.33 785.922 1119.25 790.531 1111.18 792.145C1120.46 774.849 1110.59 765.9 1095.79 778.733C1094.46 770.934 1091.57 753.652 1080.54 754.015C1070.41 756.776 1070.47 778.653 1067.37 780.205C1063.5 778.477 1058.77 774.529 1054.71 776.292C1045.1 780.461 1049.27 789.532 1053.03 796.203L1053.23 796.547C1039.46 796.7 1025.69 796.555 1011.93 796.11C974.733 794.82 937.306 790.797 899.863 791.238C898.515 791.254 896.243 790.703 895.074 790.015Z"
     id="path80" />
  <path
     fill="#001432"
     d="M1665.54 591.774C1677.23 554.391 1697.26 519.469 1731 498.302L1731 506.907L1731 644.112C1702.27 653.002 1680.15 665.872 1659.17 687.872C1659.06 682.165 1658.99 676.458 1658.95 670.75C1659.33 648.572 1663.48 628.501 1669.06 607.196C1667.3 602.727 1665.25 596.565 1665.54 591.774Z"
     id="path81" />
  <path
     fill="#13798A"
     d="M1665.54 591.774C1677.23 554.391 1697.26 519.469 1731 498.302L1731 506.907C1697.52 531.529 1680.86 568.273 1669.06 607.196C1667.3 602.727 1665.25 596.565 1665.54 591.774Z"
     id="path82" />
  <path
     fill="#2D8B90"
     d="M1646.28 554.304C1627.19 542.509 1609.6 544.635 1591.21 528.573C1569.33 509.913 1558.54 480.095 1556.35 452.05C1555.99 447.535 1555.03 438.709 1557.99 435.215C1562.36 433.896 1566.05 434.152 1570.51 434.961C1634.67 446.603 1664.8 490.053 1654.72 553.387C1652.99 550.872 1650.35 544.934 1648.92 541.951C1646.45 544.129 1646.45 543.501 1642.59 544.046C1643.65 546.76 1645.75 551.638 1646.28 554.304Z"
     id="path83" />
  <path
     fill="#00415B"
     d="M1594.81 474.516C1616.38 488.604 1633.92 513.675 1645.99 535.978C1643.95 536.11 1640.86 536.104 1639.09 536.882C1626.13 510.26 1611.88 496.836 1594.81 474.516Z"
     id="path84" />
  <path
     fill="#00415B"
     d="M1645.99 535.978L1648.92 541.951C1646.45 544.129 1646.45 543.501 1642.59 544.046L1639.09 536.882C1640.86 536.104 1643.95 536.11 1645.99 535.978Z"
     id="path85" />
  <path
     fill="#13798A"
     d="M99.377 280.499C108.137 251.951 116.484 227.075 144.98 211.546C162.204 202.16 190.576 198.269 210.244 201.728C210.966 201.855 212.08 202.647 212.656 203.177C214.703 208.747 207.768 226.597 204.977 232.353C194.42 254.13 180.959 272.254 158.134 281.574C140.424 288.806 120.261 282.947 106.66 286.985C98.3621 289.509 77.6081 319.483 70.5876 326.598C73.7415 316.854 79.8511 305.462 84.2768 296.033C85.6953 295.935 84.9698 295.821 86.4002 296.811C84.672 299.466 76.3824 314.051 76.7065 316.59C79.0471 313.768 100.248 289.18 100.362 288.554L98.5149 288.076C94.6621 289.1 91.3908 291.813 88.115 294.153C90.3441 290.354 96.0728 284.903 99.377 280.499Z"
     id="path86" />
  <path
     fill="#00415B"
     d="M99.377 280.499C101.766 279.783 105.19 276.271 107.091 274.435C126.356 255.837 147.352 240.76 172.653 231C157.47 242.598 114.473 271.059 106.216 286.09L106.66 286.985C98.3621 289.509 77.6081 319.483 70.5876 326.598C73.7415 316.854 79.8511 305.462 84.2768 296.033C85.6953 295.935 84.9698 295.821 86.4002 296.811C84.672 299.466 76.3824 314.051 76.7065 316.59C79.0471 313.768 100.248 289.18 100.362 288.554L98.5149 288.076C94.6621 289.1 91.3908 291.813 88.115 294.153C90.3441 290.354 96.0728 284.903 99.377 280.499Z"
     id="path87" />
  <path
     fill="#02536B"
     d="M396.508 676.778C395.723 672.312 394.499 662.78 397.346 658.883C399.523 656.184 403.781 654.549 405.921 651.913C408.885 648.264 407.831 636.476 413.887 636.107C421.439 635.647 420.596 645.346 422.215 649.97C422.606 651.085 428.298 655.378 429.263 656.536C433.872 660.463 434.223 661.66 433.938 667.776C433.791 670.897 433.476 674.009 432.993 677.096C443.325 684.932 446.048 694.989 440.315 706.769C454.898 723.708 447.607 738.518 428.178 745.608C424.735 746.864 420.485 746.073 418.225 748.278L418.053 749.059C418.298 752.967 419.353 759.233 417.083 761.988C414.852 762.721 414.457 762.531 412.048 762.241C411.557 759.289 411.689 750.015 411.675 746.569C399.878 746.993 396.556 745.835 387.575 738.59C373.546 717.916 385.549 720.001 387.615 706.818C389.953 691.893 378.929 693.395 396.508 676.778Z"
     id="path88" />
  <path
     fill="#095F73"
     d="M412.048 762.241C412.503 757.486 410.721 750.577 414.22 747.179C416.32 747.41 416.524 747.582 418.053 749.059C418.298 752.967 419.353 759.233 417.083 761.988C414.852 762.721 414.457 762.531 412.048 762.241Z"
     id="path89" />
  <defs
     id="defs90">
    <linearGradient
       id="gradient_2"
       gradientUnits="userSpaceOnUse"
       x1="25.820608"
       y1="459.32104"
       x2="184.55795"
       y2="428.82407">
      <stop
         offset="0"
         stop-color="#035E75"
         id="stop89" />
      <stop
         offset="1"
         stop-color="#0D8296"
         id="stop90" />
    </linearGradient>
  </defs>
  <path
     fill="url(#gradient_2)"
     d="M38.8603 477.975C43.824 434.896 56.9013 389.698 91.5098 360.736C113.046 342.714 150.594 336.897 169.687 361.605C185.132 381.522 175.681 417.401 146.206 413.992C133.331 412.503 122.024 396.437 135.079 386.03C138.317 383.45 143.445 383.892 145.038 388.623L144.288 390.494C141.048 391.492 138.655 390.616 136.967 393.866C131.118 405.128 149.199 410.316 156.803 406.723C169.692 400.633 173.285 383.739 167.716 371.46C164.35 364.19 156.18 356.785 148.576 354.686C101.371 341.651 68.4741 391.525 56.6231 429.984C47.6453 459.119 43.5528 488.284 47.5089 518.322C48.7731 526.382 54.1369 540.994 56.2907 549.447C53.6689 550.619 51.1995 545.956 44.2814 545.387C28.6667 501.131 23.8179 453.79 30.1366 407.286C35.5887 412.03 35.4702 416.235 38.5974 419.54C36.4424 441.645 36.9827 455.979 38.8603 477.975Z"
     id="path90" />
  <path
     fill="#095F73"
     d="M1643.04 107.521C1655.32 140.028 1645.34 162.063 1646.57 194.709C1647.31 214.329 1654.49 234.171 1662.04 252.065C1664.91 257.592 1667.14 262.843 1671.41 267.408C1675.97 280.114 1681.94 292.21 1687.15 304.658C1711.96 363.922 1703.85 427.277 1689.12 487.741C1688.45 490.475 1687.93 493.32 1687.11 496.013C1684.56 498.745 1678.87 505.488 1676.09 506.816L1674.73 506.446C1677.51 494.79 1680.07 477.914 1681.58 465.986L1682.42 468.24L1683.21 468.158C1688.21 458.481 1689.49 436.728 1689.79 425.572C1692.95 421.365 1693.17 402.821 1693.49 396.975C1695.68 356.978 1685.78 318.524 1668.24 282.805C1656.87 259.649 1645.44 235.952 1641.3 210.293C1634.53 171.421 1650.63 147.915 1637.33 108.975C1638.51 108.479 1641.63 107.849 1643.04 107.521Z"
     id="path91" />
  <path
     fill="#02536B"
     d="M44.2814 545.387C51.1995 545.956 53.6689 550.619 56.2907 549.447C61.4316 563.554 70.5495 593.966 72.562 608.296C78.6811 589.426 88.0653 576.34 105.933 566.737C110.866 597.669 107.387 621.275 89.4068 647.183C83.0075 656.405 78.7387 662.146 77.7991 673.308C74.1731 668.217 70.2614 663.069 66.5172 658.043C72.4556 632.275 51.1037 571.101 44.2814 545.387Z"
     id="path92" />
  <path
     fill="#13798A"
     d="M1681.58 465.986C1686.02 414.455 1672.57 357.362 1638.94 315.486C1621.03 293.188 1582.02 266.528 1551.58 286.578C1547.53 289.247 1543.09 298.481 1542.77 303.619C1542.39 309.935 1544.51 316.147 1548.68 320.906C1557.38 330.684 1573.88 328.852 1573.82 316.814C1571.85 312.333 1565.96 311.141 1565.58 307.716C1572.6 302.555 1578.77 308.777 1579.61 315.828C1580.85 326.331 1571.49 332.965 1561.97 333.685C1547.29 334.794 1536.73 319.968 1536.18 306.54C1535.43 284.99 1552.44 272.526 1572.63 271.848C1595.92 270.929 1617.7 282.539 1634.34 298.219C1663.14 325.351 1680.51 364.315 1687.22 402.917C1688.53 410.428 1689.54 417.964 1689.79 425.572C1689.49 436.728 1688.21 458.481 1683.21 468.158L1682.42 468.24L1681.58 465.986Z"
     id="path93" />
  <path
     fill="#2D8B90"
     d="M85.3075 218.157C77.9618 212.701 68.0107 209.754 60.0964 203.135C46.8459 192.473 40.5632 175.088 39.0394 158.583C38.6514 154.38 37.544 150.208 40.3119 146.813C40.9967 146.682 42.284 146.529 42.9291 146.692C78.4701 155.634 96.9456 179.131 92.6563 215.733L92.5903 216.921C96.1524 216.903 100.313 216.743 103.782 217.278L101.656 225.97C100.074 232.94 98.562 237.72 96.2805 244.52C94.7478 251.253 92.2948 260.505 87.6596 265.668C89.4355 252.799 91.2968 230.051 85.3075 218.157Z"
     id="path94" />
  <path
     fill="#02536B"
     d="M85.3075 218.157C85.3048 206.374 69.8653 183.845 63.4285 173.912C72.6245 183.107 79.1911 191.29 85.1005 203.074C87.0825 207.027 89.46 213.419 91.5569 216.881L92.6563 215.733L92.5903 216.921C96.1524 216.903 100.313 216.743 103.782 217.278L101.656 225.97C100.074 232.94 98.562 237.72 96.2805 244.52C94.7478 251.253 92.2948 260.505 87.6596 265.668C89.4355 252.799 91.2968 230.051 85.3075 218.157Z"
     id="path95" />
  <path
     fill="#001432"
     d="M92.5903 216.921C96.1524 216.903 100.313 216.743 103.782 217.278L101.656 225.97C100.074 232.94 98.562 237.72 96.2805 244.52C95.6134 241.33 92.3117 218.985 92.5903 216.921Z"
     id="path96" />
  <path
     fill="#2D8B90"
     d="M1664.34 225.116C1655.28 189.696 1667.2 162.461 1702.54 149.375C1704.4 148.688 1704.64 149.178 1706.05 150.13C1709.92 158.407 1706.73 181.658 1703.39 191.184C1695.78 212.896 1681.73 214.396 1670.35 225.466C1667.2 240.753 1667.98 252.333 1671.41 267.408C1667.14 262.843 1664.91 257.592 1662.04 252.065C1662.86 242.491 1663.17 234.988 1664.34 225.116Z"
     id="path97" />
  <path
     fill="#02536B"
     d="M1664.34 225.116C1670.52 207.287 1674.57 189.795 1688.67 175.444C1683.6 186.043 1669.48 213.744 1670.35 225.466C1667.2 240.753 1667.98 252.333 1671.41 267.408C1667.14 262.843 1664.91 257.592 1662.04 252.065C1662.86 242.491 1663.17 234.988 1664.34 225.116Z"
     id="path98" />
  <path
     fill="#02536B"
     d="M1674.73 506.446L1676.09 506.816C1678.87 505.488 1684.56 498.745 1687.11 496.013C1684.23 510.055 1664.1 584.426 1665.54 591.774C1665.25 596.565 1667.3 602.727 1669.06 607.196C1663.48 628.501 1659.33 648.572 1658.95 670.75C1657.52 673.398 1658.24 685.593 1658.38 689.381C1656.3 691.73 1651.8 697.401 1649.3 698.462L1648.43 697.8C1647.29 683.939 1647.27 670.692 1648.59 656.856C1648.98 652.753 1649.73 645.956 1649.38 641.971C1651.36 635.904 1651.74 626.081 1651.08 619.66C1652.55 616.861 1655.18 591.16 1655.05 587.334C1654.75 578.802 1650.58 561.441 1646.28 554.304C1645.75 551.638 1643.65 546.76 1642.59 544.046C1646.45 543.501 1646.45 544.129 1648.92 541.951C1650.35 544.934 1652.99 550.872 1654.72 553.387C1656.21 559.329 1658.25 565.309 1660.13 571.155C1661.39 558.462 1670.89 520.032 1674.73 506.446Z"
     id="path99" />
  <path
     fill="#02536B"
     d="M613.842 702.841C626.456 719.456 630.151 742.137 629.846 762.526C631.007 762.583 634.107 762.818 635.095 762.751C634.656 766.797 633.979 771.746 633.826 775.742L626.752 776.168C619.629 791.411 614.204 783.528 616.102 798.92C614.676 798.774 614.215 798.55 612.863 798.135C611.364 795.92 611.944 791.956 612.055 789.072C601.223 781.75 598.064 773.189 598.372 760.187C598.376 741.34 602.21 718.199 613.842 702.841Z"
     id="path100" />
  <path
     fill="#003652"
     d="M629.846 762.526C631.007 762.583 634.107 762.818 635.095 762.751C634.656 766.797 633.979 771.746 633.826 775.742L626.752 776.168C628.665 770.404 629.083 768.552 629.846 762.526Z"
     id="path101" />
  <path
     fill="#02536B"
     d="M122.855 107.147C138.63 70.9439 174.3 32.3705 218.697 50.5806C247.723 62.4861 250.207 108.391 219.511 119.823C203.281 126.428 182.361 110.69 190.767 92.8536C192.94 87.9635 198.836 85.7634 203.731 87.7916C206.123 90.2989 205.608 89.1324 206.111 92.1833L204.837 93.6054C202.682 93.5503 198.914 93.1504 197.493 94.7731C188.285 105.287 202.264 114.535 212.01 114.51C217.789 114.495 222.287 111.853 226.045 108.201C231.952 102.545 235.299 94.7233 235.314 86.5425C235.294 65.3973 215.222 50.9866 195.27 52.3812C161.324 54.7538 142.142 82.0413 128.787 109.877C127.214 109.294 124.479 107.905 122.855 107.147Z"
     id="path102" />
  <path
     fill="#02536B"
     d="M635.095 762.751C638.137 752.141 639.86 745.307 647.589 736.918C654.929 747.072 657.487 755.05 659.324 767.386C659.424 771.821 659.744 777.357 658.88 781.659C656.539 793.319 648.045 793.654 648.064 805.933L646.119 805.709C644.32 803.436 644.856 801.048 644.149 797.302C635.91 791.909 634.844 784.712 633.826 775.742C633.979 771.746 634.656 766.797 635.095 762.751Z"
     id="path103" />
  <path
     fill="#02536B"
     d="M1637.33 108.975C1636.81 107.451 1636.26 105.939 1635.67 104.442C1627.58 84.051 1606.04 59.9283 1581.95 70.3247C1576.26 72.757 1571.79 77.375 1569.54 83.1396C1562.7 101.104 1586.15 110.873 1589.67 98.0804C1588.86 94.9627 1588.61 94.8917 1585.63 92.5331L1584.99 92.0255L1585.13 89.9983L1586.41 89.0258C1596.59 88.8422 1598.96 103.016 1588.2 107.264C1578.96 110.913 1568.47 108.146 1565.33 98.0974C1556.38 69.4 1586.42 54.6149 1609.97 66.6144C1627.24 75.4813 1637.03 90.4411 1643.04 107.521C1641.63 107.849 1638.51 108.479 1637.33 108.975Z"
     id="path104" />
  <path
     fill="#095F73"
     d="M101.656 225.97C103.932 227.935 106.09 228.374 108.959 229.268C103.642 250.149 94.3689 276.837 84.2768 296.033C79.8511 305.462 73.7415 316.854 70.5876 326.598L69.0912 329.123C67.8956 325.006 66.8362 320.543 64.6888 316.871C73.2841 300.399 82.0693 283.423 87.6596 265.668C92.2948 260.505 94.7478 251.253 96.2805 244.52C98.562 237.72 100.074 232.94 101.656 225.97Z"
     id="path105" />
  <path
     fill="#2D8B90"
     d="M1506.97 557.575C1516.66 556.881 1522.52 556.738 1531.67 561.084C1513.25 571.241 1497.73 592.872 1475.47 580.917C1477.76 575.153 1480.79 571.862 1484.83 567.408C1486.44 569.211 1487.73 570.284 1490.03 569.341C1490.16 566.684 1489.8 567.073 1488 564.553C1493.21 561.359 1495.56 560.582 1501.17 558.769C1501.61 562.973 1501.24 565.028 1504.89 567.415C1508.75 564.76 1505.15 560.985 1506.97 557.575Z"
     id="path106" />
  <path
     fill="#2D8B90"
     d="M207.624 560.027C219.136 555.933 223.738 555.682 235.832 557.177C234.711 559.959 233.37 562.284 234.135 565.118L235.215 566.009C237.523 564.887 237.769 564.54 238.762 561.699C239.141 560.593 239.504 559.482 239.85 558.366C244.83 560.525 246.622 561.244 251.058 564.618C250.687 566.398 250.188 567.256 249.223 568.792L249.467 569.807L250.716 569.348L249.718 568.849C252.169 569.037 251.315 569.059 253.85 567.028C257.886 571.546 260.229 574.839 262.558 580.579C245.792 592.834 221.038 569.01 207.624 560.027Z"
     id="path107" />
  <path
     fill="#00415B"
     d="M465.495 761.904C462.545 759.295 459.688 756.251 459.672 752.028C459.572 726.395 477.718 714.63 482.195 747.734C484.128 762.03 474.246 759.256 472.642 764.435C472.272 767.189 472.76 766.792 471.211 768.47C468.707 766.372 470.158 764.516 467.746 761.956L465.495 761.904Z"
     id="path108" />
  <path
     fill="#13798A"
     d="M113.806 135.944C115.674 137.569 118.625 139.811 119.661 141.861C114.867 174.585 117.854 194.211 108.959 229.268C106.09 228.374 103.932 227.935 101.656 225.97L103.782 217.278C110.38 192.094 109.414 162.615 113.806 135.944Z"
     id="path109" />
  <path
     fill="#095F73"
     d="M46.0743 354.387C48.6227 356.866 51.1384 359.379 53.6207 361.925C45.8763 383.064 41.5303 396.958 38.5974 419.54C35.4702 416.235 35.5887 412.03 30.1366 407.286C32.9599 389.455 38.9847 370.888 46.0743 354.387Z"
     id="path110" />
  <path
     fill="#095F73"
     d="M1622.7 592.164C1636.9 597.745 1646.42 604.425 1651.08 619.66C1651.74 626.081 1651.36 635.904 1649.38 641.971C1645.36 630.882 1638.32 624.38 1632.02 614.701C1627.09 607.125 1625.2 600.722 1622.7 592.164Z"
     id="path111" />
  <path
     fill="#13798A"
     d="M64.6888 316.871C66.8362 320.543 67.8956 325.006 69.0912 329.123C63.61 340.013 58.1936 350.603 53.6207 361.925C51.1384 359.379 48.6227 356.866 46.0743 354.387C51.3063 342.002 58.3863 328.728 64.6888 316.871Z"
     id="path112" />
  <path
     fill="#13798A"
     d="M1494.72 543.647C1489.74 541.597 1478.71 536.83 1483.41 530.022C1497.54 526.259 1499.43 553.812 1506.97 557.575C1505.15 560.985 1508.75 564.76 1504.89 567.415C1501.24 565.028 1501.61 562.973 1501.17 558.769C1499.85 552.896 1497.54 548.83 1494.72 543.647Z"
     id="path113" />
  <path
     fill="#13798A"
     d="M235.832 557.177C238.295 550.719 247.623 531.467 254.668 528.162C256.687 527.214 257.743 528.18 259.351 529.062C260.791 531.695 260.556 530.502 260.139 533.587C256.977 539.46 240.487 544.194 239.85 558.366C239.504 559.482 239.141 560.593 238.762 561.699C237.769 564.54 237.523 564.887 235.215 566.009L234.135 565.118C233.37 562.284 234.711 559.959 235.832 557.177Z"
     id="path114" />
  <path
     fill="#13798A"
     d="M1484.83 567.408C1478.07 555.422 1458.68 561.51 1453.31 556.658C1452.27 552.782 1452.05 552.13 1455.19 550.116C1465.21 549.044 1479.91 558.841 1488 564.553C1489.8 567.073 1490.16 566.684 1490.03 569.341C1487.73 570.284 1486.44 569.211 1484.83 567.408Z"
     id="path115" />
  <path
     fill="#095F73"
     d="M122.855 107.147C124.479 107.905 127.214 109.294 128.787 109.877C125.049 120.171 121.611 131.073 119.661 141.861C118.625 139.811 115.674 137.569 113.806 135.944C116.471 124.604 118.227 117.764 122.855 107.147Z"
     id="path116" />
  <defs
     id="defs117">
    <linearGradient
       id="gradient_3"
       gradientUnits="userSpaceOnUse"
       x1="261.565"
       y1="570.55096"
       x2="276.65018"
       y2="547.1308">
      <stop
         offset="0"
         stop-color="#01707F"
         id="stop116" />
      <stop
         offset="1"
         stop-color="#09859B"
         id="stop117" />
    </linearGradient>
  </defs>
  <path
     fill="url(#gradient_3)"
     d="M251.058 564.618C258.588 559.425 276.712 545.805 285.635 552.081L286.514 554.145C283.509 560.674 274.357 559.526 268.446 558.051C262.327 560.768 258.902 562.297 253.85 567.028C251.315 569.059 252.169 569.037 249.718 568.849L250.716 569.348L249.467 569.807L249.223 568.792C250.188 567.256 250.687 566.398 251.058 564.618Z"
     id="path117" />
  <path
     fill="#012A45"
     d="M102.645 472.67C105.993 471.696 115.408 474.242 118.362 476.157C119.369 480.486 128.204 484.032 124.721 488.978C123.235 486.02 121.92 480.405 118.175 480.508C123.223 493.808 115.752 494.855 105.304 495.704C111.04 496.096 108.263 498.378 115.756 496.164C117.421 494.257 118.506 493.096 120.352 491.336L121.554 491.605L122.172 494.396C123.105 493.497 124.006 492.686 124.97 491.828C126.252 499.521 113.939 504.457 107.263 503.176C91.0473 500.064 89.5439 481.523 102.645 472.67Z"
     id="path118" />
  <path
     fill="#F5BA55"
     d="M107.158 479.854C109.784 478.655 112.863 479.045 115.108 480.861C117.352 482.678 118.377 485.608 117.754 488.428C117.131 491.249 114.968 493.474 112.167 494.175C108.349 495.131 104.431 493.018 103.131 489.301C101.831 485.584 103.577 481.488 107.158 479.854Z"
     id="path119" />
  <path
     fill="#012A45"
     d="M1604.2 387.202C1606.29 387.694 1608.9 387.564 1611.1 387.571C1625.31 395.628 1626.66 406.98 1611.25 414.628C1609.5 414.697 1604.78 414.993 1603.36 414.266C1591.85 408.395 1590.99 391.568 1604.2 387.202Z"
     id="path120" />
  <path
     fill="#F5BA55"
     d="M1605.62 394.5C1608.9 392.882 1612.88 394.25 1614.47 397.548C1616.07 400.845 1614.67 404.811 1611.36 406.383C1608.09 407.939 1604.17 406.56 1602.59 403.295C1601.02 400.03 1602.37 396.102 1605.62 394.5Z"
     id="path121" />
  <path
     fill="#012A45"
     d="M1252.06 660.537C1261.08 657.116 1275.29 672.009 1258.25 681.953C1243.14 682.583 1238.69 668.463 1252.06 660.537Z"
     id="path124" />
  <path
     fill="#F5BA55"
     d="M1253.8 666.769C1255.42 666.09 1257.27 666.343 1258.64 667.429C1260.01 668.515 1260.68 670.262 1260.39 671.988C1260.1 673.714 1258.9 675.145 1257.25 675.722C1254.8 676.576 1252.12 675.333 1251.19 672.915C1250.26 670.496 1251.42 667.775 1253.8 666.769Z"
     id="path125" />
  <path
     fill="#012A45"
     d="M532.502 709.542C533.258 709.586 534.013 709.645 534.767 709.719C546.939 710.935 550.284 720.791 539.257 729.305C534.465 729.334 530.849 729.036 527.778 724.769C526.29 722.663 525.754 720.028 526.298 717.507C527.125 713.511 529.372 711.747 532.502 709.542Z"
     id="path127" />
  <path
     fill="#F5BA55"
     d="M535.438 715.799C537.496 715.174 539.678 716.298 540.364 718.337C541.051 720.376 539.994 722.592 537.977 723.34C536.618 723.844 535.092 723.568 533.994 722.62C532.897 721.672 532.402 720.202 532.702 718.783C533.003 717.364 534.051 716.221 535.438 715.799Z"
     id="path128" />
  <path
     fill="#012A45"
     d="M1666.66 48.0448C1672.64 49.4538 1683.36 53.5318 1681.92 61.4526C1678.61 68.0673 1673.11 66.0429 1666.51 66.5344C1661.15 61.7994 1664.55 60.7196 1662.34 55.5146C1661.06 58.0571 1660.12 59.9347 1658.56 62.3369L1657.7 60.9615C1657.28 55.5559 1662.01 50.1739 1666.66 48.0448Z"
     id="path129" />
  <path
     fill="#F5BA55"
     d="M1668.8 54.6155C1671.54 54.2633 1674.06 56.1296 1674.53 58.8487C1675 61.5677 1673.25 64.1743 1670.55 64.761C1668.7 65.1637 1666.78 64.5187 1665.55 63.0813C1664.32 61.6439 1663.97 59.6458 1664.65 57.8779C1665.33 56.11 1666.92 54.8573 1668.8 54.6155Z"
     id="path130" />
  <path
     fill="#F5BA55"
     d="M1555.25 163.559C1558.97 162.06 1563.22 163.793 1564.83 167.474C1566.45 171.154 1564.85 175.453 1561.23 177.186C1558.78 178.357 1555.88 178.1 1553.68 176.515C1551.47 174.931 1550.31 172.271 1550.63 169.574C1550.96 166.877 1552.73 164.572 1555.25 163.559Z"
     id="path136" />
  <path
     fill="#F5BA55"
     d="M78.6652 74.0049C80.8589 72.9535 83.4506 73.1789 85.43 74.5933C87.4095 76.0076 88.4633 78.3871 88.1808 80.8041C87.8984 83.2212 86.3242 85.2932 84.0721 86.2126C80.7295 87.5771 76.9083 86.0363 75.4458 82.7343C73.9834 79.4322 75.4095 75.5653 78.6652 74.0049Z"
     id="path137" />
  <path
     fill="#F5BA55"
     d="M92.3289 58.7287C93.9637 57.8304 96.0137 58.3339 97.0467 59.8875C98.0797 61.4411 97.7516 63.5273 96.2917 64.6884C95.2307 65.5323 93.7852 65.7065 92.5543 65.1388C91.3234 64.5711 90.517 63.3583 90.4693 62.0031C90.4217 60.648 91.1409 59.3815 92.3289 58.7287Z"
     id="path141" />
  <path
     fill="#012A45"
     d="M77.2716 870.005C100.396 866.659 113.146 868.018 136.06 868.021C165.519 868.025 193.757 860.584 221.192 850.349C226.404 852.623 233.991 852.923 239.751 853.22C261.134 855.74 276.431 859.03 296.729 866.879C303.692 869.571 316.469 875.526 322.736 877.406C335.362 887.336 357.835 896.847 370.015 909L18.2181 909C34.2946 886.198 51.9384 878.892 77.2716 870.005Z"
     id="path142" />
</svg>
